<svg width="320" height="241" viewBox="0 0 320 241" fill="none" xmlns="http://www.w3.org/2000/svg">
<path d="M18.9412 176.722C12.8681 176.722 5.78557 177.181 0 177.639L0.45991 182.873V225.183H40.5514V192.902C40.5514 178.007 38.9904 176.722 18.9412 176.722ZM33.8483 219.676H7.16287V182.689C12.592 182.229 16.8248 182.137 19.6774 182.137C26.4868 182.137 30.4436 182.413 33.3882 182.873C33.6643 185.173 33.8483 187.934 33.8483 192.258V219.676Z" fill="white"/>
<path d="M57.1368 204.711H63.9318V183.924C63.9318 177.955 62.0953 177.037 55.9411 177.037C53.9175 177.037 51.7101 177.037 49.6865 177.129L50.2384 182.544H57.1368V204.711Z" fill="white"/>
<path d="M104.044 177.225H76.5417L75.5283 162.969L69.5342 163.704L70.2711 177.133L71.1935 182.548H98.4327V182.732L73.4279 238.812L81.3305 237.49L104.872 182.365L104.044 177.225Z" fill="white"/>
<path d="M118.517 225.222H125.221V183.924C125.221 177.955 123.384 177.037 117.23 177.037C115.115 177.037 113.366 177.037 111.251 177.129L111.527 182.544H118.517V225.222Z" fill="white"/>
<path d="M167.957 177.225H140.455L139.441 162.969L133.447 163.704L134.184 177.133L135.107 182.548H162.346V182.732L137.93 237.49H145.244L168.785 182.365L167.957 177.225Z" fill="white"/>
<path d="M199.189 176.716C194.68 176.716 188.883 176.992 182.994 177.175L182.259 173.129L176.107 173.681C176.382 177.45 176.75 181.581 177.117 184.248L181.432 218.923C181.708 220.763 181.891 222.694 182.351 224.81C185.847 225.362 189.987 225.545 193.208 225.545C211.059 225.545 219.51 213.598 219.51 192.712C219.51 178.369 216.938 176.716 199.189 176.716ZM193.575 219.947C192.012 219.947 189.711 219.855 187.963 219.67L183.73 182.684C188.791 182.408 194.035 182.223 199.557 182.223C205.077 182.223 209.126 182.408 212.162 183.051C212.53 185.536 212.715 188.848 212.715 192.068C212.715 211.298 206.918 219.947 193.575 219.947Z" fill="white"/>
<path d="M255.198 177.037C248.484 177.037 242.873 178.964 236.526 182.82L234.595 177.037L228.34 177.404L231.652 187.145L227.513 225.222H234.411L238.09 187.421C243.885 183.925 249.587 182.452 253.911 182.452C256.946 182.452 259.797 182.82 261.085 183.925C261.453 185.765 261.729 188.709 261.729 192.573V219.715H246.46L246.276 225.222H268.432V191.653C268.432 180.433 264.851 177.037 255.198 177.037Z" fill="white"/>
<path d="M297.685 176.722C291.703 176.722 285.084 176.997 279.388 177.456L279.848 182.781C285.727 182.413 293.176 182.137 298.605 182.137C303.298 182.137 307.807 182.321 311.396 182.873C311.764 184.989 311.764 187.656 311.764 189.863V225.183H318.467V190.231C318.467 178.649 315.988 176.722 297.685 176.722ZM281.135 211.202V225.183H287.838V197.221C285.909 197.221 283.89 197.313 281.962 197.498C281.411 202.832 281.135 207.523 281.135 211.202Z" fill="white"/>
<path d="M320 234.08H0V240.168H320V234.08Z" fill="white"/>
<path d="M320 160.008H0V166.096H320V160.008Z" fill="white"/>
<path d="M0.0283885 163.041C0.0094881 162.03 0 161.016 0 160C0 71.6339 71.6348 0 160 0C248.365 0 320 71.6342 320 160C320 161.016 319.99 162.03 319.971 163.041H287.98C287.993 162.03 287.999 161.016 287.999 160C287.999 75.8375 244.163 7.99964 159.999 7.99964C75.8377 7.99964 31.9999 75.837 31.9999 160C31.9999 161.016 32.0063 162.03 32.0193 163.041H0.0280849H0.0283885Z" fill="white"/>
<path d="M85.0308 163.011L91.4008 149.837L55.3096 75.1868H127.492L159.974 7.9707L192.456 75.1868H264.638L228.547 149.837L234.917 163.011H167.083C171.757 144.992 180.078 135.991 188.842 132.662C199.897 128.463 212.521 146.201 207.079 160.488C218.237 154.909 219.217 126.582 199.359 117.351C189.297 114.101 178.293 118.476 170.875 124.377C171.835 118.765 172.826 113.136 173.84 107.622C177.416 88.1568 165.423 64.432 159.974 60.1855C154.525 64.432 142.533 88.1568 146.108 107.622C147.121 113.136 148.113 118.765 149.073 124.377C141.654 118.476 130.651 114.101 120.589 117.351C100.729 126.582 101.712 154.909 112.87 160.488C107.427 146.201 120.05 128.463 131.107 132.662C139.871 135.991 148.192 144.992 152.866 163.011H85.0308Z" fill="white"/>
</svg>
