<svg width="1920" height="619" viewBox="0 0 1920 619" fill="none" xmlns="http://www.w3.org/2000/svg">
<path fill-rule="evenodd" clip-rule="evenodd" d="M226.517 252.656H207.281V254.849H204.264V280.486H202.604V290.771C202.604 290.771 203.811 291.452 204.264 291.603V294.628H202.604V304.233H204.264V308.241H202.604V318.299H203.283V321.551H202.604V331.382H203.283V334.71H202.604V344.919H203.283V348.625H201.85V358.381H203.283V362.464H201.85V371.464H203.283V375.245H201.85V385.303H203.283V389.085H201.85V398.765H202.604V402.395H201.85V411.999H203.283V415.932H201.85V425.536H202.604V428.94H201.096V439.135H201.85V442.855H201.096V451.93H201.85V456.089H201.096V464.937H202.604V469.475H201.096V479.004H202.604V482.483H201.096V492.012H201.85V496.095H201.096V522.489C201.096 522.489 200.191 524.001 199.813 532.245C199.436 540.488 198.491 606.123 198.491 606.123L341.315 608.94C341.315 608.94 347.457 270.178 345.375 257.968L344.23 256.82V254.849H309.565C309.565 254.849 293.742 207.561 285.935 197.646V157.153C285.935 157.153 285.206 155.901 284.789 157.153C284.373 158.406 284.789 197.646 284.789 197.646H283.54C283.54 197.646 281.146 215.179 280.105 233.338C280.001 233.443 268.342 162.789 267.717 157.153V113.843C267.717 113.843 266.052 112.173 265.739 113.843C265.427 115.513 265.739 157.153 265.739 157.153C265.739 157.153 237.403 207.106 226.517 252.656L226.517 252.656Z" fill="#C14DC3"/>
<path fill-rule="evenodd" clip-rule="evenodd" d="M1263.05 565.174L1255.17 582.074V610.636C1255.17 610.636 1259.53 616.889 1261.04 619.424C1262.55 621.959 1259.53 625.339 1255.17 624.325C1250.82 623.311 1244.29 621.959 1244.29 621.959V615.706C1244.29 615.706 1243.78 618.748 1235.74 619.424C1227.7 620.1 1226.86 622.635 1224.35 619.424C1221.84 616.213 1227.36 612.157 1229.21 610.636C1229.04 605.228 1226.86 582.074 1226.86 582.074L1247.3 548.612V545.231C1247.3 545.231 1248.31 544.386 1244.29 543.034C1240.26 541.682 1240.6 541.006 1247.3 539.823C1249.65 535.091 1249.31 529.345 1249.31 529.345L1244.29 524.444V500.783C1244.29 500.783 1240.77 500.783 1241.27 498.248C1241.77 495.713 1242.61 495.544 1244.29 493.009C1245.96 490.474 1243.78 477.63 1244.29 474.588C1244.79 471.546 1241.27 419.999 1241.27 419.999C1241.27 419.999 1240.77 348.511 1241.27 344.962C1241.77 341.413 1240.93 241.152 1241.27 226.321C1241.27 226.321 1243.62 223.996 1244.29 228.221C1244.96 232.446 1255.17 311.878 1255.17 311.878L1268.74 406.013C1268.74 406.013 1272.43 409.055 1273.6 412.604C1273.6 412.604 1276.79 414.463 1280.64 414.97C1280.64 421.054 1283.15 467.192 1283.15 467.192C1283.15 467.192 1287.67 474.798 1287.34 480.713C1287 486.628 1287.34 493.009 1287.34 493.009H1292.2V529.345H1278.96V536.653C1278.96 536.653 1288.85 538.599 1289.35 539.823C1289.85 541.047 1289.35 548.611 1289.35 548.611V565.174L1297.56 579.6V607.804L1302.75 619.424V624.325H1292.2L1283.15 615.706C1283.15 615.706 1284.32 619.552 1280.64 619.424C1276.95 619.296 1268.74 619.424 1268.74 619.424C1268.74 619.424 1270.75 612.367 1270.75 607.804C1270.75 603.241 1268.58 574.51 1268.74 571.637C1268.91 568.764 1263.05 565.174 1263.05 565.174V565.174ZM1247.47 571.637L1239.59 584.65V603.917L1244.45 608.48L1247.47 601.389V584.65L1250.32 571.637C1250.32 571.637 1249.65 569.778 1247.47 571.637ZM1278.63 595.805V584.65H1284.49V599.523C1284.49 599.523 1281.31 605.607 1278.63 595.805ZM1248.32 361.134H1255.74L1261.33 407.512H1255.74L1250.32 414.233L1248.32 361.134V361.134ZM1244.96 323.297L1248.32 357.936H1254.82L1251.68 323.297H1244.96ZM1244.96 315.025V273.506H1247.63L1251.68 315.025H1244.96Z" fill="#C14DC3"/>
<path fill-rule="evenodd" clip-rule="evenodd" d="M1200.17 565.174L1192.17 582.074V610.636C1192.17 610.636 1196.6 616.889 1198.13 619.424C1199.66 621.959 1196.6 625.339 1192.17 624.325C1187.75 623.311 1181.12 621.959 1181.12 621.959V615.706C1181.12 615.706 1180.61 618.748 1172.45 619.424C1164.28 620.1 1163.43 622.635 1160.88 619.424C1158.33 616.213 1163.94 612.157 1165.81 610.636C1165.64 605.228 1163.43 582.074 1163.43 582.074L1184.18 548.612V545.231C1184.18 545.231 1185.2 544.386 1181.12 543.034C1177.04 541.682 1177.38 541.006 1184.18 539.823C1186.56 535.091 1186.22 529.345 1186.22 529.345L1181.12 524.444V500.783C1181.12 500.783 1177.55 500.783 1178.06 498.248C1178.57 495.713 1179.42 495.544 1181.12 493.009C1182.82 490.474 1180.61 477.63 1181.12 474.588C1181.63 471.546 1178.06 419.999 1178.06 419.999C1178.06 419.999 1177.55 348.511 1178.06 344.962C1178.57 341.413 1177.72 241.152 1178.06 226.321C1178.06 226.321 1180.44 223.996 1181.12 228.221C1181.8 232.446 1192.17 311.878 1192.17 311.878L1205.95 406.013C1205.95 406.013 1209.69 409.055 1210.88 412.604C1210.88 412.604 1214.11 414.463 1218.02 414.97C1218.02 421.054 1220.58 467.192 1220.58 467.192C1220.58 467.192 1225.17 474.798 1224.83 480.713C1224.49 486.628 1224.83 493.009 1224.83 493.009H1229.76V529.345H1216.32V536.653C1216.32 536.653 1226.36 538.599 1226.87 539.823C1227.38 541.047 1226.87 548.611 1226.87 548.611V565.174L1235.2 579.6V607.804L1240.47 619.424V624.325H1229.76L1220.58 615.706C1220.58 615.706 1221.77 619.552 1218.02 619.424C1214.28 619.296 1205.95 619.424 1205.95 619.424C1205.95 619.424 1207.99 612.367 1207.99 607.804C1207.99 603.241 1205.78 574.51 1205.95 571.637C1206.12 568.764 1200.17 565.174 1200.17 565.174V565.174ZM1184.35 571.637L1176.36 584.65V603.917L1181.29 608.48L1184.35 601.389V584.65L1187.24 571.637C1187.24 571.637 1186.56 569.778 1184.35 571.637ZM1215.98 595.805V584.65H1221.94V599.523C1221.94 599.523 1218.7 605.607 1215.98 595.805ZM1185.21 361.134H1192.75L1198.42 407.512H1192.75L1187.24 414.233L1185.21 361.134V361.134ZM1181.8 323.297L1185.21 357.936H1191.82L1188.63 323.297H1181.8ZM1181.8 315.025V273.506H1184.51L1188.63 315.025H1181.8Z" fill="#C14DC3"/>
<path fill-rule="evenodd" clip-rule="evenodd" d="M794.897 551.571L792.252 557.199V566.712C792.252 566.712 793.715 568.795 794.222 569.639C794.729 570.483 793.715 571.609 792.252 571.271C790.788 570.934 788.593 570.483 788.593 570.483V568.401C788.593 568.401 788.424 569.414 785.723 569.639C783.021 569.864 782.739 570.708 781.895 569.639C781.051 568.569 782.908 567.219 783.527 566.712C783.471 564.911 782.739 557.199 782.739 557.199L789.606 546.054V544.929C789.606 544.929 789.944 544.647 788.593 544.197C787.242 543.747 787.355 543.521 789.606 543.127C790.394 541.551 790.282 539.638 790.282 539.638L788.593 538.005V530.125C788.593 530.125 787.411 530.125 787.58 529.281C787.749 528.436 788.03 528.38 788.593 527.536C789.156 526.691 788.424 522.414 788.593 521.4C788.762 520.387 787.58 503.219 787.58 503.219C787.58 503.219 787.411 479.41 787.58 478.228C787.749 477.046 787.468 443.653 787.58 438.714C787.58 438.714 788.368 437.939 788.593 439.347C788.818 440.754 792.252 467.209 792.252 467.209L796.811 498.561C796.811 498.561 798.05 499.574 798.444 500.757C798.444 500.757 799.513 501.376 800.808 501.545C800.808 503.571 801.652 518.938 801.652 518.938C801.652 518.938 803.172 521.47 803.059 523.441C802.947 525.411 803.059 527.536 803.059 527.536H804.691V539.638H800.245V542.072C800.245 542.072 803.566 542.72 803.735 543.128C803.903 543.535 803.735 546.055 803.735 546.055V551.571L806.493 556.376V565.769L808.238 569.639V571.271H804.691L801.652 568.401C801.652 568.401 802.046 569.682 800.808 569.639C799.569 569.596 796.811 569.639 796.811 569.639C796.811 569.639 797.487 567.289 797.487 565.769C797.487 564.249 796.755 554.68 796.811 553.723C796.868 552.766 794.897 551.571 794.897 551.571V551.571ZM789.663 553.723L787.017 558.057V564.474L788.65 565.994L789.663 563.632V558.057L790.62 553.723C790.62 553.723 790.394 553.104 789.663 553.723ZM800.132 561.772V558.057H802.102V563.011C802.102 563.011 801.033 565.037 800.132 561.772ZM789.948 483.614H792.441L794.32 499.06H792.441L790.62 501.299L789.948 483.614ZM788.818 471.012L789.948 482.549H792.134L791.078 471.012H788.818ZM788.818 468.257V454.429H789.716L791.078 468.257H788.818Z" fill="#C14DC3"/>
<path fill-rule="evenodd" clip-rule="evenodd" d="M841.531 558.16L838.886 563.789V573.301C838.886 573.301 840.349 575.384 840.856 576.228C841.362 577.073 840.349 578.198 838.886 577.861C837.422 577.523 835.227 577.073 835.227 577.073V574.99C835.227 574.99 835.058 576.003 832.356 576.228C829.655 576.453 829.373 577.298 828.529 576.228C827.684 575.159 829.542 573.808 830.161 573.301C830.105 571.5 829.373 563.789 829.373 563.789L836.24 552.644V551.518C836.24 551.518 836.578 551.237 835.227 550.786C833.876 550.336 833.989 550.111 836.24 549.717C837.028 548.141 836.916 546.227 836.916 546.227L835.227 544.595V536.714C835.227 536.714 834.045 536.714 834.214 535.87C834.383 535.026 834.664 534.969 835.227 534.125C835.79 533.281 835.058 529.003 835.227 527.99C835.396 526.977 834.214 509.809 834.214 509.809C834.214 509.809 834.045 485.999 834.214 484.817C834.383 483.635 834.101 450.243 834.214 445.303C834.214 445.303 835.002 444.529 835.227 445.936C835.452 447.343 838.886 473.799 838.886 473.799L843.445 505.151C843.445 505.151 844.683 506.164 845.077 507.346C845.077 507.346 846.147 507.965 847.441 508.134C847.441 510.16 848.286 525.527 848.286 525.527C848.286 525.527 849.806 528.06 849.693 530.03C849.58 532 849.693 534.125 849.693 534.125H851.325V546.227H846.879V548.661C846.879 548.661 850.2 549.309 850.368 549.717C850.537 550.125 850.368 552.644 850.368 552.644V558.16L853.126 562.965V572.358L854.871 576.228V577.861H851.325L848.286 574.99C848.286 574.99 848.68 576.271 847.441 576.228C846.203 576.186 843.445 576.228 843.445 576.228C843.445 576.228 844.12 573.878 844.12 572.358C844.12 570.838 843.389 561.27 843.445 560.313C843.501 559.356 841.531 558.16 841.531 558.16V558.16ZM836.297 560.313L833.651 564.647V571.063L835.283 572.583L836.297 570.222V564.647L837.253 560.313C837.253 560.313 837.028 559.693 836.297 560.313ZM846.766 568.362V564.647H848.736V569.6C848.736 569.6 847.667 571.626 846.766 568.362ZM836.582 490.203H839.075L840.954 505.65H839.075L837.253 507.888L836.582 490.203ZM835.452 477.602L836.582 489.138H838.768L837.712 477.602H835.452ZM835.452 474.847V461.018H836.35L837.712 474.847H835.452Z" fill="#C14DC3"/>
<path fill-rule="evenodd" clip-rule="evenodd" d="M230.199 506.149L249.128 495.567L342.44 510.467L365.635 495.567L572.521 525.36L576.254 438.884C576.254 438.884 577.751 438.023 578.387 438.884C578.387 442.016 576.254 525.36 576.254 525.36L596.982 530.173L627.289 550.111L652.81 535.224L913.872 568.72L963.306 594.892H952.486V652.756L775.769 659.848L230.197 553.508V506.148L230.199 506.149Z" fill="#C14DC3"/>
<path fill-rule="evenodd" clip-rule="evenodd" d="M753.294 555.62L755.165 501.582C755.165 501.582 757.036 499.339 756.816 508.935C756.596 518.531 755.165 555.62 755.165 555.62H753.294V555.62Z" fill="#C14DC3"/>
<path fill-rule="evenodd" clip-rule="evenodd" d="M887.11 573.367L888.981 501.656C888.981 501.656 890.852 498.679 890.632 511.413C890.412 524.148 888.981 573.367 888.981 573.367H887.11V573.367Z" fill="#C14DC3"/>
<path fill-rule="evenodd" clip-rule="evenodd" d="M38.7357 519.475L213.042 540.56L204.608 631.93L19.3369 627.732L38.7355 519.475L38.7357 519.475Z" fill="#C14DC3"/>
<path fill-rule="evenodd" clip-rule="evenodd" d="M1111.56 436.123V426.893H1108.62V440.939C1102.6 444.283 1103 450.303 1103 450.303H1096.05C1091.77 455.921 1086.28 476.922 1086.28 476.922H1080.4C1082.14 475.317 1085.08 466.488 1075.18 466.087C1065.28 465.686 1069.56 476.922 1069.56 476.922H1065.42L1058.06 485.35H1039.6L1034.25 494.045H1013.65L1007.5 505.014H984.892L979.007 513.976H930.318L923.764 524.678H894.739L891.796 528.958L848.859 527.487L839.897 540.998H804.05L800.706 549.024L791.343 550.495V565.477C791.343 568.019 799.502 599.856 802.311 606.678C805.12 613.5 825.179 637.598 825.179 637.598L1868.23 646.069C1868.23 646.069 1867.93 637.648 1868.23 635.304C1868.54 632.961 1870.04 624.616 1876.35 617.799C1882.67 610.982 1919.56 574.492 1919.56 574.492H1840.07C1840.07 574.492 1839.27 570.382 1836.76 568.277C1834.25 566.172 1825.33 565.27 1825.33 565.27L1814.42 558.497H1796.14C1794.15 555.241 1786.82 552.165 1784.56 551.26C1782.3 550.355 1778.86 542.756 1778.86 542.756V514.169C1778.86 514.169 1784.02 512.631 1784.56 510.821C1785.11 509.012 1784.56 502.77 1784.56 502.77H1754.17V497.161H1749.1V492.366H1705.32L1704.05 470.473L1698.17 469.569C1698.17 469.569 1698.72 456.632 1698.17 454.37C1697.63 452.109 1695.37 453.194 1695.37 453.194C1695.37 453.194 1694.19 464.141 1694.01 470.473C1684.97 480.787 1686.23 492.366 1686.23 492.366L1619.29 490.032V486.969C1619.29 486.969 1618.48 486.124 1618.3 484.988C1624.81 481.952 1622.37 470.745 1615.22 470.473C1608.08 470.202 1607.35 476.922 1607.35 476.922C1607.35 476.922 1606.27 474.363 1601.65 474.363C1592.15 474.363 1595.14 485.658 1595.14 485.658H1592.52L1587.54 492.366L1517.71 488.689V478.795H1484.6L1477.27 482.596V488.689H1467.17C1467.17 488.689 1467.17 489.142 1467.17 487.668C1467.17 486.194 1468.58 486.969 1468.58 486.969V485.658C1468.58 485.658 1467.61 485.96 1468.58 484.988C1471.46 484.586 1473.88 472.527 1464.36 472.527C1454.83 472.527 1458.6 484.988 1458.6 484.988V485.658L1460.27 486.969C1460.27 486.969 1460.27 486.947 1460.27 488.689C1458.13 488.689 1457.73 490.032 1457.73 490.032H1451.44L1450.11 484.28C1450.11 484.28 1415.33 484.146 1409.98 484.28C1404.63 484.414 1395.4 490.032 1395.4 490.032H1377.48C1376.67 487.356 1374.8 471.572 1374.8 471.572H1370.65L1368.38 434.785L1352.73 432.645C1352.73 432.645 1352.06 430.237 1349.79 430.639C1347.51 431.04 1347.38 432.645 1347.38 432.645H1338.19V430.639C1338.19 430.639 1333.74 430.104 1331.86 430.639C1329.99 431.174 1328.92 436.257 1328.92 436.257H1325.18L1323.44 442.544H1312.87C1308.05 447.761 1304.31 468.228 1304.31 471.572C1260.97 472.107 1225.79 476.922 1225.79 476.922V486.969H1178.71V484.28H1156.24V478.795H1118.12V476.922H1113.17L1111.56 450.303" fill="#C14DC3"/>
<path fill-rule="evenodd" clip-rule="evenodd" d="M-290.105 796.821L-363.403 728.654L-374 547.606H3.08951L255.236 606.978V669.146L607.799 627.712L1660.03 678.186C1670.77 918.939 255.236 784.361 255.236 784.361L-290.105 796.822L-290.105 796.821Z" fill="#C14DC3"/>
<path fill-rule="evenodd" clip-rule="evenodd" d="M1118.13 565.174L1110.26 582.074V610.636C1110.26 610.636 1114.61 616.889 1116.12 619.424C1117.63 621.959 1114.61 625.339 1110.26 624.325C1105.9 623.311 1099.37 621.959 1099.37 621.959V615.706C1099.37 615.706 1098.86 618.748 1090.82 619.424C1082.78 620.1 1081.94 622.635 1079.43 619.424C1076.92 616.213 1082.45 612.157 1084.29 610.636C1084.12 605.228 1081.94 582.074 1081.94 582.074L1102.38 548.612V545.231C1102.38 545.231 1103.39 544.386 1099.37 543.034C1095.35 541.682 1095.68 541.006 1102.38 539.823C1104.73 535.091 1104.39 529.345 1104.39 529.345L1099.37 524.444V500.783C1099.37 500.783 1095.85 500.783 1096.35 498.248C1096.85 495.713 1097.69 495.544 1099.37 493.009C1101.04 490.474 1098.86 477.63 1099.37 474.588C1099.87 471.546 1096.35 419.999 1096.35 419.999C1096.35 419.999 1095.85 348.511 1096.35 344.962C1096.85 341.413 1096.02 241.152 1096.35 226.321C1096.35 226.321 1098.7 223.996 1099.37 228.221C1100.04 232.446 1110.26 311.878 1110.26 311.878L1123.83 406.013C1123.83 406.013 1127.51 409.055 1128.68 412.604C1128.68 412.604 1131.87 414.463 1135.72 414.97C1135.72 421.054 1138.23 467.192 1138.23 467.192C1138.23 467.192 1142.76 474.798 1142.42 480.713C1142.09 486.628 1142.42 493.009 1142.42 493.009H1147.28V529.345H1134.04V536.653C1134.04 536.653 1143.93 538.599 1144.43 539.823C1144.93 541.047 1144.43 548.611 1144.43 548.611V565.174L1152.64 579.6V607.804L1157.83 619.424V624.325H1147.28L1138.23 615.706C1138.23 615.706 1139.41 619.552 1135.72 619.424C1132.03 619.296 1123.83 619.424 1123.83 619.424C1123.83 619.424 1125.84 612.367 1125.84 607.804C1125.84 603.241 1123.66 574.51 1123.83 571.637C1123.99 568.764 1118.13 565.174 1118.13 565.174V565.174ZM1102.55 571.637L1094.68 584.65V603.917L1099.53 608.48L1102.55 601.389V584.65L1105.4 571.637C1105.4 571.637 1104.73 569.778 1102.55 571.637ZM1133.71 595.805V584.65H1139.57V599.523C1139.57 599.523 1136.39 605.607 1133.71 595.805ZM1103.4 361.134H1110.82L1116.41 407.512H1110.82L1105.4 414.233L1103.4 361.134V361.134ZM1100.04 323.297L1103.4 357.936H1109.91L1106.76 323.297H1100.04ZM1100.04 315.025V273.506H1102.71L1106.76 315.025H1100.04Z" fill="#C14DC3"/>
<path fill-rule="evenodd" clip-rule="evenodd" d="M-347.642 294.548L-288.862 296.125V304.171C-288.862 304.171 -281.132 305.275 -279.712 308.115H-276.715V304.171C-276.715 304.171 -266.934 305.591 -264.883 308.115H-260.939V304.171C-260.939 304.171 -253.682 303.224 -250.212 308.115H-247.372V304.171C-247.372 304.171 -239.011 304.013 -234.91 308.115H-232.228V304.171C-232.228 304.171 -224.971 303.067 -221.974 308.115H-217.872V304.171C-217.872 304.171 -210.773 303.224 -208.407 308.115H-203.201V304.171C-203.201 304.171 -196.891 302.909 -193.262 308.115V296.125H-93.877V308.115H-81.2566C-79.048 309.535 -75.7351 308.115 -75.7351 308.115H-68.4784V325.31H-52.3874V336.511H-37.4008V375.16H-22.5718V403.083H15.2892V406.711H13.3962V411.772C13.3962 411.772 17.34 411.444 17.34 415.388C22.7037 415.388 61.5112 420.278 61.5112 420.278L63.5621 515.562V627.658H-347.643V294.549L-347.642 294.548Z" fill="#C14DC3"/>
<path fill-rule="evenodd" clip-rule="evenodd" d="M102.381 370.297V345.709H96.9073V342.112H102.381V333.197H105.549V342.112H111.921V345.709H105.549V370.152C117.537 370.899 123.025 381.152 124.41 401.1C130.169 401.1 133.048 399.085 133.336 406.283C133.624 413.482 129.305 410.027 129.305 410.027V427.88H143.663V442.565H139.095V473.952H147.158V479.135L139.095 485.758V491.805H147.158V508.794H139.095V524.343H143.663V547.091H147.158V560.913H67.9718V485.758L63.9404 479.135C63.9404 479.135 67.9718 473.664 72.579 473.952C72.0031 457.826 72.579 427.88 72.579 427.88L80.6416 421.833V401.1H87.5524C87.5524 401.1 90.7955 372.882 102.381 370.297L102.381 370.297Z" fill="#C14DC3"/>
<path fill-rule="evenodd" clip-rule="evenodd" d="M708.323 665.797L376.982 736.623L138.454 767.553L141.109 650.812L204.643 646.583L203.673 632.011L201.596 631.181L201.506 629.832L228.884 625.202L228.07 612.963L242.41 612.009L283.876 568.107L288.557 567.795C288.557 567.795 288.66 554.561 300.983 539.31C313.306 524.059 324.78 512.473 360.971 496.071C369.831 492.055 377.552 488.954 384.998 484.195C392.444 479.436 411.943 468.518 417.366 451.431C418.411 449.066 418.629 449.051 418.629 449.051L419.67 448.982C419.321 448.081 418.908 446.379 420.426 445.738C420.653 443.984 420.12 441.136 420.12 441.136C420.12 441.136 418.24 440.429 417.804 439.5C417.367 438.571 419.675 438.209 420.681 438.309L420.317 432.837C420.317 432.837 418.014 432.657 418.736 431.61C419.457 430.562 420.674 430.689 420.674 430.689L420.312 425.259C420.312 425.259 416.354 423.357 418.566 417.796C418.566 417.796 417.443 422.826 421.578 422.384C425.713 421.943 422.486 415.995 422.198 415.431C421.911 414.867 428.124 421.865 422.136 425.137L422.498 430.568C422.498 430.568 424.062 431.547 423.305 432.055C422.547 432.563 422.304 432.663 421.602 432.751L421.966 438.224C421.966 438.224 423.655 437.945 423.774 439.103C423.893 440.261 423.232 440.971 422.151 441.001L422.457 445.603C422.457 445.603 423.805 447.287 423.141 448.751L423.855 448.703C423.855 448.703 447.668 483.371 486.817 496.162C486.503 491.446 485.058 372.848 485.058 372.848C485.058 372.848 465.702 362.815 464.505 360.657L463.797 334.647L465.845 334.511L465.594 330.749C465.594 330.749 463.48 329.885 463.305 327.266C463.131 324.646 465.522 324.631 466.373 324.478C467.224 324.326 469.367 324.901 469.532 327.377C469.696 329.854 467.493 330.526 467.309 330.634L467.527 333.92L477.243 333.274L477.135 331.654C477.135 331.654 474.706 331.099 474.786 328.702C474.786 328.702 474.628 326.321 476.739 325.702C476.933 325.019 476.952 323.87 479.47 323.607C481.988 323.343 483.39 327.459 482.087 328.216C482.087 328.216 482.581 330.814 480.755 331.414C480.828 332.509 480.894 333.509 480.894 333.509L485.324 333.214L483.61 207.576L463.846 198.13L463.367 172.954L466.034 172.776L465.821 169.586L465.022 168.73C465.022 168.73 462.577 168.989 462.24 166.093C461.904 163.198 464.743 162.722 465.892 162.741C467.041 162.76 468.216 163.878 468.432 165.681C468.647 167.484 466.904 168.605 466.904 168.605L467.098 171.51L477.242 170.834L477.109 168.834L476.525 167.964C476.525 167.964 475.283 167.282 475.29 165.224C475.296 163.167 477.036 161.999 478.703 161.888C480.37 161.777 481.783 162.879 481.783 165.749C481.782 168.619 479.776 168.657 479.776 168.657L479.909 170.657L483.338 170.429L483.027 136.297L475.42 132.69L475.081 127.594L482.991 122.811L482.728 118.858L480.889 117.115L480.674 113.877L481.49 113.201L478.166 111.413L478.57 105.981C478.57 105.981 479.068 104.848 480.068 104.781C481.069 104.714 481.783 104.667 481.783 104.667L481.976 107.572L482.548 107.534L482.355 104.629C482.355 104.629 483.593 104.546 484.593 104.48C485.593 104.413 481.035 96.2982 480.759 89.2852C480.484 82.2721 484.996 78.193 489.168 75.4758C493.341 72.7586 500.841 63.9844 502.271 55.9968C503.7 48.0093 503.97 47.7522 503.97 47.7522L505.482 47.6515L505.069 41.4422C505.069 41.4422 503.711 40.3807 503.84 39.3184C503.969 38.2562 504.56 37.0649 505.187 37.1474C505.121 36.1578 504.938 33.4052 504.938 33.4052C504.938 33.4052 504.365 32.7289 504.451 32.1639C504.538 31.599 504.969 31.0733 505.375 31.1084C505.781 31.1435 505.083 26.7167 505.083 26.7167C505.083 26.7167 502.206 25.9762 502.718 22.4629C502.718 22.4629 502.982 25.4897 505.698 24.7498C508.413 24.0098 506.457 20.2953 505.308 18.9045C505.308 18.9045 511.193 22.838 505.825 26.6673L506.365 31.0425C506.365 31.0425 507.556 32.2589 506.268 33.3167C506.378 34.9795 506.517 37.0589 506.517 37.0589C506.517 37.0589 508.892 39.6107 506.059 41.3763L506.472 47.5856L506.732 47.5683C506.732 47.5683 509.77 59.4199 511.532 62.1726C511.704 62.4426 511.922 62.7622 512.18 63.1219C511.945 62.0326 511.301 58.7599 511.903 58.1181C512.627 57.3456 514.008 57.0985 514.221 58.7398C514.433 60.3812 514.473 62.5255 514.473 62.5255L513.417 62.5958L513.573 64.9455C516.42 68.4865 521.316 73.6253 526.312 76.1388C532.908 79.4575 534.377 90.4316 531.356 97.4771C528.335 104.523 529.591 105.244 529.591 105.244L531.863 105.093L533.143 104.166L535.081 104.037L535.493 110.228L533.771 113.595L532.663 117.118L530.441 118.004L530.756 122.748C530.756 122.748 537.059 125.683 538.248 127.416L538.528 131.625L530.358 136.933L531.314 168.431L536.058 168.115C536.058 168.115 534.279 167.606 534.364 165.856C534.449 164.105 535.545 162.422 538.052 162.792C540.56 163.162 541.182 166.456 539.332 167.897C537.482 169.339 539.455 169.744 539.455 169.744L543.33 169.486L545.733 166.275L548.807 166.071L549.178 171.647L551.966 174.212L552.338 196.935L532.235 207.466L534.147 329.964L539.76 329.591L539.62 327.495C539.62 327.495 537.448 327.13 537.276 324.542C537.104 321.955 542.606 319.927 542.917 325.602C542.917 325.602 542.992 326.739 541.892 327.344L542.031 329.439L546.775 329.124L548.974 326.873L549.909 326.81C549.909 326.81 549.275 323.323 553.578 323.457C557.882 323.591 556.831 329.969 554.002 329.822L554.233 333.295L555.391 335.567L555.954 359.15L534.952 371.284L537.264 511.03L540.36 510.824L539.759 501.789L544.999 492.997L549.8 492.678L549.551 488.93C549.551 488.93 547.202 488.388 547.338 486.389C547.474 484.39 549.171 483.402 550.605 483.448C552.039 483.495 553.702 484.567 553.666 487.097C553.666 487.097 556.833 487.639 556.675 490.123L560.762 489.851L565.896 493.381L566.345 491.577C566.345 491.577 564.453 490.304 564.587 488.844C564.721 487.383 565.296 485.839 567.706 485.517C570.115 485.195 570.664 486.987 570.76 488.433C570.857 489.878 570.428 491.52 569.129 491.391L569.41 495.621L571.231 495.5L571.224 522.871L555.021 533.145L556.935 561.894C556.935 561.894 559.976 560.724 561.575 563.736C562.371 563.576 562.65 561.299 566.466 561.26C570.281 561.221 572.588 561.444 572.919 563.842C572.933 563.943 572.941 564.046 572.942 564.151C572.337 565.141 572.346 566.084 572.346 566.084L572.412 566.155C571.554 567.931 569.957 569.524 569.957 569.524L573.439 571.658L575.669 569.627L572.412 566.155C572.734 565.488 572.952 564.795 572.942 564.151C573.637 563.015 575.14 561.818 578.394 561.918C584.484 562.104 583.916 564.077 583.916 564.077C583.916 564.077 585.059 561.85 589.738 561.862L593.008 562.504L592.612 556.562L604.298 555.192C604.298 555.192 604.196 544.767 612.503 541.095C612.374 539.168 612.36 538.954 612.36 538.954C612.36 538.954 609.697 538.539 609.851 536.002C610.005 533.464 610.572 533.91 612.004 533.6C613.435 533.29 611.954 532.851 611.954 532.851C611.954 532.851 611.551 532.447 611.85 531.298C612.15 530.149 611.599 518.635 611.599 518.635C611.599 518.635 610.821 514.213 611.949 514.191C613.077 514.17 613.555 514.085 613.555 514.085L613.402 511.782C613.402 511.782 611.273 509.694 611.41 506.095C611.547 502.495 617.611 499.887 617.394 496.621L618.893 496.522C618.893 496.522 619.675 499.373 622.276 501.297C624.878 503.221 625.867 506.758 624.592 509.424C623.318 512.09 624.263 514.178 624.263 514.178L626.512 514.029L626.751 517.626L626.151 518.301L627.053 531.846C627.053 531.846 634.464 522.802 634.9 516.428C634.9 516.428 634.729 514.665 636.713 514.586C638.698 514.508 660.379 513.011 660.379 513.011C660.379 513.011 659.851 512.347 661.243 512.255C662.635 512.162 665.901 511.945 665.901 511.945L667.87 520.525L675.761 531.615C675.761 531.615 682.805 537.127 687.413 539.06L686.018 518.094L689.685 517.85L689.428 513.988C689.428 513.988 687.12 512.448 687.519 509.619C687.917 506.79 692.598 507.586 693.164 509.243C693.731 510.9 693.544 512.998 692.554 513.78C691.563 514.563 692.811 517.642 692.811 517.642L693.719 517.581L694.33 526.762L701.989 514.521L705.929 514.259C705.929 514.259 704.68 510.888 707.41 509.794C705.593 509.915 703.624 509.72 703.776 507.103C703.928 504.486 710.376 503.144 710.37 508.098C710.37 508.098 708.97 509.429 710.47 509.59C711.969 509.751 712.237 510.841 712.216 512.472C712.194 514.102 711.649 514.725 711.649 514.725L713.011 514.635L714.78 518.688L720.318 529.985L720.677 535.371L722.902 535.222C722.889 529.404 722.111 516.803 722.044 515.796C721.73 511.08 720.285 392.482 720.285 392.482C720.285 392.482 700.929 382.449 699.732 380.291L699.023 354.281L701.071 354.145L700.821 350.383C700.821 350.383 698.706 349.519 698.532 346.9C698.358 344.28 700.749 344.265 701.6 344.112C702.45 343.96 704.594 344.535 704.758 347.011C704.923 349.488 702.72 350.161 702.535 350.268L702.754 353.554L712.47 352.908L712.362 351.288C712.362 351.288 709.933 350.733 710.013 348.336C710.013 348.336 709.854 345.955 711.966 345.336C712.16 344.653 712.179 343.504 714.697 343.241C717.214 342.977 718.617 347.093 717.314 347.85C717.314 347.85 717.807 350.448 715.982 351.048C716.055 352.143 716.121 353.143 716.121 353.143L720.55 352.848L718.837 227.21L699.073 217.764L698.593 192.588L701.261 192.41L701.048 189.22L700.249 188.364C700.249 188.364 697.803 188.623 697.467 185.727C697.131 182.832 699.969 182.356 701.119 182.375C702.268 182.394 703.443 183.512 703.658 185.315C703.874 187.118 702.131 188.239 702.131 188.239L702.324 191.144L712.469 190.468L712.336 188.468L711.751 187.598C711.751 187.598 710.51 186.916 710.517 184.858C710.523 182.801 712.263 181.633 713.93 181.522C715.597 181.411 717.01 182.513 717.01 185.383C717.009 188.253 715.003 188.291 715.003 188.291L715.136 190.291L718.565 190.063L718.254 155.931L710.647 152.324L710.308 147.228L718.218 142.445L717.954 138.492L716.116 136.749L715.901 133.511L716.717 132.835L713.393 131.047L713.797 125.615C713.797 125.615 714.295 124.482 715.295 124.415C716.295 124.348 717.01 124.301 717.01 124.301L717.203 127.206L717.775 127.168L717.581 124.263C717.581 124.263 718.82 124.18 719.82 124.114C720.82 124.047 716.261 115.932 715.986 108.919C715.711 101.906 720.223 97.827 724.395 95.1098C728.567 92.3926 736.068 83.6184 737.497 75.6308C738.927 67.6433 739.197 67.3861 739.197 67.3861L740.709 67.2855L740.296 61.0762C740.296 61.0762 738.938 60.0147 739.067 58.9524C739.196 57.8902 739.787 56.6989 740.414 56.7814C740.348 55.7918 740.164 53.0392 740.164 53.0392C740.164 53.0392 739.591 52.3629 739.678 51.798C739.765 51.233 740.196 50.7073 740.602 50.7424C741.008 50.7775 740.31 46.3507 740.31 46.3507C740.31 46.3507 737.433 45.6102 737.945 42.0969C737.945 42.0969 738.208 45.1237 740.924 44.3838C743.64 43.6438 741.684 39.9293 740.535 38.5384C740.535 38.5384 746.42 42.472 741.052 46.3013L741.592 50.6765C741.592 50.6765 742.782 51.8929 741.495 52.9507C741.605 54.6135 741.744 56.6929 741.744 56.6929C741.744 56.6929 744.119 59.2447 741.285 61.0103L741.699 67.2196L741.959 67.2023C741.959 67.2023 744.996 79.0539 746.758 81.8066C746.931 82.0766 747.149 82.3962 747.407 82.7559C747.172 81.6666 746.527 78.3939 747.129 77.7521C747.854 76.9796 749.235 76.7325 749.447 78.3738C749.66 80.0152 749.699 82.1595 749.699 82.1595L748.643 82.2298L748.8 84.5795C751.646 88.1205 756.543 93.2593 761.539 95.7728C768.135 99.0915 769.603 110.066 766.583 117.111C763.562 124.157 764.818 124.878 764.818 124.878L767.09 124.727L768.37 123.8L770.308 123.671L770.72 129.862L768.998 133.229L767.89 136.752L765.667 137.638L765.983 142.382C765.983 142.382 772.285 145.317 773.474 147.05L773.755 151.259L765.585 156.567L766.541 188.065L771.285 187.749C771.285 187.749 769.506 187.24 769.591 185.49C769.676 183.739 770.771 182.056 773.279 182.426C775.787 182.796 776.409 186.09 774.558 187.531C772.708 188.973 774.681 189.378 774.681 189.378L778.557 189.12L780.96 185.91L784.034 185.705L784.405 191.281L787.193 193.846L787.564 216.569L767.462 227.101L769.374 349.598L774.986 349.225L774.847 347.129C774.847 347.129 772.675 346.764 772.503 344.176C772.331 341.589 777.833 339.561 778.144 345.236C778.144 345.236 778.219 346.373 777.119 346.978L777.258 349.073L782.002 348.758L784.201 346.507L785.136 346.444C785.136 346.444 784.501 342.957 788.805 343.091C793.109 343.225 792.057 349.603 789.229 349.456L789.46 352.929L790.618 355.201L791.181 378.784L770.178 390.918L772.491 530.664L775.587 530.458L774.985 521.423L780.226 512.631L785.027 512.312L784.778 508.564C784.778 508.564 782.429 508.022 782.565 506.023C782.701 504.024 784.397 503.036 785.832 503.082C787.266 503.129 788.929 504.201 788.893 506.731C788.893 506.731 792.059 507.273 791.902 509.757L795.989 509.485L801.123 513.015L801.571 511.211C801.571 511.211 799.68 509.938 799.814 508.478C799.948 507.017 800.523 505.473 802.932 505.151C805.341 504.829 805.891 506.621 805.987 508.067C806.083 509.512 805.655 511.154 804.356 511.025L804.637 515.255L806.458 515.134L806.451 542.505L792.072 551.623L792.852 581.358C793.082 581.322 793.359 581.297 793.662 581.307C793.401 581.549 793.137 581.795 792.869 582.043L795.163 669.511L709.239 675.231L708.324 665.798L708.323 665.797ZM705.724 354.96L708.295 354.789C708.295 354.789 705.914 362.193 705.466 363.597C705.018 365.001 705.724 354.96 705.724 354.96ZM718.036 355.348L720.648 355.174L721.04 361.061L718.036 355.348ZM470.498 335.326L473.068 335.155C473.068 335.155 470.688 342.559 470.24 343.963C469.792 345.367 470.498 335.326 470.498 335.326ZM482.809 335.714L485.421 335.541L485.813 341.428L482.809 335.714ZM778.723 191.659L782.049 191.438L782.244 194.371C782.244 194.371 781.401 198.74 781.413 200.018C781.425 201.296 778.805 196.93 778.723 191.659ZM704.64 192.186L708.832 191.907L704.797 201.512C704.797 201.512 704.389 192.853 704.64 192.186ZM543.497 172.025L546.822 171.804L547.017 174.738C547.017 174.738 546.175 179.106 546.187 180.384C546.199 181.662 543.578 177.296 543.497 172.025ZM469.413 172.552L473.605 172.273L469.57 181.878C469.57 181.878 469.162 173.219 469.413 172.552Z" fill="#C14DC3"/>
</svg>
