<svg width="1078" height="672" viewBox="0 0 1078 672" fill="none" xmlns="http://www.w3.org/2000/svg">
<path fill-rule="evenodd" clip-rule="evenodd" d="M458.515 343.367C458.502 434.667 460.774 572 460.774 572L285.892 568.506V259.772C285.892 259.772 283 259.189 283 251.811C283 244.432 285.892 86.1822 285.892 86.1822C285.892 86.1822 300 52.59 357.507 46.9588C415.014 41.3289 455.159 61.7168 460.774 82.6868C460.774 103.852 468.725 249.093 468.725 249.093C468.725 249.093 465.834 261.907 460.774 263.849C459.16 264.465 458.579 295.637 458.528 337.94C461.974 335.686 471.165 329.862 473.618 329.994C476.651 330.158 479.84 330.729 479.995 332.034C480.149 333.338 476.961 335.542 476.961 335.542C476.961 335.542 470.997 342.342 468.725 343.782C467.615 344.485 466.015 345.182 464.672 344.651C463.226 344.074 461.949 341.6 461.949 341.6L458.515 343.367Z" fill="white"/>
<path fill-rule="evenodd" clip-rule="evenodd" d="M418.22 76.8437L415.329 10.0493H422.839L425.717 78.6085L418.22 76.8437Z" fill="white"/>
<path fill-rule="evenodd" clip-rule="evenodd" d="M331.612 59.9107L330.149 0.700195H331.612L333.266 59.9107H331.612Z" fill="white"/>
<path fill-rule="evenodd" clip-rule="evenodd" d="M387.371 61.3517V19.305L360.274 34.6541V33.6308L415.096 0.700195L416.368 2.65363L411.345 5.53749L412.373 69.2594H410.754V39.2123L388.707 50.5249V61.3517H387.371ZM388.321 18.7748L410.266 5.93924L410.754 37.0081L388.321 48.5869V18.7748Z" fill="white"/>
<path fill-rule="evenodd" clip-rule="evenodd" d="M919.956 539H904.875V508.636C904.875 508.636 903.597 506.776 901.868 507.168C900.14 507.56 897.701 508.618 894.884 508.636C892.067 508.655 883.662 506.62 881.152 504.899C878.643 503.175 875.588 500.203 875.257 498.557C874.949 496.914 873.529 495.27 873.529 495.27C873.529 495.27 874.713 490.338 873.529 488.539C872.369 486.737 868.368 481.493 867.965 479.928C867.563 478.363 869.764 468.656 870.948 466.309C872.132 463.96 874.168 454.882 873.529 454.02C872.913 453.158 869.291 450.575 868.912 448.306C868.51 446.035 869.765 445.957 868.912 445.175C868.036 444.391 868.036 444.236 868.912 442.122C869.765 440.009 871.256 424.197 870.948 422.084C870.64 419.971 869.528 411.124 870.096 408.151C870.641 405.176 872.274 403.375 870.948 398.679C869.622 393.982 866.237 388.661 864.745 387.329C863.253 386 864.13 384.824 866.237 385.294C868.368 385.763 867.492 379.502 866.237 377.859C864.982 376.215 866.947 376.135 867.965 375.901C867.965 375.901 870.474 360.089 870.948 356.88C871.421 353.672 872.747 353.827 872.368 351.792C871.966 349.757 872.439 348.192 872.368 346.548C872.274 344.905 872.203 345.217 872.368 343.887C872.51 342.556 872.368 341.146 872.368 341.146C872.368 341.146 875.115 338.643 874.476 336.294C873.86 333.945 871.351 330.814 870.096 329.327C868.818 327.841 870.167 328.937 872.368 329.327C874.57 329.719 872.439 322.361 872.368 320.482C872.274 318.605 872.132 311.951 872.368 310.306C872.605 308.662 875.115 309.29 874.476 307.645C873.86 306.001 873.292 302.715 873.529 300.991C873.766 299.27 875.588 297.783 875.257 295.277C874.949 292.772 874.878 292.617 874.476 291.365C874.097 290.111 873.931 281.033 874.476 279.154C875.021 277.274 881.152 272.656 881.152 271.013C881.152 269.369 880.371 267.648 880.063 266.161C879.731 264.673 880.371 263.578 880.063 262.402C879.731 261.228 878.406 260.055 878.477 258.489C878.571 256.924 879.897 256.872 880.063 255.293C880.205 253.713 880.513 251.444 881.152 249.565C881.792 247.687 884.064 244.635 884.845 242.911C885.626 241.19 885.863 240.564 885.863 238.843C885.863 237.119 886.645 236.024 886.882 234.302C887.118 232.579 887.355 229.448 886.882 228.431C886.408 227.413 884.987 227.101 884.845 225.458C884.679 223.812 886.171 227.023 886.882 225.458C887.592 223.892 888.445 220.995 887.734 220.056C887.048 219.116 886.408 216.299 885.863 213.716C885.319 211.133 885.626 207.844 884.845 206.515C884.064 205.183 886.1 204.322 884.845 202.914C884.845 202.914 886.029 202.756 885.863 201.505C885.698 200.253 884.75 200.487 884.845 198.218C884.916 195.947 885.556 197.434 887.734 199.078C889.936 200.721 890.172 201.035 890.409 198.218C890.646 195.399 890.646 194.381 890.409 192.894C890.172 191.406 891.664 190.233 891.664 190.233C891.664 190.233 891.83 188.668 891.664 187.494C891.522 186.318 891.664 184.049 891.664 184.049C891.664 184.049 893.155 184.049 892.611 181.78C892.066 179.509 891.664 179.587 891.664 177.396C891.664 175.205 891.285 176.144 890.409 173.951C889.557 171.76 890.267 169.569 890.409 168.003C890.575 166.438 890.48 166.438 890.409 165.265C890.338 164.089 890.48 161.35 891.664 159.707C892.848 158.063 895.049 159.237 892.611 155.636C890.172 152.035 890.954 153.835 891.664 152.269C892.374 150.704 892.303 150.156 891.664 148.983C891.048 147.809 892.066 150.078 892.611 148.199C893.155 146.322 892.445 143.739 891.664 141.937C890.883 140.138 892.611 140.216 892.611 140.216C892.611 140.216 894.41 140.764 892.611 137.633C890.812 134.502 891.664 133.718 891.664 133.718H893.629C893.629 133.718 894.955 133.876 894.884 132.701C894.813 131.527 893.605 129.726 893.629 127.301C893.653 124.873 895.073 131.527 897.109 130.195C897.18 128.004 896.47 127.612 897.109 126.283C897.725 124.951 900.164 125.187 899.927 123.856C899.69 122.524 900.282 121.821 901.868 121.743C903.455 121.665 903.549 121.195 903.62 120.099C903.691 119.004 904.472 120.177 904.875 121.743C905.277 123.308 907.384 120.959 907.455 120.099C907.55 119.238 909.184 122.29 910.296 123.856C911.385 125.421 912.167 124.951 912.877 126.283C913.588 127.612 913.422 124.951 915.316 124.796C917.21 124.64 919.246 121.273 920.501 121.743C921.756 122.213 920.809 119.082 921.993 119.004C923.176 118.924 924.88 120.099 926.159 121.743C927.414 123.386 929.119 123.934 929.924 126.283C930.705 128.63 931.249 130.823 931.794 133.718C932.338 136.615 934.162 137.085 934.777 140.216C935.417 143.347 937.144 145.852 937.997 148.983C938.873 152.113 940.909 156.809 941.146 159.707C941.382 162.601 943.111 164.481 943.656 167.219C944.2 169.961 946.402 172.386 947.183 176.066C947.964 179.745 949.314 183.579 949.456 186.24C949.622 188.904 949.693 190.703 949.456 192.894C949.219 195.087 949.527 195.869 950.711 196.653C951.895 197.434 952.676 196.653 952.983 195.635C953.315 194.617 953.22 197.12 953.93 199.078C954.641 201.035 956.298 203.54 956.535 206.515C956.748 209.49 957.931 208.236 958.002 210.116C958.097 211.993 958.097 213.091 956.535 213.716C954.948 214.342 955.824 215.437 956.535 217.239C957.221 219.038 957.695 217.317 958.002 220.056C958.334 222.795 955.895 223.97 956.535 226.317C957.15 228.667 958.239 227.413 958.949 229.762C959.66 232.109 959.352 234.225 958.949 237.197C958.571 240.172 959.731 244.868 960.678 246.904C961.625 248.939 966.028 255.592 965.934 261.15C966.715 262.09 968.207 262.402 968.301 264.047C968.372 265.691 965.626 267.02 965.934 268.585C966.265 270.151 965.318 272.578 965.934 274.769C966.573 276.963 964.845 276.179 965.934 279.154C967.046 282.129 968.301 284.398 968.301 286.433C968.301 288.468 969.012 291.443 969.556 292.93C970.101 294.418 970.574 293.948 970.574 293.948L969.556 295.277C969.556 295.277 968.538 296.843 970.574 297.705C972.611 298.566 971.829 300.132 972.066 302.479C972.303 304.828 972.847 302.949 975.049 304.672C977.251 306.393 977.961 308.821 978.198 310.306C978.411 311.793 977.156 313.359 976.375 315.082C975.594 316.803 975.759 316.1 976.375 317.195C977.014 318.291 975.428 317.743 975.049 319.464C974.646 321.188 973.486 322.047 975.049 322.517C976.611 322.987 978.506 322.595 978.198 324.083C977.866 325.57 974.812 326.744 975.049 328.389C975.286 330.033 975.357 332.146 976.375 333.633C977.393 335.121 982.27 339.347 982.649 341.146C983.051 342.948 983.454 343.809 982.649 344.905C981.868 346.001 982.104 346.548 982.649 348.192C983.217 349.835 984.78 348.192 984.945 350.541C985.087 352.888 985.632 358.76 985.727 360.795C985.798 362.828 987.526 362.594 987.692 364.082C987.834 365.569 988.308 365.647 987.692 367.368C987.053 369.092 983.927 370.735 980.849 369.326C980.849 369.326 980.778 370.813 980.849 373.162C980.944 375.509 980.069 375.198 979.287 376.763C978.506 378.328 978.34 379.502 979.287 380.675C980.234 381.851 981.323 382.085 980.849 383.102C980.376 384.12 978.103 384.042 978.198 386.155C978.269 388.269 979.524 389.6 978.198 391.555C976.848 393.513 976.304 393.201 976.375 396.096C976.47 398.993 974.812 398.834 975.049 400.244C975.286 401.654 978.198 402.671 978.198 402.671C978.198 402.671 975.286 402.515 975.049 404.081C974.812 405.646 974.741 406.586 976.375 407.212C978.032 407.837 974.978 408.151 975.049 409.481C975.12 410.812 976.541 410.264 977.251 411.36C977.961 412.455 974.646 411.752 975.049 413.003C975.428 414.257 975.665 416.056 977.251 416.212C978.813 416.37 976.612 417.23 976.375 419.187C976.138 421.144 974.812 428.346 975.049 431.24C975.286 434.137 974.339 440.869 975.049 442.122C975.759 443.374 977.014 446.663 977.251 448.306C977.488 449.949 978.34 449.243 979.287 451.359C980.234 453.472 980.376 458.482 979.287 461.455C978.198 464.43 975.214 465.684 975.049 466.309C974.883 466.935 970.409 472.649 970.574 474.528C970.74 476.405 968.917 479.536 970.574 480.712C972.232 481.885 972.682 483.843 973.084 486.034C973.487 488.225 972.777 490.73 974.031 491.2C975.286 491.67 975.996 492.373 975.049 493.549C974.102 494.723 971.048 494.878 970.574 496.836C970.101 498.793 969.556 499.733 969.556 499.733C969.556 499.733 968.136 499.653 968.301 498.557C968.443 497.461 967.591 496.836 967.591 496.836C967.591 496.836 962.169 500.358 960.678 501.532C959.186 502.705 956.369 506.776 953.93 507.168C951.492 507.56 944.508 506.542 942.78 507.168C941.051 507.794 940.601 509.01 938.778 508.636C936.979 508.263 933.404 509.517 932.647 509.907C931.889 510.299 929.213 510.377 927.651 509.907C926.064 509.437 923.389 507.168 921.993 507.168C920.572 507.168 919.956 539 919.956 539Z" fill="white"/>
<path fill-rule="evenodd" clip-rule="evenodd" d="M14.418 549C14.418 549 17.2549 543.518 18.9156 541.991C20.5531 540.464 25.1198 540.261 25.9732 538.734C26.8266 537.207 28.6026 536.19 28.6026 536.19C28.6026 536.19 32.3622 534.867 32.8466 538.734C33.3078 542.602 35.6832 538.734 35.6832 538.734C35.6832 538.734 34.9685 538.123 37.4594 538.734C39.9273 539.345 41.1034 540.566 41.1034 540.566C41.1034 540.566 41.9337 539.854 41.1034 541.991C40.2961 544.128 43.9405 545.248 43.9405 545.248C43.9405 545.248 45.6013 544.23 46.0856 547.08C46.1548 547.63 45.2319 548.29 43.6404 549H187.978C187.563 548.976 186.248 548.753 183.896 547.08C183.896 547.08 182.742 545.348 180.436 544.567C178.129 543.786 177.322 540.737 179.236 541.085C181.151 541.434 182.166 539.43 182.166 539.43C182.166 539.43 180.736 537.251 180.436 536.293C180.136 535.334 187.424 535.334 189.339 536.293C191.276 537.251 189.246 537.077 191.368 536.293C193.49 535.509 192.798 534.115 194.113 534.55C195.404 534.986 194.92 538.21 194.113 540.214C193.282 542.218 192.89 543.867 194.113 544.567C195.312 545.268 195.612 545.268 197.342 546.052C199.049 546.836 199.925 545.319 199.395 547.08C198.864 548.84 195.912 547.585 194.113 547.08C192.291 546.574 190.861 549.886 189.339 546.052C189.039 548.143 188.139 549 188.139 549H267.089C267.089 549 266.651 545.196 269.142 544.567C271.609 543.939 271.471 540.672 271.471 540.672C271.471 540.672 268.703 539.667 269.142 537.657C269.58 535.646 274.1 537.154 275.277 539.29C276.43 541.426 274.838 532.882 273.362 530.746C271.909 528.61 269.718 528.61 271.471 527.479C273.224 526.348 275.692 526.976 278.183 527.479C280.65 527.982 277.606 526.976 275.277 525.72C272.924 524.463 271.033 523.709 275.277 521.071C279.497 518.432 275.692 519.94 273.362 521.071C271.033 522.202 267.388 525.971 265.059 525.72C262.729 525.469 261.276 527.228 258.785 525.72C256.318 524.212 258.785 521.071 258.785 521.071C258.785 521.071 258.347 519.563 260.4 518.055C262.43 516.547 264.759 515.542 267.089 513.155C269.441 510.767 267.089 506.872 267.089 506.872C267.089 506.872 266.512 505.239 265.059 504.234C263.606 503.228 263.606 506.747 262.568 504.234C261.553 501.721 258.924 508.003 256.018 506.872C253.089 505.741 249.306 508.003 246.538 504.234C243.771 500.465 243.632 500.212 243.632 500.212L252.673 502.349H258.785L260.4 500.212L262.568 498.076H265.059L260.4 496.57H258.785L262.568 492.172C262.568 492.172 263.444 492.297 265.059 490.663C266.143 489.554 266.697 489.244 266.95 489.161L267.089 489.131C267.089 489.131 267.066 489.121 266.95 489.161L258.785 490.663L256.018 489.131L249.006 492.172L246.538 490.663C246.538 490.663 248.729 487.899 252.673 487.521C256.594 487.146 260.239 487.146 260.4 485.512C260.538 483.879 257.909 487.396 256.018 485.512C254.126 483.626 253.527 481.617 256.018 480.486C258.486 479.355 256.018 476.967 256.018 476.967H250.921L246.538 475.585L243.632 473.574C243.632 473.574 239.388 472.318 237.935 473.574C236.482 474.832 230.209 480.486 228.156 480.486C226.126 480.486 226.841 478.35 223.935 478.978C221.029 479.606 222.044 473.952 218.838 475.585C215.632 477.219 212.703 480.359 207.467 478.978C202.208 477.597 206.152 479.606 205.276 475.585C204.4 471.565 201.47 472.068 201.47 472.068C201.47 472.068 199.879 472.318 197.988 472.068C196.073 471.816 196.812 474.957 194.62 475.585C192.429 476.213 189.085 475.585 189.085 475.585C189.085 475.585 189.223 473.827 191.714 472.068C194.182 470.307 198.703 466.664 197.988 464.025C197.25 461.386 194.62 457.185 194.62 457.185L197.988 455.984C197.988 455.984 199.003 457.491 201.47 459.252C203.961 461.01 206.291 464.778 207.467 464.025C208.62 463.272 211.111 460.758 213.141 461.261C215.194 461.764 216.209 461.261 216.209 461.261C216.209 461.261 211.549 458.763 213.141 457.185C214.755 455.607 217.962 456.11 218.838 453.848C219.715 451.586 222.321 456.754 223.935 457.185C225.55 457.618 225.112 454.224 226.565 452.34C227.187 451.541 227.141 451.42 227.072 451.42C226.98 451.422 226.818 451.646 228.156 450.706C230.485 449.073 232.4 452.842 233.853 450.706C235.306 448.57 236.182 449.325 237.935 446.686C239.688 444.047 237.935 450.706 237.935 450.706L243.632 454.979C243.632 454.979 246.1 455.245 246.538 457.185C246.977 459.124 249.675 459.832 249.006 464.025C248.36 468.22 249.767 462.469 250.921 461.261C252.051 460.053 252.673 461.261 252.673 461.261C252.673 461.261 254.772 461.424 256.018 464.025C257.263 466.627 256.733 467.322 258.785 469.015C260.838 470.709 258.785 464.025 258.785 464.025C258.785 464.025 260.4 465.43 260.4 463.141C260.377 460.849 263.144 463.638 265.059 463.141C266.973 462.642 267.089 461.261 267.089 461.261L262.568 459.252C262.568 459.252 260.977 459.198 260.4 457.185C259.8 455.174 258.785 452.34 258.785 452.34C258.785 452.34 266.466 453.987 269.142 454.979C271.817 455.969 272.024 457.552 273.362 459.252C274.7 460.949 272.924 461.944 275.277 463.141C277.606 464.335 278.183 465.033 278.183 465.033C278.183 465.033 282.219 462.27 283.487 461.261C284.756 460.251 286.024 460.44 287.547 459.252C289.046 458.061 287.201 459.496 290.314 457.185C293.428 454.874 287.547 453.848 287.547 453.848C287.547 453.848 287.201 453.292 285.448 452.34C283.718 451.388 285.102 452.914 283.487 450.706C281.873 448.5 275.876 444.118 278.183 442.723C280.489 441.328 285.448 444.416 285.448 444.416C285.448 444.416 282.334 444.871 285.448 446.686C288.585 448.5 288.469 449.627 291.583 450.706C294.697 451.787 295.273 449.408 295.85 452.34C296.449 455.273 295.85 455.984 295.85 455.984C295.85 455.984 295.734 456.368 295.85 458.161C295.965 459.953 288.123 466.527 287.547 469.015C286.97 471.505 287.893 471.261 287.547 473.574C287.201 475.888 290.314 473.574 290.314 473.574L291.583 472.068C291.583 472.068 293.313 478.282 294.005 478.978C294.697 479.673 300.371 476.054 302.101 476.967C303.83 477.881 306.506 478.978 306.506 478.978C306.506 478.978 303.6 474.946 303.139 473.574C302.677 472.203 304.061 468.519 306.506 468.02C308.928 467.523 311.349 467.92 313.195 469.015C315.04 470.112 313.195 465.033 313.195 465.033C313.195 465.033 312.618 466.007 313.195 464.025C313.771 462.044 309.735 458.999 310.311 457.185C310.888 455.372 311.119 456.269 313.195 458.161C314.555 459.403 315.639 460.349 316.193 460.853C316.424 461.116 316.677 461.261 316.677 461.261C316.677 461.261 316.493 461.118 316.193 460.853C315.732 460.333 315.293 459.355 316.677 458.161C318.753 456.368 321.29 454.979 321.29 454.979C321.29 454.979 319.214 452.278 319.976 451.171C321.752 451.004 322.766 450.744 321.29 450.706C320.575 450.688 320.16 450.871 319.976 451.171C317.715 451.38 314.302 451.437 313.195 450.706C311.234 449.396 311.695 453.021 311.58 453.848C311.465 454.675 312.503 454.715 310.311 453.848C308.12 452.982 308.928 450.706 308.928 450.706C308.928 450.706 308.12 446.109 310.311 444.416C312.503 442.723 318.984 438.44 321.29 436.449C323.596 434.458 314.924 441.328 308.928 442.723C302.908 444.118 305.214 441.827 304.522 440.034C303.83 438.242 304.868 438.142 302.101 438.44C299.333 438.74 298.41 438.44 298.41 438.44V434.356C298.41 434.356 301.293 429.177 298.41 428.182C295.504 427.186 294.005 430.871 292.851 428.182C291.698 425.493 290.314 423.402 290.314 421.011C290.314 418.621 294.997 416.602 298.41 419.35C298.41 419.35 297.234 416.297 295.85 414.364C294.489 412.43 298.387 409.072 300.255 408.97C301.732 408.889 305.399 408.934 307.544 409.779C308.72 410.822 309.504 411.486 308.928 410.699C308.651 410.32 308.167 410.018 307.544 409.779C306.137 408.525 304.13 406.721 303.139 406.222C301.34 405.306 305.537 403.473 308.928 403.372C312.318 403.271 311.58 401.947 311.58 401.947C311.58 401.947 308.951 403.473 306.506 401.947C304.038 400.421 306.252 395.637 311.58 393.805C307.821 394.212 300.325 397.366 298.41 397.265C296.496 397.163 297.718 395.637 295.85 393.805C294.005 391.973 290.591 390.345 288.931 390.242C287.27 390.14 290.522 391.973 287.547 392.279C284.548 392.583 286.509 387.495 292.851 386.579C299.194 385.663 298.249 384.645 300.255 386.579C302.285 388.513 303.669 386.172 303.139 384.441C302.631 382.712 299.817 379.353 304.522 381.489C309.251 383.626 305.722 381.287 304.522 378.437C303.346 375.587 308.489 375.891 311.58 377.012C311.58 377.012 311.557 373.957 308.928 372.125C306.298 370.295 309.827 368.361 313.195 365.613C316.562 362.864 310.242 368.055 306.506 368.258C302.746 368.462 300.97 366.529 300.255 365.613C299.564 364.696 300.994 360.523 304.522 356.86C301.916 358.081 295.665 362.254 294.005 363.78C292.344 365.307 290.314 365.613 290.314 365.613C290.314 365.613 286.601 365.714 285.448 363.78C284.318 361.847 283.487 359.812 283.487 359.812C283.487 359.812 279.013 361.644 278.183 362.558C277.352 363.474 276.176 359.303 278.183 356.86C280.189 354.418 274.1 355.638 271.471 356.86C268.842 358.081 268.242 358.794 267.365 356.86C266.489 354.927 269.026 347.395 273.362 343.426C269.326 346.886 264.229 353.094 262.568 355.028C260.931 356.962 260.308 357.775 258.785 357.878C257.263 357.979 255.787 354.213 253.988 352.586C252.189 350.956 256.133 343.456 258.785 341.119C256.502 343.138 247.299 349.722 246.538 349.404C245.777 349.086 246.308 346.157 246.538 343.426C246.769 340.693 250.667 337.72 252.673 336.765C254.657 335.809 249.283 338.144 246.538 338.038C243.794 337.933 238.189 333.684 240.634 331.772C241.603 331.011 242.456 329.833 243.263 328.609C245.27 326.144 247.553 323.259 246.538 324.018C245.524 324.785 244.462 326.75 243.263 328.609C241.879 330.288 240.634 331.772 240.634 331.772L237.935 327.734L233.853 326.142C233.853 326.142 232.192 323.304 231.246 321.24C230.901 319.912 230.555 319.202 230.739 319.874C230.832 320.24 231.016 320.715 231.246 321.24C231.869 323.477 232.515 327.472 230.739 329.541C230.739 329.541 224.904 329.01 223.935 329.541C222.967 330.071 219.761 331.24 220.614 327.734L218.838 329.541C218.838 329.541 217.177 329.966 217.546 326.142C217.915 322.317 215.817 330.709 214.341 331.772C212.864 332.834 210.65 333.895 210.65 333.895C210.65 333.895 209.612 331.56 213.141 327.734C210.281 328.903 205.691 332.728 205.276 334.853C205.276 334.853 202.093 329.646 213.141 321.361C208.666 322.742 204.4 325.399 201.47 327.734C198.564 330.071 201.309 318.28 207.467 314.882C206.083 315.095 198.057 320.725 196.096 324.018C194.113 327.311 193.513 321.15 194.62 318.706C195.728 316.263 202.877 304.898 202.877 304.898C202.877 304.898 193.721 315.838 191.714 324.018C189.8 324.548 186.11 323.062 186.479 321.361C186.848 319.662 188.3 318.175 191.714 317.219C187.701 317.644 186.479 316.901 184.749 317.219C183.019 317.537 184.749 312.97 182.904 310.208C182.281 312.014 179.444 318.175 177.114 317.219C174.762 316.263 172.179 313.926 177.114 310.208C171.072 312.758 167.866 310.208 167.866 310.208C167.866 310.208 167.681 308.707 167.958 307.3C169.964 306.007 171.279 304.794 169.965 304.898C168.719 304.995 168.165 306.114 167.958 307.3C165.836 308.656 162.953 310.101 161.569 310.208C158.87 310.421 158.87 310.74 156.633 310.208C154.419 309.677 152.09 304.578 153.566 302.348C155.042 300.118 156.149 298.842 158.248 299.375C160.346 299.906 162.446 301.923 164.175 302.348C165.882 302.773 161.569 298.63 161.569 296.505C161.569 294.381 167.497 293.532 167.866 294.593C168.166 295.474 175.315 299.556 178.037 301.478C178.775 302.217 179.19 302.582 179.075 302.348C178.983 302.183 178.614 301.877 178.037 301.478C175.777 299.206 170.38 293.415 167.866 290.77C164.544 287.264 157.394 287.052 158.248 284.822C159.101 282.592 170.564 289.283 172.294 290.77C174.024 292.256 177.714 293.002 180.436 294.593C183.157 296.187 175.5 288.753 177.114 286.733C178.706 284.716 177.853 283.441 180.436 283.015C183.019 282.592 185.371 281.529 186.479 283.015C187.586 284.504 186.271 284.396 189.085 284.822C191.899 285.247 192.014 284.504 191.714 286.733C191.414 288.965 195.681 287.051 197.988 286.733C200.294 286.416 200.94 290.239 201.47 290.77C202.001 291.3 198.241 284.078 201.47 283.015C203.316 284.076 207.444 288.292 208.459 290.249C208.736 291.195 208.851 291.595 208.666 290.77C208.643 290.625 208.551 290.448 208.459 290.249C208.205 289.369 207.813 288.013 207.467 286.733C206.706 284.078 208.667 283.441 210.65 284.822C212.611 286.203 206.314 280.998 205.276 279.404C204.238 277.81 207.56 278.661 210.65 279.404C213.718 280.148 205.345 276.324 202.877 275.686C200.409 275.05 199.487 272.606 197.988 271.224C196.466 269.845 206.199 274.625 210.65 275.686C215.079 276.749 207.905 275.368 205.276 271.224C205.276 271.224 207.998 270.163 213.141 271.224C212.357 270.268 212.495 267.933 210.65 266.765C208.782 265.596 214.502 265.171 216.209 266.765C217.915 268.357 213.141 262.939 213.141 262.939C213.141 262.939 215.425 262.196 218.838 260.922C222.229 259.646 220.96 257.629 223.935 258.48C226.911 259.328 221.836 256.143 218.838 253.698C215.817 251.256 216.209 250.087 216.209 250.087C216.209 250.087 220.337 251.574 223.935 253.698C227.533 255.823 230.07 255.61 233.853 258.48C237.636 261.347 235.882 261.56 237.935 262.939C237.935 262.939 234.799 254.974 236.159 253.698C237.52 252.424 236.505 252.955 237.935 254.761C239.365 256.566 242.825 257.204 243.632 258.48C244.417 259.754 245.777 261.771 245.155 262.939C244.624 263.961 244.832 268.144 243.079 270.388C242.525 270.914 242.202 271.224 242.202 271.224C242.548 270.998 242.825 270.714 243.079 270.388C244.37 269.177 246.815 266.83 249.006 264.533C249.006 264.533 250.621 264.108 250.921 266.765C250.921 266.765 247.922 269.738 253.988 266.765C253.988 266.765 256.756 263.472 256.018 268.039C255.257 272.606 256.018 272.075 256.018 272.075C256.018 272.075 256.894 270.588 258.785 269.525C260.7 268.464 260.4 266.765 260.4 266.765C260.4 266.765 262.199 271.224 260.4 274.412C259.408 276.163 259.27 277.496 259.201 278.572C258.486 280.096 258.37 281.511 258.785 280.785C259.155 280.163 259.155 279.454 259.201 278.572C259.847 277.198 260.954 275.738 262.568 275.686C265.982 275.581 259.108 279.404 258.785 284.822C258.785 284.822 264.136 275.581 267.089 275.686C270.064 275.793 267.089 280.785 267.089 280.785L265.059 284.822L269.142 290.77C269.142 290.77 269.464 288.753 269.142 286.733C268.819 284.716 271.471 283.015 271.471 283.015C271.471 283.015 271.263 282.379 273.362 280.785C275.484 279.192 278.782 280.998 278.183 283.015C278.183 283.015 280.028 281.423 278.183 279.404C276.337 277.387 273.362 272.075 273.362 272.075C273.362 272.075 271.771 271.757 271.471 269.525C271.171 267.295 270.756 267.188 273.362 266.765C275.968 266.34 278.183 271.224 278.183 271.224C278.183 271.224 278.621 268.208 280.858 266.765C283.095 265.322 280.858 260.922 280.858 260.922C280.858 260.922 282.934 258.976 280.858 256.079C279.313 253.931 278.598 253.66 278.321 253.664C278.229 253.686 278.183 253.698 278.183 253.698C278.183 253.698 278.229 253.664 278.321 253.664C279.313 253.396 285.586 251.679 287.547 250.087C289.669 248.356 291.583 242.837 291.583 242.837L287.547 237.873C287.547 237.873 279.728 234.149 280.858 230.975C281.988 227.803 278.183 226.975 278.183 226.975H275.277C275.277 226.975 272.163 223.666 271.471 221.871C270.779 220.078 270.479 217.733 275.277 219.252C280.051 220.768 277.813 221.458 280.858 221.871C283.902 222.284 280.858 219.252 280.858 219.252V216.907C280.858 216.907 278.621 214.699 280.858 213.596C283.095 212.493 283.487 209.458 283.487 209.458L280.858 207.803H278.183L273.362 209.458C273.362 209.458 273.985 206.01 275.277 204.216C276.545 202.423 278.298 200.078 280.858 198.562C283.418 197.043 282.772 194.561 283.487 191.94C284.225 189.319 279.728 185.181 280.858 183.249C281.988 181.318 274.977 176.359 275.277 173.104C275.553 169.847 273.362 168.99 273.362 168.99C273.362 168.99 276.153 174.475 273.362 176.359C270.594 178.245 269.142 170.703 269.142 170.703C269.142 170.703 268.334 164.936 269.142 163.225C269.949 161.516 263.398 167.235 262.568 173.104C261.253 173.486 258.278 175.785 257.286 173.104C256.295 170.421 253.25 157.668 253.988 156.031C254.726 154.391 254.288 151.182 252.673 152.444C251.036 153.706 249.79 155.256 249.006 156.031C248.637 156.4 247.576 156.122 246.815 155.478C247.276 153.042 247.461 151.442 246.538 152.444C245.431 153.642 245.962 154.777 246.815 155.478C246.192 158.624 245.062 163.163 245.155 165.298C245.316 169.086 245.155 173.104 245.155 173.104H242.202C242.202 173.104 234.13 167.593 230.739 166.79C227.326 165.987 226.057 161.856 228.156 161.051C230.255 160.248 236.275 158.871 237.935 158.183C239.596 157.494 241.072 157.78 242.202 156.031C243.309 154.28 243.632 150.836 243.632 150.836C243.632 150.836 238.673 144.296 237.935 142.688C237.197 141.082 236.159 142.688 236.159 142.688V144.524H233.853L230.739 146.935L233.853 149.459H228.156L226.565 146.935C226.565 146.935 222.667 143.262 225.066 142.688C227.464 142.114 228.41 142.229 230.739 141.082C233.069 139.933 233.853 141.082 233.853 141.082C233.853 141.082 231.269 134.655 228.156 133.622C225.065 132.588 215.471 125.358 214.341 123.751C213.21 122.145 212.588 121.34 210.65 120.768C208.69 120.193 207.467 120.768 207.467 120.768C207.467 120.768 203.869 118.816 201.47 118.586C199.095 118.357 190.261 115.487 189.085 116.636C187.909 117.783 182.904 118.586 182.904 118.586L180.436 120.768V121.799C180.436 121.799 190.838 120.768 192.96 123.751C195.105 126.736 197.619 126.62 199.372 127.079C201.101 127.539 201.055 127.423 202.877 128.226C204.699 129.031 205.045 127.882 205.276 130.062C205.484 132.245 205.276 132.245 205.276 132.245C205.276 132.245 203.984 129.834 202.877 132.245C201.747 134.655 201.47 134.999 201.47 134.999C201.47 134.999 198.195 134.768 197.988 133.622C197.757 132.473 197.803 131.211 197.988 130.062C198.172 128.916 195.612 128.113 194.62 130.062C193.629 132.014 192.96 132.245 192.96 132.245C192.96 132.245 192.452 134.768 191.714 132.245C190.976 129.719 189.085 134.999 189.085 134.999H186.479V132.245C186.479 132.245 186.94 130.521 189.085 130.062C191.23 129.605 185.717 129.375 186.479 127.079C187.24 124.784 188.255 124.899 189.085 123.751C189.892 122.604 181.635 121.111 180.436 123.751C179.237 126.39 179.236 123.981 175.523 125.128C171.787 126.277 172.179 126.505 171.118 127.079C170.057 127.654 168.996 128.8 167.866 128.226C166.736 127.654 164.867 125.358 166.205 123.751C167.52 122.145 174.577 113.029 175.523 110.815C173.124 113.995 168.788 120.193 164.175 120.768C159.539 121.34 160.946 120.881 160.185 118.586C159.401 116.29 157.487 113.882 161.569 111.699C165.651 109.519 168.535 107.109 169.965 104.239C168.05 105.962 160.277 111.699 156.633 111.699C156.08 109.75 155.503 108.371 158.248 106.536C160.992 104.698 165.121 101.83 166.205 99.7635C166.297 99.543 166.413 99.3343 166.528 99.1356C167.912 97.6093 167.866 96.55 167.866 96.55C167.866 96.55 167.381 97.4662 166.528 99.1356C165.605 100.121 164.106 101.302 161.569 102.518C155.134 105.616 156.633 104.239 156.633 104.239C156.633 104.239 155.895 102.059 156.633 99.7635C157.394 97.4682 155.134 102.518 155.134 102.518C155.134 102.518 154.788 106.191 153.566 107.798C152.643 108.997 150.429 108.216 148.676 106.407C148.215 105.813 147.707 105.105 147.154 104.239C147.546 105.056 148.076 105.791 148.676 106.407C150.429 108.653 151.513 109.299 151.951 110.815C152.482 112.733 151.536 113.077 149.806 113.995C148.63 114.625 147.822 114.392 147.407 114.182C147.246 114.062 147.154 113.995 147.154 113.995C147.154 113.995 147.246 114.086 147.407 114.182C148.445 114.889 152.113 117.409 153.566 118.586C155.273 119.963 156.679 119.734 156.633 121.799C156.61 123.866 155.134 125.128 155.134 125.128L151.951 123.751C151.951 123.751 144.478 120.652 143.694 118.586C142.887 116.521 141.134 114.684 141.272 112.733C141.365 111.435 141.641 109.374 142.31 107.973C142.771 107.462 143.233 106.976 143.694 106.536C143.094 106.727 142.656 107.266 142.31 107.973C140.442 110.124 138.781 112.697 138.366 113.995C137.813 115.603 137.167 116.405 134.215 115.259C131.285 114.11 135.829 118.586 135.829 118.586H132.092C130.086 118.586 134.215 120.309 138.366 121.799C142.495 123.292 145.424 122.258 145.955 125.128C146.485 127.998 146.739 126.849 147.154 130.062C147.546 133.278 147.154 133.622 147.154 133.622C147.154 133.622 153.312 134.768 153.566 136.835C153.796 138.9 154.696 139.015 156.633 141.082C158.594 143.147 163.46 144.065 164.175 144.524C164.867 144.983 167.543 144.409 167.866 146.935C168.189 149.459 167.935 149.805 167.866 150.836C167.797 151.869 161.085 152.215 158.248 152.444C155.411 152.672 172.594 156.232 173.655 158.183C173.516 160.133 167.52 158.183 166.205 158.183C164.867 158.183 158.248 156.031 158.248 156.031C158.248 156.031 155.849 151.41 153.566 150.836C151.282 150.264 147.154 146.935 145.955 144.524C144.755 142.114 138.482 140.277 141.272 138.441C144.086 136.605 147.154 137.41 149.806 139.359C152.482 141.311 146.485 132.704 143.694 132.245C140.88 131.785 136.752 129.834 134.215 130.062C131.701 130.293 129.44 128.226 129.44 128.226C129.44 128.226 131.147 125.581 132.738 124.355C133.638 123.987 134.215 123.751 134.215 123.751C133.8 123.693 133.269 123.945 132.738 124.355C130.224 125.388 125.22 127.465 123.836 128.226C121.967 129.259 119.177 129.031 116.247 127.079C113.318 125.128 112.257 119.963 112.788 118.586C113.318 117.208 118.646 112.57 122.359 110.815C118.646 112.389 110.643 114.11 110.112 116.636C109.582 119.16 110.112 112.274 117.701 106.536C112.373 109.06 106.929 111.699 106.929 111.699C106.929 111.699 107.898 107.562 109.789 105.36C110.274 104.97 110.735 104.595 111.173 104.239C110.666 104.472 110.205 104.867 109.789 105.36C105.661 108.631 99.9869 112.836 97.5882 112.733C94.9358 112.618 92.7911 111.699 92.7911 111.699L90.6689 113.995C90.6689 113.995 88.6623 116.749 90.6689 119.619C92.6755 122.489 94.4056 122.145 92.7911 123.751C91.1996 125.358 91.8682 125.817 90.6689 127.079C89.4695 128.341 89.7463 128.8 88.1318 130.062C86.5403 131.326 80.0134 137.638 75.6081 138.441C71.2258 139.246 71.2258 134.655 73.2093 133.622C75.2159 132.588 75.216 130.062 75.6081 128.226C76.0232 126.39 75.2156 121.914 77.0838 121.799C78.9521 121.686 78.9524 118.586 78.9524 118.586C78.9524 118.586 82.9423 116.98 84.6721 118.586C86.402 120.193 83.6112 116.749 84.6721 115.259C85.7331 113.766 88.1318 113.995 88.1318 113.995C88.1318 113.995 91.0612 110.553 92.7911 107.798C94.5209 105.044 96.1354 104.239 96.1354 104.239C96.1354 104.239 88.4086 103.667 88.1318 101.485C87.8781 99.3045 90.8075 101.141 92.7911 99.7635C92.7911 99.7635 88.6623 99.4198 88.1318 96.55C87.6013 93.6804 89.3314 93.108 92.7911 94.1394C96.2738 95.1729 91.5915 90.8127 88.1318 89.664C84.6721 88.5173 85.2026 84.4989 88.1318 84.2704C88.5239 84.2405 88.9391 84.2624 89.3774 84.324C92.6064 85.6734 96.1354 86.9095 96.1354 86.9095C96.1354 86.9095 92.3065 84.7354 89.3774 84.324C87.3938 83.4973 85.5255 82.6288 84.6721 81.975C82.4118 80.2539 82.6885 77.3842 83.0806 75.0889C83.4727 72.7935 81.6048 67.9723 81.6048 67.9723V65.9074C81.6048 65.9074 75.0775 63.9559 73.2093 63.7253C71.3641 63.4968 70.0264 60.7424 73.2093 60.3966C76.4152 60.0528 78.0298 58.6477 81.6048 60.3966C85.1798 62.1474 81.5584 57.4891 84.6721 56.1357C87.8089 54.7823 92.053 55.9847 92.7911 58.3893C93.5522 60.794 96.1354 60.3966 96.1354 60.3966L101.233 63.7253C101.233 63.7253 104.392 63.6439 104.9 65.3947C103.677 68.1213 102.616 70.4524 104.185 67.9723C104.923 66.8375 105.061 66.0048 104.9 65.3947C105.846 63.2881 106.883 60.9451 106.929 60.3966C106.929 60.3966 116.04 65.9054 117.701 69.3614C117.701 69.3614 113.78 59.5917 114.495 58.3893C115.187 57.187 122.359 58.3893 122.359 58.3893C122.359 58.3893 117.631 53.3873 126.165 60.3966C134.722 67.4079 138.366 67.9723 138.366 67.9723C138.366 67.9723 137.282 66.5076 135.829 63.7253C134.376 60.9451 132.393 57.9382 135.829 58.3893C139.266 58.8405 141.318 60.4522 143.694 60.3966C146.047 60.3429 148.86 61.3962 149.806 63.7253C150.775 66.0545 149.114 60.9451 147.154 58.3893C145.193 55.8356 144.386 55.2335 147.154 53.58C149.898 51.9266 150.844 52.3777 151.951 49.2218C153.035 46.0659 147.407 54.4823 143.694 53.58C139.958 52.6798 135.022 46.366 138.366 46.2169C141.688 46.0659 143.879 46.6681 147.154 46.2169C149.829 45.8473 152.412 46.0818 153.266 46.1792C153.45 46.207 153.566 46.2169 153.566 46.2169C153.566 46.2169 153.45 46.2011 153.266 46.1792C152.343 46.0381 149.599 45.3903 149.806 42.759C150.06 39.6031 153.566 39.303 153.566 39.303C153.566 39.303 153.035 38.2498 149.806 36.7474C146.577 35.2449 144.225 32.6892 147.154 31.789C150.06 30.8867 148.745 26.5285 151.951 28.4821C152.782 29.0007 153.52 29.4777 154.142 29.899C153.981 31.2504 156.633 31.789 156.633 31.789C156.633 31.789 155.826 31.0596 154.142 29.899C154.165 29.4996 154.465 29.0305 155.134 28.4821C158.086 26.0774 162.561 26.3774 164.175 26.8286C165.767 27.2797 159.816 23.3726 160.185 20.968C160.439 19.2211 163.645 19.9305 165.905 21.3713C167.428 23.15 168.558 24.4219 167.866 23.2216C167.474 22.5618 166.759 21.9139 165.905 21.3713C164.383 19.5848 162.445 17.2854 161.569 16.4587C167.335 16.9098 161.73 15.3199 161.569 13.1458C161.431 11.1843 161.938 8.33649 163.599 6.86786C164.591 6.25775 165.052 5.90796 164.175 6.44257C163.968 6.5658 163.76 6.70886 163.599 6.86786C162.192 7.70648 159.747 9.03998 158.248 9.25067C155.641 9.61237 160.07 3.99615 162.699 2.36658C165.306 0.734985 152.874 4.99384 151.951 6.44257C151.029 7.89136 144.547 8.16357 143.694 9.25067C142.818 10.3377 141.849 10.7908 141.272 9.25067C140.719 7.71045 142.772 4.9024 145.955 2.36658C142.403 3.72589 137.513 2.36658 134.215 4.99377C130.94 7.62103 129.163 6.89569 127.572 6.44257C126.004 5.98944 126.165 8.07214 126.165 8.07214C126.165 8.07214 127.18 11.7865 126.165 13.1458C125.15 14.5052 125.45 16.7687 123.836 17.675C122.221 18.5812 121.483 20.9083 119.892 20.968C118.323 21.0275 114.817 20.2744 112.788 20.968C110.758 21.6595 111.681 16.1348 110.112 15.0477C108.544 13.9606 104.185 10.4271 104.185 10.4271C104.185 10.4271 103.631 10.1569 104.185 8.07214C104.761 5.98944 99.4795 6.53394 97.5882 9.25067C95.72 11.9673 95.0283 16.0573 92.7911 16.4587C90.5769 16.8601 88.1318 16.4587 88.1318 16.4587C88.1318 16.4587 86.5403 10.8802 88.1318 9.25067C89.7232 7.62103 82.1123 13.1458 81.6048 14.3243C81.0974 15.5008 78.9524 15.0477 78.9524 15.0477L75.6081 14.3243C75.6081 14.3243 68.9194 13.8712 68.9194 11.5162C68.9194 9.15924 65.3444 11.5162 65.3444 11.5162C65.3444 11.5162 63.6604 15.6935 63.2452 16.4587C62.807 17.2218 58.9324 14.9583 59.0247 13.1458C58.5173 15.5922 59.2322 18.0088 59.9702 20.968C60.7083 23.925 51.2518 23.2911 50.1908 25.1036C49.1529 26.914 39.9964 28.4185 38.751 28.4821C37.4824 28.5457 36.5368 29.1438 35.0607 28.4821C33.5845 27.8203 32.2237 28.0011 30.2171 29.4519C28.2336 30.9006 22.7671 26.8286 22.7671 26.8286C22.7671 26.8286 16.5629 24.9645 18.1313 23.2216C19.7227 21.4787 26.2272 21.117 28.4413 17.675C25.6044 18.762 18.2467 21.904 16.1478 20.968C14.0259 20.0299 19.2847 14.8669 19.9305 13.1458C14.5565 18.1281 9.6207 18.6706 7.93699 17.675C6.25329 16.6793 6.3687 15.0477 4.56968 14.3243C2.79372 13.5989 5.03061 12.7841 1.54788 13.1458C-1.93485 13.5075 1.54788 549 1.54788 549L1.34066 517.316C2.58614 517.333 3.18581 517.768 3.18581 517.768C3.18581 517.768 8.62883 517.259 9.92044 515.02C11.2351 512.781 10.7509 514.817 12.4116 513.697C14.0722 512.577 13.8184 514.511 18.2007 515.02C22.5598 515.529 20.8067 518.481 21.4986 520.618C22.2136 522.755 23.5055 522.246 23.5055 522.246C23.5055 522.246 27.5185 524.18 25.2813 525.096C23.044 526.012 21.4986 526.521 21.4986 526.521H18.2007C18.2007 526.521 15.1332 524.485 12.4116 526.521C10.5434 527.923 4.80005 528.359 1.40958 528.495V528.661C1.43265 531.713 1.45589 534.764 1.47896 537.815V538.896C3.99298 541.113 8.9748 545.573 9.92044 547.08C11.0275 548.805 13.4953 548.985 14.2103 549H14.418ZM7.22209 171.192C7.24515 171.244 7.24497 171.309 7.26803 171.389C7.614 173.301 8.19043 174.61 5.12286 174.811C2.0553 175.012 1.54788 173.104 1.54788 173.104C1.54788 173.104 0.832882 168.066 1.54788 167.162C2.23981 166.256 3.07049 167.162 3.07049 167.162C3.07049 167.162 4.22335 167.764 5.12286 165.147C6.02238 162.531 8.55955 163.638 9.36681 165.147C10.1971 166.657 11.3506 166.355 12.7575 167.162C14.1645 167.967 15.5711 168.571 17.5547 170.079C19.5382 171.59 16.3784 172.899 17.5547 174.811C18.7079 176.723 22.1676 178.132 22.1676 178.132C22.1676 178.132 19.8842 181.153 17.5547 180.65C15.2021 180.145 10.7737 177.832 9.36681 176.824C8.02907 175.858 7.01451 169.992 7.22209 171.192ZM43.5251 203.435C43.848 203.317 44.2171 203.154 44.6554 202.932C47.9997 201.253 48.2767 201.892 48.2767 201.892C48.2767 201.892 49.7759 202.292 48.2767 203.731C46.8006 205.172 41.0572 208.21 40.2961 209.17C39.558 210.13 39.558 210.368 38.4509 211.249C37.3439 212.129 36.8595 212.849 35.1066 213.169C33.3306 213.488 27.8646 214.049 27.2188 214.848C26.573 215.647 23.9665 215.728 22.7671 214.848C21.5447 213.967 21.0836 210.13 18.9156 211.249C18.9156 211.249 20.553 209.881 21.7063 208.466C21.7985 207.513 22.1445 206.499 22.1676 205.436C22.2368 202.944 22.0985 203.902 23.7361 202.693C24.751 201.954 24.0357 201.704 24.2663 202.109C24.4278 202.365 24.9584 202.882 26.5498 203.701C27.0111 203.943 27.4264 204.148 27.7724 204.315C28.4874 203.844 29.3174 204.013 30.1478 204.307C30.1939 204.124 30.2632 203.918 30.3554 203.701C30.8859 202.493 31.209 201.99 32.1546 201.386C33.0772 200.782 37.413 201.386 37.413 201.386C37.413 201.386 46.8695 200.782 45.1166 201.386C43.802 201.839 44.0787 202.352 43.5251 203.435ZM12.2728 230.762C12.2728 230.762 9.7589 234.123 7.63698 235.081C5.49198 236.041 6.04544 236.44 5.12286 237.72C4.20029 239 5.12286 241.24 5.12286 241.24C5.12286 241.24 3.83135 241.959 7.63698 240.441C7.63698 240.441 5.39973 243.239 7.63698 244.278C9.85116 245.318 16.4477 240.2 18.9156 239C21.3604 237.801 25.0736 236.122 25.5349 234.202C26.0192 232.283 22.7671 230.762 22.7671 230.762C22.7671 230.762 21.4525 230.043 19.8841 229.802C18.3157 229.564 20.2532 233.483 21.8216 234.202C19.9764 234.041 17.3704 231.883 15.9866 230.762C13.0113 230.603 12.2728 230.762 12.2728 230.762ZM14.118 255.316C14.118 255.316 23.69 256.596 25.5813 254.676C27.4956 252.756 27.5879 250.596 29.1563 250.596C30.7477 250.596 30.7477 248.517 29.1563 248.438C27.5879 248.358 26.0887 249.056 25.5813 249.547C25.0739 250.038 24.474 249.797 23.2055 250.596C21.9138 251.397 20.6223 250.196 20.9914 248.438C21.3604 246.679 20.438 248.038 19.7922 248.438C19.1464 248.837 19.054 248.336 18.9156 249.547C18.7772 250.757 18.4083 251.876 17.3704 250.596C16.3556 249.318 15.8017 249.876 15.1559 250.596C14.5101 251.317 16.0785 254.115 14.118 255.316ZM39.0969 267.538C38.9816 267.311 37.6207 264.41 33.9304 263.873C36.2138 265.473 37.044 266.031 36.9518 267.552C36.8595 269.072 30.7476 273.55 28.6026 274.43C26.4807 275.31 23.5055 274.43 23.5055 274.43C23.5055 274.43 24.7048 273.87 23.5055 272.27C22.3061 270.67 25.1661 270.831 23.5055 269.712C21.8218 268.591 27.5878 266.351 28.6026 265.233C29.6405 264.112 29.8249 263.072 29.9171 261.314C30.0094 259.555 33.3999 258.754 33.9304 258.595C34.4609 258.434 36.4905 257.794 36.9518 255.316C36.9518 255.316 40.481 253.875 40.2042 255.316C39.9274 256.755 39.2814 257.154 39.0969 258.595C38.9124 260.034 41.0572 255.475 43.6404 255.316C46.2467 255.155 47.8153 257.075 46.7082 258.595C45.6011 260.113 44.0097 261.393 42.5336 262.194C41.0575 262.993 41.5189 263.072 40.2042 265.233C39.0971 267.095 39.0739 267.47 39.0969 267.538C39.0969 267.548 39.0969 267.552 39.0969 267.552C39.0969 267.552 39.0969 267.548 39.0969 267.538ZM22.2369 289.065C22.2369 289.065 22.9519 284.907 25.5813 282.588C28.2337 280.269 30.3324 281.547 30.3554 280.589C30.3785 279.629 32.1083 284.506 33.9304 284.826C35.7525 285.146 35.1531 285.547 35.13 286.586C35.107 287.626 35.4299 288.025 35.13 289.065C34.8302 290.104 33.9304 290.344 33.9304 290.344C33.9304 290.344 27.5879 290.664 25.5813 290.344C23.5977 290.025 21.7987 291.384 22.2369 289.065ZM111.173 314.882C111.173 314.882 112.65 316.659 114.01 314.882C115.371 313.107 116.87 313.008 116.87 313.008C116.87 313.008 117.539 315.361 119.361 313.008C121.183 310.655 119.361 314.882 119.361 314.882C119.361 314.882 122.198 314.97 123.005 313.008C123.813 311.049 123.005 308.302 123.005 308.302L121.645 306.734C121.645 306.734 120.284 305.263 119.361 305.655C118.462 306.046 116.87 304.773 116.87 306.734C116.87 308.696 118.784 309.284 116.87 310.361C116.87 310.361 117.77 308.205 114.01 308.302C110.251 308.401 109.72 310.067 111.173 311.637C112.649 313.205 111.173 314.882 111.173 314.882ZM82.0427 333.205C82.0427 333.205 85.8024 332.716 85.9177 330.461C86.033 328.205 86.4714 327.225 88.6395 327.225C90.8075 327.225 88.6395 324.578 88.6395 324.578V322.323H84.4185C84.4185 322.323 83.5188 324.481 82.0427 324.578C80.5666 324.676 80.221 327.225 80.221 327.225H78.3988C78.3988 327.225 79.298 330.264 82.0427 329.481C82.0427 330.264 80.3362 330.363 78.3988 329.481C77.5915 330.755 78.3988 330.461 78.3988 330.461C78.3988 330.461 79.4134 333.205 82.0427 333.205ZM51.8977 337.716C51.8977 337.716 56.2106 339.873 58.2634 339.676C60.3161 339.481 59.8549 337.716 59.8549 337.716L56.4182 335.363V337.716C56.4182 337.716 55.5189 336.148 53.4892 335.363C51.4365 334.579 50.5138 336.049 51.8977 337.716ZM40.5038 342.226C40.5038 342.226 44.7247 347.031 44.1481 348.502C43.5715 349.972 48.3687 347.52 50.1908 348.502C51.9898 349.481 50.7445 350.461 51.8977 348.502C53.0278 346.54 53.6045 349.678 53.6045 349.678C53.6045 349.678 53.6046 351.54 55.3114 351.638C57.0182 351.737 56.5569 348.696 55.3114 347.226C54.0429 345.755 51.5517 344.384 51.8977 343.108C52.2206 341.834 48.5071 340.952 47.0771 341.049C45.6241 341.149 42.3259 342.52 40.5038 342.226ZM121.898 355.759L124.574 358.893L127.203 361.733C127.203 361.733 128.771 363.438 129.44 366.733C130.109 370.028 131.424 368.258 131.424 368.258L133.915 370.028V373.439C133.915 373.439 132.992 372.984 131.424 371.847C129.833 370.71 128.518 370.825 127.203 371.847C125.888 372.87 122.982 372.87 121.276 370.028C119.546 367.189 119.292 366.733 119.292 366.733L117.977 368.258C117.977 368.258 113.872 372.073 112.788 370.028C111.681 367.983 106.929 368.258 106.929 368.258C107.737 366.26 109.259 365.483 112.788 365.483C116.294 365.483 114.01 363.778 114.01 363.778C114.01 363.778 112.165 361.847 112.788 358.893C113.387 355.938 113.364 357.87 115.601 356.848C117.839 355.825 117.7 356.052 119.292 355.03C120.86 354.007 120.606 352.757 124.574 351.507C128.518 350.257 129.833 348.667 131.424 346.962C132.992 345.258 132.738 345.825 133.915 344.461C135.114 343.098 137.213 342.53 137.213 342.53C137.213 342.53 138.551 342.303 139.197 344.461C139.865 346.622 140.926 350.485 144.87 352.643C148.837 354.802 144.617 358.893 146.992 356.848C149.345 354.802 147.638 355.598 148.699 352.643C149.76 349.688 153.058 354.12 152.643 349.575C152.251 345.03 155.019 347.872 155.411 349.575C155.826 351.28 157.925 352.643 157.925 352.643V355.03C157.925 355.03 159.631 359.349 157.925 361.733C156.218 364.12 160.185 365.483 160.185 365.483C160.185 365.483 160.3 363.894 160.992 363.778C161.684 363.665 163.737 362.075 163.46 363.778C163.206 365.483 165.19 365.257 165.974 366.733C166.758 368.21 173.355 371.847 173.355 371.847C173.355 371.847 171.118 371.62 168.488 371.847C165.836 372.073 164.129 375.71 160.992 374.573C157.879 373.439 154.765 373.892 152.643 373.439C150.544 372.984 148.838 378.324 146.992 377.074C145.124 375.824 142.633 373.21 143.809 371.847C145.009 370.484 145.793 370.939 146.992 370.028C148.169 369.12 150.544 366.733 150.544 366.733C150.544 366.733 150.152 365.71 150.544 363.778C150.936 361.847 150.544 360.712 150.544 360.712C150.544 360.712 149.345 361.62 146.992 361.733C144.617 361.847 143.809 361.733 143.809 361.733C143.809 361.733 144.617 358.78 141.272 360.712C137.951 362.644 136.29 362.188 133.915 361.733C131.562 361.28 132.485 358.893 131.424 356.848C130.363 354.802 128.125 351.62 129.44 355.03C130.755 358.438 129.971 358.665 127.203 358.893C125.173 359.058 122.936 356.926 121.898 355.759L121.276 355.03C121.276 355.03 121.506 355.328 121.898 355.759ZM197.642 361.26C197.619 363.504 196.788 365.929 194.712 367.189C192.475 368.552 191.83 371.507 191.414 370.028C191.022 368.552 189.177 367.87 188.001 365.257C186.801 362.644 183.503 362.415 185.487 360.712C187.47 359.007 188.001 358.893 188.001 358.893C189.315 358.78 191.299 357.983 189.316 356.393C187.332 354.802 187.194 354.802 189.316 353.667C191.415 352.53 190.1 354.802 191.414 353.667C192.752 352.53 191.553 351.507 194.712 351.735C197.895 351.962 202.508 350.825 204.884 350.712C207.26 350.598 206.06 351.167 208.69 350.712C211.342 350.257 213.325 352.075 213.833 353.667C214.363 355.257 211.596 356.62 208.69 358.893C205.807 361.165 202.508 366.394 199.856 365.257C198.403 364.627 197.826 362.566 197.642 361.26C197.642 361.076 197.642 360.893 197.619 360.712C197.573 359.647 197.48 360.209 197.642 361.26ZM228.156 360.537C228.156 360.537 234.199 363.582 233.853 365.613C233.484 367.644 236.39 368.21 236.39 368.21H238.765V365.613C238.765 365.613 234.822 363.778 236.39 361.962C237.981 360.143 239.296 356.962 236.39 357.87C233.484 358.78 232.838 360.666 230.855 359.893C228.871 359.12 228.156 360.537 228.156 360.537ZM230.393 379.661C230.393 379.661 233.968 380.003 235.052 380.599C236.136 381.195 236.944 379.661 236.944 379.661C236.944 379.661 239.204 378.894 236.944 378.552C234.66 378.212 233.876 378.552 233.876 378.552L231.615 377.7L230.393 379.661ZM228.156 386.579C228.156 386.579 231.685 389.312 232.538 390.242C233.368 391.174 232.538 387.336 232.538 387.336C232.538 387.336 231.984 387.271 233.461 386.579C234.96 385.885 235.052 384.522 235.052 384.522C235.052 384.522 234.06 384.009 232.538 384.522C230.993 385.033 230.393 384.522 230.393 384.522H228.156V386.579ZM258.532 427.027C258.117 427.629 257.263 428.412 255.533 428.917C252.42 429.833 254.565 430.749 252.189 430.443C249.837 430.139 254.634 428.917 255.533 426.169C255.672 425.783 255.81 425.427 255.948 425.101C255.764 424.092 255.349 422.965 254.819 422.045C253.342 421.872 254.265 421.468 250.921 422.098C249.306 422.397 248.061 422.583 247.115 422.558C245.108 422.792 243.309 422.118 243.378 420.936C243.494 419.197 247.253 417.828 249.929 416.826C250.459 416.258 250.828 415.745 250.921 415.381C251.013 414.942 250.99 414.547 250.874 414.199C250.413 414.109 249.86 414.042 249.191 414.004C246.031 413.823 247.323 413.136 247.438 412.52C246.262 412.319 245.339 411.909 244.324 410.604C243.632 410.302 242.802 409.964 241.81 409.572C238.904 408.436 239.434 406.391 240.611 406.051C240.864 405.975 241.072 405.751 241.234 405.443C241.164 405.113 241.164 404.769 241.211 404.389C241.326 403.537 241.602 402.796 241.741 402.092L240.611 399.914C240.611 399.914 240.634 399.51 240.749 398.97C240.311 397.833 241.211 397.062 241.211 397.062C241.211 397.062 241.326 397.11 241.533 397.179C241.948 396.651 242.525 396.237 243.378 396.164C245.062 396.019 245.685 396.476 246.215 397.032C247.876 395.735 250.921 395.433 250.921 395.433C250.921 395.433 251.359 395.941 252.189 397.062C252.558 397.569 252.973 397.825 253.458 397.992C253.527 397.986 253.596 397.982 253.665 397.982C254.68 397.982 255.141 398.187 255.764 398.535C257.079 398.741 257.586 397.426 258.924 398.487C260.331 399.606 261.046 400.115 260.7 401.641C260.331 403.167 258.924 402.557 260.7 403.271C262.476 403.982 262.706 404.389 262.706 404.389C262.706 404.389 264.598 404.797 262.706 406.222C260.815 407.647 261.415 407.647 266.374 407.647C267.02 408.416 267.55 408.992 267.296 409.807C267.988 410.671 268.934 411.629 269.879 412.072C271.863 412.981 270.156 415.936 268.173 416.504C266.189 417.073 262.245 416.617 263.952 417.754C265.682 418.891 267.112 421.844 268.173 423.094C269.233 424.344 266.074 425.481 266.074 425.481C266.074 425.481 265.405 426.618 263.952 425.481C263.675 425.258 263.421 425.012 263.191 424.783L261.945 425.183C261.968 425.276 261.969 425.376 261.969 425.481C262.245 428.321 257.886 429.344 258.785 428.182C259.062 427.814 258.901 427.411 258.532 427.027ZM214.179 395.947C214.179 395.947 223.774 403.622 224.95 405.242C226.15 406.862 225.526 406.778 228.156 408.141C230.808 409.507 230.232 409.336 231.615 409.761C232.976 410.188 232.677 407.885 230.393 406.778C228.133 405.669 228.894 405.755 228.156 403.195C227.441 400.637 228.156 400.894 228.156 400.894C228.156 400.894 226.057 399.87 224.95 399.699C223.866 399.53 223.289 399.699 223.289 399.699C223.289 399.699 221.883 399.103 221.491 397.909C221.098 396.714 221.698 395.862 220.107 395.947C218.538 396.033 218.123 395.947 218.123 395.947C218.123 395.947 214.871 396.118 214.179 395.947ZM141.272 457.517C141.272 457.517 143.048 463.419 145.401 464.132C147.777 464.844 152.389 467.084 152.389 467.084C152.389 467.084 156.034 467.694 155.803 469.627C155.572 471.561 154.142 471.867 155.803 473.495C157.464 475.124 158.755 476.041 158.755 476.041H165.259C165.259 476.041 165.974 473.801 167.381 476.041C168.788 478.278 171.51 474.616 171.51 474.616V472.07L176.123 470.85L179.075 472.07L176.123 469.627C176.123 469.627 173.632 467.286 174.231 464.132C174.831 460.977 174.231 459.45 174.231 459.45L171.51 458.433C171.51 458.433 167.981 457.823 167.381 459.45C166.781 461.078 169.503 459.858 167.381 461.893C165.259 463.928 165.375 462.503 163.138 461.893C160.877 461.283 159.124 458.127 157.233 458.433C155.341 458.737 155.803 457.517 154.027 457.517C152.274 457.517 144.594 458.737 141.272 457.517ZM199.395 531.5C199.395 531.5 209.382 523.746 212.611 522.874C215.84 522.003 219.783 520.435 220.083 518.605C220.383 516.775 222.828 515.991 222.828 515.991C222.828 515.991 220.706 513.725 218.769 514.248C216.854 514.771 218.884 518.256 218.769 518.605C216.255 515.729 216.347 515.206 215.54 514.248C214.732 513.289 209.981 515.991 209.981 515.991C209.981 515.991 209.266 515.991 209.981 518.605C210.696 521.219 207.652 518.082 206.937 515.991C204.007 516.862 205.53 517.733 204.008 515.991C202.485 514.248 202.808 510.85 202.993 509.543C203.2 508.236 202.993 506.319 202.993 506.319C202.993 506.319 198.449 512.331 198.357 515.991C198.241 519.65 198.449 519.999 197.342 521.48C196.235 522.961 195.727 524.007 195.727 524.007C195.727 524.007 194.505 524.094 195.727 525.575C196.927 527.057 198.357 527.579 198.357 527.579H195.727C195.727 527.579 196.073 533.766 199.395 531.5ZM230.001 524.007C230.001 524.007 228.087 527.231 230.001 528.799C231.915 530.368 231.616 530.455 233.53 529.758C235.467 529.061 233.23 531.5 233.53 532.895C233.853 534.289 238.396 536.38 238.396 536.38H242.133C242.133 536.38 242.433 534.637 242.133 532.895C241.833 531.152 239.296 533.243 239.296 529.758C239.296 526.272 238.604 525.314 236.667 525.314H233.53C233.53 525.314 233.438 525.227 232.538 524.007C231.615 522.787 230.093 522.961 230.001 524.007ZM211.895 534.468C211.895 534.468 211.503 536.38 211.895 538.123C212.311 539.865 214.018 538.123 214.018 538.123C214.018 538.123 214.64 537.086 217.154 534.468C219.691 531.849 218.769 534.153 219.484 531.999C220.199 529.845 218.584 530.737 218.169 529.768C217.754 528.799 216.439 530.668 215.447 531.999C214.433 533.33 211.895 534.468 211.895 534.468Z" fill="white"/>
<path d="M413 381.453C563.622 390.636 927.049 285.024 1125 1.99976" stroke="white" stroke-width="3"/>
<path d="M402 363.787C545.94 372.99 892.055 333.918 1125 104" stroke="white" stroke-width="3"/>
<path fill-rule="evenodd" clip-rule="evenodd" d="M670.081 134.663C667.654 132.076 667.384 131.324 665.555 132.778C664.885 132.136 665.404 130.645 663.364 130.613C661.298 130.578 660.497 130.761 659.032 131.617C657.567 132.472 659.319 129.887 657.199 130.758C655.105 131.629 655.145 130.149 652.695 130.864C654.026 128.614 657.002 125.589 660.823 130.673C659.265 127.589 659.168 126.687 657.081 125.751C657.635 124.67 656.21 122.979 658.79 121.359C661.371 119.736 656.979 121.401 656.979 121.401C656.979 121.401 653.976 122.21 652.474 121.507C650.972 120.802 650.089 121.81 648.006 123.172C645.898 124.536 647.166 122.781 644.886 123.245C645.8 120.35 645.829 118.38 647.86 116.934C645.252 118.474 644.126 118.747 643.079 120.25C642.056 121.753 642.776 117.054 640.473 114.398C640.092 115.311 641.425 116.348 640.556 117.927C639.712 119.509 637.632 111.344 636.842 109.887C636.077 108.426 636.069 115.57 635.63 117.222C635.165 118.875 632.897 116.632 631.791 114.602C631.774 117.069 631.875 118.132 631.875 118.132C631.875 118.132 628.615 115.501 627.765 114.697C628.872 116.807 630.435 120.054 630.371 120.55C630.307 121.045 628.204 119.45 626.867 118.25C625.529 117.049 627.43 120.783 628.77 122.066C630.109 123.346 625.249 119.028 625.249 119.028C625.249 119.028 628.932 122.553 628.828 124.528C628.698 126.5 621.871 118.861 620.682 117.574C619.519 116.289 622.732 124.424 623.518 125.721C624.226 126.926 621.291 127.365 620.934 126.094C620.918 125.424 620.907 124.966 620.876 125.783C620.878 125.896 620.906 125.999 620.934 126.094C620.924 126.774 620.92 127.671 620.92 127.671C620.92 127.671 620.243 129.903 614.765 123.955C614.782 124.695 613.83 125.949 613.83 125.949C613.83 125.949 611.629 126.575 610.709 126.022C609.79 125.47 618.736 132.238 620.105 134.752C619.414 136.411 619.116 137.65 618.252 136.275C617.414 134.896 616.857 132.61 615.684 130.915C614.486 129.218 610.431 128.082 609.42 126.874C608.41 125.666 604.934 118.111 605.76 121.129C606.561 124.148 607.262 126.104 607.262 126.104C607.262 126.104 603.896 125.362 602.808 125.141C604.059 125.849 604.01 127.001 604.01 127.001C604.01 127.001 602.781 127.194 601.017 129.288C601.743 129.107 602.727 128.099 604.062 129.216C605.398 130.336 606.17 132.124 607.451 134.146C608.733 136.169 607.562 135.622 607.508 136.528C607.453 137.431 609.935 134.828 612.264 136.416C614.617 138.002 615.655 140.358 614.207 141.954C612.759 143.547 611.375 143.579 609.046 146.264C609.046 146.264 608.208 148.089 606.396 148.132C604.584 148.175 597.558 139.553 593.605 138.497C594.618 139.786 597.051 141.537 595.082 142.404C593.139 143.271 590.479 141.525 589.269 142.541C588.059 143.554 586.073 146.886 586.571 149.831C587.366 149.401 588.684 148.713 589.41 148.532C590.136 148.351 590.514 150.476 589.519 153.129C589.989 152.788 591.669 150.368 593.177 151.317C594.66 152.267 591.571 153.655 591.098 157.114C590.601 160.576 591.34 153.496 597.031 154.594C602.722 155.692 599.694 156.501 599.201 156.923C598.732 157.345 594.216 158.025 592.257 161.439C590.631 161.888 591.218 162.204 589.716 161.499C589.547 161.833 590.235 163.212 588.868 163.982C587.501 164.755 584.907 166.868 583.899 168.945C586.018 168.074 587.791 167.458 585.346 171.621C587.768 169.675 591.373 168.769 591.373 168.769L589.934 170.775C589.934 170.775 593.442 170.035 594.317 168.7C595.192 167.364 593.949 170.187 593.676 172.493C594.537 171.651 597.214 169.863 598.469 168.602C599.698 167.341 599.303 170.882 598.558 172.378C597.812 173.874 597.069 174.382 594.52 177.319C591.97 180.253 589.82 179.81 587.326 181.921C587.326 181.921 589.69 181.785 589.317 183.025C588.943 184.266 588.633 185.011 587.454 187.338C586.275 189.665 589.384 185.897 589.384 185.897C589.384 185.897 588.412 189.532 588.341 190.765C588.294 192.001 592.082 185.013 593.95 184.148C595.818 183.283 594.169 183.813 593.989 185.789C593.989 185.789 593.114 187.122 594.752 187.166C596.389 187.211 593.617 188.178 591.927 192.323C592.804 192.139 594.142 192.271 594.142 192.271C594.142 192.271 595.073 194.385 594.231 196.047C594.397 196.7 596.344 195.997 596.344 195.997C596.344 195.997 595.134 200.214 594.362 201.63C596.038 200.112 598.082 199.24 598.082 199.24C598.082 199.24 595.523 202.832 595.177 205.223C596.193 204.516 596.489 204.29 596.538 204.223C596.538 204.211 596.538 204.206 596.538 204.206C596.538 204.206 596.613 204.176 596.538 204.223C596.566 204.351 596.712 205.174 596.6 206.831C596.491 208.64 597.724 205.409 600.336 205.101C600.336 205.101 599.236 206.522 599.42 208.984C600.266 208.551 603.555 206.01 604.689 204.999C605.823 203.987 602.312 208.833 601.706 210.9C603.957 208.137 604.819 207.295 605.885 206.613C606.927 205.931 607.141 207.568 606.865 209.71C606.588 211.853 605.521 215.736 606.15 217.857C606.779 219.978 608.426 223.634 608.231 226.019C608.035 228.406 607.725 232.355 608.412 233.735C609.1 235.114 610.112 236.405 609.897 237.971C609.682 239.535 610.625 244.276 608.739 247.605C609.384 247.179 611.385 245.573 611.385 245.573C611.385 245.573 612.324 246.946 612.307 249.41C612.289 251.873 613.615 249.379 613.615 249.379L614.968 251.236C614.968 251.236 617.071 253.944 617.056 257.579C617.016 257.998 616.976 258.442 616.962 258.909C617.026 258.454 617.066 258.01 617.056 257.579C617.434 254.389 618.551 252.63 618.551 252.63L619.705 253.507L620.992 252.573L622.92 254.252C622.92 254.252 615.373 362.499 615.114 368.583C614.854 374.666 607.17 487.762 606.033 489.758C604.872 491.758 606.186 496.243 606.186 496.243C606.186 496.243 606.128 503.389 605.28 504.805C604.407 506.221 603.553 511.661 602.475 515.054C601.397 518.447 600.961 520.263 599.693 522.015C598.4 523.771 596.683 523.565 595.462 527.291C594.85 529.131 594.461 530.768 594.212 531.952C594.118 532.249 593.999 532.542 593.855 532.83C592.683 535.484 593.88 533.897 593.88 533.897C593.88 533.897 593.963 533.159 594.212 531.952C595.161 529.487 595.726 526.748 597.388 525.684C599.248 524.492 599.778 525.628 599.778 525.628C599.778 525.628 597.666 530.012 595.641 534.903C596.814 532.332 598.735 527.315 602.029 527.136C600.838 528.953 597.102 534.929 594.02 539.845C593.731 541.497 596.987 536.456 599.994 534.801C600.58 536.155 596.359 542.931 592.823 545.669C592.798 545.682 592.773 545.695 592.773 545.705C592.798 545.695 592.798 545.682 592.823 545.669C593.714 545.008 599.192 542.416 600.152 541.469C601.111 540.502 590.646 552.654 587.827 555.924C590.795 552.57 598.762 545.564 598.762 545.564C598.762 545.564 593.352 556.368 590.142 560.139C589.529 561.879 597.361 552.332 600.383 551.276C599.825 552.191 602.564 554.099 601.542 555.601C600.52 557.104 591.689 565.936 590.348 568.881C596.031 562.136 600.053 558.674 601.6 558.063C603.146 557.452 601.592 565.209 600.791 568.635C599.966 572.063 601.162 574.744 600.97 576.227C600.753 577.708 598.949 588.755 598.916 590.564C598.883 592.371 597.062 636.924 596.377 639.894C595.716 642.867 592.158 662.823 589.255 667.82C591.235 668.512 607.124 673.95 610.266 669.451C610.266 669.451 608.964 605.608 611.723 583.772C611.723 583.772 615.382 585.207 619.455 588.151C615.25 583.898 615.094 583.655 613.574 582.212C612.055 580.77 613.276 575.978 613.391 574.416C613.53 572.851 621.727 576.683 624.499 578.917C627.271 581.152 619.447 569.674 618.985 568.207C618.547 566.739 631.503 576.944 631.503 576.944L625.955 566.975L631.29 567.917C631.29 567.917 616.775 554.545 615.813 547.916C615.813 547.916 622.635 551.062 625.076 553.138C625.282 553.337 625.462 553.519 625.642 553.678C625.487 553.511 625.307 553.329 625.076 553.138C622.32 550.533 615.211 544.827 614.714 542.932C614.162 540.892 620.796 540.325 625.549 549.739C623.016 543.721 616.752 539.683 615.577 537.902C615.868 536.336 615.471 533.388 615.471 533.388C615.471 533.388 617.422 532.849 618.269 537.838C618.63 534.956 618.994 533.305 618.994 533.305C618.994 533.305 626.229 535.84 628.181 539.61C628.316 539.989 628.476 540.384 628.612 540.799C628.527 540.39 628.392 539.993 628.181 539.61C626.594 535.277 625.159 533.16 625.159 533.16C625.159 533.16 629.369 534.456 630.536 535.907C628.744 532.501 619.104 524.105 618.717 521.567C618.33 519.033 619.579 519.661 621.334 521.506C618.642 518.368 618.336 516.076 617.724 514.695C617.138 513.313 617.593 509.114 617.593 509.114L621.01 507.719C621.01 507.719 624.285 506.737 622.744 504.393C621.203 502.047 620.065 501.827 620.841 500.577C621.643 499.327 622.237 499.97 622.616 498.976C622.996 497.982 618.863 499.969 617.357 499.1C615.876 498.231 617.08 490.566 617.11 488.595C617.164 486.622 622.45 491.918 617.283 495.981C619.002 495.2 622.804 493.058 617.828 483.816C617.292 482.431 618.035 481.922 617.747 480.367C617.458 478.815 617.971 479.213 617.681 477.578C617.391 475.943 616.773 474.313 616.773 474.313C616.773 474.313 620.21 400.029 620.16 394.675C620.109 389.322 628.084 267.188 628.587 260.771C629.151 260.1 630.223 260.732 630.223 260.732L631.935 256.42C631.935 256.42 633.861 258.017 633.671 260.651C633.481 263.283 634.42 253.982 634.999 250.764C635.578 247.549 636.726 243.908 636.726 243.908C636.726 243.908 638.027 246.766 638.558 249.003C638.621 249.548 638.684 250.106 638.773 250.675C638.788 250.222 638.699 249.637 638.558 249.003C638.1 244.525 638.545 240.991 638.545 240.991C638.545 240.991 639.735 242.344 640.007 244.239L640.038 245.555C640.102 245.095 640.067 244.653 640.007 244.239L639.879 238.824C639.879 238.824 642.045 236.72 642.132 232.94C642.194 229.161 642.85 232.432 643.212 230.698C643.6 228.964 645.888 228.83 645.832 237.125C646.364 231.939 646.904 227.08 647.285 225.099C647.641 223.121 648.321 224.173 648.921 221.859C649.521 219.546 650.125 220.599 650.268 219.201C650.386 217.8 651.285 214.248 651.285 214.248C651.285 214.248 652.357 213.812 652.309 211.76C652.261 209.709 651.792 203.725 652.065 201.419C652.338 199.113 657.849 203.253 660.009 211.579C660.727 210.003 660.841 208.439 660.841 208.439C660.841 208.439 662.334 208.731 662.698 210.284C663.062 211.837 662.611 206.591 662.611 206.591C662.611 206.591 665.883 208.685 666.37 210.152C666.371 210.167 666.371 210.182 666.371 210.198C666.371 210.182 666.371 210.167 666.37 210.152C665.229 206.585 663.774 203.607 663.774 203.607C663.774 203.607 666.522 204.827 667.738 206.226C667.923 206.594 668.109 206.97 668.294 207.362C668.26 206.982 668.049 206.599 667.738 206.226C665.787 202.469 663.689 199.997 663.689 199.997C663.689 199.997 666.653 200.748 668.203 203.503C667.478 200.482 667.824 198.091 663.558 194.414C659.266 190.737 660.738 193.332 658.612 190.752C656.512 188.175 653.818 186.022 653.049 184.398C652.281 182.774 656.594 185.216 656.516 188.338C657.259 188.898 658.535 187.47 658.535 187.47C658.535 187.47 661.56 189.781 662.253 191.407C662.946 193.033 664.403 191.85 664.837 193.152C665.27 194.457 666.045 196.327 666.045 196.327L665.909 190.58C665.909 190.58 668.173 191.514 667.987 194.309C667.801 197.107 668.595 192.326 667.859 188.892C669.332 190.497 670.944 191.585 671.569 192.47C671.648 192.639 671.728 192.811 671.808 192.988C671.779 192.822 671.699 192.65 671.569 192.47C669.739 188.566 668.877 187.226 668.877 187.226C668.877 187.226 672.079 188.493 673.947 189.776C674.335 190.188 674.749 190.629 675.213 191.102C675.103 190.694 674.613 190.234 673.947 189.776C671.057 186.769 669.816 185.398 669.816 185.398C669.816 185.398 675.023 186.26 677.12 188.674C673.146 183.514 671.528 181.089 671.528 181.089C671.528 181.089 673.522 179.153 676.938 180.961C676.938 180.961 677.308 179.555 674.913 178.379C674.551 176.91 673.961 176.432 676.847 177.102C675.415 175.083 671.33 169.512 665.354 167.026C665.354 167.026 665.124 163.664 664.071 160.651C665.724 161.351 668.719 163.416 667.364 167.883C668.346 164.656 669.339 161.923 667.171 159.674C668.39 159.071 669.077 160.45 669.317 164.223C669.859 162.651 671.391 161.383 671.021 159.584C670.68 157.909 674.139 160.495 674.555 164.243C674.561 164.515 674.593 164.796 674.6 165.083C674.593 164.799 674.586 164.519 674.555 164.243C674.451 161.979 674.49 160.406 674.49 160.406C674.49 160.406 677.167 162.889 677.606 167.642C678.074 166.152 677.864 160.41 676.41 158.555C677.446 158.687 680.049 160.197 680.428 163.457C680.457 163.623 680.461 163.792 680.49 163.96C680.486 163.788 680.457 163.62 680.428 163.457C680.202 160.254 680.542 157.624 673.479 152.793C672.159 152.331 671.886 151.433 673.441 151.152C674.995 150.869 674.48 149.319 661.312 151.438C660.969 150.788 659.732 150.654 661.271 149.713C662.81 148.773 662.465 148.043 662.465 148.043C662.465 148.043 661.056 148.076 660.297 146.863C659.539 145.649 658.673 144.191 662.413 145.825C660.946 143.397 660.549 143.653 660.183 142.019C659.817 140.386 660.297 136.186 664.674 138.136C669.076 140.085 668.675 143.381 668.861 144.855C668.632 141.573 668.968 138.692 666.632 136.777C667.775 137.226 668.993 137.618 669.759 138.079C670.362 139.069 670.429 139.766 670.542 139.229C670.632 138.781 670.321 138.413 669.759 138.079C669.132 137.089 667.968 135.801 665.611 135.159C666.616 134.007 668.693 133.449 670.081 134.663C670.185 134.787 670.314 134.912 670.443 135.045C670.339 134.902 670.21 134.774 670.081 134.663ZM618.792 564.28C618.479 563.834 617.932 563.073 617.545 562.642C616.872 561.869 616.966 562.655 616.694 561.798C616.397 560.941 616.85 560.968 616.663 560.484C616.45 560 617.107 559.01 617.48 559.9C617.48 559.9 618.448 560.404 618.833 561.747C619.214 562.99 618.473 563.582 618.792 564.28C619.052 564.631 619.156 564.79 618.896 564.449C618.87 564.391 618.818 564.335 618.792 564.28ZM615.618 519.321C615.618 519.321 616.697 519.192 616.81 519.706C616.898 520.217 616.53 520.639 616.847 521.251C617.163 521.861 617.654 522.398 617.654 522.398C617.654 522.398 617.432 522.61 616.897 523.378C616.336 524.15 615.303 525.204 615.303 525.204C615.303 525.204 615.112 524.556 615.27 523.797C615.428 523.035 615.489 522.417 615.993 522.438C616.523 522.46 616.71 521.872 615.975 521.682C615.266 521.492 615.001 521.98 615.211 521.29C615.446 520.597 615.618 519.321 615.618 519.321ZM645.421 179.074C645.421 179.074 646.237 179.541 646.653 180.078C647.094 180.614 647.67 181.567 646.689 181.591C645.732 181.613 644.922 181.423 644.375 180.638C643.803 179.85 644.379 179.748 643.533 179.119C642.688 178.491 643.273 178.729 642.55 177.988C641.803 177.25 642.527 177.022 642.527 177.022C642.527 177.022 643.356 176.919 642.513 176.392C641.644 175.866 641.062 175.754 640.872 175.169C640.682 174.584 640.085 173.8 640.834 173.53C641.583 173.261 642.43 172.903 642.43 172.903C642.43 172.903 642.807 171.801 644.192 172.862C645.551 173.923 645.288 173.425 645.288 173.425C645.288 173.425 645.371 171.615 645.225 170.777C645.08 169.939 645.904 169.668 645.904 169.668C645.904 169.668 646.472 170.244 646.396 169.153C646.345 168.061 647.033 167.372 647.905 168.024C648.751 168.677 650.107 170.662 650.107 170.662C650.107 170.662 649.542 172.315 648.894 171.532C648.246 170.749 647.263 169.636 646.81 169.647C646.332 169.658 648.266 171.59 648.394 172.763C648.497 173.939 648.706 175.322 648.476 176.252C648.246 177.181 647.108 176.956 646.564 176.297C646.045 175.637 646.245 176.639 646.591 177.432C646.962 178.222 646.084 178.363 645.421 179.074ZM623.895 165.225C623.895 165.225 624.472 164.075 622.901 163.687C621.331 163.295 620.292 162.99 620.753 162.269C621.214 161.548 621.432 161.162 621.255 160.03C621.102 158.898 620.711 158.338 619.918 158.878C619.125 159.418 618.336 160.099 618.336 160.099C618.336 160.099 619.112 158.849 618.279 157.685C617.446 156.521 617.803 159.923 617.346 160.833C616.889 161.743 618.038 163.516 618.423 163.792C618.807 164.068 620.057 164.794 620.057 164.794L621.378 165.284C621.378 165.284 623.041 165.341 623.895 165.225ZM645.664 159.455C645.664 159.455 645.933 158.077 646.513 157.02C647.067 155.964 647.153 155.348 647.153 155.348C647.153 155.348 646.451 154.417 646.429 153.468C646.381 152.522 645.72 154.387 644.87 154.643C644.02 154.9 643.177 155.441 643.177 155.441L643.77 157.085L644.939 157.579C644.939 157.579 645.842 158.456 645.664 159.455Z" fill="white"/>
<path fill-rule="evenodd" clip-rule="evenodd" d="M1017.4 338.726C1017.45 338.729 1017.55 338.693 1017.71 338.569C1018.16 338.215 1018.54 337.066 1018.36 336.536C1018.18 336.006 1018.48 336.182 1018.36 335.741C1018.25 335.299 1018.81 335.564 1018.36 335.122C1017.92 334.68 1017.8 334.297 1017.71 333.855C1017.62 333.413 1018.36 333.855 1018.36 333.855C1018.36 333.855 1018.64 333.649 1018.36 333.178C1018.09 332.706 1017.53 332.942 1017.71 332.5C1017.89 332.058 1017.89 332.706 1017.71 331.794C1017.53 330.881 1017.24 330.704 1017.71 330.203C1018.18 329.702 1018.99 329.378 1018.99 329.378C1018.99 329.378 1018.81 329.29 1018.99 328.789C1019.17 328.288 1019.37 327.728 1019.49 327.169C1019.61 326.609 1019.73 326.579 1020.05 326.078C1020.39 325.578 1019.56 326.815 1020.05 326.874C1020.56 326.933 1021.93 325.784 1022.62 325.372C1023.31 324.959 1023.6 324.193 1024.07 324.046C1024.55 323.898 1024.02 324.517 1024.47 324.723C1024.91 324.93 1025.35 324.399 1025.8 324.723C1026.25 325.047 1026.58 325.372 1026.58 325.372V324.046C1026.58 323.81 1027.65 324.517 1027.98 325.372C1028.3 326.226 1028.37 325.666 1028.74 326.078C1029.13 326.491 1029.1 326.314 1029.05 327.169C1028.98 328.023 1029.73 327.935 1029.73 327.935C1029.73 327.935 1030.33 328.936 1030.26 329.378C1030.21 329.82 1029.55 329.761 1029.73 330.203C1029.9 330.645 1030.74 330.645 1030.74 330.645L1031.4 330.203C1031.4 330.203 1030.56 330.851 1030.74 331.411C1030.92 331.971 1031.4 331.735 1031.4 332.177C1031.4 332.618 1030.74 332.5 1030.74 332.5C1030.74 332.5 1030.92 333.413 1031.4 333.855C1031.88 334.297 1032 334.503 1032.29 335.122C1032.59 335.741 1033.04 336.536 1033.04 336.536L1033.39 336.948C1033.39 336.948 1033 337.655 1033.04 338.569C1033.07 339.482 1033.39 339.688 1033.39 339.688C1033.39 339.688 1033.41 340.484 1033.39 341.191C1033.36 341.898 1033.51 343.341 1033.39 344.107C1033.27 344.873 1033.21 345.08 1033.04 345.58C1032.85 346.081 1033.39 346.052 1033.39 346.052C1033.39 346.052 1033.27 346.346 1033.04 346.847C1032.8 347.348 1033.3 348.438 1033.75 348.585C1034.19 348.733 1035.23 350.206 1035.27 350.559C1035.29 350.913 1034.94 351.207 1035.27 351.767C1035.59 352.327 1036.1 351.856 1036.34 352.121C1036.58 352.386 1036.34 352.739 1036.34 352.739C1036.34 352.739 1036.04 352.621 1035.86 353.181C1035.68 353.741 1036.16 354.684 1036.58 354.36C1036.99 354.036 1035.98 354.978 1035.86 355.302C1035.74 355.626 1036.07 357.306 1036.34 357.541C1036.6 357.777 1036.58 358.337 1036.58 358.337L1036.34 359.014C1036.34 359.014 1036.31 359.25 1036.58 359.869C1036.84 360.487 1036.58 361.843 1036.58 361.843C1036.58 361.843 1036.96 362.726 1037.2 363.021C1037.43 363.316 1037.5 363.434 1037.59 364.139C1037.67 364.848 1037.67 364.758 1038.1 364.817C1038.51 364.876 1037.79 365.73 1037.59 366.349C1037.38 366.968 1037.2 367.586 1037.2 367.586C1037.2 367.586 1037.88 366.791 1038.54 366.349C1039.19 365.907 1038.36 367.115 1038.1 367.91C1037.82 368.706 1038.18 368.883 1038.1 369.354C1038 369.825 1037.86 370.886 1038.1 371.151C1038.33 371.416 1038.9 371.122 1039.02 371.77C1039.14 372.418 1039.07 372.713 1039.02 373.095C1038.95 373.479 1039.28 373.154 1039.51 373.685C1039.75 374.215 1039.28 375.364 1039.51 375.953C1039.75 376.542 1040.35 377.102 1040.35 377.102C1040.35 377.102 1039.85 377.456 1040.02 378.34C1040.21 379.223 1039.61 379.871 1040.02 380.254C1040.45 380.637 1040.71 380.254 1040.71 380.254C1040.71 380.254 1040.71 381.727 1040.35 382.169C1039.99 382.611 1040.11 382.876 1040.35 383.583C1040.59 384.291 1041.15 384.291 1041.15 384.291C1041.15 384.291 1040.02 384.556 1040.35 385.204C1040.67 385.852 1041.37 386.294 1041.54 387.266C1041.72 388.238 1041.25 388.209 1041.54 388.68C1041.84 389.152 1042.38 389.387 1042.7 389.976C1043.03 390.566 1042.91 391.273 1043.14 391.862C1043.38 392.451 1044.13 392.746 1044.13 392.746C1044.13 392.746 1044.31 393.011 1044.54 393.571C1044.78 394.13 1044.9 394.513 1044.96 394.778C1045.02 395.044 1043.96 396.9 1043.69 397.37C1043.42 397.841 1043.14 398.431 1043.14 398.431C1043.14 398.431 1043.53 398.961 1043.14 399.491C1042.77 400.021 1042.82 399.815 1042.7 400.581C1042.58 401.347 1043.69 401.141 1044.13 401.082C1044.57 401.023 1045.2 400.346 1045.61 400.581C1046.04 400.817 1046.24 401.082 1046.24 401.082C1046.24 401.082 1045.26 401.194 1045.61 401.654C1045.97 402.113 1046.28 402.879 1046.54 403.262C1046.81 403.645 1046.07 403.792 1045.92 404.617C1045.77 405.442 1045.97 405.56 1046.54 405.737C1047.11 405.914 1047.29 406.267 1047.29 406.267L1046.24 407.092L1045.92 407.534V408.3H1046.89L1046.54 409.419C1046.54 409.419 1045.62 408.977 1046.24 409.92C1046.87 410.863 1046.89 411.541 1046.89 411.541L1045.92 412.277C1045.92 412.277 1045.89 412.336 1045.61 413.249C1045.35 414.162 1045.92 414.398 1045.92 414.398C1045.92 414.398 1045.97 413.662 1046.54 413.632C1047.11 413.603 1045.85 414.965 1045.92 415.61C1045.97 416.254 1045.53 416.784 1045.61 417.197C1045.71 417.609 1046.36 417.374 1046.54 417.757C1046.72 418.14 1046.75 418.258 1046.89 418.906C1047.05 419.554 1046.61 421.115 1047.29 421.321C1047.97 421.528 1048.87 422.739 1048.87 422.739L1049.31 423.325C1049.31 423.325 1049.07 423.56 1049.6 424.179C1050.14 424.798 1050.59 425.947 1050.2 426.418C1049.82 426.889 1048.87 427.685 1048.87 427.685C1048.87 427.685 1048.65 427.361 1048.87 428.361C1049.07 429.363 1048.68 429.453 1048.53 429.893C1048.39 430.335 1049.52 431.278 1049.6 431.543C1049.7 431.808 1049.24 431.484 1049.6 432.515C1049.96 433.547 1049.72 433.753 1050.2 433.635C1050.67 433.517 1050.76 433.988 1051.39 433.635C1052.02 433.281 1050.76 434.401 1051.39 434.695C1052.02 434.99 1052.02 436.08 1052.02 436.08L1052.38 436.787L1052.94 438.113C1052.94 438.113 1052.19 438.113 1052.38 438.79C1052.55 439.468 1053.21 440.794 1053.3 441.442C1053.38 442.09 1053.3 443.357 1053.3 443.357C1053.3 443.357 1052.26 443.475 1052.38 443.976C1052.5 444.476 1052.38 444.682 1052.38 444.682C1052.38 444.682 1053.03 446.598 1053.3 447.01C1053.57 447.422 1054.13 448.159 1054.13 448.395C1054.13 448.63 1053.91 449.897 1054.13 450.663C1054.34 451.429 1054.69 452.224 1054.78 452.46C1054.87 452.696 1054.58 452.666 1054.78 453.226C1054.99 453.786 1055.56 453.491 1055.94 452.784C1055.77 453.55 1055.53 454.434 1055.5 454.935C1055.46 455.436 1055.44 455.612 1055.94 455.878C1056.45 456.143 1056.36 456.319 1056.48 456.938C1056.6 457.557 1056.27 457.881 1056.48 458.352C1056.69 458.824 1056.66 460.621 1056.48 461.004C1056.3 461.387 1055.08 462.094 1054.78 462.387C1054.49 462.682 1055.5 463.153 1055.5 463.153C1055.5 463.153 1055.46 464.096 1055.5 464.744C1055.53 465.392 1055.05 467.101 1054.78 467.69C1054.51 468.279 1054.81 468.309 1055.5 468.751C1056.18 469.193 1056.42 469.576 1056.48 470.577C1056.54 471.579 1056.98 471.432 1057.25 470.99C1057.52 470.548 1057.61 471.019 1057.25 471.785C1056.89 472.551 1057.16 472.522 1057.25 472.934C1057.34 473.347 1057.25 474.672 1057.25 475.232C1057.25 475.792 1056.48 477 1056.48 477C1056.48 477 1055.89 478.384 1055.5 479.003C1055.11 479.622 1055.11 481.419 1055.2 482.096C1055.29 482.774 1056.13 484.129 1056.48 484.718C1056.84 485.308 1056.66 485.956 1057.25 486.722C1057.85 487.488 1057.9 487.164 1058.12 488.195C1058.32 489.226 1058.09 490.227 1058.12 490.846C1058.14 491.465 1058.12 492.231 1058.12 492.231H1058.71C1058.71 492.231 1057.93 492.732 1057.85 493.557C1057.76 494.38 1058.89 493.969 1059.19 493.557C1058.86 494.056 1058.12 494.588 1057.85 494.822C1057.58 495.059 1057.54 496.325 1057.85 496.737C1058.14 497.15 1058.36 497.474 1058.71 497.945C1059.07 498.416 1059.07 498.21 1059.19 498.741C1059.31 499.271 1057.93 500.597 1057.25 501.097C1056.57 501.598 1057.52 502.276 1058.12 502.747C1058.71 503.219 1059.54 503.248 1059.57 503.749C1059.6 504.25 1059.45 505.693 1059.57 506.371C1059.69 507.048 1060.05 507.844 1060.05 507.844C1060.05 507.844 1060.59 508.05 1060.05 508.463C1059.52 508.875 1058.48 511.615 1057.85 512.027C1057.22 512.44 1057.25 513.058 1057.25 513.058C1057.25 513.058 1057.49 513 1057.54 513.648C1057.61 514.296 1057.52 514.296 1057.25 514.767C1056.98 515.239 1056.86 515.857 1056.48 516.623C1056.09 517.389 1056.13 518.214 1055.94 518.509C1055.77 518.803 1055.89 518.833 1055.5 519.304C1055.11 519.775 1055.46 520.276 1055.2 520.954C1055.05 521.316 1054.94 521.739 1054.88 522.053C1055.64 523.726 1054.48 523.753 1054.48 523.753V525.97C1054.48 527.367 1054 526.047 1051.34 525.97C1048.67 525.892 1050.56 526.28 1049.14 526.901C1047.73 527.522 1044.52 526.901 1042.32 528.686C1040.12 530.473 1039.97 529.152 1038.16 529.696C1037.27 529.963 1036.6 530.005 1036 530.101L1036.34 543.545C1036.34 543.545 1028.2 544.554 1028.74 542.614C1029.11 541.333 1028.09 534.838 1027.98 530.827C1024.65 532.064 1023.9 530.363 1021.54 531.792C1019.11 533.267 1020.6 532.491 1019.5 532.802C1018.41 533.112 1001 528.686 1001 528.686L999.588 527.678C999.588 527.678 998.807 527.445 997.312 525.97C996.51 525.172 996.12 525.237 995.925 525.466L995.752 525.97C995.752 525.97 995.763 525.659 995.925 525.466L996.532 523.753V523.751L996.434 523.753C996.434 523.753 996.478 523.739 996.543 523.713C996.629 523.468 996.847 523.133 997.161 522.732C996.933 522.281 996.434 521.897 996.434 521.897C996.434 521.897 995.904 521.219 995.568 521.897C995.243 522.574 994.625 521.897 994.625 521.897V521.396C994.625 521.396 994.95 521.013 994.148 520.659C993.347 520.306 992.361 518.626 992.328 517.713C992.718 518.008 992.718 518.892 993.228 518.509C993.726 518.126 993.672 517.389 993.672 517.389V516.623L994.148 516.977C994.148 516.977 994.322 517.183 994.625 516.623C994.918 516.063 995.568 515.71 995.568 515.71L995.904 516.623C995.904 516.623 995.958 515.474 995.904 515.062C995.839 514.649 995.037 513.765 995.069 513.058C995.102 512.351 996.023 513.883 996.434 513.648C996.586 512.793 996.76 512.086 996.911 511.468C997.063 510.849 997.594 513.176 998.255 513.058C998.905 512.941 998.872 512.027 998.872 512.027C998.872 512.027 999.089 511.615 998.872 511.173C998.666 510.731 998.255 510.407 998.255 510.407C998.255 510.407 997.421 510.466 997.236 510.407C997.063 510.348 996.402 508.816 996.434 508.168C996.467 507.52 995.99 505.163 995.904 504.603C995.806 504.043 995.904 503.749 995.904 503.749L996.911 502.747C996.911 502.747 996.976 502.453 996.911 501.981C996.857 501.51 996.64 501.51 996.434 501.097C996.229 500.685 996.586 499.359 996.434 498.741C996.283 498.122 996.759 497.209 996.434 496.737C996.109 496.266 996.499 495.912 996.434 495.382C996.38 494.852 996.434 494.38 996.434 494.38C996.434 494.38 996.641 495.146 997.236 495.382C997.832 495.618 998.038 494.321 998.255 493.557C998.461 492.791 999.739 492.201 999.945 491.583C1000.15 490.964 999.62 490.434 999.62 490.434C999.62 490.434 999.534 490.198 999.62 489.727C999.707 489.255 999.913 488.666 999.945 488.195C999.978 487.723 999.945 486.427 999.945 486.427C999.945 486.427 1000.34 486.162 999.945 485.72C999.555 485.278 998.97 483.245 998.872 482.479C998.786 481.713 998.612 481.065 998.872 480.594C999.143 480.123 998.634 480.447 998.872 479.71C999.111 478.974 998.818 479.062 998.872 478.65C998.937 478.237 998.255 478.65 998.255 478.65C998.255 478.65 999.024 478.119 998.872 477.618C998.731 477.118 999.262 477.353 998.872 477C998.493 476.646 998.493 476.823 998.255 476.293C998.016 475.762 997.475 475.527 997.236 475.232C996.998 474.938 997.031 472.522 997.236 471.785C997.442 471.049 997.746 470.489 997.8 469.9C997.865 469.311 998.341 469.222 998.255 468.751C998.157 468.279 998.872 469.134 998.872 469.9C998.872 470.666 998.732 471.609 999.23 471.785C999.739 471.962 1000.61 472.905 1000.84 473.317C1001.07 473.73 1001.02 473.258 1001.22 473.906C1001.43 474.555 1001.1 474.82 1001.79 475.232C1002.48 475.644 1002.62 475.615 1002.62 475.615C1002.62 475.615 1002.92 475.321 1002.62 474.702C1002.33 474.083 1002.45 474.083 1002.14 473.317C1001.85 472.551 1001.1 472.433 1001.22 471.343C1001.34 470.253 1001.61 467.779 1002.14 466.983C1002.69 466.188 1003.07 466.07 1002.98 465.628C1002.89 465.186 1001.91 464.891 1001.79 463.949C1001.67 463.006 1001.31 462.86 1001.22 462.387C1001.14 461.917 1000.93 462.505 1000.84 462.004C1000.75 461.505 1001.49 461.415 1001.22 461.004C1000.96 460.591 1001.22 460.621 1000.84 460.032C1000.45 459.442 1000.54 459.619 1000.37 459.089C1000.18 458.558 999.794 458.676 999.62 458.087C999.436 457.498 1000.06 458.176 999.945 457.468C999.826 456.761 999.891 456.614 999.62 456.231C999.349 455.848 999.62 455.377 999.62 455.377C999.62 455.377 1000.22 454.434 1000.84 454.316C1001.46 454.198 1002.14 454.846 1002.62 454.935C1003.1 455.023 1003.61 455.936 1003.73 455.377C1003.85 454.817 1004 454.346 1003.73 453.933C1003.46 453.521 1002.98 453.668 1002.98 453.226C1002.98 452.784 1002.62 452.46 1002.62 452.46C1002.62 452.46 1003.61 453.167 1004.02 452.784C1003.9 452.077 1002.65 451.576 1002.14 449.779C1002.89 450.486 1003.54 451.017 1003.73 450.663C1003.9 450.31 1004.08 449.956 1003.73 449.426C1003.37 448.895 1003.34 448.984 1003.34 448.395C1003.34 447.805 1003.42 447.01 1003.73 446.48C1004.02 445.949 1005.36 445.92 1005.4 445.125C1005.42 444.329 1004.5 443.18 1004.56 442.09C1004.61 441 1005.45 441.884 1004.56 439.733C1003.95 438.268 1003.98 437.692 1003.92 437.296C1003.8 437 1003.73 436.787 1003.73 436.787C1003.86 436.965 1003.9 437.111 1003.92 437.296C1004.21 437.981 1004.79 439.115 1005.4 439.115C1004.97 437.671 1005.24 437.376 1005.04 436.787C1004.82 436.198 1005.04 436.286 1005.04 435.579C1005.04 434.872 1004.89 434.519 1005.04 434.106C1005.18 433.694 1005.75 432.221 1005.75 431.543C1005.75 430.866 1005.77 430.394 1005.75 429.893C1005.72 429.392 1005.75 428.98 1005.75 428.98C1005.75 428.98 1006.88 429.982 1006.79 428.98C1006.71 427.979 1006.61 427.832 1006.79 427.066C1006.97 426.3 1007.95 425.122 1007.83 424.709C1007.71 424.297 1006.71 423.449 1006.79 422.739C1006.88 422.028 1007.12 420.703 1007.17 420.202C1007.24 419.701 1007.83 418.405 1007.83 418.405C1007.83 418.405 1008.31 418.582 1008.22 417.757C1008.13 416.932 1007.83 416.468 1007.83 415.61C1007.83 414.752 1008.31 413.75 1008.55 413.249C1008.79 412.748 1009.5 412.689 1009.52 412.277C1009.56 411.865 1010.12 413.131 1010.42 412.748C1010.72 412.365 1010.99 411.364 1010.87 410.804C1010.75 410.244 1010.42 409.419 1010.42 409.419L1010.87 408.801C1010.87 408.801 1010.22 406.65 1009.91 406.031C1009.62 405.413 1009.91 404.617 1009.91 404.617C1009.91 404.617 1010.46 404.853 1010.42 403.822C1010.39 402.791 1010.63 401.93 1010.87 401.654C1011.11 401.377 1010.54 401.2 1010.42 400.581C1010.3 399.962 1010.87 399.079 1010.87 399.079V398.431C1010.87 398.431 1011.31 399.049 1011.82 399.079C1012.33 399.108 1012.83 398.431 1012.83 398.431C1012.83 398.431 1013.1 398.873 1013.46 398.431C1013.81 397.989 1014.38 397.283 1014.17 396.635C1013.97 395.985 1013.54 395.338 1013.46 394.778C1013.37 394.219 1013.85 394.278 1013.46 393.865C1013.07 393.453 1013.58 392.009 1013.75 391.214C1013.93 390.418 1013.66 389.976 1013.75 389.564C1013.85 389.152 1013.97 389.387 1014.17 388.68C1014.38 387.973 1014.65 387.826 1014.65 387.266V386.205C1014.65 385.793 1014.23 384.497 1014.65 383.583C1015.06 382.67 1015.06 382.611 1015.01 382.169C1014.94 381.727 1015.15 382.258 1015.01 381.403C1014.85 380.549 1015.15 379.606 1015.01 378.84C1014.85 378.074 1014.89 377.662 1015.01 377.102C1015.13 376.542 1015.01 376.277 1015.01 376.277C1015.01 376.277 1015.72 377.014 1015.96 376.277C1016.19 375.541 1016.43 375.953 1016.43 375.953C1016.43 375.953 1016.43 377.367 1016.93 377.102C1017.44 376.837 1016.43 375.187 1016.43 374.657C1016.43 374.127 1016.43 374.068 1016.43 374.068L1015.96 374.657V374.068C1015.96 374.068 1015.93 373.508 1015.96 372.801C1015.98 372.094 1016.01 372.212 1015.96 371.77C1015.89 371.328 1016.1 371.652 1015.96 371.151C1015.81 370.65 1015.74 370.562 1015.96 370.149C1016.17 369.737 1016.54 369.236 1016.43 367.91C1016.31 366.585 1015.96 366.82 1015.96 366.82V366.025C1015.96 366.025 1016.97 366.85 1016.93 366.025C1016.9 365.2 1017.29 364.935 1016.93 364.139C1016.58 363.345 1016.93 363.021 1016.93 363.021C1016.93 363.021 1016.73 362.844 1016.93 362.314C1017.14 361.784 1016.93 361.489 1016.93 361.136C1016.93 360.782 1016.25 360.723 1016.43 360.222C1016.61 359.721 1016.82 359.427 1016.93 359.014C1017.05 358.602 1017.12 358.749 1016.93 358.337C1016.76 357.924 1016.54 358.072 1016.43 357.541C1016.31 357.011 1016.43 356.569 1016.43 356.569C1016.43 356.569 1016.76 356.304 1016.93 355.774C1017.12 355.243 1017.14 355.214 1017.71 355.774C1018.28 356.333 1018.36 355.302 1018.36 355.302C1018.36 355.302 1018.72 355.067 1018.36 354.36C1018.01 353.653 1017.71 352.739 1017.71 352.739L1018.36 352.121C1018.36 352.121 1018.6 352.327 1018.99 352.121C1019.37 351.914 1018.99 351.001 1018.99 351.001C1018.99 351.001 1019.64 350.942 1018.99 350.559C1018.33 350.176 1017.14 349.292 1016.93 348.585C1016.73 347.878 1016.93 347.319 1016.93 347.319C1016.93 347.319 1017.95 347.23 1017.71 346.582C1017.48 345.934 1017.09 345.934 1016.93 345.58C1016.78 345.227 1017.14 345.404 1016.93 344.932C1016.73 344.461 1017.48 343.135 1017.71 342.428C1017.95 341.721 1017.92 341.574 1017.71 341.191C1017.5 340.808 1017.36 341.279 1017.29 340.719C1017.24 340.16 1017.71 339.688 1017.71 339.688C1017.71 339.688 1017.97 339.57 1017.71 339.188C1017.57 338.991 1017.47 338.833 1017.4 338.726C1017.28 338.72 1017.29 338.569 1017.29 338.569C1017.29 338.569 1017.32 338.625 1017.4 338.726Z" fill="white"/>
<path fill-rule="evenodd" clip-rule="evenodd" d="M311.198 447H521.324L550 481.638H541.092V544H300L311.198 447Z" fill="white"/>
<path fill-rule="evenodd" clip-rule="evenodd" d="M720.093 543.903H877.472L898.95 569.625H892.278V615.935H711.706L720.093 543.903Z" fill="white"/>
<path fill-rule="evenodd" clip-rule="evenodd" d="M812.926 556.801V532.981C812.926 532.981 821.608 528.994 828.742 532.981V561.701L812.926 556.801Z" fill="white"/>
<path fill-rule="evenodd" clip-rule="evenodd" d="M603.14 545.153V508.533C603.14 508.533 604.28 504.777 606.759 508.533V545.153H603.14Z" fill="white"/>
</svg>
