<svg width="1059" height="1037" viewBox="0 0 1059 1037" fill="none" xmlns="http://www.w3.org/2000/svg">
<mask id="mask0" mask-type="alpha" maskUnits="userSpaceOnUse" x="-25" y="0" width="1084" height="1037">
<path fill-rule="evenodd" clip-rule="evenodd" d="M493.605 167.563C496.381 165.771 497.458 166.248 502.765 167.564C508.072 168.88 508.201 176.685 508.574 178.449C514.938 177.503 514.464 181.024 515.084 180.888C520.072 182.488 518.938 189.142 519.205 189.456C525.189 189.697 527.557 195.562 527.338 196.898C527.12 198.234 529.767 202.078 534.095 207.602C538.423 213.127 538.844 221.915 540.119 230.211C541.395 238.508 537.52 245.273 540.832 245.37C544.143 245.467 548.5 247.966 549.394 248.612C550.289 249.26 550.572 249.932 553.315 249.298C556.058 248.664 560.298 248.807 563.209 248.612C566.121 248.418 566.838 251.322 569.072 251.786C571.306 252.251 572.777 249.79 576.572 248.612C580.367 247.435 579.571 245.431 579.152 244.534C578.734 243.637 578.766 242.356 579.693 241.547C580.621 240.737 583.012 240.268 583.875 238.837C584.739 237.405 588.498 234.506 590.049 233.95C591.6 233.394 592.335 231.475 591.802 230.211C591.269 228.947 591.868 227.852 592.453 226.882C593.039 225.911 593.716 223.239 594.209 222.436C594.701 221.633 596.03 222.84 597.002 220.893C597.973 218.946 601.374 209.124 601.913 208.434C602.452 207.745 607.243 208.324 608.84 207.602C610.436 206.881 610.921 205.529 612.521 202.69C614.119 199.85 626.378 184.173 628.414 181.846C630.45 179.52 639.394 167.753 640.072 162.889C640.749 158.026 644.867 148.225 645.442 146.272C646.017 144.319 656.879 119.782 657.167 118.8C657.456 117.819 669.127 88.5797 669.987 86.9949C670.848 85.4109 678.531 65.3854 679.184 62.7417C679.837 60.0973 679.317 53.177 679.184 50.9733C679.052 48.7688 678.521 45.5389 677.962 43.3919C677.403 41.2449 675.259 30.8591 672.449 25.955C669.416 21.8355 667.38 15.9051 665.589 12.9785C663.797 10.0511 659.965 7.22265 667.502 7.03501C675.041 6.84737 683.6 24.6422 684.684 24.7295C685.768 24.8167 690.583 25.1404 692.493 24.7295C694.402 24.3193 697.18 20.9235 697.965 18.4718C698.99 12.9319 702.492 5.01385 704.55 1.94319C706.608 -1.12746 711.084 -0.119426 711.393 1.94319C711.701 4.00508 709.911 9.92457 708.47 15.1502C707.028 20.3758 706.724 26.5215 708.47 25.955C710.215 25.3884 718.878 10.254 720.867 8.92453C722.856 7.5943 726.886 9.20454 726.791 11.9145C726.696 14.6251 723.309 19.6355 720.867 24.0189C718.425 28.4023 717.943 32.985 719.219 32.8148C720.496 32.6454 727.767 28.083 731.214 28.1339C734.661 28.1856 734.476 31.4751 733.348 33.5974C732.219 35.7189 725.048 39.2565 724.271 41.7119C723.494 44.1672 729.038 49.3311 733.348 49.3085C737.658 49.286 738.824 52.3457 739.223 53.8818C739.621 55.4171 738.186 55.5102 736.867 55.2891C735.548 55.0687 732.005 54.5443 731.214 55.2891C730.423 56.0338 732.805 57.3619 735.152 61.7359C737.499 66.1098 739.381 67.3782 739.223 67.251C739.855 65.6756 740.871 61.0784 741.671 57.5903C742.47 54.1021 741.076 46.4895 741.105 44.4414C741.134 42.3941 739.295 39.9889 743.048 38.8565C746.8 37.7241 747.866 42.8246 749.165 46.1797C750.465 49.5347 751.227 56.8288 750.785 60.8784C750.343 64.9287 748.313 73.9894 748.224 80.2049C748.134 86.4204 750.961 100.237 750.785 106.111C750.609 111.984 756.72 127.412 758.3 131.551C759.879 135.689 761.484 142.514 762.636 147.084C763.787 151.655 773.54 178.173 774.913 181.846C776.286 185.52 782.336 201.987 782.267 202.198C784.024 198.909 788.473 198.403 789.598 197.981C790.722 197.559 790.463 195.916 789.598 193.9C783.881 180.848 790.326 186.5 797.361 185.437C804.396 184.374 820.898 191.882 829.838 193.9C838.776 195.917 839.547 200.48 841.482 199.707C843.418 198.934 845.396 198.112 846.999 200.48C848.601 202.849 851.514 206.736 853.122 205.485C854.729 204.234 858.966 206.126 862.286 205.485C865.607 204.843 868.469 208.095 874.334 212.382C880.199 216.668 882.338 216.277 887.785 217.444C893.232 218.611 894.214 218.128 896.366 218.032C898.519 217.937 902.37 217.164 905.827 214.759C909.285 212.354 912.262 214.466 914.314 212.382C916.366 210.297 919.276 209.777 922.986 208.955C926.695 208.132 928.803 208.911 929.01 208.955C931.388 206.026 932.338 205.993 935.243 206.165C938.147 206.337 941.476 203.742 943.274 202.198C945.073 200.653 948.002 201.941 948.581 202.198C949.161 202.454 950.761 202.875 952.718 203.156C954.675 203.438 953.089 204.7 958.31 205.485C963.531 206.269 966.886 212.118 967.222 213.508C967.557 214.898 966.56 217.749 966.234 220.893C965.907 224.036 966.821 225.543 968.944 225.73C971.067 225.918 972.79 229.767 973.339 230.211C973.887 230.655 973.088 231.449 972.277 231.783C971.467 232.117 971.43 235.421 971.415 238.011C971.4 240.602 972.259 243.216 973.339 243.49C974.419 243.764 975.612 243.452 975.999 242.827C976.489 241.281 984.018 223.079 984.38 221.803C984.744 220.528 988.792 205.358 988.949 204.165C989.107 202.972 991.643 183.371 991.973 181.846C992.303 180.322 997.179 161.093 997.472 160.347C997.766 159.603 1002.4 142.771 1002.86 140.741C1003.32 138.711 1005.04 120.233 1005.39 118.31C1005.74 116.387 1006.43 102.619 1006.2 101.742C1005.98 100.865 1006.36 99.1692 1006.2 98.5473C1003.73 94.1646 1002.67 86.1825 1001.94 84.3723C1001.21 82.562 1000.98 76.468 1000.99 74.3821C1001.01 72.2955 1001.3 67.6299 1001.4 65.9076C1001.5 64.1854 1001.22 56.0477 1001.94 54.5712C1002.66 53.0948 1002.56 50.11 1001.94 48.5005C1001.32 46.8902 1001.62 44.1498 1004.64 45.2029C1007.65 46.256 1010.89 53.8628 1011.01 57.5903C1011.14 61.3177 1010.63 65.752 1011.01 65.9076C1011.4 66.0633 1012.06 66.4408 1012.19 65.2211C1012.33 64.0014 1014.79 58.167 1015.01 56.6826C1015.22 55.1982 1016.28 48.3936 1016.53 46.9695C1016.79 45.5455 1017.59 39.5634 1018.08 37.4397C1018.57 35.316 1019.59 29.5558 1020.25 27.1194C1020.9 24.6836 1022.79 23.4189 1024.94 22.8872C1027.09 22.3563 1028.01 24.3847 1027.97 26.5426C1027.94 28.7012 1027.45 32.2424 1027.24 35.0876C1027.03 37.9321 1025.36 49.3209 1026.01 48.5005C1026.66 47.6794 1028.4 43.5272 1028.54 41.7119C1028.68 39.8965 1029.78 33.9749 1029.97 32.8148C1030.16 31.6548 1031.1 26.7564 1031.74 24.0189C1032.37 21.2806 1034.37 20.4282 1036.57 20.3206C1038.77 20.2122 1039.45 24.7185 1039.33 25.955C1039.2 27.1914 1038.38 33.1239 1038.26 35.0876C1038.13 37.0513 1036.66 44.7069 1036.57 46.1797C1036.48 47.6532 1035.74 51.2519 1035.7 53.4025C1035.66 55.5531 1035.82 57.543 1035.7 57.5903C1036.49 57.2746 1039.92 51.665 1040.17 50.9733C1040.42 50.2809 1040.98 48.6532 1041.3 46.9695C1041.61 45.2865 1042.86 42.0384 1043.01 40.7547C1043.15 39.4711 1043.52 35.7546 1044.16 32.8148C1044.8 29.8758 1046.24 29.7907 1047.18 29.5238C1048.12 29.2569 1049.98 28.646 1050.31 30.4962C1050.64 32.3465 1050.32 35.748 1050.31 38.8565C1050.3 41.965 1048.76 49.4685 1048.26 52.2664C1047.76 55.0636 1046.65 57.9044 1045.72 59.1561C1044.79 60.4078 1043.86 64.613 1044.16 64.1578C1044.46 63.7025 1047.74 60.4413 1048.26 59.8878C1049.06 58.151 1052.19 53.7407 1052.27 53.8818C1052.16 52.5843 1052.57 48.9819 1052.84 47.6677C1053.11 46.3535 1053.36 44.6618 1055.92 44.4414C1058.47 44.2218 1057.84 46.3535 1057.95 48.5005C1058.05 50.6467 1058.22 53.1414 1057.95 54.5712C1057.68 56.0011 1056.51 60.2398 1055.92 61.7359C1055.32 63.2319 1052.37 68.0394 1051.41 69.3114C1050.46 70.5834 1048.9 74.5843 1047.18 77.2608C1045.46 79.9372 1037.65 93.4468 1036.57 95.9182C1035.49 98.3895 1035.19 101.678 1034.68 103.246C1034.18 104.814 1034.14 102.518 1033.28 105.388C1032.41 108.258 1029.91 136.261 1029.97 141.272C1030.03 146.283 1026.26 176.81 1024.94 188.454C1023.62 200.098 1022.11 214.21 1019.64 219.897C1017.16 225.585 1012.72 254.357 1012.19 264.042C1011.67 273.727 1005.68 291.066 1005.39 296.272C1005.11 301.478 1003.12 312.562 1002.86 315.963C1002.6 319.363 1000.99 329.083 1000.99 332.236C1000.99 335.389 1003.2 337.07 1003.62 337.6C1004.04 338.13 1002.82 340.162 1002.86 341.114C1002.9 342.067 1006.62 347.126 1007.17 348.507C1007.72 349.888 1007.3 351.463 1008.13 353.275C1008.96 355.087 1010.05 357.135 1010.18 360.071C1005.98 363.141 991.803 373.874 991.41 375.828C991.016 377.783 988.345 400.57 988.016 406.342C987.685 412.113 986.569 445.416 985.977 450.135C985.385 454.855 982.998 476.902 982.867 479.56C982.736 482.218 981.162 494.065 981.218 497.058C981.274 500.051 982.458 506.877 984.38 516.657C986.303 526.438 987.367 529.003 988.016 534.355C988.664 539.707 989.896 557.425 989.518 564.106C989.139 570.787 991.204 574.513 990.357 576.817C989.51 579.122 988.424 580.493 988.016 582.146C987.786 596.969 993.224 622.018 993.917 625.583C994.61 629.148 997.544 648.254 998.627 651.848C999.71 655.441 999.38 661.614 999.301 664.565C999.223 667.517 999.861 666.293 1001.94 673.987C1004.01 681.681 1003.57 700.924 1001.94 703.511C1000.31 706.097 1003.22 716.905 1001.94 720.887C1000.65 724.869 996.794 724.399 996.891 727.873C996.987 731.347 997.936 744.061 996.891 753.258C994.511 763.267 982.077 778.294 978.27 782.903C974.464 787.513 973.177 794.59 959.207 797.13C945.237 799.67 943.013 795.891 933.889 789.323C924.766 782.755 925.693 774.364 924.112 772.662C922.529 770.961 919.327 764.06 917.569 761.072C915.809 758.084 916.145 755.979 914.314 752.108C912.484 748.237 912.353 723.876 912.134 722.668C911.913 721.46 906.943 689.7 906.667 688.34C902.466 683.857 899.393 674.929 898.225 671.874C897.057 668.818 897.051 666.68 896.366 665.701C895.683 664.722 896.483 663.372 896.366 662.75C896.251 662.129 896.689 656.028 896.366 654.331C895.85 653.724 895.742 652.117 895.733 651.744C895.639 650.44 896.513 643.795 894.51 648.756C892.448 653.865 896.327 654.905 894.51 659.288C892.694 663.671 894.31 662.582 894.51 667.851C894.71 673.12 891.134 676.617 888.58 678.758C886.026 680.9 884.021 682.837 882.57 685.946C882.655 690.354 880.262 697.289 879.582 702.142C878.903 706.994 875.286 739.361 872.806 747.588C870.327 755.814 865.025 764.108 857.513 774.903C850 785.697 842.322 787.46 834.529 787.648C826.736 787.836 811.905 779.734 809.647 778.531C806.811 780.155 803.981 793.794 789.598 793.101C775.214 792.409 768.503 781.2 764.453 766.908C760.402 752.615 767.749 731.757 770.463 727.173C773.177 722.589 786.311 689.465 787.716 684.473C789.122 679.48 802.153 678.927 803.021 678.758C803.288 676.019 804.696 673.888 803.021 672.516C801.344 671.145 798.956 666.941 797.361 664.565C795.766 662.19 795.529 655.462 796.234 651.848C796.94 648.234 799.576 649.167 799.712 647.106C799.848 645.047 798.535 645.492 798.596 644.237C798.657 642.98 799.162 643.488 799.712 642.744C800.262 641.999 800.448 640.959 799.712 639.825C798.976 638.692 798.956 638.364 798.596 637.852C798.237 637.341 799.508 636.684 799.712 636.057C799.553 634.871 799.685 626.963 799.712 615.297C799.739 603.631 804.445 590.773 805.477 588.525C806.508 586.278 806.909 583.613 806.365 582.146C803.875 577.001 802.97 569.625 803.021 566.668C803.072 563.71 805.891 554.9 805.477 551.701C805.063 548.501 804.883 535.871 805.477 533.244C806.071 530.617 807.883 525.163 808.527 522.574C809.172 519.986 810.251 506.556 809.647 503.062C809.043 499.568 809.769 475.305 809.647 471.146C809.525 466.987 812.582 443.274 812.392 440.063C812.202 436.851 814.387 420.319 813.307 419.023C812.229 417.729 810.851 413.47 809.647 411.665C808.443 409.859 805.819 406.206 804.303 404.36C800.435 400.977 791.169 387.742 789.598 385.936C788.027 384.131 773.878 365.51 772.086 363.272C770.295 361.035 767.828 358.652 769.043 355.28C770.257 351.909 774.937 339.388 774.913 337.6C774.889 335.812 775.455 332.463 776.239 331.214C777.023 329.966 777.545 328.772 777.38 327.672C774.856 320.964 767.353 282.337 766.517 277.307C763.734 271.238 763.892 260.149 761.899 256.511C759.906 252.872 760.754 241.977 760.4 241.547C756.99 237.931 758.477 232.757 758.3 233.24C742.781 196.009 730.654 126.471 730.356 124.601C725.973 120.611 724.179 113.388 723.505 107.906C722.831 102.425 722.205 88.4248 722.01 87.9266C710.817 78.4892 713.116 72.3406 715.345 71.4489C717.573 70.558 718.415 73.569 719.219 73.8185C720.023 74.0679 720.233 72.8933 720.135 72.6191C717.526 66.9455 716.674 61.7897 716.681 61.7359C715.471 61.0842 710.42 64.3934 708.47 66.5433C706.519 68.6925 704.56 74.5916 703.847 79.5467C703.135 84.5018 698.778 100.576 697.965 104.14C697.153 107.703 689.341 132.225 687.594 137.508C685.848 142.79 672.6 169.529 669.987 175.612C667.375 181.696 666.482 183.141 664.99 184.845C663.497 186.549 664.097 189.293 664.088 189.456C662.773 200.839 656.826 208.959 655.242 212.382C653.657 215.805 646.709 231.167 646.183 233.24C648.353 232.967 648.675 233.93 648.822 233.95C648.881 238.735 647.141 243.206 644.933 245.37C642.725 247.534 643.393 248.096 642.252 251.786C641.111 255.477 638.649 258.061 636.82 258.682C634.99 259.304 634.003 259.003 633.861 260.975C633.719 262.947 633.837 264.694 632.463 266.216C631.089 267.737 631.337 268.222 631.233 268.414C631.166 274.128 629.906 281.347 627.841 292.348C625.774 303.35 617.271 313.274 614.634 315.963C615.43 318.037 615.888 326.006 616.136 327.672C616.384 329.338 619.124 334.73 619.881 337.6C620.637 340.469 620.032 349.808 619.881 350.012C621.495 355.838 621.021 362.061 620.977 363.272C620.933 364.483 619.934 366.736 619.141 367.902C618.349 369.067 618.491 369.807 619.141 375.828C619.791 381.85 619.15 443.658 619.141 443.765C618.678 449.537 620.304 455.295 620.977 458.151C621.651 461.007 621.453 464.838 620.977 468.216C620.501 471.594 623.859 481.253 622.726 481.882C621.592 482.511 620.977 484.192 620.977 486.368C624.064 487.915 626.584 491.895 625.828 491.876C624.102 491.896 621.728 493.865 619.881 495.924C618.034 497.983 619.879 500.386 620.977 505.171C622.076 509.956 620.968 512.754 619.881 515.555C618.794 518.355 618.443 524.568 620.977 524.561C623.512 524.553 624.062 525.489 624.11 528.358C624.158 531.227 622.726 531.353 622.726 533.244C621.541 537.064 626.91 538.12 627.841 540.572C628.771 543.023 626.93 547.186 627.841 547.662C628.751 548.139 630.135 549.43 630.377 551.701C630.62 553.972 633.213 553.828 633.861 555.964C634.508 558.101 634.681 560.676 635.357 564.106C636.033 567.536 636.911 567.694 638.266 571.763C639.621 575.831 637.954 582.65 640.072 582.146C642.189 581.642 642.519 582.61 643.223 587.025C643.927 591.44 644.074 591.127 644.933 592.968C645.792 594.809 646.194 600.36 646.183 600.435C649.302 601.143 650.922 608.792 651.204 608.726C653.887 609.3 657.158 615.615 658.188 621.488C659.218 627.36 657.54 628.258 657.167 631.671C656.795 635.084 658.602 641.119 660.944 650.392C663.286 659.664 673.38 690.122 676.863 699.67C680.347 709.219 683.474 713.72 686.328 718.44C702.065 737.687 711.526 757.133 716.681 768.631C721.835 780.129 724.268 788.549 725.326 794.438C726.384 800.327 732.834 815.669 735.152 822.052C737.47 828.435 736.412 829.833 737.905 831.325C744.096 847.797 744.359 864.188 744.391 864.387C745.787 865.538 754.938 875.629 755.614 877.258C756.29 878.887 753.987 884.214 760.4 887.817C766.813 891.42 767.262 896.481 767.512 903.066C767.763 909.65 770.666 910.893 772.086 913.902C773.507 916.911 774.937 924.425 786.291 938.518C797.645 952.612 794.241 956.814 794.412 959.005C794.583 961.195 794.464 961.982 792.988 963.308C791.513 964.635 793.91 963.687 792.988 964.609C792.038 967.494 778.453 973.246 774.913 974.1C771.373 974.953 771.333 974.475 770.463 975.346C768.171 977.561 752.988 977.549 750.785 975.346C739.693 967.134 741.038 960.896 741.105 957.589C741.171 954.282 743.456 946.868 741.671 942.243C739.885 937.618 731.323 934.322 725.326 929.222C719.329 924.121 720.124 915.044 719.219 911.293C718.315 907.543 720.033 896.968 720.135 894.32C720.239 891.671 720.877 883.174 720.135 881.581C719.394 879.988 716.74 878.653 715.345 877.258C711.737 874.318 713 865.654 712.94 865.899C709.571 860.568 692.818 828.879 688.747 824.643C684.677 820.407 668.449 793.239 666.587 789.323C664.725 785.407 654.488 763.967 651.204 760.179C647.919 756.392 640.595 746.897 638.266 744.568C625.552 732.904 617.833 712.747 616.136 709.033C614.439 705.319 602.333 680.261 600.096 676.703C597.859 673.145 585.913 655.178 585.156 654.331C581.63 655.271 579.277 653.16 579.152 653.275C571.143 649.757 572.803 643.293 573.497 639.825C572.498 637.202 567.179 636.665 547.849 629.169C525.561 619.672 501.092 621.71 499.05 622.671C499.64 626.888 498.872 626.528 496.409 629.169C492.076 634.222 484.208 631.796 481.897 631.671C479.38 633.092 457.322 660.187 448.139 671.874C438.956 683.56 431.798 691.642 431.731 691.994C419.342 711.325 396.935 722.668 389.59 726.294C382.246 729.92 350.332 766.558 348.301 768.631C346.269 770.705 310.25 804.939 307.985 807.876C309.737 819.548 302.725 822.886 301.486 823.484C300.248 824.081 298.528 826.752 295.767 832.434C293.006 838.116 283.658 850.433 277.814 852.784C271.971 855.136 268.013 861.306 263.341 865.899C258.669 870.492 254.234 869.311 253.223 871.799C252.212 874.288 245.434 880.901 240.428 887.028C235.42 893.154 227.535 896.105 226.357 897.496C225.178 898.887 223.39 917.858 223.232 919.896C223.074 921.933 224.512 923.902 225.509 924.574C226.504 925.246 226.653 926.913 224.075 929.222C221.496 931.53 220.318 935.674 222.434 935.985C224.551 936.296 225.206 938.653 227.448 938.518C229.69 938.384 228.048 939.973 230.909 939.968C233.771 939.963 234.798 941.192 234.971 942.243C235.145 943.296 233.117 942.989 233.256 945.124C233.39 947.167 232.384 949.899 232 950.043C231.984 950.044 231.968 950.045 231.952 950.047C231.967 950.05 231.983 950.049 232 950.043C235.518 949.806 236.123 953.666 236.233 953.576C238.553 953.675 238.918 951.988 240.428 950.047C241.937 948.104 243.647 948.673 242.381 950.047C241.116 951.419 238.037 956.747 236.233 959.005C234.43 961.262 236.826 962.96 239.146 966.55C231.75 959.899 229.192 963.402 227.448 964.609C220.767 968.631 220.509 973.555 221.264 974.1C222.02 974.644 223.124 976.192 222.434 980.393C221.744 984.594 222.728 985.787 223.232 986.451C223.736 987.113 223.818 987.214 223.232 990.713C222.646 994.212 227.071 1009.84 228.105 1013.35C229.138 1016.85 231.507 1030.25 230.909 1033.64C230.313 1037.03 218.81 1036.58 210.15 1035.51C201.49 1034.44 187.258 1024.24 184.914 1022.06C182.568 1019.88 183.312 1015.28 183.857 1013.35C183.701 1011.28 184.406 1007.92 184.914 1006.76C185.421 1005.6 184.579 1003.87 183.857 1003.03C174.353 1001.49 170.517 996.418 168.818 992.987C168.315 991.611 166.658 990.943 165.653 989.604C164.648 988.266 165.338 982.181 165.653 980.393C165.968 978.605 167.03 976.239 168.818 974.1C171.812 973.128 172.116 971.526 174.014 968.722C175.911 965.918 179.192 965.308 180.066 963.308C180.94 961.308 181.447 958.769 183.857 955.437C186.268 952.105 189.389 944.592 190.381 938.518C191.371 932.445 192.256 932.033 193.173 930.903C194.09 929.773 193.056 928.604 192.086 927.797C191.117 926.989 191.276 925.3 192.086 924.574C192.897 923.848 193.446 919.661 193.173 917.669C192.901 915.677 195.152 915.538 194.782 915.544C195.112 908.686 192.547 874.797 192.086 868.803C191.627 862.809 190.363 833.039 190.381 826.465C190.398 819.89 187.577 775.025 187.128 766.908C186.678 758.79 187.439 741.846 188.102 735.742C188.765 729.639 188.604 689.389 188.102 683.189C187.077 678.984 185.082 660.108 184.914 658.152C182.625 655.934 180.65 654.745 181.143 653.275C181.634 651.806 180.498 650.223 180.066 648.756C179.634 647.288 180.201 645.763 181.143 642.744C182.084 639.724 181.298 633.869 181.143 631.671C180.986 629.472 180.441 628.418 178.519 626.848C175.195 624.773 171.065 618.883 169.915 619.763C168.765 620.643 170.527 621.98 171.283 622.671C172.038 623.362 170.392 623.591 168.818 625.583C165.572 630.252 156.592 636.37 154.523 637.852C152.454 640.277 130.063 684.896 129.426 685.946C128.789 686.997 114.861 719.833 112.409 727.173C109.958 734.513 106.281 738.883 106.975 741.664C107.669 744.446 108.755 753.693 110.452 762.185C112.149 770.678 109.859 813.61 110.452 820.397C115.073 826.202 112.988 830.234 113.601 832.434C114.213 834.635 116.871 834.349 125.954 839.926C135.036 845.504 134.629 852.86 133.908 855.136C133.188 857.411 134.449 857.848 133.908 860.457C133.369 863.067 133.702 864.766 131.39 865.899C129.079 867.032 129.054 872.463 127.81 874.819C126.565 877.176 125.306 880.569 121.852 881.581C118.397 882.593 117.969 881.629 115.678 887.817C113.388 894.005 115.576 918.538 115.678 919.896C115.781 921.254 114.571 922.055 113.601 922.533C112.631 923.011 113.859 926.429 113.601 927.797C113.342 929.164 111.435 932.439 110.452 932.675C109.469 932.911 109.4 935.036 109.042 936.553C108.684 938.07 105.364 942.622 98.1367 948.3C90.9088 953.978 75.2639 955.626 67.6927 948.3C60.1216 940.974 64.8723 918.832 65.537 915.544C66.2025 912.257 67.4171 907.705 69.3779 904.988C71.3387 902.27 73.8166 893.673 73.8479 893.658C74.0675 882.73 78.0422 870.308 78.0989 868.803C75.8268 867.189 73.8697 863.44 70.6805 858.406C67.4913 853.372 69.2324 845.852 69.3779 843.848C69.5226 841.843 76.0749 832.159 78.0989 829.349C80.1237 826.54 80.1201 823.524 80.0248 823.484C78.5731 819.409 71.3387 792.232 69.3779 786.191C67.4171 780.15 64.9072 756.248 64.1639 750.076C63.4206 743.904 65.8279 712.975 66.3123 710.016C66.7974 707.058 76.1912 666.959 76.4356 664.565C76.68 662.172 82.6475 637.836 83.9144 631.671C85.1821 625.506 84.5268 622.499 83.9144 621.488C80.6757 620.355 80.5099 617.14 80.0248 616.27C79.5397 615.399 76.5454 616.282 76.4356 612.909C76.3258 609.535 74.9279 609.105 73.8479 607.055C72.7686 605.005 73.813 604.246 73.8479 604.435C79.0444 603.82 77.8938 602.135 78.0989 602.174C79.016 599.091 73.8908 601.727 75.3774 600.435C76.864 599.143 78.747 599.898 80.0248 599.268C81.3027 598.636 79.2139 597.902 80.0248 596.716C80.835 595.53 83.1427 597.228 83.9144 596.716C84.6861 596.204 86.8491 593.075 87.3516 591.342C87.8542 589.61 88.8346 588.79 89.9386 587.025C91.0434 585.26 94.9293 574.648 95.7476 571.763C96.565 568.878 100.476 563.034 101.276 561.256C102.076 559.479 101.351 558.096 102.876 555.964C104.402 553.833 105.63 549.206 105.789 549.661C105.071 536.404 109.091 532.521 110.452 530.502C111.785 528.526 115.611 528.311 115.679 528.355L115.678 528.358C115.681 528.357 115.681 528.356 115.679 528.355C116.281 525.543 117.774 520.314 117.459 518.608C117.201 517.209 115.976 516.736 115.702 516.657C115.963 516.577 115.948 513.681 117.459 512.368C119.012 511.018 120.266 509.976 119.77 507.768C119.275 505.562 119.671 505.66 121.007 504.494C122.343 503.328 120.737 502.805 121.007 500.228C121.277 497.652 122.973 498.047 123.009 497.058C123.045 496.07 123.568 492.863 123.904 490.031C124.241 487.198 124.924 486.491 125.104 484.428C125.285 482.365 127.667 478.079 127.81 475.877C127.953 473.675 125.356 467.816 128.595 466.751C131.661 465.742 131.36 462.339 131.383 462.227C129.671 459.178 128.643 446.374 127.81 437.182C126.976 427.976 125.281 417.623 123.904 412.582C122.527 407.542 118.663 400.989 117.459 397.684C116.255 394.378 108.843 367.403 106.975 363.272C105.106 359.141 96.285 337.236 92.6253 331.214C88.9655 325.192 85.6665 311.438 85.4046 310.273C82.382 305.166 70.3903 274.939 67.6927 268.414C64.9959 261.888 59.4314 246.832 59.3783 244.534C59.3252 242.235 58.1469 239.128 57.1949 237.213C52.4129 231.813 40.2016 201.81 38.315 197.981C36.4284 194.153 12.437 136.866 7.36478 131.551C1.65549 128.306 -8.62633 116.142 -8.37905 115.952C-18.0274 109.636 -18.6609 107.581 -19.0682 105.388C-19.4754 103.195 -16.4062 103.225 -16.0986 101.742C-18.679 99.9307 -19.8929 100.008 -20.3162 97.1233C-20.7395 94.2381 -16.6404 94.5319 -14.58 93.8897C-18.7249 89.3463 -18.2645 88.3143 -16.0986 86.9949C-13.9327 85.6763 -9.86928 90.5143 -8.37905 89.7994C-6.88881 89.0845 -5.65313 88.7892 -5.38403 88.9055C-5.65677 87.4917 -12.6723 77.5677 -18.0667 72.6191C-23.349 67.7724 -24.9585 64.2174 -25 64.157C-23.0778 60.9707 -20.1075 62.9199 -20.3162 62.7417C-15.5626 65.2174 -2.26465 81.522 -2.09446 82.0137C1.31366 79.5867 2.66207 81.69 3.11227 82.0137C3.56174 82.3373 2.0926 84.3723 1.65331 84.3723C1.21475 84.373 4.15231 91.3354 4.41413 91.5602C9.29576 90.87 10.1663 94.0672 11.7664 93.8897C13.3657 93.713 13.6275 96.3429 13.7446 89.7994C13.8617 83.2559 17.8255 79.4652 19.7405 77.2608C21.6555 75.0563 24.4272 75.7713 24.937 76.4542C25.4462 77.1371 25.0112 78.2012 23.4359 80.2049C20.1085 84.7076 21.3689 93.2904 22.438 100.022C28.3066 112.57 26.4127 120.174 27.6164 121.868C28.8194 123.563 61.2627 188.474 61.8191 189.456C62.3747 190.439 80.0154 223.505 81.4809 225.73C82.9464 227.956 98.2691 255.551 99.699 257.464C101.129 259.378 109.957 282.075 110.452 282.657C110.947 283.238 111.199 282.517 112.409 285.885C113.62 289.252 119.099 296.131 121.007 299.004C122.915 301.877 124.819 303.866 127.81 306.215C130.801 308.564 135.066 314.187 139.321 314.769C143.575 315.35 140.209 313.86 145.136 313.071C150.063 312.281 154.073 315.509 155.305 314.769C156.537 314.028 157.829 311.342 154.523 305.229C151.217 299.115 152.841 297.163 145.136 294.182C137.43 291.2 135.204 285.67 133.908 283.432C132.613 281.195 130.061 268.74 129.99 261.795C129.92 254.849 132.298 243.323 133.908 240.265C135.519 237.208 137.586 235.507 137.225 233.95C133.756 230.409 139.023 228.561 140.839 225.73C142.655 222.899 140.967 219.609 140.839 217.444C140.711 215.278 141.685 213.518 143.015 213.508C144.346 213.498 144.418 211.257 145.136 208.434C145.855 205.611 151.914 204.402 154.523 204.165C157.132 203.929 158.257 201.236 159.687 200.48C161.117 199.725 168.632 199.648 171.283 199.707C173.934 199.767 174.376 201.323 176.992 202.69C179.607 204.057 181.586 207.178 184.914 208.955C188.24 210.731 187.25 213.725 188.102 214.759C188.955 215.793 189.171 216.35 194.782 218.032C200.392 219.715 197.535 223.262 201.517 224.654C205.499 226.044 209.765 230.737 210.15 233.24C210.536 235.743 215.527 240.879 216.075 242.827C216.624 244.777 216.787 246.716 218.097 247.494C219.406 248.271 220.012 254.763 219.204 257.464C217.598 258.402 217.547 261.63 217.179 262.945C216.811 264.26 217.233 265.519 217.179 265.619C220.273 269.828 219.753 270.928 219.204 275.725C218.656 280.52 215.714 280.031 215.031 281.017C214.348 282.004 214.221 284.756 212.911 293.113C211.601 301.469 204.225 308.473 204.119 309.03C204.012 309.586 205.287 308.99 207.29 308.236C211.874 306.08 220.85 282.304 221.264 281.017C221.679 279.73 223.126 278.883 223.232 278.888C223.823 275.57 224.85 270.556 225.509 267.332C226.167 264.107 232.368 234.767 233.256 230.211C234.144 225.655 240.035 201.341 240.428 196.898C240.82 192.455 238.261 191.814 236.233 189.456C234.205 187.099 230.987 185.497 227.448 185.437C223.908 185.377 224.559 187.095 224.075 189.456C223.59 191.817 221.116 191.628 219.204 191.538C217.247 192.947 220.355 200.294 219.204 201.49C212.571 204.398 212.858 188.923 212.911 186.812C212.964 184.7 212.56 183.353 211.509 180.888C210.645 177.669 214.837 173.51 216.075 171.391C217.314 169.271 218.404 170.396 219.204 168.551C220.284 164.23 221.901 164.71 223.232 162.889C224.563 161.067 228.241 157.079 230.909 154.076C233.579 151.072 236.998 153.277 239.146 152.983C241.295 152.691 243.549 151.938 244.997 149.738C247 144.228 246.466 86.4436 246.356 82.0137C246.247 77.5837 244.332 69.5558 242.381 65.9076C240.431 62.2588 237.401 51.8562 236.233 47.6677C233.366 42.8588 231.313 34.5945 230.909 32.8148C230.506 31.0359 229.398 23.56 229.309 20.3206C229.221 17.0805 232.286 18.0681 233.894 19.4405C235.5 20.8137 235.737 26.9332 236.233 30.4962C236.729 34.0585 240.297 40.5416 241.489 43.3919C240.714 41.122 241.606 34.5945 241.489 31.8868C241.372 29.1791 241.079 20.4624 241.489 20.3206C248.176 16.6383 248.098 28.1238 248.756 35.8913C249.414 43.6596 250.713 43.2145 251.775 44.4414C252.837 45.6691 251.875 49.494 253.223 48.5005C254.571 47.5063 253.364 40.1918 253.223 35.0876C253.081 29.9827 254.649 29.4962 254.688 29.5238C261.955 28.4925 260.996 36.7328 260.96 43.3919C260.925 50.0518 261.318 52.7261 264.043 52.2664C266.769 51.806 270.666 46.152 272.482 41.7119C274.297 37.271 274.927 37.5612 275.171 37.4397C279.614 36.3939 279.108 40.8202 279.189 40.7547C278.785 46.4379 270.945 54.6229 271.77 59.1561C272.595 63.6894 270.467 75.8651 269.922 79.5467C269.377 83.2283 271.466 127.407 271.77 131.551C272.075 135.694 271.646 140.385 272.482 143.807C273.317 147.228 272.103 176.595 272.482 183.433C282.102 191.108 335.596 234.301 344.828 240.265C354.061 246.23 373.888 255.337 378.393 257.464C382.898 259.592 389.419 266.029 391.736 266.216C394.053 266.402 393.768 265.782 393.874 265.619C394.157 263.454 394.831 262.224 396.935 261.795C399.038 261.364 401.137 263.633 403.434 264.663C407.864 265.441 409.591 269.175 411.673 271.577C415.335 272.426 423.454 278.895 423.643 278.888C427.072 277.683 429.245 277.971 429.474 281.017C429.701 284.063 429.491 285.986 433.557 285.885C437.623 285.784 437.762 282.003 441.894 281.017C446.025 280.031 448.044 283.347 448.139 283.432C449.594 288.319 452.419 290.044 453.173 287.707C453.927 285.369 455.658 284.96 457.281 283.432C457.486 281.285 455.74 279.469 453.173 277.307C450.606 275.146 452.118 274.898 453.173 273.783C443.587 264.421 443.788 249.393 443.034 247.494C442.28 245.595 440.334 242.133 441.894 240.265C443.454 238.397 443.349 235.968 444.428 233.24C445.506 230.512 442.514 227.509 441.894 222.436C441.273 217.363 446.064 215.552 444.428 211.22C442.791 206.886 443.884 202.485 444.428 200.48C444.972 198.476 443.448 197.115 444.428 193.9C445.407 190.684 452.869 186.404 460.099 180.888C467.329 175.373 470.487 177.258 472.191 176.766C471.819 174.282 472.665 171.087 475.701 169.496C478.738 167.905 481.859 167.038 485.652 166.495C489.308 165.972 493.472 167.494 493.605 167.563L493.603 167.564C493.61 167.566 493.61 167.565 493.605 167.563ZM232.016 952.42C232.262 952.557 234.72 951.711 234.649 955.436C234.579 959.161 234.012 957.627 232.016 957.414C230.02 957.201 229.23 950.87 232.016 952.42ZM268.707 222.605C267.486 228.569 266.014 236.115 265.74 240.167C265.462 244.283 256.795 292.548 255.846 301.158C256.052 305.065 255.04 306.501 254.652 308.086C254.264 309.672 254.317 314.986 252.816 318.452C252.509 324.242 250.501 337.093 250.137 340.904C249.773 344.716 247.701 351.93 247.338 353.215C246.973 354.5 250.396 366.027 251.575 375.738C252.754 385.449 252.807 403.601 252.816 407.211C252.826 410.82 253.449 415.862 254.652 417.577C255.856 419.292 258.19 431.092 258.741 435.564C259.292 440.037 260.937 444.597 261.057 446.963C261.177 449.329 261.469 449.88 262.236 451.78C263.003 453.678 263.885 456.908 263.933 459.812C264.896 461.072 268.607 467.929 268.765 470.793C268.923 473.657 269.565 480.599 268.765 484.248C267.965 487.897 265.783 495.291 265.74 497.206C265.697 499.12 267.935 506.349 267.658 509.68C267.379 513.012 268.688 515.243 267.658 515.972C266.627 516.702 266.876 514.46 263.933 513.822C260.99 513.185 253.229 514.185 252.816 515.972C253.233 519.698 255.184 527.598 255.846 529.622C256.507 531.646 255.683 548.762 255.846 551.244C256.824 551.953 257.653 554.201 257.653 555.942C257.653 557.684 254.768 566.176 254.652 569.717C255.4 574.271 253.612 573.902 254.652 574.542C255.693 575.182 257.893 577.039 257.653 579.172C257.414 581.305 256.263 584.407 257.653 585.592C259.044 586.777 258.598 588.533 258.741 593.207C258.885 597.881 260.918 598.45 261.057 604.583C261.196 610.716 258.972 618.374 261.057 621.284C263.511 624.226 263.943 624.085 263.933 627.362C263.923 630.64 261.671 634.086 262.236 638.359C260.985 641.568 260.276 642.051 257.653 641.715C257.15 644.859 255.741 679.002 251.575 699.672C247.409 720.341 239.71 751.954 239.658 759.006C239.486 763.985 238.402 767.083 237.707 769.022C237.012 770.96 233.614 811.293 236.233 826.465C236.27 826.681 240.58 824.896 242.381 822.052C244.183 819.208 251.403 814.048 255.846 812.623C260.289 811.198 265.634 805.932 268.765 804.88C271.895 803.828 275.38 798.014 277.398 796.87C278.457 796.21 282.911 786.455 283.812 784.724C284.713 782.995 305.522 744.312 308.749 740.672C311.974 737.032 337.448 693.914 361.42 680.592C361.454 680.041 371.818 674.365 373.802 671.02C375.787 667.675 386.879 649.451 391.055 643.979C391.394 643.519 409.318 606.435 410.583 600.239C411.063 597.889 411.312 597.053 411.385 596.839C411.415 596.769 411.417 596.745 411.385 596.839C411.302 597.028 411.002 597.548 410.583 596.862C409.663 595.352 408.105 589.809 409.079 587.377C410.052 584.945 412.966 574.902 417.529 575.905C418.646 576.012 417.136 570.947 419.73 569.717C420.051 569.314 421.729 564.375 422.812 561.362C423.895 558.349 425.439 555.794 425.928 554.9C426.417 554.006 426.479 546.325 427.769 545.181C429.058 544.038 428.929 541.305 430.084 539.929C431.239 538.552 431.33 534.683 435.06 533.276C435.28 532.566 435.314 529.013 435.06 527.494C434.805 525.975 434.077 521.534 436.292 520.389C435.707 518.793 436.498 518.193 435.06 516.847C433.621 515.502 432.284 510.014 431.455 508.068C430.626 506.122 427.395 502.722 427.769 501.034C428.143 499.346 426.618 494.171 425.928 490.894C425.238 487.619 422.078 480.195 422.812 478.917C423.545 477.639 423.153 466.574 425.928 459.812C426.671 457.953 426.038 455.039 427.769 451.78C429.499 448.519 428.684 444.422 427.769 440.361C426.857 436.316 425.503 435.537 425.923 417.786L425.928 417.577V417.579C425.904 417.478 424.022 395.452 424.844 389.865C425.674 384.227 426.201 375.677 429.034 371.397C429.288 370.782 430.76 363.212 430.084 361.102C429.408 358.992 413.143 354.236 407.166 345.925C401.188 337.615 394.793 329.473 393.71 324.289C392.507 324.903 388.308 327.715 385.968 326.811C383.629 325.906 371.837 321.609 372.053 315.431C372.268 309.254 375.6 306.434 374.915 305.212C372.805 303.462 336.403 280.288 331.968 270.473C324.126 264.861 276.085 233.383 268.765 222.322L268.707 222.605ZM895.733 651.744L895.745 651.848C895.737 651.633 895.73 651.624 895.733 651.744ZM112.411 534.355C112.955 534.34 114.267 533.576 113.899 535.593C113.531 537.609 112.529 535.757 112.411 539.092C112.293 542.426 111.475 546.088 110.261 546.373C109.047 546.659 109.157 539.78 110.261 537.362C111.366 534.945 111.081 534.393 112.411 534.355ZM115.703 516.657C115.7 516.659 115.695 516.659 115.692 516.659C115.688 516.659 115.684 516.659 115.68 516.657C115.628 516.642 115.643 516.641 115.703 516.657ZM131.384 462.227L131.392 462.24C131.388 462.225 131.386 462.221 131.384 462.227ZM825.327 318.088C825.336 318.058 830.085 311.429 830.712 311.188C831.339 310.946 830.295 321.523 827.937 321.328C825.578 321.135 824.519 320.659 825.327 318.088ZM823.464 309.9C823.491 309.878 825.055 307.286 825.327 308.638C825.599 309.99 824.539 313.253 823.464 313.041C822.387 312.828 821.996 311.096 823.464 309.9ZM823.422 304.547C823.533 304.498 823.918 305.198 824.082 305.993C824.247 306.789 824.191 307.678 823.422 308.006C821.884 308.665 820.804 305.69 823.422 304.547ZM819.023 293.822C819.087 293.838 821.608 293.553 821.212 297.544C820.816 301.536 819.225 298.93 817.872 300.738C816.52 302.546 815.378 292.944 819.023 293.822ZM946.487 280.18C946.556 280.214 952.68 279.095 953.246 280.18C953.811 281.265 952.728 282.547 953.246 283.947C953.763 285.347 952.976 287.829 954.232 288.412C955.489 288.995 955.463 290.385 955.415 291.453C955.367 292.521 953.49 293.618 955.415 294.423C957.341 295.228 956.831 295.081 956.757 296.015C956.683 296.949 960.479 292.977 960.748 291.453C961.018 289.929 959.584 286.02 960.748 284.819C961.912 283.617 963.236 282.132 962.766 281.141C962.297 280.151 958.497 276.472 959.444 274.319C960.39 272.165 960.319 270.676 960.748 269.71C961.177 268.743 962.567 264.654 966.011 262.151C969.455 259.648 970.445 254.004 969.777 252.576C969.108 251.148 967.681 251.371 967.729 246.953C967.778 242.536 965.951 241.315 964.255 239.724C962.559 238.133 960.441 239.464 959.444 237.329C958.446 235.194 952.178 232.233 948.808 233.668C945.437 235.104 941.375 242.047 938.829 242.652C936.283 243.257 935.618 245.737 937.026 246.953C938.434 248.169 939.324 248.903 939.709 250.817C940.093 252.732 942.403 251.82 942.994 253.854C943.586 255.887 944.916 257.027 944.299 259.163C943.682 261.299 942.514 262.096 944.299 263.104C946.084 264.112 946.908 265.534 946.487 267.358C946.066 269.182 942.373 268.966 942.994 271.655C943.615 274.343 945.493 275.06 945.256 277.605C945.02 280.151 945.297 279.597 946.487 280.18ZM810.438 271.756C810.487 271.732 811.886 270.817 811.547 274.191C811.209 277.564 812.743 279.183 813.758 282.17C813.077 283.937 811.354 284.319 809.502 284.633C807.651 284.947 807.054 279.914 808.154 277.263C809.255 274.612 806.963 273.437 810.438 271.756ZM216.077 268.414C216.358 268.278 217.985 268.235 218.009 271.577C218.034 274.92 217.868 278.015 216.077 277.896C214.286 277.778 214.746 269.054 216.077 268.414ZM454.434 261.482C454.469 261.378 456.724 267.083 459.84 270.638C459.926 270.644 460.675 274.235 459.84 277.528C457.488 274.41 452.53 267.221 454.434 261.482ZM965.39 271.655C965.687 271.722 966.237 272.089 966.011 273.271C965.784 274.452 965.54 275.602 965.39 276.034C965.24 276.466 964.375 276.313 964.265 275.175C964.155 274.037 964.429 271.436 965.39 271.655ZM817.785 276.026C817.654 275.99 817.548 273.279 817.785 271.433C818.023 269.587 819.271 249.775 822.208 245.721C825.146 241.666 825.528 236.589 828.553 236.634C831.579 236.678 824.754 239.723 824.811 244.688C824.869 249.653 823.963 252.54 828.553 254.431C827.067 255.817 820.793 261.842 820.278 265.695C819.764 269.548 820.621 276.811 817.785 276.026ZM449.028 251.786C449.092 251.631 450.345 253.361 450.287 258.682C450.231 264.005 452.554 270.353 455.512 273.292C453.184 272.287 444.457 263.014 449.028 251.786ZM822.208 268.981C822.188 268.751 821.703 260.04 830.114 257.157C831.689 256.978 830.984 258.138 828.641 260.32C826.298 262.503 823.936 264.802 824.24 267.814C823.897 269.185 822.411 271.252 822.208 268.981ZM808.336 253.647C808.336 253.657 810.042 257.864 808.336 258.671C806.63 259.478 805.711 260.851 808.336 262.246C810.961 263.641 812.262 264.814 812.997 261.061C813.731 257.308 813.485 251.768 815.864 248.592C818.242 245.417 820.041 242.916 820.533 240.746C821.026 238.576 821.795 233.609 823.637 232.381C825.48 231.153 823.066 229.198 821.593 229.34C820.12 229.482 818.88 232.975 816.993 232.381C815.108 231.786 808.363 231.919 807.056 232.381C805.751 232.842 803.882 234.607 804.296 237.098C804.709 239.588 803.029 246.382 805.584 248.592C808.138 250.802 808.432 252.15 808.336 253.647ZM788.326 227.782C788.414 227.728 789.948 225.724 789.39 229.34C788.831 232.956 789.609 231.149 788.326 230.515C787.042 229.881 786.795 228.718 788.326 227.782ZM808.336 229.34C808.75 229.777 815.846 232.161 818.348 229.34C820.85 226.519 819.755 223.881 815.411 224.314C811.067 224.747 806.366 227.257 808.336 229.34ZM793.38 202.836C793.384 202.792 796.446 202.432 799.855 203.923C803.265 205.414 806.201 204.486 809.562 204.843C812.922 205.199 811.389 206.243 811.213 206.98C811.037 207.716 804.117 210.505 801.909 212.388C799.7 214.271 795.217 216.8 794.246 218.149C793.276 219.497 788.68 218.912 787.389 220.179C786.099 221.444 785.998 214.825 787.389 213.383C788.782 211.94 793.051 206.796 793.38 202.836ZM953.774 208.607C953.79 208.575 959.836 207.778 961.261 210.89C960.641 212.455 960.231 214.193 957.763 213.917C955.297 213.64 951.455 213.23 953.774 208.607ZM785.672 203.923C786.002 203.788 790.404 200.695 790.843 201.782C791.281 202.869 790.115 206.22 787.791 208.268C785.467 210.316 785.123 210.95 784.647 210.378C784.171 209.807 784.234 204.51 785.672 203.923ZM809.937 199.448C809.933 199.448 802.881 198.695 802.186 197.981C801.49 197.267 800.82 192.286 807.061 191.775C812.365 193.326 823.592 195.135 826.693 199.448C825.327 200.714 822.045 202.993 820.512 205.181C819.388 205.153 818.442 205.15 816.741 203.923C815.041 202.696 813.398 199.123 809.937 199.448ZM793.305 197.33C793.315 197.432 796.943 197.104 798.597 197.981C798.71 196.35 799.7 191.604 802.186 191.08C800.508 190.514 792.953 188.847 791.443 189.831C789.933 190.815 792.945 193.54 793.305 197.33Z" fill="white"/>
</mask>
<g mask="url(#mask0)">
<rect x="-123.433" y="-15.7495" width="1188.49" height="792.933" fill="white"/>
</g>
</svg>
