<?xml version="1.0" standalone="no"?>
<!DOCTYPE svg PUBLIC "-//W3C//DTD SVG 1.1//EN" "http://www.w3.org/Graphics/SVG/1.1/DTD/svg11.dtd" >
<svg xmlns="http://www.w3.org/2000/svg" xmlns:xlink="http://www.w3.org/1999/xlink" version="1.1">
<metadata>
Created by FontForge 20170731 at Wed Aug 26 01:18:40 2020
 By Aleksey,,,
Daniel Grumer 2017
</metadata>
<defs>
<font id="Abraham-Light" horiz-adv-x="1820" >
  <font-face 
    font-family="Abraham Light"
    font-weight="300"
    font-stretch="normal"
    units-per-em="2048"
    panose-1="0 0 4 0 0 0 0 0 0 0"
    ascent="1638"
    descent="-410"
    x-height="1001"
    cap-height="1251"
    bbox="-1290 -901 2511 2302"
    underline-thickness="102"
    underline-position="-307"
    unicode-range="U+0020-FEFC"
  />
<missing-glyph horiz-adv-x="1619" 
d="M182 0v1597h1256v-1597h-1256zM238 55h1146v1487h-1146v-1487zM766 596q-10 73 -10 82q0 46 21.5 86.5t58.5 87.5l6 9q48 67 52 97q1 2 1 5q2 39 -45 65t-148 39l27 55q110 -6 173 -46t63 -103q0 -15 -3.5 -29.5t-13.5 -33t-15 -26.5t-22 -32.5t-20 -28.5
q-5 -7 -17.5 -23.5t-17 -23t-13.5 -20t-12 -21t-8 -18.5t-6.5 -21.5t-1.5 -21.5q0 -9 3 -40.5t3 -37.5h-55zM762 408q-5 36 -8 77q25 4 82 4q0 -13 -5 -81h-69z" />
    <glyph glyph-name="uniFB2A" unicode="&#x5e9;&#x5c1;" horiz-adv-x="1304" 
d="M1186 1235l-115 -2q-14 81 -12 129q67 10 129 4zM1055 1069h153q0 -160 -10.5 -293t-29 -235.5t-48 -183.5t-63 -138.5t-80 -99.5t-92 -67t-104.5 -39.5t-114 -19.5t-124 -5q-208 0 -344 32q-17 70 -25 150l-100 899h151l62 -577h16q109 11 167.5 69t76.5 191l43 317h153
q-11 -65 -32.5 -194t-32.5 -193q-25 -146 -123 -217.5t-256 -93.5l27 -246q79 -14 209 -14q76 0 126.5 5.5t110 27t97.5 61t77 109.5t60.5 171t35 247.5t13.5 336.5z" />
    <glyph glyph-name="uniFB2B" unicode="&#x5e9;&#x5c2;" horiz-adv-x="1304" 
d="M221 1235l-115 -2q-14 81 -12 129q67 10 129 4zM1055 1069h153q0 -160 -10.5 -293t-29 -235.5t-48 -183.5t-63 -138.5t-80 -99.5t-92 -67t-104.5 -39.5t-114 -19.5t-124 -5q-208 0 -344 32q-17 70 -25 150l-100 899h151l62 -577h16q109 11 167.5 69t76.5 191l43 317h153
q-11 -65 -32.5 -194t-32.5 -193q-25 -146 -123 -217.5t-256 -93.5l27 -246q79 -14 209 -14q76 0 126.5 5.5t110 27t97.5 61t77 109.5t60.5 171t35 247.5t13.5 336.5z" />
    <glyph glyph-name="uniFB2C" unicode="&#x5e9;&#x5bc;&#x5c1;" horiz-adv-x="1304" 
d="M1186 1235l-115 -2q-14 81 -12 129q67 10 129 4zM1055 1069h153q0 -160 -10.5 -293t-29 -235.5t-48 -183.5t-63 -138.5t-80 -99.5t-92 -67t-104.5 -39.5t-114 -19.5t-124 -5q-208 0 -344 32q-17 70 -25 150l-100 899h151l62 -577h16q109 11 167.5 69t76.5 191l43 317h153
q-11 -65 -32.5 -194t-32.5 -193q-25 -146 -123 -217.5t-256 -93.5l27 -246q79 -14 209 -14q76 0 126.5 5.5t110 27t97.5 61t77 109.5t60.5 171t35 247.5t13.5 336.5zM694 336q-13 56 -10 100q39 8 100 4l-2 -102z" />
    <glyph glyph-name="uniFB2D" unicode="&#x5e9;&#x5bc;&#x5c2;" horiz-adv-x="1304" 
d="M221 1235l-115 -2q-14 81 -12 129q67 10 129 4zM1055 1069h153q0 -160 -10.5 -293t-29 -235.5t-48 -183.5t-63 -138.5t-80 -99.5t-92 -67t-104.5 -39.5t-114 -19.5t-124 -5q-208 0 -344 32q-17 70 -25 150l-100 899h151l62 -577h16q109 11 167.5 69t76.5 191l43 317h153
q-11 -65 -32.5 -194t-32.5 -193q-25 -146 -123 -217.5t-256 -93.5l27 -246q79 -14 209 -14q76 0 126.5 5.5t110 27t97.5 61t77 109.5t60.5 171t35 247.5t13.5 336.5zM694 336q-13 56 -10 100q39 8 100 4l-2 -102z" />
    <glyph glyph-name="uniFB30" unicode="&#x5d0;&#x5bc;" horiz-adv-x="1097" 
d="M66 0q12 148 36 299q29 178 70.5 289t110.5 174v4l-232 285v16l148 12l481 -608h6q47 52 79.5 161.5t45.5 239.5q5 50 14 197h152q-15 -138 -27 -225q-43 -298 -184 -469l268 -357l-2 -18h-155l-517 674h-6q-26 -26 -45 -66.5t-31.5 -99.5t-18 -99.5t-14.5 -114.5
q-1 -6 -1 -9t-1 -8t-1 -9q-24 -196 -31 -268h-145zM23 717q-14 60 -11 100q39 8 101 4l-2 -102z" />
    <glyph glyph-name="uniFB31" unicode="&#x5d1;&#x5bc;" horiz-adv-x="997" 
d="M788 129l164 -6v-123h-901v123h588v668q0 102 -10 151q-85 14 -226 14q-190 0 -333 -14l-11 123q146 14 334 14q88 0 145 -4t104.5 -16.5t73 -31.5t43.5 -54.5t23.5 -79.5t5.5 -111v-653zM377 592l-2 -103l-88 -2q-14 60 -11 101q39 8 101 4z" />
    <glyph glyph-name="uniFB32" unicode="&#x5d2;&#x5bc;" horiz-adv-x="690" 
d="M553 365l49 -363h-131l-37 213l-6 -2l-352 -221h-19v147l353 213l-45 600q-20 2 -72 2q-44 0 -166 -4l-14 121q102 6 202 6q55 0 86 -5.5t57.5 -25t39 -58t16.5 -103.5zM258 637l-2 -102l-88 -3q-13 56 -10 101q39 8 100 4z" />
    <glyph glyph-name="uniFB33" unicode="&#x5d3;&#x5bc;" horiz-adv-x="978" 
d="M877 1069v-115l-146 -10v-946h-151v489q0 255 26 461h-551l-10 121h832zM207 565q39 8 100 4l-2 -102l-88 -2q-13 56 -10 100z" />
    <glyph glyph-name="uniFB34" unicode="&#x5d4;&#x5bc;" horiz-adv-x="1130" 
d="M508 1079q80 0 137 -2t107 -9t82 -16t58 -27t40 -38.5t23.5 -53t12.5 -68.5t3 -87v-778h-150v786q0 109 -8 156q-107 16 -285 16q-188 0 -417 -14l-11 119q203 16 408 16zM139 311q0 117 19 305q75 7 131 7v-623h-150v311zM475 565q39 8 100 4l-2 -102l-88 -2
q-13 56 -10 100z" />
    <glyph glyph-name="uniFB35" unicode="&#x5d5;&#x5bc;" horiz-adv-x="555" 
d="M233 0v950h-155l-6 121q47 2 133 2q107 0 142.5 -28t35.5 -125v-920h-150zM10 465q-13 56 -10 102q42 6 100 2l-2 -102z" />
    <glyph glyph-name="uniFB36" unicode="&#x5d6;&#x5bc;" horiz-adv-x="606" 
d="M246 0q-70 558 -70 707q0 142 98 237q-74 2 -211 17l-10 116q188 -8 289 -8h170l8 -96q-149 -56 -201 -137q-8 -68 6 -222.5t29 -262t52 -351.5h-160zM-41 547q-13 56 -10 100q39 8 100 4l-2 -102z" />
    <glyph glyph-name="uniFB38" unicode="&#x5d8;&#x5bc;" horiz-adv-x="1140" 
d="M424 -12q-116 0 -242 18q-2 24 -9 68t-9 67l-94 928h149l94 -952q37 -6 109 -6q257 0 364 135.5t107 445.5q0 208 -51 250q-28 12 -101 12q-93 0 -252 -39l-14 129q161 33 268 33q168 0 234.5 -83.5t66.5 -268.5q0 -392 -149.5 -564.5t-470.5 -172.5zM530 494
q-13 56 -10 100q39 8 101 4l-3 -102z" />
    <glyph glyph-name="uniFB39" unicode="&#x5d9;&#x5bc;" horiz-adv-x="528" 
d="M236 457v493h-154l-12 121q45 2 139 2q107 0 142.5 -28t35.5 -125v-463h-151zM10 510q-13 56 -10 100q39 8 100 4l-2 -102z" />
    <glyph glyph-name="uniFB3A" unicode="&#x5da;&#x5bc;" horiz-adv-x="903" 
d="M354 1079q72 0 121 -2.5t92 -13t69 -23t47.5 -41t32 -58t17.5 -82.5t8.5 -106t1.5 -137v-1022h-149v1000q0 227 -12 350q-82 14 -224 14q-146 0 -303 -14l-10 123q136 12 309 12zM233 629q39 8 101 4l-2 -103l-88 -2q-14 60 -11 101z" />
    <glyph glyph-name="uniFB3B" unicode="&#x5db;&#x5bc;" horiz-adv-x="923" 
d="M401 1079q90 0 145.5 -5t106 -23.5t77 -49t46.5 -86.5t26.5 -132t6.5 -189q0 -124 -8 -210.5t-30 -156t-55.5 -111t-89.5 -68.5t-127 -37.5t-173 -10.5h-254v123h227q65 0 108.5 2.5t83.5 12.5t64 22.5t44.5 40.5t30 59t16.5 84.5t9 110.5t2 143q0 236 -18 344
q-91 14 -227 14q-185 0 -340 -14l-9 123q132 14 338 14zM354 604l-2 -102l-88 -2q-13 56 -10 100q39 8 100 4z" />
    <glyph glyph-name="uniFB3C" unicode="&#x5dc;&#x5bc;" horiz-adv-x="884" 
d="M778 1069l19 -115l-408 -954h-158l422 946v4h-606l-20 121l-17 299l133 16l23 -317h612zM201 592q-14 60 -11 100q39 8 101 4l-2 -102z" />
    <glyph glyph-name="uniFB3E" unicode="&#x5de;&#x5bc;" horiz-adv-x="1134" 
d="M698 1073q164 0 229.5 -70t65.5 -255v-748h-493l4 123h340v604q0 116 -15 193q-37 32 -159 32q-171 0 -353 -110l-81 -842h-154l92 848l-74 217l140 8l43 -129q109 66 207 97.5t208 31.5zM504 481q-13 56 -10 101q39 8 100 4l-2 -103z" />
    <glyph glyph-name="uniFB40" unicode="&#x5e0;&#x5bc;" horiz-adv-x="677" 
d="M63 0v123h293v827h-223l-8 121q98 4 158 4q79 0 119.5 -6t66 -30.5t31.5 -61t6 -109.5v-868h-443zM96 465q-13 56 -10 100q39 8 100 4l-2 -102z" />
    <glyph glyph-name="uniFB41" unicode="&#x5e1;&#x5bc;" horiz-adv-x="1140" 
d="M592 1079q80 0 133.5 -2t103.5 -9t80 -17t56.5 -30.5t40 -44.5t23 -63t12.5 -83t3 -107q0 -355 -146 -543t-439 -188q-138 0 -242 16q-3 12 -20 131l-97 772q-11 80 -22 236l137 12l16 -90q328 10 361 10zM467 117q222 0 324 149t102 471q0 119 -12 201q-87 18 -281 18
q-164 0 -352 -10l94 -823q58 -6 125 -6zM520 596q39 8 101 4l-3 -102l-88 -2q-13 56 -10 100z" />
    <glyph glyph-name="uniFB43" unicode="&#x5e3;&#x5bc;" horiz-adv-x="1028" 
d="M539 1073q76 0 122.5 -4t87 -18.5t61 -37t35 -66t19 -97.5t4.5 -139v-1114h-149v1151q0 140 -10 194q-86 8 -181 8q-234 0 -295 -4v-418l228 -4v-110q-114 -6 -201 -6q-52 0 -80 5t-51 23.5t-31 54t-8 97.5v569l121 12l20 -98q113 2 308 2zM403 758q39 8 101 4l-2 -103
l-88 -2q-14 60 -11 101z" />
    <glyph glyph-name="uniFB44" unicode="&#x5e4;&#x5bc;" horiz-adv-x="1046" 
d="M545 1063q67 0 113 -3t88.5 -12.5t68.5 -23t48.5 -40t34 -58t19.5 -82.5t10.5 -107.5t2.5 -138.5v-80q0 -276 -106.5 -397t-366.5 -121h-326v123h305q67 0 115.5 7t86 20t62 39t41 57t25 80.5t11.5 102.5t3 130v76q0 221 -16 293q-90 12 -229 12q-249 0 -295 -2v-342
l161 -4v-111q-92 -6 -161 -6q-81 0 -112.5 35.5t-31.5 144.5v492l121 12l21 -98q113 2 307 2zM598 586l-2 -103l-88 -2q-13 56 -10 101q39 8 100 4z" />
    <glyph glyph-name="uniFB46" unicode="&#x5e6;&#x5bc;" horiz-adv-x="962" 
d="M72 0l4 123h606l4 8q-14 18 -93.5 116.5t-130 163t-95.5 128.5l-361 516v16l148 12l393 -579l8 2l178 565h152q-133 -403 -248 -651v-8l215 -281l-18 -131h-762zM147 358q-13 56 -10 101q39 8 101 4l-2 -103z" />
    <glyph glyph-name="uniFB47" unicode="&#x5e7;&#x5bc;" horiz-adv-x="1075" 
d="M485 0l357 946l-2 4h-748l-8 119h872l21 -119l-338 -950h-154zM432 584q-13 56 -10 100q39 8 100 4l-2 -102zM106 -403v686q0 164 19 352h131v-1038h-150z" />
    <glyph glyph-name="uniFB48" unicode="&#x5e8;&#x5bc;" horiz-adv-x="956" 
d="M354 1077q69 0 117.5 -1t94 -5.5t75 -8t56 -16t41.5 -22t27.5 -31.5t17.5 -39.5t9 -53t4.5 -64t0.5 -78.5v-758h-150v770q0 117 -4 174q-73 12 -281 12q-115 0 -313 -14l-10 121q194 14 315 14zM256 565q39 8 100 4l-2 -102l-88 -2q-13 56 -10 100z" />
    <glyph glyph-name="uniFB49" unicode="&#x5e9;&#x5bc;" horiz-adv-x="1304" 
d="M1055 1069h153q0 -160 -10.5 -293t-29 -235.5t-48 -183.5t-63 -138.5t-80 -99.5t-92 -67t-104.5 -39.5t-114 -19.5t-124 -5q-208 0 -344 32q-17 70 -25 150l-100 899h151l62 -577h16q109 11 167.5 69t76.5 191l43 317h153q-11 -65 -32.5 -194t-32.5 -193
q-25 -146 -123 -217.5t-256 -93.5l27 -246q79 -14 209 -14q76 0 126.5 5.5t110 27t97.5 61t77 109.5t60.5 171t35 247.5t13.5 336.5zM694 336q-13 56 -10 100q39 8 100 4l-2 -102z" />
    <glyph glyph-name="uniFB4A" unicode="&#x5ea;&#x5bc;" horiz-adv-x="1243" 
d="M604 1077q87 0 147 -2t113 -9.5t85.5 -17t59 -29.5t39.5 -41.5t22 -59t11 -76t2 -97.5v-745h-149v723q0 137 -6 215q-108 18 -303 18q-49 0 -205 -4v-712q0 -53 -13 -94.5t-42.5 -76t-84.5 -53t-133 -18.5q-53 0 -100 14v113q78 -4 82 -4q83 0 112 33t29 112v680
q-31 -2 -95 -5t-95 -5l-14 121q283 20 538 20zM598 565q39 8 100 4l-2 -102l-88 -2q-13 56 -10 100z" />
    <glyph glyph-name="uniFB4B" unicode="&#x5d5;&#x5b9;" horiz-adv-x="536" 
d="M205 1231q-14 81 -12 129q67 10 129 4l-3 -131zM215 0v950h-156l-6 121q47 2 133 2q107 0 143 -28t36 -125v-920h-150z" />
    <glyph glyph-name="uniFC32" unicode="&#xfed3;&#xfef2;" horiz-adv-x="1708" arabic-form="isolated" 
d="M1315 1169l-123 -4q-15 74 -12 140q71 10 137 4zM1593 487q0 -138 -24 -284t-51 -174q-47 -29 -215 -29q2 -10 2 -45q0 -97 -37 -176q-92 -114 -251 -175t-360 -61q-301 0 -441 139t-140 390q0 195 65 372h111q-45 -170 -45 -333q0 -212 117.5 -315t363.5 -103
q162 0 290 42t200 124q14 32 14 63q0 55 -10 86q-169 0 -338 10l24 134q175 -7 428 -7q101 0 148 7q19 85 24 202q-90 1 -156 5t-130.5 14.5t-107.5 30t-76.5 49.5t-49.5 74t-16 102q0 66 21.5 130.5t60.5 118t100.5 86.5t134.5 33q67 0 128.5 -34.5t109.5 -97.5t77 -161.5
t29 -216.5zM1036 655q0 -96 103.5 -132t333.5 -38q-3 171 -73 267t-171 96q-94 0 -143.5 -60.5t-49.5 -132.5zM440 -655q75 10 144 4l-2 -146l-127 -4q-18 89 -15 146zM696 -655q75 10 144 4l-2 -146l-127 -4q-18 89 -15 146z" />
    <glyph glyph-name="uniFC36" unicode="&#xfed7;&#xfef2;" horiz-adv-x="1708" arabic-form="isolated" 
d="M1423 1180l-123 -4q-17 82 -14 139q73 10 139 4zM1178 1169l-123 -4q-18 86 -15 140q73 10 140 4zM1593 487q0 -138 -24 -284t-51 -174q-47 -29 -215 -29q2 -10 2 -45q0 -97 -37 -176q-92 -114 -251 -175t-360 -61q-301 0 -441 139t-140 390q0 195 65 372h111
q-45 -170 -45 -333q0 -212 117.5 -315t363.5 -103q162 0 290 42t200 124q14 32 14 63q0 55 -10 86q-169 0 -338 10l24 134q175 -7 428 -7q101 0 148 7q19 85 24 202q-90 1 -156 5t-130.5 14.5t-107.5 30t-76.5 49.5t-49.5 74t-16 102q0 66 21.5 130.5t60.5 118t100.5 86.5
t134.5 33q67 0 128.5 -34.5t109.5 -97.5t77 -161.5t29 -216.5zM1036 655q0 -96 103.5 -132t333.5 -38q-3 171 -73 267t-171 96q-94 0 -143.5 -60.5t-49.5 -132.5zM440 -655q75 10 144 4l-2 -146l-127 -4q-18 89 -15 146zM696 -655q75 10 144 4l-2 -146l-127 -4
q-18 89 -15 146z" />
    <glyph glyph-name="uniFEF5" unicode="&#xfedf;&#xfe82;" horiz-adv-x="1044" arabic-form="isolated" 
d="M915 1503v-395q0 -293 -159 -528q129 -237 129 -426q0 -106 -25 -134q-85 -55 -350 -55q-139 0 -235.5 12t-225.5 46l21 108l327 260q128 99 205 174q-181 286 -518 541v22l182 15q285 -242 426 -473q90 178 90 415v402zM274 1262q-21 0 -90 6t-106 6q-71 0 -174 -33v64
q84 59 192 59q31 0 99 -6t110 -6q88 0 178 22v-59q-66 -53 -209 -53zM774 121q-14 185 -110 352l-195 -158l-248 -184q104 -29 283 -29q149 0 270 19z" />
    <glyph glyph-name="uniFEF6" unicode="&#xfee0;&#xfe82;" horiz-adv-x="1220" arabic-form="final" 
d="M1219 145q47 0 47 -71q0 -74 -47 -74q-156 0 -238.5 65t-122.5 230q-98 -182 -296 -276.5t-478 -94.5l-16 125q233 0 393 57q-106 383 -297 986l135 16q145 -475 276 -950q178 97 242 270q8 49 8 119v940l133 16v-983q0 -100 10.5 -165t39 -115t80 -72.5t131.5 -22.5z
M334 1221q-21 0 -90.5 6t-106.5 6q-71 0 -174 -33v64q84 59 193 59q31 0 99 -6t110 -6q88 0 178 22v-59q-66 -53 -209 -53z" />
    <glyph glyph-name="uniFEF7" unicode="&#xfedf;&#xfe84;" horiz-adv-x="1044" arabic-form="isolated" 
d="M387 1364v-76l-422 -43v70l115 14q-74 57 -74 135q0 64 56 111t139 47q55 0 104 -20l-10 -84q-44 16 -102 16q-44 0 -79.5 -13t-39.5 -44q2 -38 45 -73t133 -54zM915 1503v-395q0 -293 -159 -528q129 -237 129 -426q0 -106 -25 -134q-85 -55 -350 -55q-139 0 -235.5 12
t-225.5 46l21 108l327 260q128 99 205 174q-181 286 -518 541v22l182 15q285 -242 426 -473q90 178 90 415v402zM774 121q-14 185 -110 352l-195 -158l-248 -184q104 -29 283 -29q149 0 270 19z" />
    <glyph glyph-name="uniFEF8" unicode="&#xfee0;&#xfe84;" horiz-adv-x="1220" arabic-form="final" 
d="M446 1323v-76l-421 -43v70l114 14q-73 56 -73 135q0 64 55.5 111t138.5 47q56 0 105 -20l-11 -84q-44 16 -102 16q-44 0 -79.5 -13t-39.5 -44q2 -38 45 -73t133 -54zM1219 145q47 0 47 -71q0 -74 -47 -74q-156 0 -238.5 65t-122.5 230q-98 -182 -296 -276.5t-478 -94.5
l-16 125q233 0 393 57q-106 383 -297 986l135 16q145 -475 276 -950q178 97 242 270q8 49 8 119v940l133 16v-983q0 -100 10.5 -165t39 -115t80 -72.5t131.5 -22.5z" />
    <glyph glyph-name="uniFEF9" unicode="&#xfedf;&#xfe88;" horiz-adv-x="1009" arabic-form="isolated" 
d="M915 1503v-395q0 -293 -159 -528q129 -237 129 -426q0 -106 -25 -134q-85 -55 -350 -55q-139 0 -235.5 12t-225.5 46l21 108l327 260q128 99 205 174q-220 321 -625 604l99 107q191 -139 355.5 -301t260.5 -305q90 178 90 415v402zM774 121q-14 185 -110 352l-195 -158
l-248 -184q104 -29 283 -29q149 0 270 19zM123 -311q3 -92 180 -129l137 14v-78l-430 -43v70l119 16q-76 56 -76 137q0 66 57 113t142 47q55 0 106 -20l-10 -86q-45 18 -104 18q-44 0 -80.5 -13.5t-40.5 -45.5z" />
    <glyph glyph-name="uniFEFA" unicode="&#xfee0;&#xfe88;" horiz-adv-x="1220" arabic-form="final" 
d="M1219 145q47 0 47 -71q0 -74 -47 -74q-156 0 -238.5 65t-122.5 230q-98 -182 -296 -276.5t-478 -94.5l-16 125q230 0 393 57q-96 397 -344 1125l137 16q232 -717 321 -1089q178 97 242 270q8 49 8 119v940l133 16v-983q0 -100 10.5 -165t39 -115t80 -72.5t131.5 -22.5z
M281 -311q3 -92 180 -129l137 14v-78l-430 -43v70l119 16q-76 56 -76 137q0 66 57 113t142 47q55 0 106 -20l-10 -86q-45 18 -105 18q-44 0 -80 -13.5t-40 -45.5z" />
    <glyph glyph-name="uniFEFB" unicode="&#xfedf;&#xfe8e;" horiz-adv-x="1009" arabic-form="isolated" 
d="M915 1503v-395q0 -293 -159 -528q129 -237 129 -426q0 -106 -25 -134q-85 -55 -350 -55q-139 0 -235.5 12t-225.5 46l21 108l327 260q128 99 205 174q-220 321 -625 604l99 107q191 -139 355.5 -301t260.5 -305q90 178 90 415v402zM774 121q-14 185 -110 352l-195 -158
l-248 -184q104 -29 283 -29q149 0 270 19z" />
    <glyph glyph-name="uniFEFC" unicode="&#xfee0;&#xfe8e;" horiz-adv-x="1220" arabic-form="final" 
d="M1219 145q47 0 47 -71q0 -74 -47 -74q-156 0 -238.5 65t-122.5 230q-98 -182 -296 -276.5t-478 -94.5l-16 125q230 0 393 57q-96 397 -344 1125l137 16q232 -717 321 -1089q178 97 242 270q8 49 8 119v940l133 16v-983q0 -100 10.5 -165t39 -115t80 -72.5t131.5 -22.5z
" />
    <glyph glyph-name="f_f.liga" unicode="ff" horiz-adv-x="1411" 
d="M1073 1286q-12 -40 -12 -112v-173h274l-10 -114h-264v-887h-146v893h-518v-893h-145v887h-191l7 100l184 12v156q0 293 313 293q65 0 168 -21l-28 -116q-105 14 -158 14q-93 0 -135 -39q-15 -50 -15 -112v-179h518v160q0 293 312 293q75 0 198 -21l-28 -116
q-124 14 -189 14q-90 0 -135 -39z" />
    <glyph glyph-name="f_i.liga" unicode="fi" horiz-adv-x="1218" 
d="M397 1174v-173h656v-1001h-146v889h-510v-889h-145v887h-191l7 102l184 10v156q0 293 313 293q65 0 168 -21l-28 -116q-105 14 -158 14q-93 0 -135 -39q-15 -50 -15 -112zM1042 1176h-153q-16 81 -19 174q77 13 185 6z" />
    <glyph glyph-name="f_t.liga" unicode="ft" horiz-adv-x="1345" 
d="M1270 887h-238v-764q50 -6 90 -6q73 0 146 12l-2 -117q-88 -24 -174 -24q-105 0 -155 37.5t-50 130.5v733h-490v-889h-145v887h-191l7 102l184 10v156q0 293 313 293q65 0 168 -21l-28 -116q-105 14 -158 14q-93 0 -135 -39q-15 -50 -15 -112v-175h498l20 258l117 15
v-271h250z" />
    <glyph glyph-name="f_f_i.liga" unicode="ffi" horiz-adv-x="1878" 
d="M1059 1174v-173h655v-1001h-145v893h-510v-893h-146v893h-516v-893h-145v887h-191l7 100l184 12v156q0 293 313 293q65 0 168 -21l-28 -116q-105 14 -158 14q-93 0 -135 -39q-15 -50 -15 -112v-179h516v160q0 293 312 293q65 0 168 -21l-27 -116q-110 14 -160 14
q-90 0 -135 -39q-12 -40 -12 -112zM1702 1176h-154q-15 75 -18 174q77 13 184 6z" />
    <glyph glyph-name="f_f_t.liga" unicode="fft" horiz-adv-x="2007" 
d="M1931 887h-235v-764q47 -6 88 -6q72 0 145 12l-2 -117q-89 -24 -172 -24q-106 0 -155.5 37.5t-49.5 130.5v737h-489v-893h-146v893h-518v-893h-145v887h-191l7 100l184 12v156q0 293 313 293q65 0 168 -21l-28 -116q-105 14 -158 14q-93 0 -135 -39q-15 -50 -15 -112
v-179h518v160q0 293 312 293q65 0 168 -21l-27 -116q-105 14 -160 14q-90 0 -135 -39q-12 -40 -12 -112v-179h495l21 262l119 15v-271h248z" />
    <glyph glyph-name="uni06440671" unicode="&#xfedf;&#xfb51;" horiz-adv-x="1044" 
d="M246 1247q-150 0 -195 -2q-84 -4 -133 -16v57q55 33 109 39q74 100 146.5 150.5t160.5 50.5q75 0 115 -42t40 -126q0 -70 -18 -88q-51 -23 -225 -23zM915 1503v-395q0 -293 -159 -528q129 -237 129 -426q0 -106 -25 -134q-85 -55 -350 -55q-139 0 -235.5 12t-225.5 46
l21 108l327 260q128 99 205 174q-181 286 -518 541v22l182 15q285 -242 426 -473q90 178 90 415v402zM319 1432q-56 0 -105 -23t-101 -82q110 4 147 4q132 0 148 8q0 51 -22 72t-67 21zM774 121q-14 185 -110 352l-195 -158l-248 -184q104 -29 283 -29q149 0 270 19z" />
    <glyph glyph-name="uni06440671.fina" unicode="&#xfee0;&#xfb51;" horiz-adv-x="1220" 
d="M1219 145q47 0 47 -71q0 -74 -47 -74q-156 0 -238.5 65t-122.5 230q-98 -182 -296 -276.5t-478 -94.5l-16 125q233 0 393 57q-106 383 -297 986l135 16q145 -475 276 -950q178 97 242 270q8 49 8 119v940l133 16v-983q0 -100 10.5 -165t39 -115t80 -72.5t131.5 -22.5z
M305 1206q-149 0 -194 -2q-86 -4 -134 -16v57q55 33 109 39q74 100 146.5 150.5t160.5 50.5q75 0 115.5 -42.5t40.5 -125.5q0 -24 -5.5 -52t-13.5 -36q-51 -23 -225 -23zM379 1391q-115 0 -207 -105q110 4 147 4q132 0 148 8q0 51 -21.5 72t-66.5 21z" />
    <glyph glyph-name="uni06A4064A" unicode="&#xfb6c;&#xfef2;" horiz-adv-x="1708" 
d="M1315 1425l-123 -4q-15 74 -12 140q71 10 137 4zM1303 1182q-17 89 -15 145q75 10 144 4l-2 -145zM1174 1176l-127 -5q-18 89 -15 146q75 10 144 4zM1593 487q0 -138 -24 -284t-51 -174q-47 -29 -215 -29q2 -10 2 -45q0 -97 -37 -176q-92 -114 -251 -175t-360 -61
q-301 0 -441 139t-140 390q0 195 65 372h111q-45 -170 -45 -333q0 -212 117.5 -315t363.5 -103q162 0 290 42t200 124q14 32 14 63q0 55 -10 86q-169 0 -338 10l24 134q175 -7 428 -7q101 0 148 7q19 85 24 202q-90 1 -156 5t-130.5 14.5t-107.5 30t-76.5 49.5t-49.5 74
t-16 102q0 66 21.5 130.5t60.5 118t100.5 86.5t134.5 33q67 0 128.5 -34.5t109.5 -97.5t77 -161.5t29 -216.5zM1036 655q0 -96 103.5 -132t333.5 -38q-3 171 -73 267t-171 96q-94 0 -143.5 -60.5t-49.5 -132.5zM440 -655q75 10 144 4l-2 -146l-127 -4q-18 89 -15 146z
M696 -655q75 10 144 4l-2 -146l-127 -4q-18 89 -15 146z" />
    <glyph glyph-name="uni05DA05B0" unicode="&#x5da;&#x5b0;" horiz-adv-x="903" 
d="M354 1079q72 0 121 -2.5t92 -13t69 -23t47.5 -41t32 -58t17.5 -82.5t8.5 -106t1.5 -137v-1022h-149v1000q0 227 -12 350q-82 14 -224 14q-146 0 -303 -14l-10 123q136 12 309 12zM336 223l-94 -2q-13 60 -13 109q63 8 109 2zM238 125q62 8 108 2l-2 -109l-94 -2
q-12 55 -12 109z" />
    <glyph glyph-name="uni05DA05B8" unicode="&#x5da;&#x5b8;" horiz-adv-x="903" 
d="M354 1079q72 0 121 -2.5t92 -13t69 -23t47.5 -41t32 -58t17.5 -82.5t8.5 -106t1.5 -137v-1022h-149v1000q0 227 -12 350q-82 14 -224 14q-146 0 -303 -14l-10 123q136 12 309 12zM111 330q200 6 387 0v-84q-94 -4 -152 -4q9 -91 12 -185h-112q8 128 14 185q-55 0 -149 4
v84z" />
    <glyph glyph-name="uni05DC05B9" unicode="&#x5dc;&#x5b9;" horiz-adv-x="884" 
d="M778 1069l19 -115l-408 -954h-158l422 946v4h-606l-20 121l-17 299l133 16l23 -317h612zM-166 1233q-14 81 -12 129q67 10 129 4l-2 -131z" />
    <glyph glyph-name="uni05DC05BC05B9" unicode="&#x5dc;&#x5b9;&#x5bc;" horiz-adv-x="884" 
d="M778 1069l19 -115l-408 -954h-158l422 946v4h-606l-20 121l-17 299l133 16l23 -317h612zM-166 1233q-14 81 -12 129q67 10 129 4l-2 -131zM201 592q-14 60 -11 100q39 8 101 4l-2 -102z" />
    <glyph glyph-name="dottedCircle_reverseddammaar" unicode="&#x25cc;&#x65d;" horiz-adv-x="1228" 
d="M825 1464v-80q-49 -6 -90 -6q-138 0 -215.5 69t-77.5 161q0 77 42 127.5t116 50.5q58 0 89.5 -32.5t31.5 -88.5q0 -105 -119 -172q67 -31 168 -31q37 0 55 2zM586 1708q-34 0 -54 -22.5t-20 -61.5q0 -50 33 -88q57 31 79.5 57t22.5 56q0 28 -16.5 43.5t-44.5 15.5z
M580 1126q40 6 82 0l-9 -75h-67zM502 1038l-62 -24l-30 67q6 2 22 9.5t28 11.5t25 6zM739 1036l19 72q29 -4 76 -27l-31 -67zM365 971l-50 -43l-55 51q5 4 14.5 13.5t16 15t15.5 12.5t18 12zM874 971l44 61q20 -12 61 -53l-53 -51zM256 860l-29 -53l-67 27q17 42 41 69z
M1083 834l-67 -27l-35 53l61 43q23 -29 41 -69zM193 723l-7 -66l-73 7q4 51 12 79zM1059 657l-15 66l72 20q14 -44 14 -79zM184 573l11 -65l-70 -21q-12 50 -12 82zM1047 508l10 65l73 -4q-4 -56 -14 -82zM160 395l67 29l31 -55l-57 -43q-29 36 -41 69zM985 369l31 55
l67 -29q-24 -50 -41 -69zM260 252l55 49l52 -43l-43 -57q-23 10 -64 51zM877 258l49 43l53 -49q-3 -3 -13.5 -14t-15.5 -16t-14 -11t-18 -10zM410 150l30 65l64 -22l-19 -70q-35 8 -75 27zM741 190l62 25l31 -65q-58 -23 -76 -27zM586 180h67l9 -74q-42 -9 -82 0z" />
    <glyph glyph-name="uni25CC0670" unicode="&#x25cc;&#x670;" horiz-adv-x="1228" 
d="M582 1354v305l82 10l-5 -309zM586 1051l-6 75q40 6 82 0l-9 -75h-67zM440 1014l-30 67q6 2 22 9.5t28 11.5t25 6l17 -70zM803 1014l-64 22l19 72q29 -4 76 -27zM315 928l-55 51q5 4 14.5 13.5t16 15t15.5 12.5t18 12l41 -61zM926 928l-52 43l44 61q20 -12 61 -53z
M227 807l-67 27q17 42 41 69l55 -43zM1016 807l-35 53l61 43q23 -29 41 -69zM186 657l-73 7q4 51 12 79l68 -20zM1059 657l-15 66l72 20q14 -44 14 -79zM125 487q-12 50 -12 82l71 4l11 -65zM1116 487l-69 21l10 65l73 -4q-4 -56 -14 -82zM201 326q-29 36 -41 69l67 29
l31 -55zM1042 326l-57 43l31 55l67 -29q-24 -50 -41 -69zM324 201q-23 10 -64 51l55 49l52 -43zM918 201l-41 57l49 43l53 -49q-3 -3 -13.5 -14t-15.5 -16t-14 -11t-18 -10zM485 123q-35 8 -75 27l30 65l64 -22zM758 123l-17 67l62 25l31 -65q-58 -23 -76 -27zM580 106l6 74
h67l9 -74q-42 -9 -82 0z" />
    <glyph glyph-name="uni25CC0656" unicode="&#x25cc;&#x656;" horiz-adv-x="1228" 
d="M586 1051l-6 75q40 6 82 0l-9 -75h-67zM440 1014l-30 67q6 2 22 9.5t28 11.5t25 6l17 -70zM803 1014l-64 22l19 72q29 -4 76 -27zM315 928l-55 51q5 4 14.5 13.5t16 15t15.5 12.5t18 12l41 -61zM926 928l-52 43l44 61q20 -12 61 -53zM227 807l-67 27q17 42 41 69l55 -43z
M1016 807l-35 53l61 43q23 -29 41 -69zM186 657l-73 7q4 51 12 79l68 -20zM1059 657l-15 66l72 20q14 -44 14 -79zM125 487q-12 50 -12 82l71 4l11 -65zM1116 487l-69 21l10 65l73 -4q-4 -56 -14 -82zM201 326q-29 36 -41 69l67 29l31 -55zM1042 326l-57 43l31 55l67 -29
q-24 -50 -41 -69zM324 201q-23 10 -64 51l55 49l52 -43zM918 201l-41 57l49 43l53 -49q-3 -3 -13.5 -14t-15.5 -16t-14 -11t-18 -10zM485 123q-35 8 -75 27l30 65l64 -22zM758 123l-17 67l62 25l31 -65q-58 -23 -76 -27zM580 106l6 74h67l9 -74q-42 -9 -82 0zM582 -422v305
l82 11l-5 -310z" />
    <glyph glyph-name="uni25CC0654" unicode="&#x25cc;&#x654;" horiz-adv-x="1228" 
d="M518 1581q2 -38 46.5 -73.5t137.5 -55.5l136 14v-77l-430 -43v69l118 17q-75 55 -75 137q0 66 56.5 113t141.5 47q53 0 107 -21l-11 -86q-45 18 -104 18q-27 0 -52 -4.5t-46.5 -18.5t-24.5 -36zM580 1126q40 6 82 0l-9 -75h-67zM502 1038l-62 -24l-30 67q6 2 22 9.5
t28 11.5t25 6zM739 1036l19 72q29 -4 76 -27l-31 -67zM365 971l-50 -43l-55 51q5 4 14.5 13.5t16 15t15.5 12.5t18 12zM874 971l44 61q20 -12 61 -53l-53 -51zM256 860l-29 -53l-67 27q17 42 41 69zM1083 834l-67 -27l-35 53l61 43q23 -29 41 -69zM193 723l-7 -66l-73 7
q4 51 12 79zM1059 657l-15 66l72 20q14 -44 14 -79zM184 573l11 -65l-70 -21q-12 50 -12 82zM1047 508l10 65l73 -4q-4 -56 -14 -82zM160 395l67 29l31 -55l-57 -43q-29 36 -41 69zM985 369l31 55l67 -29q-24 -50 -41 -69zM260 252l55 49l52 -43l-43 -57q-23 10 -64 51z
M877 258l49 43l53 -49q-3 -3 -13.5 -14t-15.5 -16t-14 -11t-18 -10zM410 150l30 65l64 -22l-19 -70q-35 8 -75 27zM741 190l62 25l31 -65q-58 -23 -76 -27zM586 180h67l9 -74q-42 -9 -82 0z" />
    <glyph glyph-name="uni25CC0655" unicode="&#x25cc;&#x655;" horiz-adv-x="1228" 
d="M653 1051h-67l-6 75q40 6 82 0zM502 1038l-62 -24l-30 67q6 2 22 9.5t28 11.5t25 6zM834 1081l-31 -67l-64 22l19 72q29 -4 76 -27zM365 971l-50 -43l-55 51q5 4 14.5 13.5t16 15t15.5 12.5t18 12zM874 971l44 61q20 -12 61 -53l-53 -51zM256 860l-29 -53l-67 27
q17 42 41 69zM1083 834l-67 -27l-35 53l61 43q23 -29 41 -69zM193 723l-7 -66l-73 7q4 51 12 79zM1059 657l-15 66l72 20q14 -44 14 -79zM184 573l11 -65l-70 -21q-12 50 -12 82zM1047 508l10 65l73 -4q-4 -56 -14 -82zM160 395l67 29l31 -55l-57 -43q-29 36 -41 69z
M985 369l31 55l67 -29q-24 -50 -41 -69zM260 252l55 49l52 -43l-43 -57q-23 10 -64 51zM877 258l49 43l53 -49q-3 -3 -13.5 -14t-15.5 -16t-14 -11t-18 -10zM504 193l-19 -70q-35 8 -75 27l30 65zM741 190l62 25l31 -65q-58 -23 -76 -27zM662 106q-42 -9 -82 0l6 74h67z
M520 -311q3 -92 180 -129l138 14v-78l-430 -43v70l118 16q-75 55 -75 137q0 66 56.5 113t141.5 47q56 0 107 -20l-11 -86q-45 18 -104 18q-44 0 -80.5 -13.5t-40.5 -45.5z" />
    <glyph glyph-name="uni25CC064B" unicode="&#x25cc;&#x64b;" horiz-adv-x="1228" 
d="M403 1483v78l431 43v-78zM408 1311v78l430 43v-78zM586 1051l-6 75q40 6 82 0l-9 -75h-67zM440 1014l-30 67q6 2 22 9.5t28 11.5t25 6l17 -70zM803 1014l-64 22l19 72q29 -4 76 -27zM315 928l-55 51q5 4 14.5 13.5t16 15t15.5 12.5t18 12l41 -61zM926 928l-52 43l44 61
q20 -12 61 -53zM227 807l-67 27q17 42 41 69l55 -43zM1016 807l-35 53l61 43q23 -29 41 -69zM186 657l-73 7q4 51 12 79l68 -20zM1059 657l-15 66l72 20q14 -44 14 -79zM125 487q-12 50 -12 82l71 4l11 -65zM1116 487l-69 21l10 65l73 -4q-4 -56 -14 -82zM201 326
q-29 36 -41 69l67 29l31 -55zM1042 326l-57 43l31 55l67 -29q-24 -50 -41 -69zM324 201q-23 10 -64 51l55 49l52 -43zM918 201l-41 57l49 43l53 -49q-3 -3 -13.5 -14t-15.5 -16t-14 -11t-18 -10zM485 123q-35 8 -75 27l30 65l64 -22zM758 123l-17 67l62 25l31 -65
q-58 -23 -76 -27zM580 106l6 74h67l9 -74q-42 -9 -82 0z" />
    <glyph glyph-name="uni25CC064C" unicode="&#x25cc;&#x64c;" horiz-adv-x="1228" 
d="M457 1579q0 42 -8 56t-33 14q-16 0 -37 -7l6 68q35 14 64 14q37 0 53 -23.5t16 -84.5q0 -50 6 -80t21.5 -45.5t35 -20t54.5 -4.5q47 0 90 15q-111 48 -111 145q0 61 40 108.5t110 47.5q54 0 88.5 -36t34.5 -106q0 -100 -74.5 -177t-194.5 -77q-81 0 -121 44t-40 149z
M680 1638q0 -85 111 -112q32 40 32 100q0 41 -21 60.5t-52 19.5q-37 0 -53.5 -20.5t-16.5 -47.5zM580 1126q40 6 82 0l-9 -75h-67zM410 1081q6 2 22 9.5t28 11.5t25 6l17 -70l-62 -24zM739 1036l19 72q29 -4 76 -27l-31 -67zM365 971l-50 -43l-55 51q5 4 14.5 13.5t16 15
t15.5 12.5t18 12zM874 971l44 61q20 -12 61 -53l-53 -51zM256 860l-29 -53l-67 27q17 42 41 69zM1083 834l-67 -27l-35 53l61 43q23 -29 41 -69zM193 723l-7 -66l-73 7q4 51 12 79zM1059 657l-15 66l72 20q14 -44 14 -79zM184 573l11 -65l-70 -21q-12 50 -12 82zM1047 508
l10 65l73 -4q-4 -56 -14 -82zM160 395l67 29l31 -55l-57 -43q-29 36 -41 69zM985 369l31 55l67 -29q-24 -50 -41 -69zM260 252l55 49l52 -43l-43 -57q-23 10 -64 51zM877 258l49 43l53 -49q-3 -3 -13.5 -14t-15.5 -16t-14 -11t-18 -10zM410 150l30 65l64 -22l-19 -70
q-35 8 -75 27zM741 190l62 25l31 -65q-58 -23 -76 -27zM586 180h67l9 -74q-42 -9 -82 0z" />
    <glyph glyph-name="uni25CC064D" unicode="&#x25cc;&#x64d;" horiz-adv-x="1228" 
d="M586 1051l-6 75q40 6 82 0l-9 -75h-67zM440 1014l-30 67q6 2 22 9.5t28 11.5t25 6l17 -70zM803 1014l-64 22l19 72q29 -4 76 -27zM315 928l-55 51q5 4 14.5 13.5t16 15t15.5 12.5t18 12l41 -61zM926 928l-52 43l44 61q20 -12 61 -53zM227 807l-67 27q17 42 41 69l55 -43z
M1016 807l-35 53l61 43q23 -29 41 -69zM186 657l-73 7q4 51 12 79l68 -20zM1059 657l-15 66l72 20q14 -44 14 -79zM125 487q-12 50 -12 82l71 4l11 -65zM1116 487l-69 21l10 65l73 -4q-4 -56 -14 -82zM201 326q-29 36 -41 69l67 29l31 -55zM1042 326l-57 43l31 55l67 -29
q-24 -50 -41 -69zM324 201q-23 10 -64 51l55 49l52 -43zM918 201l-41 57l49 43l53 -49q-3 -3 -13.5 -14t-15.5 -16t-14 -11t-18 -10zM485 123q-35 8 -75 27l30 65l64 -22zM758 123l-17 67l62 25l31 -65q-58 -23 -76 -27zM580 106l6 74h67l9 -74q-42 -9 -82 0zM408 -195v78
l430 43v-78zM408 -367v78l430 43v-78z" />
    <glyph glyph-name="uni25CC064E" unicode="&#x25cc;&#x64e;" horiz-adv-x="1228" 
d="M408 1311v78l430 43v-78zM586 1051l-6 75q40 6 82 0l-9 -75h-67zM440 1014l-30 67q6 2 22 9.5t28 11.5t25 6l17 -70zM803 1014l-64 22l19 72q29 -4 76 -27zM315 928l-55 51q5 4 14.5 13.5t16 15t15.5 12.5t18 12l41 -61zM926 928l-52 43l44 61q20 -12 61 -53zM227 807
l-67 27q17 42 41 69l55 -43zM1016 807l-35 53l61 43q23 -29 41 -69zM186 657l-73 7q4 51 12 79l68 -20zM1059 657l-15 66l72 20q14 -44 14 -79zM125 487q-12 50 -12 82l71 4l11 -65zM1116 487l-69 21l10 65l73 -4q-4 -56 -14 -82zM201 326q-29 36 -41 69l67 29l31 -55z
M1042 326l-57 43l31 55l67 -29q-24 -50 -41 -69zM324 201q-23 10 -64 51l55 49l52 -43zM918 201l-41 57l49 43l53 -49q-3 -3 -13.5 -14t-15.5 -16t-14 -11t-18 -10zM485 123q-35 8 -75 27l30 65l64 -22zM758 123l-17 67l62 25l31 -65q-58 -23 -76 -27zM580 106l6 74h67
l9 -74q-42 -9 -82 0z" />
    <glyph glyph-name="uni25CC064F" unicode="&#x25cc;&#x64f;" horiz-adv-x="1228" 
d="M827 1634q0 -109 -91 -181.5t-255 -72.5q-56 0 -86 9v79q41 -4 105 -4q61 0 127 15q-88 49 -88 139q0 67 45 115.5t112 48.5q56 0 93.5 -39.5t37.5 -108.5zM608 1632q0 -79 101 -114q49 38 49 94q0 42 -21 66t-57 24q-34 0 -53 -20.5t-19 -49.5zM580 1126q40 6 82 0
l-9 -75h-67zM440 1014l-30 67q6 2 22 9.5t28 11.5t25 6l17 -70zM739 1036l19 72q29 -4 76 -27l-31 -67zM365 971l-50 -43l-55 51q5 4 14.5 13.5t16 15t15.5 12.5t18 12zM874 971l44 61q20 -12 61 -53l-53 -51zM256 860l-29 -53l-67 27q17 42 41 69zM1083 834l-67 -27l-35 53
l61 43q23 -29 41 -69zM193 723l-7 -66l-73 7q4 51 12 79zM1059 657l-15 66l72 20q14 -44 14 -79zM184 573l11 -65l-70 -21q-12 50 -12 82zM1047 508l10 65l73 -4q-4 -56 -14 -82zM160 395l67 29l31 -55l-57 -43q-29 36 -41 69zM985 369l31 55l67 -29q-24 -50 -41 -69z
M260 252l55 49l52 -43l-43 -57q-23 10 -64 51zM877 258l49 43l53 -49q-3 -3 -13.5 -14t-15.5 -16t-14 -11t-18 -10zM410 150l30 65l64 -22l-19 -70q-35 8 -75 27zM741 190l62 25l31 -65q-58 -23 -76 -27zM586 180h67l9 -74q-42 -9 -82 0z" />
    <glyph glyph-name="uni25CC0650" unicode="&#x25cc;&#x650;" horiz-adv-x="1228" 
d="M586 1051l-6 75q40 6 82 0l-9 -75h-67zM440 1014l-30 67q6 2 22 9.5t28 11.5t25 6l17 -70zM803 1014l-64 22l19 72q29 -4 76 -27zM315 928l-55 51q5 4 14.5 13.5t16 15t15.5 12.5t18 12l41 -61zM926 928l-52 43l44 61q20 -12 61 -53zM227 807l-67 27q17 42 41 69l55 -43z
M1016 807l-35 53l61 43q23 -29 41 -69zM186 657l-73 7q4 51 12 79l68 -20zM1059 657l-15 66l72 20q14 -44 14 -79zM125 487q-12 50 -12 82l71 4l11 -65zM1116 487l-69 21l10 65l73 -4q-4 -56 -14 -82zM201 326q-29 36 -41 69l67 29l31 -55zM1042 326l-57 43l31 55l67 -29
q-24 -50 -41 -69zM324 201q-23 10 -64 51l55 49l52 -43zM918 201l-41 57l49 43l53 -49q-3 -3 -13.5 -14t-15.5 -16t-14 -11t-18 -10zM485 123q-35 8 -75 27l30 65l64 -22zM758 123l-17 67l62 25l31 -65q-58 -23 -76 -27zM580 106l6 74h67l9 -74q-42 -9 -82 0zM408 -195v78
l430 43v-78z" />
    <glyph glyph-name="uni25CC0651" unicode="&#x25cc;&#x651;" horiz-adv-x="1228" 
d="M500 1362q-125 0 -125 137q0 50 16 96l66 9q-11 -28 -11 -70q0 -46 16.5 -65t59.5 -19q51 0 72 31q-6 58 0 135l70 10v-61q0 -57 15 -76t54 -19q45 0 72 17q11 70 -2 153l76 11q6 -24 6 -68q0 -105 -37.5 -152t-126.5 -47q-61 0 -96 35q-34 -57 -125 -57zM586 1051l-6 75
q40 6 82 0l-9 -75h-67zM440 1014l-30 67q6 2 22 9.5t28 11.5t25 6l17 -70zM803 1014l-64 22l19 72q29 -4 76 -27zM315 928l-55 51q5 4 14.5 13.5t16 15t15.5 12.5t18 12l41 -61zM926 928l-52 43l44 61q20 -12 61 -53zM227 807l-67 27q17 42 41 69l55 -43zM1016 807l-35 53
l61 43q23 -29 41 -69zM186 657l-73 7q4 51 12 79l68 -20zM1059 657l-15 66l72 20q14 -44 14 -79zM125 487q-12 50 -12 82l71 4l11 -65zM1116 487l-69 21l10 65l73 -4q-4 -56 -14 -82zM201 326q-29 36 -41 69l67 29l31 -55zM1042 326l-57 43l31 55l67 -29q-24 -50 -41 -69z
M324 201q-23 10 -64 51l55 49l52 -43zM918 201l-41 57l49 43l53 -49q-3 -3 -13.5 -14t-15.5 -16t-14 -11t-18 -10zM485 123q-35 8 -75 27l30 65l64 -22zM758 123l-17 67l62 25l31 -65q-58 -23 -76 -27zM580 106l6 74h67l9 -74q-42 -9 -82 0z" />
    <glyph glyph-name="uni25CC0652" unicode="&#x25cc;&#x652;" horiz-adv-x="1228" 
d="M610 1360q-70 0 -110.5 42.5t-40.5 110.5q0 73 52 125t130 52q64 0 107 -41t43 -111q0 -75 -49 -126.5t-132 -51.5zM616 1442q40 0 63 22t23 62q0 38 -21 60t-54 22q-39 0 -61.5 -23.5t-22.5 -64.5q0 -35 21 -56.5t52 -21.5zM586 1051l-6 75q40 6 82 0l-9 -75h-67z
M440 1014l-30 67q6 2 22 9.5t28 11.5t25 6l17 -70zM803 1014l-64 22l19 72q29 -4 76 -27zM315 928l-55 51q5 4 14.5 13.5t16 15t15.5 12.5t18 12l41 -61zM926 928l-52 43l44 61q20 -12 61 -53zM227 807l-67 27q17 42 41 69l55 -43zM1016 807l-35 53l61 43q23 -29 41 -69z
M186 657l-73 7q4 51 12 79l68 -20zM1059 657l-15 66l72 20q14 -44 14 -79zM125 487q-12 50 -12 82l71 4l11 -65zM1116 487l-69 21l10 65l73 -4q-4 -56 -14 -82zM201 326q-29 36 -41 69l67 29l31 -55zM1042 326l-57 43l31 55l67 -29q-24 -50 -41 -69zM324 201q-23 10 -64 51
l55 49l52 -43zM918 201l-41 57l49 43l53 -49q-3 -3 -13.5 -14t-15.5 -16t-14 -11t-18 -10zM485 123q-35 8 -75 27l30 65l64 -22zM758 123l-17 67l62 25l31 -65q-58 -23 -76 -27zM580 106l6 74h67l9 -74q-42 -9 -82 0z" />
    <glyph glyph-name="uni25CC0653" unicode="&#x25cc;&#x653;" horiz-adv-x="1228" 
d="M350 1339v64q84 59 193 59q31 0 99 -6t110 -6q83 0 178 23v-60q-66 -53 -209 -53q-21 0 -90.5 6t-106.5 6q-71 0 -174 -33zM586 1051l-6 75q40 6 82 0l-9 -75h-67zM440 1014l-30 67q6 2 22 9.5t28 11.5t25 6l17 -70zM803 1014l-64 22l19 72q29 -4 76 -27zM315 928l-55 51
q5 4 14.5 13.5t16 15t15.5 12.5t18 12l41 -61zM926 928l-52 43l44 61q20 -12 61 -53zM227 807l-67 27q17 42 41 69l55 -43zM1016 807l-35 53l61 43q23 -29 41 -69zM186 657l-73 7q4 51 12 79l68 -20zM1059 657l-15 66l72 20q14 -44 14 -79zM125 487q-12 50 -12 82l71 4
l11 -65zM1116 487l-69 21l10 65l73 -4q-4 -56 -14 -82zM201 326q-29 36 -41 69l67 29l31 -55zM1042 326l-57 43l31 55l67 -29q-24 -50 -41 -69zM324 201q-23 10 -64 51l55 49l52 -43zM918 201l-41 57l49 43l53 -49q-3 -3 -13.5 -14t-15.5 -16t-14 -11t-18 -10zM485 123
q-35 8 -75 27l30 65l64 -22zM758 123l-17 67l62 25l31 -65q-58 -23 -76 -27zM580 106l6 74h67l9 -74q-42 -9 -82 0z" />
    <glyph glyph-name="dottedCircle_shevahb" unicode="&#x5b0;&#x25cc;" horiz-adv-x="1228" 
d="M586 1051l-6 75q40 6 82 0l-9 -75h-67zM440 1014l-30 67q6 2 22 9.5t28 11.5t25 6l17 -70zM803 1014l-64 22l19 72q29 -4 76 -27zM315 928l-55 51q5 4 14.5 13.5t16 15t15.5 12.5t18 12l41 -61zM926 928l-52 43l44 61q20 -12 61 -53zM227 807l-67 27q17 42 41 69l55 -43z
M1016 807l-35 53l61 43q23 -29 41 -69zM186 657l-73 7q4 51 12 79l68 -20zM1059 657l-15 66l72 20q14 -44 14 -79zM125 487q-12 50 -12 82l71 4l11 -65zM1116 487l-69 21l10 65l73 -4q-4 -56 -14 -82zM201 326q-29 36 -41 69l67 29l31 -55zM1042 326l-57 43l31 55l67 -29
q-24 -50 -41 -69zM324 201q-23 10 -64 51l55 49l52 -43zM918 201l-41 57l49 43l53 -49q-3 -3 -13.5 -14t-15.5 -16t-14 -11t-18 -10zM485 123q-35 8 -75 27l30 65l64 -22zM758 123l-17 67l62 25l31 -65q-58 -23 -76 -27zM580 106l6 74h67l9 -74q-42 -9 -82 0zM559 -293
q-12 59 -12 111q62 8 108 2l-2 -109zM567 -498q-12 58 -12 111q63 8 109 2l-2 -109z" />
    <glyph glyph-name="dottedCircle_hatafsegolhb" unicode="&#x5b1;&#x25cc;" horiz-adv-x="1228" 
d="M586 1051l-6 75q40 6 82 0l-9 -75h-67zM440 1014l-30 67q6 2 22 9.5t28 11.5t25 6l17 -70zM803 1014l-64 22l19 72q29 -4 76 -27zM315 928l-55 51q5 4 14.5 13.5t16 15t15.5 12.5t18 12l41 -61zM926 928l-52 43l44 61q20 -12 61 -53zM227 807l-67 27q17 42 41 69l55 -43z
M1016 807l-35 53l61 43q23 -29 41 -69zM186 657l-73 7q4 51 12 79l68 -20zM1059 657l-15 66l72 20q14 -44 14 -79zM125 487q-12 50 -12 82l71 4l11 -65zM1116 487l-69 21l10 65l73 -4q-4 -56 -14 -82zM201 326q-29 36 -41 69l67 29l31 -55zM1042 326l-57 43l31 55l67 -29
q-24 -50 -41 -69zM324 201q-23 10 -64 51l55 49l52 -43zM918 201l-41 57l49 43l53 -49q-3 -3 -13.5 -14t-15.5 -16t-14 -11t-18 -10zM485 123q-35 8 -75 27l30 65l64 -22zM758 123l-17 67l62 25l31 -65q-58 -23 -76 -27zM580 106l6 74h67l9 -74q-42 -9 -82 0zM365 -293
q-13 63 -13 111q63 8 109 2l-2 -109zM553 -293q-12 59 -12 111q62 8 108 2l-2 -109zM743 -293q-12 59 -12 111q63 8 109 2l-2 -109zM752 -498q-13 63 -13 111q63 8 109 2l-2 -109zM467 -500q-12 58 -12 111q62 8 108 2l-2 -109z" />
    <glyph glyph-name="dottedCircle_hatafpatahhb" unicode="&#x5b2;&#x25cc;" horiz-adv-x="1228" 
d="M586 1051l-6 75q40 6 82 0l-9 -75h-67zM440 1014l-30 67q6 2 22 9.5t28 11.5t25 6l17 -70zM803 1014l-64 22l19 72q29 -4 76 -27zM315 928l-55 51q5 4 14.5 13.5t16 15t15.5 12.5t18 12l41 -61zM926 928l-52 43l44 61q20 -12 61 -53zM227 807l-67 27q17 42 41 69l55 -43z
M1016 807l-35 53l61 43q23 -29 41 -69zM186 657l-73 7q4 51 12 79l68 -20zM1059 657l-15 66l72 20q14 -44 14 -79zM125 487q-12 50 -12 82l71 4l11 -65zM1116 487l-69 21l10 65l73 -4q-4 -56 -14 -82zM201 326q-29 36 -41 69l67 29l31 -55zM1042 326l-57 43l31 55l67 -29
q-24 -50 -41 -69zM324 201q-23 10 -64 51l55 49l52 -43zM918 201l-41 57l49 43l53 -49q-3 -3 -13.5 -14t-15.5 -16t-14 -11t-18 -10zM485 123q-35 8 -75 27l30 65l64 -22zM758 123l-17 67l62 25l31 -65q-58 -23 -76 -27zM580 106l6 74h67l9 -74q-42 -9 -82 0zM774 -293
q-12 59 -12 111q62 8 108 2l-2 -109zM387 -182q159 7 309 0l11 -76q-114 -16 -320 -12v88zM782 -498q-12 58 -12 111q63 8 109 2l-2 -109z" />
    <glyph glyph-name="dottedCircle_hatafqamatshb" unicode="&#x5b3;&#x25cc;" horiz-adv-x="1228" 
d="M653 1051h-67l-6 75q40 6 82 0zM502 1038l-62 -24l-30 67q6 2 22 9.5t28 11.5t25 6zM834 1081l-31 -67l-64 22l19 72q29 -4 76 -27zM365 971l-50 -43l-55 51q5 4 14.5 13.5t16 15t15.5 12.5t18 12zM874 971l44 61q20 -12 61 -53l-53 -51zM256 860l-29 -53l-67 27
q17 42 41 69zM1083 834l-67 -27l-35 53l61 43q23 -29 41 -69zM193 723l-7 -66l-73 7q4 51 12 79zM1059 657l-15 66l72 20q14 -44 14 -79zM184 573l11 -65l-70 -21q-12 50 -12 82zM1047 508l10 65l73 -4q-4 -56 -14 -82zM160 395l67 29l31 -55l-57 -43q-29 36 -41 69z
M985 369l31 55l67 -29q-24 -50 -41 -69zM260 252l55 49l52 -43l-43 -57q-23 10 -64 51zM877 258l49 43l53 -49q-3 -3 -13.5 -14t-15.5 -16t-14 -11t-18 -10zM504 193l-19 -70q-35 8 -75 27l30 65zM803 215l31 -65q-58 -23 -76 -27l-17 67zM662 106q-42 -9 -82 0l6 74h67z
M868 -289l-94 -4q-12 59 -12 111q62 8 108 2zM696 -182l11 -76q-38 -6 -117 -10q9 -91 12 -187h-113q6 98 15 185q-80 0 -117 2v86q159 7 309 0zM770 -387q63 8 109 2l-2 -109l-95 -4q-12 58 -12 111z" />
    <glyph glyph-name="dottedCircle_hiriqhb" unicode="&#x5b4;&#x25cc;" horiz-adv-x="1228" 
d="M586 1051l-6 75q40 6 82 0l-9 -75h-67zM440 1014l-30 67q6 2 22 9.5t28 11.5t25 6l17 -70zM803 1014l-64 22l19 72q29 -4 76 -27zM315 928l-55 51q5 4 14.5 13.5t16 15t15.5 12.5t18 12l41 -61zM926 928l-52 43l44 61q20 -12 61 -53zM227 807l-67 27q17 42 41 69l55 -43z
M1016 807l-35 53l61 43q23 -29 41 -69zM186 657l-73 7q4 51 12 79l68 -20zM1059 657l-15 66l72 20q14 -44 14 -79zM125 487q-12 50 -12 82l71 4l11 -65zM1116 487l-69 21l10 65l73 -4q-4 -56 -14 -82zM201 326q-29 36 -41 69l67 29l31 -55zM1042 326l-57 43l31 55l67 -29
q-24 -50 -41 -69zM324 201q-23 10 -64 51l55 49l52 -43zM918 201l-41 57l49 43l53 -49q-3 -3 -13.5 -14t-15.5 -16t-14 -11t-18 -10zM485 123q-35 8 -75 27l30 65l64 -22zM758 123l-17 67l62 25l31 -65q-58 -23 -76 -27zM580 106l6 74h67l9 -74q-42 -9 -82 0zM578 -293
q-13 63 -13 111q63 8 109 2l-2 -109z" />
    <glyph glyph-name="dottedCircle_tserehb" unicode="&#x5b5;&#x25cc;" horiz-adv-x="1228" 
d="M586 1051l-6 75q40 6 82 0l-9 -75h-67zM440 1014l-30 67q6 2 22 9.5t28 11.5t25 6l17 -70zM803 1014l-64 22l19 72q29 -4 76 -27zM315 928l-55 51q5 4 14.5 13.5t16 15t15.5 12.5t18 12l41 -61zM926 928l-52 43l44 61q20 -12 61 -53zM227 807l-67 27q17 42 41 69l55 -43z
M1016 807l-35 53l61 43q23 -29 41 -69zM186 657l-73 7q4 51 12 79l68 -20zM1059 657l-15 66l72 20q14 -44 14 -79zM125 487q-12 50 -12 82l71 4l11 -65zM1116 487l-69 21l10 65l73 -4q-4 -56 -14 -82zM201 326q-29 36 -41 69l67 29l31 -55zM1042 326l-57 43l31 55l67 -29
q-24 -50 -41 -69zM324 201q-23 10 -64 51l55 49l52 -43zM918 201l-41 57l49 43l53 -49q-3 -3 -13.5 -14t-15.5 -16t-14 -11t-18 -10zM485 123q-35 8 -75 27l30 65l64 -22zM758 123l-17 67l62 25l31 -65q-58 -23 -76 -27zM580 106l6 74h67l9 -74q-42 -9 -82 0zM471 -299
q-12 59 -12 111q62 8 108 2l-2 -109zM680 -299q-12 59 -12 111q62 8 108 2l-2 -109z" />
    <glyph glyph-name="dottedCircle_segolhb" unicode="&#x5b6;&#x25cc;" horiz-adv-x="1228" 
d="M586 1051l-6 75q40 6 82 0l-9 -75h-67zM440 1014l-30 67q6 2 22 9.5t28 11.5t25 6l17 -70zM803 1014l-64 22l19 72q29 -4 76 -27zM315 928l-55 51q5 4 14.5 13.5t16 15t15.5 12.5t18 12l41 -61zM926 928l-52 43l44 61q20 -12 61 -53zM227 807l-67 27q17 42 41 69l55 -43z
M1016 807l-35 53l61 43q23 -29 41 -69zM186 657l-73 7q4 51 12 79l68 -20zM1059 657l-15 66l72 20q14 -44 14 -79zM125 487q-12 50 -12 82l71 4l11 -65zM1116 487l-69 21l10 65l73 -4q-4 -56 -14 -82zM201 326q-29 36 -41 69l67 29l31 -55zM1042 326l-57 43l31 55l67 -29
q-24 -50 -41 -69zM324 201q-23 10 -64 51l55 49l52 -43zM918 201l-41 57l49 43l53 -49q-3 -3 -13.5 -14t-15.5 -16t-14 -11t-18 -10zM485 123q-35 8 -75 27l30 65l64 -22zM758 123l-17 67l62 25l31 -65q-58 -23 -76 -27zM580 106l6 74h67l9 -74q-42 -9 -82 0zM471 -299
q-12 59 -12 111q62 8 108 2l-2 -109zM680 -299q-12 59 -12 111q62 8 108 2l-2 -109zM578 -506q-13 63 -13 111q63 8 109 2l-2 -109z" />
    <glyph glyph-name="dottedCircle_patahhb" unicode="&#x5b7;&#x25cc;" horiz-adv-x="1228" 
d="M586 1051l-6 75q40 6 82 0l-9 -75h-67zM440 1014l-30 67q6 2 22 9.5t28 11.5t25 6l17 -70zM803 1014l-64 22l19 72q29 -4 76 -27zM315 928l-55 51q5 4 14.5 13.5t16 15t15.5 12.5t18 12l41 -61zM926 928l-52 43l44 61q20 -12 61 -53zM227 807l-67 27q17 42 41 69l55 -43z
M1016 807l-35 53l61 43q23 -29 41 -69zM186 657l-73 7q4 51 12 79l68 -20zM1059 657l-15 66l72 20q14 -44 14 -79zM125 487q-12 50 -12 82l71 4l11 -65zM1116 487l-69 21l10 65l73 -4q-4 -56 -14 -82zM201 326q-29 36 -41 69l67 29l31 -55zM1042 326l-57 43l31 55l67 -29
q-24 -50 -41 -69zM324 201q-23 10 -64 51l55 49l52 -43zM918 201l-41 57l49 43l53 -49q-3 -3 -13.5 -14t-15.5 -16t-14 -11t-18 -10zM485 123q-35 8 -75 27l30 65l64 -22zM758 123l-17 67l62 25l31 -65q-58 -23 -76 -27zM580 106l6 74h67l9 -74q-42 -9 -82 0zM428 -182
q200 6 387 0v-84q-194 -10 -387 0v84z" />
    <glyph glyph-name="dottedCircle_qamatshb" unicode="&#x5b8;&#x25cc;" horiz-adv-x="1228" 
d="M653 1051h-67l-6 75q40 6 82 0zM502 1038l-62 -24l-30 67q6 2 22 9.5t28 11.5t25 6zM739 1036l19 72q29 -4 76 -27l-31 -67zM365 971l-50 -43l-55 51q5 4 14.5 13.5t16 15t15.5 12.5t18 12zM874 971l44 61q20 -12 61 -53l-53 -51zM256 860l-29 -53l-67 27q17 42 41 69z
M1083 834l-67 -27l-35 53l61 43q23 -29 41 -69zM193 723l-7 -66l-73 7q4 51 12 79zM1059 657l-15 66l72 20q14 -44 14 -79zM184 573l11 -65l-70 -21q-12 50 -12 82zM1047 508l10 65l73 -4q-4 -56 -14 -82zM160 395l67 29l31 -55l-57 -43q-29 36 -41 69zM985 369l31 55
l67 -29q-24 -50 -41 -69zM260 252l55 49l52 -43l-43 -57q-23 10 -64 51zM877 258l49 43l53 -49q-3 -3 -13.5 -14t-15.5 -16t-14 -11t-18 -10zM504 193l-19 -70q-35 8 -75 27l30 65zM741 190l62 25l31 -65q-58 -23 -76 -27zM662 106q-42 -9 -82 0l6 74h67zM428 -182
q200 6 387 0v-84q-94 -4 -151 -4q9 -91 12 -185h-113q6 98 15 185q-56 0 -150 4v84z" />
    <glyph glyph-name="dottedCircle_holamhb" unicode="&#x5b9;&#x25cc;" horiz-adv-x="1228" 
d="M55 1260q-14 81 -12 129q67 10 129 4l-2 -131zM586 1051l-6 75q40 6 82 0l-9 -75h-67zM440 1014l-30 67q6 2 22 9.5t28 11.5t25 6l17 -70zM803 1014l-64 22l19 72q29 -4 76 -27zM315 928l-55 51q5 4 14.5 13.5t16 15t15.5 12.5t18 12l41 -61zM926 928l-52 43l44 61
q20 -12 61 -53zM227 807l-67 27q17 42 41 69l55 -43zM1016 807l-35 53l61 43q23 -29 41 -69zM186 657l-73 7q4 51 12 79l68 -20zM1059 657l-15 66l72 20q14 -44 14 -79zM125 487q-12 50 -12 82l71 4l11 -65zM1116 487l-69 21l10 65l73 -4q-4 -56 -14 -82zM201 326
q-29 36 -41 69l67 29l31 -55zM1042 326l-57 43l31 55l67 -29q-24 -50 -41 -69zM324 201q-23 10 -64 51l55 49l52 -43zM918 201l-41 57l49 43l53 -49q-3 -3 -13.5 -14t-15.5 -16t-14 -11t-18 -10zM485 123q-35 8 -75 27l30 65l64 -22zM758 123l-17 67l62 25l31 -65
q-58 -23 -76 -27zM580 106l6 74h67l9 -74q-42 -9 -82 0z" />
    <glyph glyph-name="dottedCircle_holamhaserhb" unicode="&#x5ba;&#x25cc;" horiz-adv-x="1228" 
d="M55 1260q-14 81 -12 129q67 10 129 4l-2 -131zM586 1051l-6 75q40 6 82 0l-9 -75h-67zM440 1014l-30 67q6 2 22 9.5t28 11.5t25 6l17 -70zM803 1014l-64 22l19 72q29 -4 76 -27zM315 928l-55 51q5 4 14.5 13.5t16 15t15.5 12.5t18 12l41 -61zM926 928l-52 43l44 61
q20 -12 61 -53zM227 807l-67 27q17 42 41 69l55 -43zM1016 807l-35 53l61 43q23 -29 41 -69zM186 657l-73 7q4 51 12 79l68 -20zM1059 657l-15 66l72 20q14 -44 14 -79zM125 487q-12 50 -12 82l71 4l11 -65zM1116 487l-69 21l10 65l73 -4q-4 -56 -14 -82zM201 326
q-29 36 -41 69l67 29l31 -55zM1042 326l-57 43l31 55l67 -29q-24 -50 -41 -69zM324 201q-23 10 -64 51l55 49l52 -43zM918 201l-41 57l49 43l53 -49q-3 -3 -13.5 -14t-15.5 -16t-14 -11t-18 -10zM485 123q-35 8 -75 27l30 65l64 -22zM758 123l-17 67l62 25l31 -65
q-58 -23 -76 -27zM580 106l6 74h67l9 -74q-42 -9 -82 0z" />
    <glyph glyph-name="dottedCircle_qubutshb" unicode="&#x5bb;&#x25cc;" horiz-adv-x="1228" 
d="M586 1051l-6 75q40 6 82 0l-9 -75h-67zM440 1014l-30 67q6 2 22 9.5t28 11.5t25 6l17 -70zM803 1014l-64 22l19 72q29 -4 76 -27zM315 928l-55 51q5 4 14.5 13.5t16 15t15.5 12.5t18 12l41 -61zM926 928l-52 43l44 61q20 -12 61 -53zM227 807l-67 27q17 42 41 69l55 -43z
M1016 807l-35 53l61 43q23 -29 41 -69zM186 657l-73 7q4 51 12 79l68 -20zM1059 657l-15 66l72 20q14 -44 14 -79zM125 487q-12 50 -12 82l71 4l11 -65zM1116 487l-69 21l10 65l73 -4q-4 -56 -14 -82zM201 326q-29 36 -41 69l67 29l31 -55zM1042 326l-57 43l31 55l67 -29
q-24 -50 -41 -69zM324 201q-23 10 -64 51l55 49l52 -43zM918 201l-41 57l49 43l53 -49q-3 -3 -13.5 -14t-15.5 -16t-14 -11t-18 -10zM485 123q-35 8 -75 27l30 65l64 -22zM758 123l-17 67l62 25l31 -65q-58 -23 -76 -27zM580 106l6 74h67l9 -74q-42 -9 -82 0zM506 -264
q-12 59 -12 110q62 8 108 2l-2 -108zM666 -414q-13 63 -13 111q63 8 109 2l-2 -109zM823 -571q-12 59 -12 110q63 8 109 2l-2 -108z" />
    <glyph glyph-name="dottedCircle_dageshhb" unicode="&#x5bc;&#x25cc;" horiz-adv-x="1228" 
d="M586 1051l-6 75q40 6 82 0l-9 -75h-67zM440 1014l-30 67q6 2 22 9.5t28 11.5t25 6l17 -70zM803 1014l-64 22l19 72q29 -4 76 -27zM315 928l-55 51q5 4 14.5 13.5t16 15t15.5 12.5t18 12l41 -61zM926 928l-52 43l44 61q20 -12 61 -53zM227 807l-67 27q17 42 41 69l55 -43z
M1016 807l-35 53l61 43q23 -29 41 -69zM186 657l-73 7q4 51 12 79l68 -20zM1059 657l-15 66l72 20q14 -44 14 -79zM561 559q-13 56 -10 100q42 9 100 5l-2 -103zM125 487q-12 50 -12 82l71 4l11 -65zM1116 487l-69 21l10 65l73 -4q-4 -56 -14 -82zM201 326q-29 36 -41 69
l67 29l31 -55zM1042 326l-57 43l31 55l67 -29q-24 -50 -41 -69zM324 201q-23 10 -64 51l55 49l52 -43zM918 201l-41 57l49 43l53 -49q-3 -3 -13.5 -14t-15.5 -16t-14 -11t-18 -10zM485 123q-35 8 -75 27l30 65l64 -22zM758 123l-17 67l62 25l31 -65q-58 -23 -76 -27z
M580 106l6 74h67l9 -74q-42 -9 -82 0z" />
    <glyph glyph-name="dottedCircle_shindothb" unicode="&#x5c1;&#x25cc;" horiz-adv-x="1228" 
d="M1018 1260q-14 81 -12 129q67 10 129 4l-2 -131zM586 1051l-6 75q40 6 82 0l-9 -75h-67zM440 1014l-30 67q6 2 22 9.5t28 11.5t25 6l17 -70zM803 1014l-64 22l19 72q29 -4 76 -27zM315 928l-55 51q5 4 14.5 13.5t16 15t15.5 12.5t18 12l41 -61zM926 928l-52 43l44 61
q20 -12 61 -53zM227 807l-67 27q17 42 41 69l55 -43zM1016 807l-35 53l61 43q23 -29 41 -69zM186 657l-73 7q4 51 12 79l68 -20zM1059 657l-15 66l72 20q14 -44 14 -79zM125 487q-12 50 -12 82l71 4l11 -65zM1116 487l-69 21l10 65l73 -4q-4 -56 -14 -82zM201 326
q-29 36 -41 69l67 29l31 -55zM1042 326l-57 43l31 55l67 -29q-24 -50 -41 -69zM324 201q-23 10 -64 51l55 49l52 -43zM918 201l-41 57l49 43l53 -49q-3 -3 -13.5 -14t-15.5 -16t-14 -11t-18 -10zM485 123q-35 8 -75 27l30 65l64 -22zM758 123l-17 67l62 25l31 -65
q-58 -23 -76 -27zM580 106l6 74h67l9 -74q-42 -9 -82 0z" />
    <glyph glyph-name="dottedCircle_sindothb" unicode="&#x5c2;&#x25cc;" horiz-adv-x="1228" 
d="M406 1415q-15 86 -13 129q67 10 129 4l-2 -131zM586 1051l-6 75q40 6 82 0l-9 -75h-67zM440 1014l-30 67q6 2 22 9.5t28 11.5t25 6l17 -70zM803 1014l-64 22l19 72q29 -4 76 -27zM315 928l-55 51q5 4 14.5 13.5t16 15t15.5 12.5t18 12l41 -61zM926 928l-52 43l44 61
q20 -12 61 -53zM227 807l-67 27q17 42 41 69l55 -43zM1016 807l-35 53l61 43q23 -29 41 -69zM186 657l-73 7q4 51 12 79l68 -20zM1059 657l-15 66l72 20q14 -44 14 -79zM125 487q-12 50 -12 82l71 4l11 -65zM1116 487l-69 21l10 65l73 -4q-4 -56 -14 -82zM201 326
q-29 36 -41 69l67 29l31 -55zM1042 326l-57 43l31 55l67 -29q-24 -50 -41 -69zM324 201q-23 10 -64 51l55 49l52 -43zM918 201l-41 57l49 43l53 -49q-3 -3 -13.5 -14t-15.5 -16t-14 -11t-18 -10zM485 123q-35 8 -75 27l30 65l64 -22zM758 123l-17 67l62 25l31 -65
q-58 -23 -76 -27zM580 106l6 74h67l9 -74q-42 -9 -82 0z" />
    <glyph glyph-name="dottedCircle_qamatsqatanhb" unicode="&#x5c7;&#x25cc;" horiz-adv-x="1228" 
d="M653 1051h-67l-6 75q40 6 82 0zM502 1038l-62 -24l-30 67q6 2 22 9.5t28 11.5t25 6zM739 1036l19 72q29 -4 76 -27l-31 -67zM365 971l-50 -43l-55 51q5 4 14.5 13.5t16 15t15.5 12.5t18 12zM874 971l44 61q20 -12 61 -53l-53 -51zM256 860l-29 -53l-67 27q17 42 41 69z
M1083 834l-67 -27l-35 53l61 43q23 -29 41 -69zM193 723l-7 -66l-73 7q4 51 12 79zM1059 657l-15 66l72 20q14 -44 14 -79zM184 573l11 -65l-70 -21q-12 50 -12 82zM1047 508l10 65l73 -4q-4 -56 -14 -82zM160 395l67 29l31 -55l-57 -43q-29 36 -41 69zM985 369l31 55
l67 -29q-24 -50 -41 -69zM260 252l55 49l52 -43l-43 -57q-23 10 -64 51zM877 258l49 43l53 -49q-3 -3 -13.5 -14t-15.5 -16t-14 -11t-18 -10zM504 193l-19 -70q-35 8 -75 27l30 65zM741 190l62 25l31 -65q-58 -23 -76 -27zM662 106q-42 -9 -82 0l6 74h67zM428 -182
q200 6 387 0v-84q-94 -4 -151 -4q9 -91 12 -185h-113q6 98 15 185q-56 0 -150 4v84z" />
    <glyph glyph-name="dottedCircle_rafehb" unicode="&#x5bf;&#x25cc;" horiz-adv-x="1228" 
d="M410 1356l2 86h417l-2 -86h-417zM586 1051l-6 75q40 6 82 0l-9 -75h-67zM440 1014l-30 67q6 2 22 9.5t28 11.5t25 6l17 -70zM803 1014l-64 22l19 72q29 -4 76 -27zM315 928l-55 51q5 4 14.5 13.5t16 15t15.5 12.5t18 12l41 -61zM926 928l-52 43l44 61q20 -12 61 -53z
M227 807l-67 27q17 42 41 69l55 -43zM1016 807l-35 53l61 43q23 -29 41 -69zM186 657l-73 7q4 51 12 79l68 -20zM1059 657l-15 66l72 20q14 -44 14 -79zM125 487q-12 50 -12 82l71 4l11 -65zM1116 487l-69 21l10 65l73 -4q-4 -56 -14 -82zM201 326q-29 36 -41 69l67 29
l31 -55zM1042 326l-57 43l31 55l67 -29q-24 -50 -41 -69zM324 201q-23 10 -64 51l55 49l52 -43zM918 201l-41 57l49 43l53 -49q-3 -3 -13.5 -14t-15.5 -16t-14 -11t-18 -10zM485 123q-35 8 -75 27l30 65l64 -22zM758 123l-17 67l62 25l31 -65q-58 -23 -76 -27zM580 106l6 74
h67l9 -74q-42 -9 -82 0z" />
    <glyph glyph-name="uni066E.init" unicode="&#x66e;" horiz-adv-x="593" 
d="M385 737q25 -371 25 -461q0 -106 -19 -151q-46 -55 -159 -90t-232 -35q-24 0 -34.5 17.5t-10.5 56.5q0 37 10.5 54t34.5 17q183 0 297 50q-4 162 -39 526z" />
    <glyph glyph-name="uni066E.medi" unicode="&#x66e;" horiz-adv-x="720" 
d="M721 145q45 0 45 -71q0 -74 -45 -74q-263 0 -359 162q-45 -72 -140 -117t-222 -45q-24 0 -34.5 17.5t-10.5 56.5q0 37 10.5 54t34.5 17q103 0 186 29.5t123 87.5q4 25 4 117v256l123 14v-256q0 -137 66.5 -192.5t218.5 -55.5z" />
    <glyph glyph-name="uni066E.fina" unicode="&#x66e;" horiz-adv-x="1769" 
d="M1769 145q46 0 46 -71q0 -74 -46 -74q-266 0 -360 166q-65 -67 -177.5 -111.5t-224.5 -61t-229 -16.5q-359 0 -528.5 94.5t-169.5 309.5q0 123 55 272h117q-35 -123 -35 -217q0 -165 136 -238t450 -73q188 0 333.5 35.5t219.5 101.5q6 23 6 117v203l123 14v-203
q0 -137 66 -192.5t218 -55.5z" />
    <glyph glyph-name="uni066F.fina" unicode="&#x66f;" horiz-adv-x="1400" 
d="M1399 145q47 0 47 -71q0 -74 -47 -74h-156q-21 -175 -78 -258q-25 -31 -62 -60.5t-98.5 -63.5t-155 -54.5t-204.5 -20.5q-289 0 -429 140t-140 389q0 195 65 372h111q-45 -170 -45 -333q0 -210 116.5 -314t358.5 -104q278 0 416 153q20 90 28 162q-92 1 -159 5t-132 15
t-108 31t-77 50.5t-50 75.5t-16 104q0 92 36 177t110.5 143.5t172.5 58.5q67 0 129.5 -35t112 -99.5t79 -164t29.5 -219.5v-5h146zM688 315q0 -99 105.5 -136.5t339.5 -39.5q-1 178 -74 278.5t-176 100.5q-95 0 -145 -63.5t-50 -139.5z" />
    <glyph glyph-name="uni06A1.init" unicode="&#x6a1;" horiz-adv-x="925" 
d="M467 997q67 0 128.5 -34.5t109.5 -97.5t77 -161.5t29 -216.5q0 -143 -22.5 -282t-51.5 -156q-85 -49 -481 -49h-256q-24 0 -34.5 17.5t-10.5 56.5q0 37 10.5 54t34.5 17h272q287 0 392 17q18 99 22 192q-90 1 -156 5t-130.5 14.5t-107.5 30t-76.5 49.5t-49.5 74t-16 102
q0 66 21.5 130.5t60.5 118t100.5 86.5t134.5 33zM254 655q0 -96 103 -132t333 -38q-3 171 -73 267t-171 96q-94 0 -143 -60.5t-49 -132.5z" />
    <glyph glyph-name="uni06A1.medi" unicode="&#x6a1;" horiz-adv-x="968" 
d="M0 0q-24 0 -34.5 17.5t-10.5 56.5q0 37 10.5 54t34.5 17q191 2 326 21q-174 102 -174 278q0 91 42.5 173.5t118.5 135t166 52.5q133 0 231.5 -102t98.5 -240q0 -163 -172 -293q132 -25 262 -25h70q24 0 34.5 -17t10.5 -54q0 -39 -10.5 -56.5t-34.5 -17.5q-312 3 -508 80
q-125 -44 -224.5 -62t-236.5 -18zM498 217q102 52 145 104t43 119q0 100 -72.5 163t-158.5 63q-81 0 -138 -58.5t-57 -140.5q0 -75 55.5 -129.5t182.5 -120.5z" />
    <glyph glyph-name="uni06A1.fina" unicode="&#x6a1;" horiz-adv-x="1828" 
d="M707 -23q-298 0 -462.5 102t-164.5 300q0 134 49 278h119q-35 -104 -35 -215q0 -162 121.5 -239.5t398.5 -77.5q163 3 256 11.5t197 29.5q-174 102 -174 278q0 91 42.5 173.5t118.5 135t166 52.5q133 0 231.5 -102t98.5 -240q0 -163 -172 -293q125 -27 262 -27h70
q24 0 34.5 -17t10.5 -54q0 -39 -10.5 -56.5t-34.5 -17.5q-157 2 -276 19t-232 67q-152 -60 -287.5 -83.5t-326.5 -23.5zM1358 217q102 52 145 104t43 119q0 100 -72.5 163t-158.5 63q-81 0 -138 -58.5t-57 -140.5q0 -75 55.5 -129.5t182.5 -120.5z" />
    <glyph glyph-name="uniFB51" unicode="&#x671;" horiz-adv-x="589" arabic-form="final" 
d="M578 1376q-49 -22 -226 -22q-149 0 -194 -2q-79 -4 -133 -17v58q55 34 108 39q73 100 146 150t161 50q75 0 115.5 -42.5t40.5 -125.5q0 -70 -18 -88zM426 1538q-56 0 -105.5 -22.5t-101.5 -81.5q110 4 148 4q131 0 147 8q0 51 -21.5 71.5t-66.5 20.5zM590 145
q45 0 45 -71q0 -74 -45 -74q-204 0 -290.5 66.5t-86.5 232.5v940l133 16v-942q0 -105 50 -136.5t194 -31.5z" />
    <glyph glyph-name="uniFB57" unicode="&#x67e;" horiz-adv-x="1769" arabic-form="final" 
d="M1769 145q46 0 46 -71q0 -74 -46 -74q-266 0 -360 166q-65 -67 -177.5 -111.5t-224.5 -61t-229 -16.5q-359 0 -528.5 94.5t-169.5 309.5q0 123 55 272h117q-35 -123 -35 -217q0 -165 136 -238t450 -73q188 0 333.5 35.5t219.5 101.5q6 23 6 117v203l123 14v-203
q0 -137 66 -192.5t218 -55.5zM705 -217l-3 -145l-127 -5q-17 85 -14 146q75 10 144 4zM817 -221q75 10 144 4l-3 -145l-127 -5q-17 85 -14 146zM682 -541q71 10 137 4l-2 -139l-121 -4q-17 82 -14 139z" />
    <glyph glyph-name="uniFB58" unicode="&#x67e;" horiz-adv-x="593" arabic-form="initial" 
d="M385 737q25 -371 25 -461q0 -106 -19 -151q-46 -55 -159 -90t-232 -35q-24 0 -34.5 17.5t-10.5 56.5q0 37 10.5 54t34.5 17q183 0 297 50q-4 162 -39 526zM125 -195l-2 -145l-127 -4q-17 85 -14 145q74 10 143 4zM238 -199q74 10 143 4l-2 -145l-127 -4q-17 85 -14 145z
M102 -518q72 10 138 4l-2 -139l-121 -4q-17 86 -15 139z" />
    <glyph glyph-name="uniFB59" unicode="&#x67e;" horiz-adv-x="720" arabic-form="medial" 
d="M721 145q45 0 45 -71q0 -74 -45 -74q-263 0 -359 162q-45 -72 -140 -117t-222 -45q-24 0 -34.5 17.5t-10.5 56.5q0 37 10.5 54t34.5 17q103 0 186 29.5t123 87.5q4 25 4 117v256l123 14v-256q0 -137 66.5 -192.5t218.5 -55.5zM264 -195l-2 -145l-127 -4q-17 85 -14 145
q74 10 143 4zM377 -199q74 10 143 4l-2 -145l-127 -4q-17 85 -14 145zM242 -518q71 10 137 4l-2 -139l-121 -4q-17 82 -14 139z" />
    <glyph glyph-name="uniFB6B" unicode="&#x6a4;" horiz-adv-x="1828" arabic-form="final" 
d="M1282 1229q-15 74 -12 139q71 10 137 4l-2 -139zM1393 989q-18 89 -15 146q75 10 144 4l-2 -146zM1137 979q-17 89 -15 145q75 10 144 4l-2 -145zM707 -23q-298 0 -462.5 102t-164.5 300q0 134 49 278h119q-35 -104 -35 -215q0 -162 121.5 -239.5t398.5 -77.5
q163 3 256 11.5t197 29.5q-174 102 -174 278q0 91 42.5 173.5t118.5 135t166 52.5q133 0 231.5 -102t98.5 -240q0 -163 -172 -293q125 -27 262 -27h70q24 0 34.5 -17t10.5 -54q0 -39 -10.5 -56.5t-34.5 -17.5q-157 2 -276 19t-232 67q-152 -60 -287.5 -83.5t-326.5 -23.5z
M1358 217q102 52 145 104t43 119q0 100 -72.5 163t-158.5 63q-81 0 -138 -58.5t-57 -140.5q0 -75 55.5 -129.5t182.5 -120.5z" />
    <glyph glyph-name="uniFB6C" unicode="&#x6a4;" horiz-adv-x="925" arabic-form="initial" 
d="M532 1425l-122 -4q-16 78 -13 140q72 10 138 4zM520 1182q-17 85 -14 145q74 10 143 4l-2 -145zM391 1176l-127 -5q-17 85 -14 146q74 10 143 4zM467 997q67 0 128.5 -34.5t109.5 -97.5t77 -161.5t29 -216.5q0 -143 -22.5 -282t-51.5 -156q-85 -49 -481 -49h-256
q-24 0 -34.5 17.5t-10.5 56.5q0 37 10.5 54t34.5 17h272q287 0 392 17q18 99 22 192q-90 1 -156 5t-130.5 14.5t-107.5 30t-76.5 49.5t-49.5 74t-16 102q0 66 21.5 130.5t60.5 118t100.5 86.5t134.5 33zM254 655q0 -96 103 -132t333 -38q-3 171 -73 267t-171 96
q-94 0 -143 -60.5t-49 -132.5z" />
    <glyph glyph-name="uniFB6D" unicode="&#x6a4;" horiz-adv-x="968" arabic-form="medial" 
d="M422 1229q-15 74 -12 139q71 10 137 4l-2 -139zM532 989q-17 85 -14 146q75 10 144 4l-3 -146zM276 979q-17 85 -14 145q75 10 144 4l-3 -145zM0 0q-24 0 -34.5 17.5t-10.5 56.5q0 37 10.5 54t34.5 17q191 2 326 21q-174 102 -174 278q0 91 42.5 173.5t118.5 135
t166 52.5q133 0 231.5 -102t98.5 -240q0 -163 -172 -293q132 -25 262 -25h70q24 0 34.5 -17t10.5 -54q0 -39 -10.5 -56.5t-34.5 -17.5q-312 3 -508 80q-125 -44 -224.5 -62t-236.5 -18zM498 217q102 52 145 104t43 119q0 100 -72.5 163t-158.5 63q-81 0 -138 -58.5
t-57 -140.5q0 -75 55.5 -129.5t182.5 -120.5z" />
    <glyph glyph-name="uniFB7B" unicode="&#x686;" horiz-adv-x="1339" arabic-form="final" 
d="M1339 145q24 0 34.5 -17t10.5 -54q0 -39 -10.5 -56.5t-34.5 -17.5q-151 0 -239.5 49t-134 165.5t-54.5 322.5q-374 -114 -542 -256.5t-168 -323.5q0 -179 143.5 -274t400.5 -95q208 0 351 37l-6 -119q-175 -65 -383 -65q-156 0 -279 38.5t-201 105.5t-118.5 156
t-40.5 193q0 232 197 411t618 312q-26 8 -119 40.5t-139 46t-127 28t-154 14.5q-100 0 -248 -59l21 141q113 58 256 58q103 0 217 -28t198 -61t191.5 -61t198.5 -28l-23 -142l-143 -39q8 -168 40 -257t98.5 -127t188.5 -38zM467 -2q-14 66 -14 137q55 8 135 4l-2 -137z
M819 139l-2 -137l-119 -4q-17 79 -14 137q54 8 135 4zM602 -100q70 10 135 4l-2 -137l-121 -5q-14 88 -12 138z" />
    <glyph glyph-name="uniFB7C" unicode="&#x686;" horiz-adv-x="1286" arabic-form="initial" 
d="M420 756q103 0 217 -28t198 -61t191.5 -61t198.5 -28l-23 -142q-119 -45 -254 -111t-236 -118.5t-214.5 -102t-238.5 -77t-259 -27.5q-24 0 -34.5 17.5t-10.5 56.5q0 37 10.5 54t34.5 17q90 0 181.5 14t164 33t168 55.5t157.5 63.5t170 76t171 76q-57 15 -143.5 45
t-150 51.5t-153 39t-174.5 17.5q-100 0 -248 -59l21 141q113 58 256 58zM633 -39l-2 -145l-127 -4q-17 89 -15 145q75 10 144 4zM745 -43q75 10 144 4l-2 -145l-127 -4q-17 89 -15 145zM610 -362q72 10 138 4l-3 -140l-120 -4q-18 86 -15 140z" />
    <glyph glyph-name="uniFB7D" unicode="&#x686;" horiz-adv-x="1380" arabic-form="medial" 
d="M1380 145q45 0 45 -71q0 -74 -45 -74q-91 0 -156 13t-109.5 37t-75.5 66.5t-49 91.5t-34 122q-59 -29 -155.5 -78.5t-154 -78.5t-145 -66t-157.5 -57.5t-161 -35t-183 -14.5q-24 0 -34.5 17.5t-10.5 56.5q0 37 10.5 54t34.5 17q90 0 181.5 14t164 33t168 55.5t157.5 63.5
t170 76t171 76q-57 15 -143.5 45t-150 51.5t-153 39t-174.5 17.5q-100 0 -248 -59l21 141q113 58 256 58q103 0 217 -28t198 -61t191.5 -61t198.5 -28l-23 -142q-98 -36 -162 -67q13 -57 21 -85t25 -58.5t36 -42t56 -23t82.5 -13.5t119.5 -2zM649 -57l-2 -146l-127 -4
q-17 85 -14 146q74 10 143 4zM762 -61q74 10 143 4l-2 -146l-127 -4q-17 85 -14 146zM627 -381q71 10 137 4l-2 -139l-121 -4q-17 82 -14 139z" />
    <glyph glyph-name="uniFB8B" unicode="&#x698;" horiz-adv-x="641" arabic-form="final" 
d="M322 922l-123 -4q-16 78 -13 139q72 10 138 4zM309 678q-17 85 -14 145q74 10 143 4l-2 -145zM180 672l-127 -4q-17 85 -14 145q74 10 143 4zM641 145q24 0 34.5 -17t10.5 -54q0 -39 -10.5 -56.5t-34.5 -17.5q-78 0 -132 14.5t-97 53.5q-23 -145 -88.5 -260t-176 -186
t-249.5 -71q-15 0 -27 3l-16 127q195 0 313.5 131.5t140.5 375.5q-5 114 -51 293l125 19q41 -154 41 -287v-20q57 -48 217 -48z" />
    <glyph glyph-name="uniFB8F" unicode="&#x6a9;" horiz-adv-x="1425" arabic-form="final" 
d="M510 -20q-86 0 -161 16.5t-136.5 51t-97 94.5t-35.5 139q0 75 29 147h118q-16 -49 -16 -111q0 -190 344 -190q175 0 283.5 29t224.5 104l-412 643v103l629 503l12 -151l-510 -393v-17l373 -594q37 -60 71 -101t58 -62t52 -32t44 -12.5t43 -1.5q47 0 47 -71q0 -74 -47 -74
q-92 0 -164.5 38t-136.5 128q-236 -186 -612 -186z" />
    <glyph glyph-name="uniFB90" unicode="&#x6a9;" horiz-adv-x="811" arabic-form="initial" 
d="M725 201q0 -65 -18 -109q-39 -45 -227 -68.5t-480 -23.5q-24 0 -34.5 17.5t-10.5 56.5q0 37 10.5 54t34.5 17q269 0 396.5 6.5t211.5 28.5q7 365 -434 705l-88 45v88l625 489l12 -151l-459 -361q461 -365 461 -794z" />
    <glyph glyph-name="uniFB91" unicode="&#x6a9;" horiz-adv-x="909" arabic-form="medial" 
d="M0 0q-24 0 -34.5 17.5t-10.5 56.5q0 37 10.5 54t34.5 17q193 0 302.5 22t234.5 87l-443 649v103l670 503l12 -151l-557 -408l477 -696q45 -65 86.5 -87t124.5 -22q47 0 47 -71q0 -74 -47 -74q-108 0 -172 34.5t-141 133.5q-219 -168 -594 -168z" />
    <glyph glyph-name="uniFB93" unicode="&#x6af;" horiz-adv-x="1425" arabic-form="final" 
d="M649 1096v102l613 498l6 -105zM510 -20q-86 0 -161 16.5t-136.5 51t-97 94.5t-35.5 139q0 75 29 147h118q-16 -49 -16 -111q0 -190 344 -190q175 0 283.5 29t224.5 104l-412 643v103l629 503l12 -151l-510 -393v-17l373 -594q37 -60 71 -101t58 -62t52 -32t44 -12.5
t43 -1.5q47 0 47 -71q0 -74 -47 -74q-92 0 -164.5 38t-136.5 128q-236 -186 -612 -186z" />
    <glyph glyph-name="uniFB94" unicode="&#x6af;" horiz-adv-x="759" arabic-form="initial" 
d="M82 1102v102l612 498l6 -105zM725 201q0 -65 -18 -109q-39 -45 -227 -68.5t-480 -23.5q-24 0 -34.5 17.5t-10.5 56.5q0 37 10.5 54t34.5 17q269 0 396.5 6.5t211.5 28.5q7 365 -434 705l-88 45v88l625 489l12 -151l-459 -361q461 -365 461 -794z" />
    <glyph glyph-name="uniFB95" unicode="&#x6af;" horiz-adv-x="868" arabic-form="medial" 
d="M92 1098v102l653 502l7 -105zM0 0q-24 0 -34.5 17.5t-10.5 56.5q0 37 10.5 54t34.5 17q193 0 302.5 22t234.5 87l-443 649v103l670 503l12 -151l-557 -408l477 -696q45 -65 86.5 -87t124.5 -22q47 0 47 -71q0 -74 -47 -74q-108 0 -172 34.5t-141 133.5
q-219 -168 -594 -168z" />
    <glyph glyph-name="uniFB9F" unicode="&#x6ba;" horiz-adv-x="1409" arabic-form="final" 
d="M1409 145q45 0 45 -71q0 -74 -45 -74q-185 0 -276 98v-53q0 -175 -23 -233q-75 -85 -215 -131t-309 -46q-236 0 -373 111t-137 336q0 168 67 336h111q-47 -159 -47 -283q0 -181 101 -266.5t300 -85.5q247 0 398 96q2 25 2 82q0 98 -29 543l135 16q4 -46 8 -149
q13 -125 78 -175.5t209 -50.5z" />
    <glyph glyph-name="uniFBFD" unicode="&#x6cc;" horiz-adv-x="1296" arabic-form="final" 
d="M1341 74q0 -38 -8.5 -55.5t-29.5 -18.5q2 -10 2 -45q0 -97 -37 -176q-92 -114 -251 -175t-360 -61q-301 0 -441 139t-140 390q0 195 65 372h111q-45 -170 -45 -333q0 -212 117.5 -315t363.5 -103q162 0 290 42t200 124q14 32 14 63q0 55 -10 86q-169 0 -338 10l24 134
q175 -7 428 -7q24 0 34.5 -17t10.5 -54z" />
    <glyph glyph-name="uniFBFE" unicode="&#x6cc;" horiz-adv-x="593" arabic-form="initial" 
d="M385 737q25 -371 25 -461q0 -106 -19 -151q-46 -55 -159 -90t-232 -35q-24 0 -34.5 17.5t-10.5 56.5q0 37 10.5 54t34.5 17q183 0 297 50q-4 162 -39 526zM-18 -199q74 10 143 4l-2 -145l-127 -4q-17 85 -14 145zM238 -199q74 10 143 4l-2 -145l-127 -4q-17 85 -14 145z
" />
    <glyph glyph-name="uniFBFF" unicode="&#x6cc;" horiz-adv-x="720" arabic-form="medial" 
d="M721 145q45 0 45 -71q0 -74 -45 -74q-263 0 -359 162q-45 -72 -140 -117t-222 -45q-24 0 -34.5 17.5t-10.5 56.5q0 37 10.5 54t34.5 17q103 0 186 29.5t123 87.5q4 25 4 117v256l123 14v-256q0 -137 66.5 -192.5t218.5 -55.5zM121 -199q74 10 143 4l-2 -145l-127 -4
q-17 85 -14 145zM377 -199q74 10 143 4l-2 -145l-127 -4q-17 85 -14 145z" />
    <glyph glyph-name="uniFE80" unicode="&#x621;" horiz-adv-x="784" arabic-form="isolated" 
d="M410 164l356 80l-12 -140l-715 -139v115l190 43q-77 66 -121.5 152.5t-44.5 170.5q0 103 58.5 185.5t146.5 125t183 42.5q102 0 217 -39l-15 -119q-104 23 -204 23q-55 0 -110.5 -17t-104 -58t-64.5 -100q2 -89 60.5 -174t179.5 -151z" />
    <glyph glyph-name="uniFE81" unicode="&#x622;" horiz-adv-x="575" arabic-form="isolated" 
d="M18 1348v63q84 59 193 59q31 0 99 -6t110 -6q83 0 178 23v-60q-66 -53 -209 -53q-21 0 -90 6t-106 6q-75 0 -175 -32zM221 0v1241l133 14v-1255h-133z" />
    <glyph glyph-name="uniFE82" unicode="&#x622;" horiz-adv-x="589" arabic-form="final" 
d="M10 1348v63q84 59 193 59q31 0 99 -6t110 -6q83 0 178 23v-60q-66 -53 -209 -53q-21 0 -90.5 6t-106.5 6q-74 0 -174 -32zM590 145q45 0 45 -71q0 -74 -45 -74q-204 0 -290.5 66.5t-86.5 232.5v940l133 16v-942q0 -105 50 -136.5t194 -31.5z" />
    <glyph glyph-name="uniFE83" unicode="&#x623;" horiz-adv-x="575" arabic-form="isolated" 
d="M371 1460l135 15v-78l-430 -43v69l119 17q-76 56 -76 137q0 66 56.5 113t141.5 47q53 0 107 -21l-10 -86q-48 19 -105 19q-44 0 -81.5 -14t-41.5 -46q2 -38 47 -73.5t138 -55.5zM221 0v1241l133 14v-1255h-133z" />
    <glyph glyph-name="uniFE84" unicode="&#x623;" horiz-adv-x="589" arabic-form="final" 
d="M498 1475v-78l-430 -43v69l118 17q-75 55 -75 137q0 66 56.5 113t141.5 47q53 0 107 -21l-10 -86q-47 19 -105 19q-44 0 -81.5 -14t-41.5 -46q2 -38 46.5 -73.5t137.5 -55.5zM590 145q45 0 45 -71q0 -74 -45 -74q-204 0 -290.5 66.5t-86.5 232.5v940l133 16v-942
q0 -105 50 -136.5t194 -31.5z" />
    <glyph glyph-name="uniFE85" unicode="&#x624;" horiz-adv-x="864" arabic-form="isolated" 
d="M664 891v-78l-431 -43v70l119 16q-76 56 -76 137q0 66 57 113t142 47q56 0 107 -20l-11 -86q-45 18 -104 18q-27 0 -52 -4.5t-46.5 -18.5t-24.5 -36q2 -38 46.5 -73.5t137.5 -55.5zM446 664q67 0 130 -35.5t112.5 -99.5t79 -164t29.5 -220q0 -304 -182 -456t-509 -152
l-14 129q261 11 400 90t174 248q-91 1 -157.5 5t-131 15t-107.5 31t-77 50.5t-50 75.5t-16 104q0 92 36 177t110.5 143.5t172.5 58.5zM231 311q0 -99 105.5 -136.5t339.5 -39.5q-1 179 -72 279t-178 100q-95 0 -145 -63.5t-50 -139.5z" />
    <glyph glyph-name="uniFE86" unicode="&#x624;" horiz-adv-x="937" arabic-form="final" 
d="M664 891v-78l-431 -43v70l119 16q-76 56 -76 137q0 66 57 113t142 47q56 0 107 -20l-11 -86q-45 18 -104 18q-27 0 -52 -4.5t-46.5 -18.5t-24.5 -36q2 -38 46.5 -73.5t137.5 -55.5zM936 145q47 0 47 -71q0 -74 -47 -74h-152q-42 -232 -217.5 -347.5t-460.5 -115.5
l-14 129q261 11 400 90t174 248q-91 1 -157.5 5t-131 15t-107.5 31t-77 50.5t-50 75.5t-16 104q0 92 36 177t110.5 143.5t172.5 58.5q67 0 130 -35.5t112.5 -99.5t79 -164t29.5 -220h139zM231 311q0 -99 105.5 -136.5t339.5 -39.5q-1 179 -72 279t-178 100q-95 0 -145 -63.5
t-50 -139.5z" />
    <glyph glyph-name="uniFE87" unicode="&#x625;" horiz-adv-x="575" arabic-form="isolated" 
d="M354 1503v-1503h-133v1487zM369 -440l137 14v-78l-430 -43v70l119 16q-76 56 -76 137q0 66 56.5 113t141.5 47q56 0 107 -20l-10 -86q-45 18 -105 18q-44 0 -80.5 -13.5t-40.5 -45.5q3 -92 181 -129z" />
    <glyph glyph-name="uniFE88" unicode="&#x625;" horiz-adv-x="589" arabic-form="final" 
d="M590 145q45 0 45 -71q0 -74 -45 -74q-204 0 -290.5 66.5t-86.5 232.5v1188l133 16v-1190q0 -105 50 -136.5t194 -31.5zM199 -307q3 -92 180 -129l137 14v-78l-430 -43v70l119 16q-76 56 -76 138q0 66 57 112.5t142 46.5q55 0 106 -20l-10 -86q-45 18 -105 18
q-44 0 -80 -13.5t-40 -45.5z" />
    <glyph glyph-name="uniFE89" unicode="&#x626;" horiz-adv-x="1388" arabic-form="isolated" 
d="M436 696v-78l-430 -43v70l119 17q-76 56 -76 137q0 66 57 112.5t142 46.5q55 0 106 -20l-10 -86q-45 18 -104 18q-27 0 -52 -4.5t-46.5 -18.5t-24.5 -36q2 -38 46.5 -73.5t137.5 -55.5zM991 276q129 -31 195.5 -70t92.5 -96t26 -155q0 -97 -37 -176q-92 -114 -250.5 -175
t-358.5 -61q-303 0 -443 139t-140 390q0 195 65 372h111q-45 -170 -45 -333q0 -212 117.5 -315t365.5 -103q160 0 288.5 42t199.5 124q14 32 14 63q0 46 -8 75.5t-32.5 58t-73.5 48.5t-128 37q-99 24 -157.5 46t-106 56.5t-67 84t-19.5 121.5q0 154 126.5 265t313.5 111
q124 0 240 -53l-16 -127q-102 37 -242 37q-130 0 -222.5 -64.5t-92.5 -144.5q0 -79 56 -115.5t228 -81.5z" />
    <glyph glyph-name="uniFE8A" unicode="&#x626;" horiz-adv-x="1296" arabic-form="final" 
d="M416 672v-78l-430 -43v70l118 16q-75 55 -75 137q0 66 56.5 113t141.5 47q53 0 107 -21l-10 -86q-47 19 -105 19q-44 0 -81.5 -14t-41.5 -46q2 -38 47 -73.5t138 -55.5zM1341 74q0 -38 -8.5 -55.5t-29.5 -18.5q2 -10 2 -45q0 -97 -37 -176q-92 -114 -251 -175t-360 -61
q-301 0 -441 139t-140 390q0 195 65 372h111q-45 -170 -45 -333q0 -212 117.5 -315t363.5 -103q162 0 290 42t200 124q14 32 14 63q0 55 -10 86q-169 0 -338 10l24 134q175 -7 428 -7q24 0 34.5 -17t10.5 -54z" />
    <glyph glyph-name="uniFE8B" unicode="&#x626;" horiz-adv-x="593" arabic-form="initial" 
d="M403 942l136 14v-77l-430 -43v69l118 17q-75 55 -75 137q0 66 56.5 113t141.5 47q53 0 107 -21l-11 -86q-45 18 -104 18q-27 0 -52 -4.5t-46.5 -18.5t-24.5 -36q2 -38 46.5 -73.5t137.5 -55.5zM258 721l127 16q25 -371 25 -461q0 -106 -19 -151q-46 -55 -159 -90
t-232 -35q-24 0 -34.5 17.5t-10.5 56.5q0 37 10.5 54t34.5 17q183 0 297 50q-4 162 -39 526z" />
    <glyph glyph-name="uniFE8C" unicode="&#x626;" horiz-adv-x="720" arabic-form="medial" 
d="M584 928v-78l-430 -43v70l118 16q-75 55 -75 137q0 66 56.5 113t141.5 47q53 0 107 -21l-10 -86q-48 19 -105 19q-44 0 -81.5 -14t-41.5 -46q2 -38 47 -73.5t138 -55.5zM721 145q45 0 45 -71q0 -74 -45 -74q-263 0 -359 162q-45 -72 -140 -117t-222 -45q-24 0 -34.5 17.5
t-10.5 56.5q0 37 10.5 54t34.5 17q103 0 186 29.5t123 87.5q4 25 4 117v256l123 14v-256q0 -137 66.5 -192.5t218.5 -55.5z" />
    <glyph glyph-name="uniFE8D" unicode="&#x627;" horiz-adv-x="575" arabic-form="isolated" 
d="M221 0v1487l133 16v-1503h-133z" />
    <glyph glyph-name="uniFE8E" unicode="&#x627;" horiz-adv-x="589" arabic-form="final" 
d="M590 145q45 0 45 -71q0 -74 -45 -74q-204 0 -290.5 66.5t-86.5 232.5v1188l133 16v-1190q0 -105 50 -136.5t194 -31.5z" />
    <glyph glyph-name="uniFE8F" unicode="&#x628;" horiz-adv-x="1638" arabic-form="isolated" 
d="M1460 737q27 -284 27 -446q0 -100 -14 -160q-92 -84 -283 -119t-416 -35q-694 0 -694 402q0 134 49 278h119q-35 -104 -35 -215q0 -109 54 -177t184.5 -104t349.5 -36q374 0 573 72q-9 257 -39 522zM674 -221q74 10 143 4l-2 -145l-127 -5q-17 85 -14 146z" />
    <glyph glyph-name="uniFE90" unicode="&#x628;" horiz-adv-x="1769" arabic-form="final" 
d="M1769 145q46 0 46 -71q0 -74 -46 -74q-266 0 -360 166q-65 -67 -177.5 -111.5t-224.5 -61t-229 -16.5q-359 0 -528.5 94.5t-169.5 309.5q0 123 55 272h117q-35 -123 -35 -217q0 -165 136 -238t450 -73q188 0 333.5 35.5t219.5 101.5q6 23 6 117v203l123 14v-203
q0 -137 66 -192.5t218 -55.5zM678 -221q74 10 143 4l-2 -145l-127 -5q-17 85 -14 146z" />
    <glyph glyph-name="uniFE91" unicode="&#x628;" horiz-adv-x="593" arabic-form="initial" 
d="M385 737q25 -371 25 -461q0 -106 -19 -151q-46 -55 -159 -90t-232 -35q-24 0 -34.5 17.5t-10.5 56.5q0 37 10.5 54t34.5 17q183 0 297 50q-4 162 -39 526zM98 -199q75 10 144 4l-2 -145l-127 -4q-17 89 -15 145z" />
    <glyph glyph-name="uniFE92" unicode="&#x628;" horiz-adv-x="720" arabic-form="medial" 
d="M721 145q45 0 45 -71q0 -74 -45 -74q-263 0 -359 162q-45 -72 -140 -117t-222 -45q-24 0 -34.5 17.5t-10.5 56.5q0 37 10.5 54t34.5 17q103 0 186 29.5t123 87.5q4 25 4 117v256l123 14v-256q0 -137 66.5 -192.5t218.5 -55.5zM238 -199q74 10 143 4l-2 -145l-127 -4
q-17 85 -14 145z" />
    <glyph glyph-name="uniFE93" unicode="&#x629;" horiz-adv-x="804" arabic-form="isolated" 
d="M426 971q-17 85 -14 145q74 10 143 4l-2 -145zM170 961q-17 85 -14 145q74 10 143 4l-2 -145zM438 795q150 -89 232 -208.5t82 -248.5q0 -136 -58 -232q-91 -124 -303 -124q-146 0 -245 80.5t-99 224.5q0 128 61.5 247.5t196.5 243.5zM403 113q151 0 213 69q23 48 23 121
q0 210 -268 365q-215 -160 -215 -361q0 -92 68 -143t179 -51z" />
    <glyph glyph-name="uniFE94" unicode="&#x629;" horiz-adv-x="976" arabic-form="final" 
d="M721 1253q-17 85 -14 146q74 10 143 4l-2 -146zM465 1243q-17 85 -14 146q74 10 143 4l-2 -146zM977 0q-185 0 -269.5 62t-109.5 219q-115 -21 -188 -21q-178 0 -255 68.5t-77 177.5q0 37 12.5 77t48 90.5t91.5 97t151.5 95.5t218.5 88v107l135 16v-733q0 -120 52 -159.5
t190 -39.5q45 0 45 -71q0 -74 -45 -74zM420 399q99 0 180 17v407q-197 -54 -305.5 -134t-108.5 -152q0 -138 234 -138z" />
    <glyph glyph-name="uniFE95" unicode="&#x62a;" horiz-adv-x="1638" arabic-form="isolated" 
d="M973 877l-127 -5q-18 89 -15 146q75 10 144 4zM717 866l-127 -4q-18 89 -15 146q75 10 144 4zM1460 737q27 -284 27 -446q0 -100 -14 -160q-92 -84 -283 -119t-416 -35q-694 0 -694 402q0 134 49 278h119q-35 -104 -35 -215q0 -109 54 -177t184.5 -104t349.5 -36
q374 0 573 72q-9 257 -39 522z" />
    <glyph glyph-name="uniFE96" unicode="&#x62a;" horiz-adv-x="1769" arabic-form="final" 
d="M973 877l-127 -5q-18 89 -15 146q75 10 144 4zM717 866l-127 -4q-18 89 -15 146q75 10 144 4zM1769 145q46 0 46 -71q0 -74 -46 -74q-266 0 -360 166q-65 -67 -177.5 -111.5t-224.5 -61t-229 -16.5q-359 0 -528.5 94.5t-169.5 309.5q0 123 55 272h117q-35 -123 -35 -217
q0 -165 136 -238t450 -73q188 0 333.5 35.5t219.5 101.5q6 23 6 117v203l123 14v-203q0 -137 66 -192.5t218 -55.5z" />
    <glyph glyph-name="uniFE97" unicode="&#x62a;" horiz-adv-x="593" arabic-form="initial" 
d="M360 1059q75 10 144 4l-2 -145l-127 -5q-18 89 -15 146zM246 907l-127 -4q-18 89 -15 146q75 10 144 4zM258 721l127 16q25 -371 25 -461q0 -106 -19 -151q-46 -55 -159 -90t-232 -35q-24 0 -34.5 17.5t-10.5 56.5q0 37 10.5 54t34.5 17q183 0 297 50q-4 162 -39 526z
" />
    <glyph glyph-name="uniFE98" unicode="&#x62a;" horiz-adv-x="720" arabic-form="medial" 
d="M547 889l-127 -4q-17 85 -14 145q74 10 143 4zM291 879l-127 -5q-17 85 -14 146q74 10 143 4zM721 145q45 0 45 -71q0 -74 -45 -74q-263 0 -359 162q-45 -72 -140 -117t-222 -45q-24 0 -34.5 17.5t-10.5 56.5q0 37 10.5 54t34.5 17q103 0 186 29.5t123 87.5q4 25 4 117
v256l123 14v-256q0 -137 66.5 -192.5t218.5 -55.5z" />
    <glyph glyph-name="uniFE99" unicode="&#x62b;" horiz-adv-x="1638" arabic-form="isolated" 
d="M858 1116l-123 -4q-15 74 -12 139q71 10 137 4zM846 872q-18 89 -15 146q75 10 144 4l-2 -145zM717 866l-127 -4q-18 89 -15 146q75 10 144 4zM1460 737q27 -284 27 -446q0 -100 -14 -160q-92 -84 -283 -119t-416 -35q-694 0 -694 402q0 134 49 278h119
q-35 -104 -35 -215q0 -109 54 -177t184.5 -104t349.5 -36q374 0 573 72q-9 257 -39 522z" />
    <glyph glyph-name="uniFE9A" unicode="&#x62b;" horiz-adv-x="1769" arabic-form="final" 
d="M858 1116l-123 -4q-15 74 -12 139q71 10 137 4zM846 872q-18 89 -15 146q75 10 144 4l-2 -145zM717 866l-127 -4q-18 89 -15 146q75 10 144 4zM1769 145q46 0 46 -71q0 -74 -46 -74q-266 0 -360 166q-65 -67 -177.5 -111.5t-224.5 -61t-229 -16.5q-359 0 -528.5 94.5
t-169.5 309.5q0 123 55 272h117q-35 -123 -35 -217q0 -165 136 -238t450 -73q188 0 333.5 35.5t219.5 101.5q6 23 6 117v203l123 14v-203q0 -137 66 -192.5t218 -55.5z" />
    <glyph glyph-name="uniFE9B" unicode="&#x62b;" horiz-adv-x="593" arabic-form="initial" 
d="M387 1157l-123 -4q-15 74 -12 139q71 10 137 4zM360 1059q75 10 144 4l-2 -145l-127 -5q-18 89 -15 146zM246 907l-127 -4q-18 89 -15 146q75 10 144 4zM258 721l127 16q25 -371 25 -461q0 -106 -19 -151q-46 -55 -159 -90t-232 -35q-24 0 -34.5 17.5t-10.5 56.5
q0 37 10.5 54t34.5 17q183 0 297 50q-4 162 -39 526z" />
    <glyph glyph-name="uniFE9C" unicode="&#x62b;" horiz-adv-x="720" arabic-form="medial" 
d="M432 1128l-123 -4q-15 74 -12 140q71 10 137 4zM420 885q-17 85 -14 145q74 10 143 4l-2 -145zM291 879l-127 -5q-17 85 -14 146q74 10 143 4zM721 145q45 0 45 -71q0 -74 -45 -74q-263 0 -359 162q-45 -72 -140 -117t-222 -45q-24 0 -34.5 17.5t-10.5 56.5q0 37 10.5 54
t34.5 17q103 0 186 29.5t123 87.5q4 25 4 117v256l123 14v-256q0 -137 66.5 -192.5t218.5 -55.5z" />
    <glyph glyph-name="uniFE9D" unicode="&#x62c;" horiz-adv-x="1243" arabic-form="isolated" 
d="M1176 717l-23 -142q-490 -125 -721 -270.5t-231 -357.5q0 -120 71 -202t190.5 -119.5t280.5 -37.5q170 0 351 37l-7 -119q-182 -65 -382 -65q-285 0 -461 130t-176 353q0 232 206 405t605 298q-28 9 -119 40.5t-137.5 45.5t-127 28.5t-153.5 14.5q-97 0 -248 -60l21 142
q111 57 256 57q103 0 217 -28t198 -61t191.5 -61t198.5 -28zM659 -51q-17 85 -14 145q74 10 143 4l-2 -145z" />
    <glyph glyph-name="uniFE9E" unicode="&#x62c;" horiz-adv-x="1339" arabic-form="final" 
d="M1339 145q24 0 34.5 -17t10.5 -54q0 -39 -10.5 -56.5t-34.5 -17.5q-151 0 -239.5 49t-134 165.5t-54.5 322.5q-374 -114 -542 -256.5t-168 -323.5q0 -179 143.5 -274t400.5 -95q208 0 351 37l-6 -119q-175 -65 -383 -65q-156 0 -279 38.5t-201 105.5t-118.5 156
t-40.5 193q0 232 197 411t618 312q-26 8 -119 40.5t-139 46t-127 28t-154 14.5q-100 0 -248 -59l21 141q113 58 256 58q103 0 217 -28t198 -61t191.5 -61t198.5 -28l-23 -142l-143 -39q8 -168 40 -257t98.5 -127t188.5 -38zM596 -78q-17 85 -14 146q74 10 143 4l-2 -146z
" />
    <glyph glyph-name="uniFE9F" unicode="&#x62c;" horiz-adv-x="1286" arabic-form="initial" 
d="M420 756q103 0 217 -28t198 -61t191.5 -61t198.5 -28l-23 -142q-119 -45 -254 -111t-236 -118.5t-214.5 -102t-238.5 -77t-259 -27.5q-24 0 -34.5 17.5t-10.5 56.5q0 37 10.5 54t34.5 17q90 0 181.5 14t164 33t168 55.5t157.5 63.5t170 76t171 76q-57 15 -143.5 45
t-150 51.5t-153 39t-174.5 17.5q-100 0 -248 -59l21 141q113 58 256 58zM606 -43q75 10 144 4l-2 -145l-127 -4q-17 89 -15 145z" />
    <glyph glyph-name="uniFEA0" unicode="&#x62c;" horiz-adv-x="1380" arabic-form="medial" 
d="M1380 145q45 0 45 -71q0 -74 -45 -74q-91 0 -156 13t-109.5 37t-75.5 66.5t-49 91.5t-34 122q-59 -29 -155.5 -78.5t-154 -78.5t-145 -66t-157.5 -57.5t-161 -35t-183 -14.5q-24 0 -34.5 17.5t-10.5 56.5q0 37 10.5 54t34.5 17q90 0 181.5 14t164 33t168 55.5t157.5 63.5
t170 76t171 76q-57 15 -143.5 45t-150 51.5t-153 39t-174.5 17.5q-100 0 -248 -59l21 141q113 58 256 58q103 0 217 -28t198 -61t191.5 -61t198.5 -28l-23 -142q-98 -36 -162 -67q13 -57 21 -85t25 -58.5t36 -42t56 -23t82.5 -13.5t119.5 -2zM623 -61q74 10 143 4l-2 -146
l-127 -4q-17 85 -14 146z" />
    <glyph glyph-name="uniFEA1" unicode="&#x62d;" horiz-adv-x="1243" arabic-form="isolated" 
d="M1153 575q-490 -125 -721 -270.5t-231 -357.5q0 -120 71 -202t190.5 -119.5t280.5 -37.5q170 0 351 37l-7 -119q-182 -65 -382 -65q-285 0 -461 130t-176 353q0 232 206 405t605 298q-28 9 -119 40.5t-137.5 45.5t-127 28.5t-153.5 14.5q-97 0 -248 -60l21 142
q111 57 256 57q103 0 217 -28t198 -61t191.5 -61t198.5 -28z" />
    <glyph glyph-name="uniFEA2" unicode="&#x62d;" horiz-adv-x="1339" arabic-form="final" 
d="M1339 145q24 0 34.5 -17t10.5 -54q0 -39 -10.5 -56.5t-34.5 -17.5q-151 0 -239.5 49t-134 165.5t-54.5 322.5q-374 -114 -542 -256.5t-168 -323.5q0 -179 143.5 -274t400.5 -95q208 0 351 37l-6 -119q-175 -65 -383 -65q-156 0 -279 38.5t-201 105.5t-118.5 156
t-40.5 193q0 232 197 411t618 312q-26 8 -119 40.5t-139 46t-127 28t-154 14.5q-100 0 -248 -59l21 141q113 58 256 58q103 0 217 -28t198 -61t191.5 -61t198.5 -28l-23 -142l-143 -39q8 -168 40 -257t98.5 -127t188.5 -38z" />
    <glyph glyph-name="uniFEA3" unicode="&#x62d;" horiz-adv-x="1286" arabic-form="initial" 
d="M420 756q103 0 217 -28t198 -61t191.5 -61t198.5 -28l-23 -142q-119 -45 -254 -111t-236 -118.5t-214.5 -102t-238.5 -77t-259 -27.5q-24 0 -34.5 17.5t-10.5 56.5q0 37 10.5 54t34.5 17q90 0 181.5 14t164 33t168 55.5t157.5 63.5t170 76t171 76q-57 15 -143.5 45
t-150 51.5t-153 39t-174.5 17.5q-100 0 -248 -59l21 141q113 58 256 58z" />
    <glyph glyph-name="uniFEA4" unicode="&#x62d;" horiz-adv-x="1380" arabic-form="medial" 
d="M1380 145q45 0 45 -71q0 -74 -45 -74q-91 0 -156 13t-109.5 37t-75.5 66.5t-49 91.5t-34 122q-59 -29 -155.5 -78.5t-154 -78.5t-145 -66t-157.5 -57.5t-161 -35t-183 -14.5q-24 0 -34.5 17.5t-10.5 56.5q0 37 10.5 54t34.5 17q90 0 181.5 14t164 33t168 55.5t157.5 63.5
t170 76t171 76q-57 15 -143.5 45t-150 51.5t-153 39t-174.5 17.5q-100 0 -248 -59l21 141q113 58 256 58q103 0 217 -28t198 -61t191.5 -61t198.5 -28l-23 -142q-98 -36 -162 -67q13 -57 21 -85t25 -58.5t36 -42t56 -23t82.5 -13.5t119.5 -2z" />
    <glyph glyph-name="uniFEA5" unicode="&#x62e;" horiz-adv-x="1243" arabic-form="isolated" 
d="M567 1073l-127 -4q-17 85 -14 145q79 11 143 5zM1153 575q-490 -125 -721 -270.5t-231 -357.5q0 -120 71 -202t190.5 -119.5t280.5 -37.5q170 0 351 37l-7 -119q-182 -65 -382 -65q-285 0 -461 130t-176 353q0 232 206 405t605 298q-28 9 -119 40.5t-137.5 45.5
t-127 28.5t-153.5 14.5q-97 0 -248 -60l21 142q111 57 256 57q103 0 217 -28t198 -61t191.5 -61t198.5 -28z" />
    <glyph glyph-name="uniFEA6" unicode="&#x62e;" horiz-adv-x="1339" arabic-form="final" 
d="M569 1104l-127 -4q-17 85 -14 145q74 10 143 4zM1339 145q24 0 34.5 -17t10.5 -54q0 -39 -10.5 -56.5t-34.5 -17.5q-151 0 -239.5 49t-134 165.5t-54.5 322.5q-374 -114 -542 -256.5t-168 -323.5q0 -179 143.5 -274t400.5 -95q208 0 351 37l-6 -119q-175 -65 -383 -65
q-156 0 -279 38.5t-201 105.5t-118.5 156t-40.5 193q0 232 197 411t618 312q-26 8 -119 40.5t-139 46t-127 28t-154 14.5q-100 0 -248 -59l21 141q113 58 256 58q103 0 217 -28t198 -61t191.5 -61t198.5 -28l-23 -142l-143 -39q8 -168 40 -257t98.5 -127t188.5 -38z" />
    <glyph glyph-name="uniFEA7" unicode="&#x62e;" horiz-adv-x="1286" arabic-form="initial" 
d="M616 934l-127 -4q-17 85 -14 145q74 10 143 4zM420 756q103 0 217 -28t198 -61t191.5 -61t198.5 -28l-23 -142q-119 -45 -254 -111t-236 -118.5t-214.5 -102t-238.5 -77t-259 -27.5q-24 0 -34.5 17.5t-10.5 56.5q0 37 10.5 54t34.5 17q90 0 181.5 14t164 33t168 55.5
t157.5 63.5t170 76t171 76q-57 15 -143.5 45t-150 51.5t-153 39t-174.5 17.5q-100 0 -248 -59l21 141q113 58 256 58z" />
    <glyph glyph-name="uniFEA8" unicode="&#x62e;" horiz-adv-x="1380" arabic-form="medial" 
d="M616 934l-127 -4q-17 85 -14 145q74 10 143 4zM1380 145q45 0 45 -71q0 -74 -45 -74q-91 0 -156 13t-109.5 37t-75.5 66.5t-49 91.5t-34 122q-59 -29 -155.5 -78.5t-154 -78.5t-145 -66t-157.5 -57.5t-161 -35t-183 -14.5q-24 0 -34.5 17.5t-10.5 56.5q0 37 10.5 54
t34.5 17q90 0 181.5 14t164 33t168 55.5t157.5 63.5t170 76t171 76q-57 15 -143.5 45t-150 51.5t-153 39t-174.5 17.5q-100 0 -248 -59l21 141q113 58 256 58q103 0 217 -28t198 -61t191.5 -61t198.5 -28l-23 -142q-98 -36 -162 -67q13 -57 21 -85t25 -58.5t36 -42t56 -23
t82.5 -13.5t119.5 -2z" />
    <glyph glyph-name="uniFEA9" unicode="&#x62f;" horiz-adv-x="929" arabic-form="isolated" 
d="M74 152q135 -23 276 -23q259 0 381 31q-8 191 -112.5 374t-299.5 316l87 106q137 -94 238.5 -226t151.5 -271t50 -271q0 -65 -12 -139q-187 -65 -510 -65q-173 0 -273 20z" />
    <glyph glyph-name="uniFEAA" unicode="&#x62f;" horiz-adv-x="1007" arabic-form="final" 
d="M43 145q87 -10 186 -10q156 0 256 22.5t207 82.5l-266 721l131 14l223 -627q42 -121 97 -162t129 -41q47 0 47 -71q0 -74 -47 -74q-171 0 -267 147q-124 -89 -247 -124t-289 -35q-92 0 -160 18v139z" />
    <glyph glyph-name="uniFEAB" unicode="&#x630;" horiz-adv-x="929" arabic-form="isolated" 
d="M324 1145q-17 89 -15 145q75 10 144 4l-2 -145zM74 152q135 -23 276 -23q259 0 381 31q-8 191 -112.5 374t-299.5 316l87 106q137 -94 238.5 -226t151.5 -271t50 -271q0 -65 -12 -139q-187 -65 -510 -65q-173 0 -273 20z" />
    <glyph glyph-name="uniFEAC" unicode="&#x630;" horiz-adv-x="1007" arabic-form="final" 
d="M383 1143q-17 85 -14 145q74 10 143 4l-2 -145zM43 145q87 -10 186 -10q156 0 256 22.5t207 82.5l-266 721l131 14l223 -627q42 -121 97 -162t129 -41q47 0 47 -71q0 -74 -47 -74q-171 0 -267 147q-124 -89 -247 -124t-289 -35q-92 0 -160 18v139z" />
    <glyph glyph-name="uniFEAD" unicode="&#x631;" horiz-adv-x="559" arabic-form="isolated" 
d="M-102 -461q-19 0 -27 2l-16 127q196 0 315 134.5t141 385.5q-7 130 -67 387l133 23q47 -207 47 -385q0 -105 -22 -203.5t-66.5 -184t-106.5 -149.5t-147.5 -100.5t-183.5 -36.5z" />
    <glyph glyph-name="uniFEAE" unicode="&#x631;" horiz-adv-x="641" arabic-form="final" 
d="M641 145q24 0 34.5 -17t10.5 -54q0 -39 -10.5 -56.5t-34.5 -17.5q-78 0 -132 14.5t-97 53.5q-23 -145 -88.5 -260t-176 -186t-249.5 -71q-15 0 -27 3l-16 127q195 0 313.5 131.5t140.5 375.5q-5 114 -51 293l125 19q41 -154 41 -287v-20q57 -48 217 -48z" />
    <glyph glyph-name="uniFEAF" unicode="&#x632;" horiz-adv-x="559" arabic-form="isolated" 
d="M203 762q-17 89 -15 145q75 10 144 4l-2 -145zM-102 -461q-19 0 -27 2l-16 127q196 0 315 134.5t141 385.5q-7 130 -67 387l133 23q47 -207 47 -385q0 -105 -22 -203.5t-66.5 -184t-106.5 -149.5t-147.5 -100.5t-183.5 -36.5z" />
    <glyph glyph-name="uniFEB0" unicode="&#x632;" horiz-adv-x="641" arabic-form="final" 
d="M324 672l-127 -4q-17 89 -15 145q75 10 144 4zM641 145q24 0 34.5 -17t10.5 -54q0 -39 -10.5 -56.5t-34.5 -17.5q-78 0 -132 14.5t-97 53.5q-23 -145 -88.5 -260t-176 -186t-249.5 -71q-15 0 -27 3l-16 127q195 0 313.5 131.5t140.5 375.5q-5 114 -51 293l125 19
q41 -154 41 -287v-20q57 -48 217 -48z" />
    <glyph glyph-name="uniFEB1" unicode="&#x633;" horiz-adv-x="2357" arabic-form="isolated" 
d="M2136 629q37 -200 37 -449q0 -109 -16 -151q-46 -39 -211 -39q-134 0 -219.5 27.5t-133.5 93.5q-39 -62 -119.5 -92.5t-170.5 -30.5q-65 0 -107.5 13t-75.5 44q-5 -178 -18 -233q-75 -85 -212.5 -131t-303.5 -46q-237 0 -373.5 111t-136.5 338q0 166 67 334h111
q-47 -159 -47 -281q0 -183 103.5 -268.5t307.5 -85.5q244 0 386 94q4 27 4 84q0 63 -31 535l125 16l16 -225q7 -95 51 -127.5t154 -32.5q148 0 201 59q4 27 4 101l-2 243l123 9v-217q0 -110 70 -151.5t239 -41.5q69 0 98 10q0 242 -47 473z" />
    <glyph glyph-name="uniFEB2" unicode="&#x633;" horiz-adv-x="2428" arabic-form="final" 
d="M2429 145q45 0 45 -71q0 -74 -45 -74q-112 0 -180 22.5t-119 81.5q-43 -57 -118.5 -85.5t-168.5 -28.5q-176 0 -252 106q-38 -57 -117 -83.5t-171 -26.5q-123 0 -183 49q-5 -168 -18 -223q-75 -85 -212.5 -131t-303.5 -46q-237 0 -373.5 111t-136.5 338q0 166 67 334h111
q-47 -159 -47 -281q0 -183 101 -268.5t300 -85.5q253 0 396 96q4 25 4 82q0 65 -31 537l125 16l16 -233q7 -92 51 -124t152 -32q142 0 203 55q4 27 4 101l-2 249l121 9v-224q0 -105 51 -145.5t162 -40.5q138 0 190 49q4 35 4 148v241l121 11v-211q0 -49 4.5 -83.5t17.5 -60
t30 -40t48 -23.5t66 -12t88 -3z" />
    <glyph glyph-name="uniFEB3" unicode="&#x633;" horiz-adv-x="1624" arabic-form="initial" 
d="M1403 629q37 -200 37 -451q0 -106 -17 -151q-46 -39 -211 -39q-133 0 -220.5 27.5t-135.5 90.5q-38 -60 -117.5 -88t-169.5 -28q-92 0 -153.5 25.5t-100.5 84.5q-81 -100 -315 -100q-24 0 -34.5 17.5t-10.5 56.5q0 37 10.5 54t34.5 17q193 0 250 43q12 28 12 93v215
l123 8v-207q0 -96 48.5 -133t156.5 -37q152 0 192 59q11 25 11 88v256l122 9v-230q0 -103 70.5 -142.5t239.5 -39.5q69 0 98 10q0 244 -47 475z" />
    <glyph glyph-name="uniFEB4" unicode="&#x633;" horiz-adv-x="1697" arabic-form="medial" 
d="M1698 145q45 0 45 -71q0 -74 -45 -74q-112 0 -180 22.5t-119 81.5q-43 -57 -118.5 -85.5t-168.5 -28.5q-177 0 -252 108q-38 -54 -118.5 -80t-172.5 -26t-153.5 25.5t-100.5 84.5q-80 -102 -315 -102q-24 0 -34.5 17.5t-10.5 56.5q0 37 10.5 54t34.5 17q193 0 250 43
q12 28 12 93v215l123 8v-207q0 -95 49 -131.5t156 -36.5q143 0 203 51q4 27 4 101l-2 249l120 9v-224q0 -105 51 -145.5t162 -40.5q139 0 191 49q4 35 4 148v241l121 15v-215q0 -49 4.5 -83.5t17.5 -60t30 -40t48 -23.5t66 -12t88 -3z" />
    <glyph glyph-name="uniFEB5" unicode="&#x634;" horiz-adv-x="2357" arabic-form="isolated" 
d="M1665 995l-123 -4q-15 74 -12 139q75 11 137 5zM1653 752q-17 89 -15 145q75 10 144 4l-2 -145zM1524 745l-127 -4q-18 89 -15 146q75 10 144 4zM2136 629q37 -200 37 -449q0 -109 -16 -151q-46 -39 -211 -39q-134 0 -219.5 27.5t-133.5 93.5q-39 -62 -119.5 -92.5
t-170.5 -30.5q-65 0 -107.5 13t-75.5 44q-5 -178 -18 -233q-75 -85 -212.5 -131t-303.5 -46q-237 0 -373.5 111t-136.5 338q0 166 67 334h111q-47 -159 -47 -281q0 -183 103.5 -268.5t307.5 -85.5q244 0 386 94q4 27 4 84q0 63 -31 535l125 16l16 -225q7 -95 51 -127.5
t154 -32.5q148 0 201 59q4 27 4 101l-2 243l123 9v-217q0 -110 70 -151.5t239 -41.5q69 0 98 10q0 242 -47 473z" />
    <glyph glyph-name="uniFEB6" unicode="&#x634;" horiz-adv-x="2428" arabic-form="final" 
d="M1647 961l-123 -5q-16 78 -13 140q72 10 138 4zM1634 717q-17 85 -14 145q74 10 143 4l-2 -145zM1505 711l-127 -4q-17 85 -14 145q74 10 143 4zM2429 145q45 0 45 -71q0 -74 -45 -74q-112 0 -180 22.5t-119 81.5q-43 -57 -118.5 -85.5t-168.5 -28.5q-176 0 -252 106
q-38 -57 -117 -83.5t-171 -26.5q-123 0 -183 49q-5 -168 -18 -223q-75 -85 -212.5 -131t-303.5 -46q-237 0 -373.5 111t-136.5 338q0 166 67 334h111q-47 -159 -47 -281q0 -183 101 -268.5t300 -85.5q253 0 396 96q4 25 4 82q0 65 -31 537l125 16l16 -233q7 -92 51 -124
t152 -32q142 0 203 55q4 27 4 101l-2 249l121 9v-224q0 -105 51 -145.5t162 -40.5q138 0 190 49q4 35 4 148v241l121 11v-211q0 -49 4.5 -83.5t17.5 -60t30 -40t48 -23.5t66 -12t88 -3z" />
    <glyph glyph-name="uniFEB7" unicode="&#x634;" horiz-adv-x="1624" arabic-form="initial" 
d="M922 971l-123 -4q-16 78 -13 139q72 10 138 4zM909 727q-17 85 -14 145q79 11 143 5l-2 -146zM780 721l-127 -4q-17 85 -14 145q74 10 143 4zM1403 629q37 -200 37 -451q0 -106 -17 -151q-46 -39 -211 -39q-133 0 -220.5 27.5t-135.5 90.5q-38 -60 -117.5 -88t-169.5 -28
q-92 0 -153.5 25.5t-100.5 84.5q-81 -100 -315 -100q-24 0 -34.5 17.5t-10.5 56.5q0 37 10.5 54t34.5 17q193 0 250 43q12 28 12 93v215l123 8v-207q0 -96 48.5 -133t156.5 -37q152 0 192 59q11 25 11 88v256l122 9v-230q0 -103 70.5 -142.5t239.5 -39.5q69 0 98 10
q0 244 -47 475z" />
    <glyph glyph-name="uniFEB8" unicode="&#x634;" horiz-adv-x="1697" arabic-form="medial" 
d="M922 967l-123 -4q-16 78 -13 139q72 10 138 4zM909 723q-17 85 -14 145q74 10 143 4l-2 -145zM780 717l-127 -4q-17 85 -14 145q74 10 143 4zM1698 145q45 0 45 -71q0 -74 -45 -74q-112 0 -180 22.5t-119 81.5q-43 -57 -118.5 -85.5t-168.5 -28.5q-177 0 -252 108
q-38 -54 -118.5 -80t-172.5 -26t-153.5 25.5t-100.5 84.5q-80 -102 -315 -102q-24 0 -34.5 17.5t-10.5 56.5q0 37 10.5 54t34.5 17q193 0 250 43q12 28 12 93v215l123 8v-207q0 -95 49 -131.5t156 -36.5q143 0 203 51q4 27 4 101l-2 249l120 9v-224q0 -105 51 -145.5
t162 -40.5q139 0 191 49q4 35 4 148v241l121 15v-215q0 -49 4.5 -83.5t17.5 -60t30 -40t48 -23.5t66 -12t88 -3z" />
    <glyph glyph-name="uniFEB9" unicode="&#x635;" horiz-adv-x="2365" arabic-form="isolated" 
d="M1894 668q177 0 274 -111t97 -303q0 -123 -37 -170q-79 -46 -260 -73t-373 -27q-197 0 -302.5 28.5t-159.5 110.5v-78q0 -175 -23 -233q-75 -85 -215 -131t-309 -46q-236 0 -373 111t-137 336q0 168 67 336h111q-47 -159 -47 -283q0 -181 101 -266.5t300 -85.5
q247 0 398 96q2 25 2 82q0 98 -29 543l135 16q17 -218 94 -301q222 256 376.5 352.5t309.5 96.5zM2152 176q5 13 5 27q0 323 -304 323q-123 0 -256.5 -82.5t-304.5 -281.5q53 -21 125.5 -27t196.5 -6q306 0 538 47z" />
    <glyph glyph-name="uniFEBA" unicode="&#x635;" horiz-adv-x="2465" arabic-form="final" 
d="M2464 145q47 0 47 -71q0 -74 -47 -74q-216 0 -379 33q-213 -49 -490 -49q-197 0 -302.5 28.5t-159.5 110.5v-78q0 -175 -23 -233q-75 -85 -215 -131t-309 -46q-236 0 -373 111t-137 336q0 168 67 336h111q-47 -159 -47 -283q0 -181 101 -266.5t300 -85.5q247 0 398 96
q2 25 2 82q0 98 -29 543l135 16q17 -218 94 -301q222 256 376.5 352.5t309.5 96.5q177 0 274 -111t97 -303q0 -63 -8 -102q74 -7 207 -7zM1292 162q53 -21 125.5 -27t196.5 -6q306 0 538 47q5 13 5 27q0 323 -304 323q-123 0 -256.5 -82.5t-304.5 -281.5z" />
    <glyph glyph-name="uniFEBB" unicode="&#x635;" horiz-adv-x="1673" arabic-form="initial" 
d="M1202 668q177 0 274 -111t97 -303q0 -123 -37 -170q-79 -46 -260 -73t-373 -27q-240 0 -378 36t-201 111q-39 -59 -126 -95t-198 -36q-24 0 -34.5 17.5t-10.5 56.5q0 37 10.5 54t34.5 17q78 0 150.5 17.5t107.5 52.5q4 20 4 96v195l123 14v-194q0 -99 98 -144
q162 189 289 297t225 148.5t205 40.5zM1460 176q4 10 4 27q0 323 -303 323q-125 0 -260.5 -85t-310.5 -291q123 -21 332 -21q306 0 538 47z" />
    <glyph glyph-name="uniFEBC" unicode="&#x635;" horiz-adv-x="1773" arabic-form="medial" 
d="M1772 145q47 0 47 -71q0 -74 -47 -74q-213 0 -371 35q-209 -51 -498 -51q-240 0 -378 36t-201 111q-39 -59 -126 -95t-198 -36q-24 0 -34.5 17.5t-10.5 56.5q0 37 10.5 54t34.5 17q78 0 150.5 17.5t107.5 52.5q4 20 4 96v195l123 14v-194q0 -99 98 -144q162 189 289 297
t225 148.5t205 40.5q177 0 274 -111t97 -303q0 -61 -8 -100q74 -9 207 -9zM590 150q123 -21 332 -21q306 0 538 47q4 10 4 27q0 323 -303 323q-125 0 -260.5 -85t-310.5 -291z" />
    <glyph glyph-name="uniFEBD" unicode="&#x636;" horiz-adv-x="2365" arabic-form="isolated" 
d="M1819 846l-127 -4q-17 89 -15 145q75 10 144 4zM1894 668q177 0 274 -111t97 -303q0 -123 -37 -170q-79 -46 -260 -73t-373 -27q-197 0 -302.5 28.5t-159.5 110.5v-78q0 -175 -23 -233q-75 -85 -215 -131t-309 -46q-236 0 -373 111t-137 336q0 168 67 336h111
q-47 -159 -47 -283q0 -181 101 -266.5t300 -85.5q247 0 398 96q2 25 2 82q0 98 -29 543l135 16q17 -218 94 -301q222 256 376.5 352.5t309.5 96.5zM2152 176q5 13 5 27q0 323 -304 323q-123 0 -256.5 -82.5t-304.5 -281.5q53 -21 125.5 -27t196.5 -6q306 0 538 47z" />
    <glyph glyph-name="uniFEBE" unicode="&#x636;" horiz-adv-x="2465" arabic-form="final" 
d="M1819 846l-127 -4q-17 89 -15 145q75 10 144 4zM2464 145q47 0 47 -71q0 -74 -47 -74q-216 0 -379 33q-213 -49 -490 -49q-197 0 -302.5 28.5t-159.5 110.5v-78q0 -175 -23 -233q-75 -85 -215 -131t-309 -46q-236 0 -373 111t-137 336q0 168 67 336h111
q-47 -159 -47 -283q0 -181 101 -266.5t300 -85.5q247 0 398 96q2 25 2 82q0 98 -29 543l135 16q17 -218 94 -301q222 256 376.5 352.5t309.5 96.5q177 0 274 -111t97 -303q0 -63 -8 -102q74 -7 207 -7zM1292 162q53 -21 125.5 -27t196.5 -6q306 0 538 47q5 13 5 27
q0 323 -304 323q-123 0 -256.5 -82.5t-304.5 -281.5z" />
    <glyph glyph-name="uniFEBF" unicode="&#x636;" horiz-adv-x="1673" arabic-form="initial" 
d="M1126 846l-127 -4q-17 85 -14 145q74 10 143 4zM1202 668q177 0 274 -111t97 -303q0 -123 -37 -170q-79 -46 -260 -73t-373 -27q-240 0 -378 36t-201 111q-39 -59 -126 -95t-198 -36q-24 0 -34.5 17.5t-10.5 56.5q0 37 10.5 54t34.5 17q78 0 150.5 17.5t107.5 52.5
q4 20 4 96v195l123 14v-194q0 -99 98 -144q162 189 289 297t225 148.5t205 40.5zM1460 176q4 10 4 27q0 323 -303 323q-125 0 -260.5 -85t-310.5 -291q123 -21 332 -21q306 0 538 47z" />
    <glyph glyph-name="uniFEC0" unicode="&#x636;" horiz-adv-x="1773" arabic-form="medial" 
d="M1126 846l-127 -4q-17 85 -14 145q74 10 143 4zM1772 145q47 0 47 -71q0 -74 -47 -74q-213 0 -371 35q-209 -51 -498 -51q-240 0 -378 36t-201 111q-39 -59 -126 -95t-198 -36q-24 0 -34.5 17.5t-10.5 56.5q0 37 10.5 54t34.5 17q78 0 150.5 17.5t107.5 52.5q4 20 4 96
v195l123 14v-194q0 -99 98 -144q162 189 289 297t225 148.5t205 40.5q177 0 274 -111t97 -303q0 -61 -8 -100q74 -9 207 -9zM590 150q123 -21 332 -21q306 0 538 47q4 10 4 27q0 323 -303 323q-125 0 -260.5 -85t-310.5 -291z" />
    <glyph glyph-name="uniFEC1" unicode="&#x637;" horiz-adv-x="1406" arabic-form="isolated" 
d="M936 684q177 0 274 -111t97 -303q0 -123 -37 -170q-79 -46 -260 -73t-373 -27q-329 0 -584 29l-49 135q5 -1 174 -12q76 92 144 165v1170l129 16v-778q0 -59 -3.5 -165t-3.5 -120q144 136 258 190t234 54zM1194 193q4 10 4 26q0 324 -303 324q-128 0 -267.5 -90
t-320.5 -306q106 -2 348 -2q302 0 539 48z" />
    <glyph glyph-name="uniFEC2" unicode="&#x637;" horiz-adv-x="1509" arabic-form="final" 
d="M1507 145q47 0 47 -71q0 -74 -47 -74q-216 0 -415 41q-199 -41 -455 -41q-329 0 -584 29l-49 135q5 -1 174 -12q76 92 144 165v1170l129 16v-778q0 -59 -3.5 -165t-3.5 -120q144 136 258 190t234 54q177 0 274 -111t97 -303q0 -64 -13 -118q77 -7 213 -7zM307 147
q106 -2 348 -2q302 0 539 48q4 10 4 26q0 324 -303 324q-128 0 -267.5 -90t-320.5 -306z" />
    <glyph glyph-name="uniFEC3" unicode="&#x637;" horiz-adv-x="1304" arabic-form="initial" 
d="M834 684q177 0 273.5 -111t96.5 -303q0 -123 -37 -170q-79 -46 -259.5 -73t-372.5 -27h-535q-24 0 -34.5 17.5t-10.5 56.5q0 37 10.5 54t34.5 17h70q100 118 149 172v1178l129 16v-778q0 -109 -8 -293q145 136 259.5 190t234.5 54zM1092 193q4 10 4 26q0 324 -303 324
q-128 0 -267.5 -90t-322.5 -308h350q302 0 539 48z" />
    <glyph glyph-name="uniFEC4" unicode="&#x637;" horiz-adv-x="1406" arabic-form="medial" 
d="M1405 145q47 0 47 -71q0 -74 -47 -74q-233 0 -416 41q-199 -41 -454 -41h-535q-24 0 -34.5 17.5t-10.5 56.5q0 37 10.5 54t34.5 17h70q100 118 149 172v1178l129 16v-778q0 -109 -8 -293q145 136 259.5 190t234.5 54q177 0 273.5 -111t96.5 -303q0 -68 -12 -118
q77 -7 213 -7zM203 145h350q302 0 539 48q4 10 4 26q0 324 -303 324q-128 0 -267.5 -90t-322.5 -308z" />
    <glyph glyph-name="uniFEC5" unicode="&#x638;" horiz-adv-x="1406" arabic-form="isolated" 
d="M936 684q177 0 274 -111t97 -303q0 -123 -37 -170q-79 -46 -260 -73t-373 -27q-329 0 -584 29l-49 135q5 -1 174 -12q76 92 144 165v1170l129 16v-778q0 -59 -3.5 -165t-3.5 -120q144 136 258 190t234 54zM860 862l-127 -4q-17 85 -14 146q74 10 143 4zM1194 193
q4 10 4 26q0 324 -303 324q-128 0 -267.5 -90t-320.5 -306q106 -2 348 -2q302 0 539 48z" />
    <glyph glyph-name="uniFEC6" unicode="&#x638;" horiz-adv-x="1509" arabic-form="final" 
d="M1507 145q47 0 47 -71q0 -74 -47 -74q-216 0 -415 41q-199 -41 -455 -41q-329 0 -584 29l-49 135q5 -1 174 -12q76 92 144 165v1170l129 16v-778q0 -59 -3.5 -165t-3.5 -120q144 136 258 190t234 54q177 0 274 -111t97 -303q0 -64 -13 -118q77 -7 213 -7zM860 862
l-127 -4q-17 85 -14 146q74 10 143 4zM307 147q106 -2 348 -2q302 0 539 48q4 10 4 26q0 324 -303 324q-128 0 -267.5 -90t-320.5 -306z" />
    <glyph glyph-name="uniFEC7" unicode="&#x638;" horiz-adv-x="1304" arabic-form="initial" 
d="M834 684q177 0 273.5 -111t96.5 -303q0 -123 -37 -170q-79 -46 -259.5 -73t-372.5 -27h-535q-24 0 -34.5 17.5t-10.5 56.5q0 37 10.5 54t34.5 17h70q100 118 149 172v1178l129 16v-778q0 -109 -8 -293q145 136 259.5 190t234.5 54zM758 862l-127 -4q-18 89 -15 146
q75 10 144 4zM1092 193q4 10 4 26q0 324 -303 324q-128 0 -267.5 -90t-322.5 -308h350q302 0 539 48z" />
    <glyph glyph-name="uniFEC8" unicode="&#x638;" horiz-adv-x="1406" arabic-form="medial" 
d="M1405 145q47 0 47 -71q0 -74 -47 -74q-233 0 -416 41q-199 -41 -454 -41h-535q-24 0 -34.5 17.5t-10.5 56.5q0 37 10.5 54t34.5 17h70q100 118 149 172v1178l129 16v-778q0 -109 -8 -293q145 136 259.5 190t234.5 54q177 0 273.5 -111t96.5 -303q0 -68 -12 -118
q77 -7 213 -7zM758 862l-127 -4q-18 89 -15 146q75 10 144 4zM203 145h350q302 0 539 48q4 10 4 26q0 324 -303 324q-128 0 -267.5 -90t-322.5 -308z" />
    <glyph glyph-name="uniFEC9" unicode="&#x639;" horiz-adv-x="948" arabic-form="isolated" 
d="M676 -412q155 0 311 37l-2 -119q-165 -65 -356 -65q-273 0 -438.5 131t-165.5 328q0 134 83 257.5t240 209.5q-111 62 -174 166t-63 204q0 102 62 184t153 124t186 42q105 0 227 -53l-16 -127q-100 37 -221 37q-60 0 -115.5 -16.5t-102.5 -57.5t-63 -100
q-2 -97 64.5 -187.5t201.5 -136.5q206 69 328 93l-8 -131q-331 -78 -491 -202t-160 -286q0 -84 41.5 -149t114 -104t164.5 -59t200 -20z" />
    <glyph glyph-name="uniFECA" unicode="&#x639;" horiz-adv-x="1052" arabic-form="final" 
d="M684 -559q-116 0 -221.5 26.5t-190 76t-134.5 128.5t-50 176q0 130 86 241.5t275 229.5l-283 304l-57 32l18 115q81 38 199 63t233 25q107 0 228.5 -26t162.5 -70q17 -28 17 -80q0 -85 -94 -184.5t-236 -192.5q102 -100 189 -130t225 -30q47 0 47 -71q0 -74 -47 -74
q-163 0 -273.5 51t-251.5 189q-173 -108 -242 -186.5t-69 -174.5q0 -131 141.5 -211t366.5 -80q182 0 346 37l-2 -119q-189 -65 -383 -65zM553 379q114 69 201 151.5t104 141.5q-113 55 -321 55q-149 0 -271 -43z" />
    <glyph glyph-name="uniFECB" unicode="&#x639;" horiz-adv-x="1046" arabic-form="initial" 
d="M535 193q206 44 393 120l-8 -145q-216 -82 -426 -125t-494 -43q-24 0 -34.5 17.5t-10.5 56.5q0 37 10.5 54t34.5 17q163 0 336 17q-160 133 -160 311q0 102 58 184t145 124t182 42q113 0 248 -53l-16 -127q-110 37 -242 37q-56 0 -108.5 -15.5t-97.5 -54t-60 -94.5
q-3 -195 250 -323z" />
    <glyph glyph-name="uniFECC" unicode="&#x639;" horiz-adv-x="1052" arabic-form="medial" 
d="M0 0q-24 0 -34.5 17.5t-10.5 56.5q0 37 10.5 54t34.5 17q146 0 242.5 21t197.5 70l-286 301l-58 32l19 115q81 38 200 63t234 25q107 0 228.5 -26t162.5 -70q16 -26 16 -80q0 -147 -303 -375q68 -50 141 -63t257 -13q47 0 47 -71q0 -74 -47 -74q-207 0 -312 29t-209 112
q-152 -76 -261.5 -108.5t-268.5 -32.5zM551 289q111 74 195.5 156.5t101.5 140.5q-113 55 -322 55q-150 0 -272 -43z" />
    <glyph glyph-name="uniFECD" unicode="&#x63a;" horiz-adv-x="948" arabic-form="isolated" 
d="M453 1262q-17 89 -15 145q75 10 144 4l-2 -145zM676 -412q155 0 311 37l-2 -119q-165 -65 -356 -65q-273 0 -438.5 131t-165.5 328q0 134 83 257.5t240 209.5q-111 62 -174 166t-63 204q0 102 62 184t153 124t186 42q105 0 227 -53l-16 -127q-100 37 -221 37
q-60 0 -115.5 -16.5t-102.5 -57.5t-63 -100q-2 -97 64.5 -187.5t201.5 -136.5q206 69 328 93l-8 -131q-331 -78 -491 -202t-160 -286q0 -84 41.5 -149t114 -104t164.5 -59t200 -20z" />
    <glyph glyph-name="uniFECE" unicode="&#x63a;" horiz-adv-x="1052" arabic-form="final" 
d="M500 1032q-18 89 -15 146q75 10 144 4l-2 -146zM684 -559q-116 0 -221.5 26.5t-190 76t-134.5 128.5t-50 176q0 130 86 241.5t275 229.5l-283 304l-57 32l18 115q81 38 199 63t233 25q107 0 228.5 -26t162.5 -70q17 -28 17 -80q0 -85 -94 -184.5t-236 -192.5
q102 -100 189 -130t225 -30q47 0 47 -71q0 -74 -47 -74q-163 0 -273.5 51t-251.5 189q-173 -108 -242 -186.5t-69 -174.5q0 -131 141.5 -211t366.5 -80q182 0 346 37l-2 -119q-189 -65 -383 -65zM553 379q114 69 201 151.5t104 141.5q-113 55 -321 55q-149 0 -271 -43z" />
    <glyph glyph-name="uniFECF" unicode="&#x63a;" horiz-adv-x="1046" arabic-form="initial" 
d="M629 1001l-127 -4q-18 89 -15 146q75 10 144 4zM535 193q206 44 393 120l-8 -145q-216 -82 -426 -125t-494 -43q-24 0 -34.5 17.5t-10.5 56.5q0 37 10.5 54t34.5 17q163 0 336 17q-160 133 -160 311q0 102 58 184t145 124t182 42q113 0 248 -53l-16 -127q-110 37 -242 37
q-56 0 -108.5 -15.5t-97.5 -54t-60 -94.5q-3 -195 250 -323z" />
    <glyph glyph-name="uniFED0" unicode="&#x63a;" horiz-adv-x="1052" arabic-form="medial" 
d="M489 946q-17 85 -14 146q74 10 143 4l-2 -146zM0 0q-24 0 -34.5 17.5t-10.5 56.5q0 37 10.5 54t34.5 17q146 0 242.5 21t197.5 70l-286 301l-58 32l19 115q81 38 200 63t234 25q107 0 228.5 -26t162.5 -70q16 -26 16 -80q0 -147 -303 -375q68 -50 141 -63t257 -13
q47 0 47 -71q0 -74 -47 -74q-207 0 -312 29t-209 112q-152 -76 -261.5 -108.5t-268.5 -32.5zM551 289q111 74 195.5 156.5t101.5 140.5q-113 55 -322 55q-150 0 -272 -43z" />
    <glyph glyph-name="uniFED1" unicode="&#x641;" horiz-adv-x="1677" arabic-form="isolated" 
d="M1284 1176l-127 -5q-17 85 -14 146q74 10 143 4zM1217 997q67 0 128.5 -34.5t109.5 -97.5t77 -161.5t29 -216.5q0 -140 -22.5 -264t-51.5 -141q-74 -54 -277 -91.5t-450 -37.5q-335 0 -507.5 100.5t-172.5 300.5q0 135 49 279h119q-35 -104 -35 -215q0 -109 53 -177
t180.5 -104.5t339.5 -36.5q196 0 372.5 21t256.5 51q20 153 21 182q-90 1 -156.5 5t-130.5 14.5t-107 30t-77 49.5t-50 74t-16 102q0 89 36 171.5t110.5 139.5t171.5 57zM1004 655q0 -96 103 -132t333 -38q-3 171 -73 267t-171 96q-94 0 -143 -60.5t-49 -132.5z" />
    <glyph glyph-name="uniFED2" unicode="&#x641;" horiz-adv-x="1828" arabic-form="final" 
d="M1280 979q-17 85 -14 145q74 10 143 4l-2 -145zM707 -23q-298 0 -462.5 102t-164.5 300q0 134 49 278h119q-35 -104 -35 -215q0 -162 121.5 -239.5t398.5 -77.5q163 3 256 11.5t197 29.5q-174 102 -174 278q0 91 42.5 173.5t118.5 135t166 52.5q133 0 231.5 -102
t98.5 -240q0 -163 -172 -293q125 -27 262 -27h70q24 0 34.5 -17t10.5 -54q0 -39 -10.5 -56.5t-34.5 -17.5q-157 2 -276 19t-232 67q-152 -60 -287.5 -83.5t-326.5 -23.5zM1358 217q102 52 145 104t43 119q0 100 -72.5 163t-158.5 63q-81 0 -138 -58.5t-57 -140.5
q0 -75 55.5 -129.5t182.5 -120.5z" />
    <glyph glyph-name="uniFED3" unicode="&#x641;" horiz-adv-x="925" arabic-form="initial" 
d="M535 1176l-127 -5q-18 89 -15 146q75 10 144 4zM467 997q67 0 128.5 -34.5t109.5 -97.5t77 -161.5t29 -216.5q0 -143 -22.5 -282t-51.5 -156q-85 -49 -481 -49h-256q-24 0 -34.5 17.5t-10.5 56.5q0 37 10.5 54t34.5 17h272q287 0 392 17q18 99 22 192q-90 1 -156 5
t-130.5 14.5t-107.5 30t-76.5 49.5t-49.5 74t-16 102q0 66 21.5 130.5t60.5 118t100.5 86.5t134.5 33zM254 655q0 -96 103 -132t333 -38q-3 171 -73 267t-171 96q-94 0 -143 -60.5t-49 -132.5z" />
    <glyph glyph-name="uniFED4" unicode="&#x641;" horiz-adv-x="968" arabic-form="medial" 
d="M420 979q-17 85 -14 145q74 10 143 4l-2 -145zM0 0q-24 0 -34.5 17.5t-10.5 56.5q0 37 10.5 54t34.5 17q191 2 326 21q-174 102 -174 278q0 91 42.5 173.5t118.5 135t166 52.5q133 0 231.5 -102t98.5 -240q0 -163 -172 -293q132 -25 262 -25h70q24 0 34.5 -17t10.5 -54
q0 -39 -10.5 -56.5t-34.5 -17.5q-312 3 -508 80q-125 -44 -224.5 -62t-236.5 -18zM498 217q102 52 145 104t43 119q0 100 -72.5 163t-158.5 63q-81 0 -138 -58.5t-57 -140.5q0 -75 55.5 -129.5t182.5 -120.5z" />
    <glyph glyph-name="uniFED5" unicode="&#x642;" horiz-adv-x="1333" arabic-form="isolated" 
d="M1083 856l-127 -4q-17 85 -14 145q74 10 143 4zM827 846l-127 -4q-17 85 -14 145q74 10 143 4zM903 668q67 0 129.5 -35t112 -99.5t79 -164t29.5 -219.5q0 -132 -26.5 -245t-61.5 -163q-25 -31 -62 -60.5t-98.5 -63.5t-155 -54.5t-204.5 -20.5q-289 0 -429 140t-140 389
q0 195 65 372h111q-45 -170 -45 -333q0 -210 116.5 -314t358.5 -104q278 0 416 153q20 90 28 162q-92 1 -159 5t-132 15t-108 31t-77 50.5t-50 75.5t-16 104q0 92 36 177t110.5 143.5t172.5 58.5zM688 315q0 -99 105.5 -136.5t339.5 -39.5q-1 178 -74 278.5t-176 100.5
q-95 0 -145 -63.5t-50 -139.5z" />
    <glyph glyph-name="uniFED6" unicode="&#x642;" horiz-adv-x="1400" arabic-form="final" 
d="M1083 856l-127 -4q-17 85 -14 145q74 10 143 4zM827 846l-127 -4q-17 85 -14 145q74 10 143 4zM1399 145q47 0 47 -71q0 -74 -47 -74h-156q-21 -175 -78 -258q-25 -31 -62 -60.5t-98.5 -63.5t-155 -54.5t-204.5 -20.5q-289 0 -429 140t-140 389q0 195 65 372h111
q-45 -170 -45 -333q0 -210 116.5 -314t358.5 -104q278 0 416 153q20 90 28 162q-92 1 -159 5t-132 15t-108 31t-77 50.5t-50 75.5t-16 104q0 92 36 177t110.5 143.5t172.5 58.5q67 0 129.5 -35t112 -99.5t79 -164t29.5 -219.5v-5h146zM688 315q0 -99 105.5 -136.5
t339.5 -39.5q-1 178 -74 278.5t-176 100.5q-95 0 -145 -63.5t-50 -139.5z" />
    <glyph glyph-name="uniFED7" unicode="&#x642;" horiz-adv-x="925" arabic-form="initial" 
d="M647 1186l-127 -4q-17 85 -14 145q74 10 143 4zM391 1176l-127 -5q-17 85 -14 146q74 10 143 4zM467 997q67 0 128.5 -34.5t109.5 -97.5t77 -161.5t29 -216.5q0 -143 -22.5 -282t-51.5 -156q-85 -49 -481 -49h-256q-24 0 -34.5 17.5t-10.5 56.5q0 37 10.5 54t34.5 17h272
q287 0 392 17q18 99 22 192q-90 1 -156 5t-130.5 14.5t-107.5 30t-76.5 49.5t-49.5 74t-16 102q0 66 21.5 130.5t60.5 118t100.5 86.5t134.5 33zM254 655q0 -96 103 -132t333 -38q-3 171 -73 267t-171 96q-94 0 -143 -60.5t-49 -132.5z" />
    <glyph glyph-name="uniFED8" unicode="&#x642;" horiz-adv-x="968" arabic-form="medial" 
d="M532 989q-17 85 -14 146q75 10 144 4l-3 -146zM276 979q-17 85 -14 145q75 10 144 4l-3 -145zM0 0q-24 0 -34.5 17.5t-10.5 56.5q0 37 10.5 54t34.5 17q191 2 326 21q-174 102 -174 278q0 91 42.5 173.5t118.5 135t166 52.5q133 0 231.5 -102t98.5 -240q0 -163 -172 -293
q132 -25 262 -25h70q24 0 34.5 -17t10.5 -54q0 -39 -10.5 -56.5t-34.5 -17.5q-312 3 -508 80q-125 -44 -224.5 -62t-236.5 -18zM498 217q102 52 145 104t43 119q0 100 -72.5 163t-158.5 63q-81 0 -138 -58.5t-57 -140.5q0 -75 55.5 -129.5t182.5 -120.5z" />
    <glyph glyph-name="uniFED9" unicode="&#x643;" horiz-adv-x="1574" arabic-form="isolated" 
d="M1229 1487l133 16v-1134q0 -154 -16 -238q-60 -58 -176.5 -94t-231 -48t-242.5 -12q-321 0 -468.5 83t-147.5 294q0 120 49 252h119q-35 -104 -35 -213q0 -100 48.5 -157.5t157 -84t298.5 -26.5q327 0 510 63q2 47 2 138v1161zM940 639q-68 -12 -192.5 -15t-196.5 5v71
h317l-268 236v80l340 145v-82l-258 -106l236 -209q30 -28 30 -76q0 -25 -8 -49z" />
    <glyph glyph-name="uniFEDA" unicode="&#x643;" horiz-adv-x="1650" arabic-form="final" 
d="M1651 145q45 0 45 -71q0 -74 -45 -74q-147 0 -231 42t-117 144q-108 -106 -284 -157.5t-343 -51.5q-152 0 -258.5 18t-184.5 61t-115.5 116.5t-37.5 181.5q0 120 49 252h119q-35 -104 -35 -213q0 -148 108.5 -208t374.5 -60q159 0 318.5 44.5t267.5 131.5q-2 18 -2 57
v1129l123 16v-1130q0 -53 5.5 -90t19.5 -62.5t31 -40.5t48.5 -23t62.5 -10t81 -2zM940 639q-68 -12 -192.5 -15t-196.5 5v71h317l-268 236v80l340 145v-82l-258 -106l236 -209q30 -28 30 -76q0 -25 -8 -49z" />
    <glyph glyph-name="uniFEDB" unicode="&#x643;" horiz-adv-x="811" arabic-form="initial" 
d="M725 201q0 -65 -18 -109q-39 -45 -227 -68.5t-480 -23.5q-24 0 -34.5 17.5t-10.5 56.5q0 37 10.5 54t34.5 17q269 0 396.5 6.5t211.5 28.5q7 365 -434 705l-88 45v88l625 489l12 -151l-459 -361q461 -365 461 -794z" />
    <glyph glyph-name="uniFEDC" unicode="&#x643;" horiz-adv-x="909" arabic-form="medial" 
d="M0 0q-24 0 -34.5 17.5t-10.5 56.5q0 37 10.5 54t34.5 17q193 0 302.5 22t234.5 87l-443 649v103l670 503l12 -151l-557 -408l477 -696q45 -65 86.5 -87t124.5 -22q47 0 47 -71q0 -74 -47 -74q-108 0 -172 34.5t-141 133.5q-219 -168 -594 -168z" />
    <glyph glyph-name="uniFEDD" unicode="&#x644;" horiz-adv-x="1306" arabic-form="isolated" 
d="M971 1487l133 16v-1458q0 -175 -23 -233q-73 -85 -204 -131t-293 -46q-114 0 -206 26.5t-160 80t-105 140t-37 200.5q0 168 67 336h111q-47 -159 -47 -283q0 -181 100.5 -266.5t298.5 -85.5q226 0 363 90q2 27 2 88v1526z" />
    <glyph glyph-name="uniFEDE" unicode="&#x644;" horiz-adv-x="1361" arabic-form="final" 
d="M1362 145q45 0 45 -71q0 -74 -45 -74q-173 0 -258 104v-59q0 -175 -23 -233q-73 -85 -204 -131t-293 -46q-114 0 -206 26.5t-160 80t-105 140t-37 200.5q0 168 67 336h111q-47 -159 -47 -283q0 -181 100.5 -266.5t298.5 -85.5q226 0 363 90q2 27 2 88v1526l133 16v-1132
q13 -125 72.5 -175.5t185.5 -50.5z" />
    <glyph glyph-name="uniFEDF" unicode="&#x644;" horiz-adv-x="585" arabic-form="initial" 
d="M0 0q-24 0 -34.5 17.5t-10.5 56.5q0 37 10.5 54t34.5 17q141 0 240 11v1331l133 16v-1220q0 -75 -12.5 -143.5t-28.5 -104.5q-79 -35 -332 -35z" />
    <glyph glyph-name="uniFEE0" unicode="&#x644;" horiz-adv-x="618" arabic-form="medial" 
d="M618 145q46 0 46 -71q0 -74 -46 -74q-236 0 -321 141q-80 -141 -297 -141q-24 0 -34.5 17.5t-10.5 56.5q0 37 10.5 54t34.5 17q76 0 143.5 22t100.5 64q4 27 4 127v1129l123 16v-1130q0 -70 15 -115.5t48 -70t75.5 -33.5t108.5 -9z" />
    <glyph glyph-name="uniFEE1" unicode="&#x645;" horiz-adv-x="905" arabic-form="isolated" 
d="M483 666q153 0 256 -133t103 -330q0 -132 -56 -185q-79 -20 -301 -20q-163 0 -295 -6v-551l-133 -19v451q0 77 11 145.5t26 102.5q38 9 99 12q-21 116 -21 172q0 159 88.5 260t222.5 101zM723 145q2 6 2 27q0 59 -15.5 117.5t-46 110.5t-82.5 84t-118 32
q-78 0 -131 -52.5t-53 -137.5q0 -92 26 -187q59 2 201 2q205 0 217 4z" />
    <glyph glyph-name="uniFEE2" unicode="&#x645;" horiz-adv-x="1015" arabic-form="final" 
d="M1014 145q47 0 47 -71q0 -74 -47 -74q-85 0 -130 24.5t-81 88.5q-31 -56 -80 -80q-63 -31 -229 -31q-184 0 -304 -8v-553l-133 -19v451q0 77 11 145.5t26 102.5q48 11 105 16q-23 130 -23 180q0 155 87.5 252t221.5 97q59 0 109 -18.5t85.5 -47.5t67 -74.5t52.5 -88
t43 -99.5q46 -117 76 -155t96 -38zM516 147q86 0 141 11t101 45q-5 11 -14.5 32t-12.5 29q-23 52 -37 81t-39 67.5t-49.5 58.5t-60.5 34.5t-80 14.5q-78 0 -130 -47t-52 -125q0 -94 30 -205q59 4 203 4z" />
    <glyph glyph-name="uniFEE3" unicode="&#x645;" horiz-adv-x="989" arabic-form="initial" 
d="M547 696q112 0 201.5 -67t135.5 -173t46 -227q0 -150 -74 -217q-53 -30 -158 -30q-115 0 -220.5 34t-256.5 123q-47 -87 -92.5 -113t-128.5 -26q-45 0 -45 74q0 37 10.5 54t34.5 17q45 0 72.5 10.5t50.5 37.5q11 15 59 126q73 169 100 216q64 110 152 143q49 18 113 18z
M784 143q13 22 13 64q0 139 -78 241.5t-193 102.5q-35 0 -62.5 -11t-48.5 -29t-44 -56t-40.5 -75t-45.5 -104l-4 -10q147 -78 238 -106.5t188 -28.5q53 0 77 12z" />
    <glyph glyph-name="uniFEE4" unicode="&#x645;" horiz-adv-x="1069" arabic-form="medial" 
d="M1067 145q47 0 47 -71q0 -74 -47 -74q-84 0 -129 23t-80 83q-33 -64 -86 -90q-69 -34 -180 -34q-99 0 -189.5 35t-199.5 112q-38 -71 -82.5 -100t-120.5 -29q-24 0 -34.5 17.5t-10.5 56.5q0 37 10.5 54t34.5 17q53 0 80 15q28 30 92 172q34 77 58 124.5t57 97t65 75.5
t76 42.5t98 16.5q37 0 69.5 -6.5t58.5 -15.5t51 -28.5t41.5 -33.5t37 -44.5t31 -47.5t28.5 -55.5t26 -56.5t26 -62q49 -116 70 -144q40 -47 102 -49zM629 131q118 0 184 68q-15 30 -29 65q-19 45 -28.5 66.5t-28 58t-31 53.5t-33.5 40.5t-42 34t-49 18.5t-60 8q-30 0 -55 -7
t-46.5 -24.5t-37.5 -35.5t-35 -53t-32.5 -63t-35.5 -79l-8 -21q119 -71 197.5 -100t169.5 -29z" />
    <glyph glyph-name="uniFEE5" unicode="&#x646;" horiz-adv-x="1234" arabic-form="isolated" 
d="M668 659l-127 -4q-18 89 -15 146q75 10 144 4zM1114 520q19 -318 19 -475q0 -175 -23 -233q-75 -85 -215 -131t-309 -46q-236 0 -373 111t-137 336q0 168 67 336h111q-47 -159 -47 -283q0 -181 101 -266.5t300 -85.5q247 0 398 96q2 25 2 82q0 98 -29 543z" />
    <glyph glyph-name="uniFEE6" unicode="&#x646;" horiz-adv-x="1409" arabic-form="final" 
d="M668 659l-127 -4q-18 89 -15 146q75 10 144 4zM1409 145q45 0 45 -71q0 -74 -45 -74q-185 0 -276 98v-53q0 -175 -23 -233q-75 -85 -215 -131t-309 -46q-236 0 -373 111t-137 336q0 168 67 336h111q-47 -159 -47 -283q0 -181 101 -266.5t300 -85.5q247 0 398 96
q2 25 2 82q0 98 -29 543l135 16q4 -46 8 -149q13 -125 78 -175.5t209 -50.5z" />
    <glyph glyph-name="uniFEE7" unicode="&#x646;" horiz-adv-x="593" arabic-form="initial" 
d="M389 907l-127 -4q-17 85 -14 146q74 10 143 4zM385 737q25 -371 25 -461q0 -106 -19 -151q-46 -55 -159 -90t-232 -35q-24 0 -34.5 17.5t-10.5 56.5q0 37 10.5 54t34.5 17q183 0 297 50q-4 162 -39 526z" />
    <glyph glyph-name="uniFEE8" unicode="&#x646;" horiz-adv-x="720" arabic-form="medial" 
d="M434 879l-127 -5q-17 85 -14 146q74 10 143 4zM721 145q45 0 45 -71q0 -74 -45 -74q-263 0 -359 162q-45 -72 -140 -117t-222 -45q-24 0 -34.5 17.5t-10.5 56.5q0 37 10.5 54t34.5 17q103 0 186 29.5t123 87.5q4 25 4 117v256l123 14v-256q0 -137 66.5 -192.5
t218.5 -55.5z" />
    <glyph glyph-name="uniFEE9" unicode="&#x647;" horiz-adv-x="804" arabic-form="isolated" 
d="M438 795q150 -89 232 -208.5t82 -248.5q0 -136 -58 -232q-91 -124 -303 -124q-146 0 -245 80.5t-99 224.5q0 128 61.5 247.5t196.5 243.5zM403 113q151 0 213 69q23 48 23 121q0 210 -268 365q-215 -160 -215 -361q0 -92 68 -143t179 -51z" />
    <glyph glyph-name="uniFEEA" unicode="&#x647;" horiz-adv-x="976" arabic-form="final" 
d="M977 0q-185 0 -269.5 62t-109.5 219q-115 -21 -188 -21q-178 0 -255 68.5t-77 177.5q0 37 12.5 77t48 90.5t91.5 97t151.5 95.5t218.5 88v107l135 16v-733q0 -120 52 -159.5t190 -39.5q45 0 45 -71q0 -74 -45 -74zM420 399q99 0 180 17v407q-197 -54 -305.5 -134
t-108.5 -152q0 -138 234 -138z" />
    <glyph glyph-name="uniFEEB" unicode="&#x647;" horiz-adv-x="1175" arabic-form="initial" 
d="M895 -2q-120 0 -226.5 29t-232.5 86q-126 -59 -227.5 -84.5t-208.5 -28.5q-24 0 -34.5 17.5t-10.5 56.5q0 37 10.5 54t34.5 17q156 3 305 52q-91 60 -134.5 128.5t-43.5 159.5q0 80 36 154.5t107 128.5l-104 47l57 117q404 -138 629 -273q131 -81 188.5 -186.5
t57.5 -239.5q0 -75 -20.5 -130t-51.5 -78q-42 -27 -131 -27zM457 252q79 28 136.5 89t57.5 130q0 111 -66.5 172.5t-158.5 61.5q-88 0 -140.5 -58t-52.5 -141q0 -75 56 -137t168 -117zM909 133q39 0 58 8q12 19 12 64q0 238 -227 358q8 -31 8 -63q0 -95 -37.5 -166.5
t-130.5 -136.5q161 -64 317 -64z" />
    <glyph glyph-name="uniFEEC" unicode="&#x647;" horiz-adv-x="937" arabic-form="medial" 
d="M938 145q24 0 34.5 -17t10.5 -54q0 -39 -10.5 -56.5t-34.5 -17.5q-126 0 -160 4q63 -31 97 -75.5t34 -88.5q0 -94 -22 -147q-81 -166 -322 -166q-84 0 -158.5 28t-136 83.5t-102.5 148t-53 213.5h-115q-24 0 -34.5 17.5t-10.5 56.5q0 37 10.5 54t34.5 17h113
q8 139 58.5 264.5t140 208t196.5 82.5q129 0 209 -83t80 -193q0 -102 -47 -170.5t-134 -118.5l191 10h131zM487 553q-102 0 -178 -122.5t-84 -285.5q210 8 332.5 69.5t122.5 176.5q0 77 -54 119.5t-139 42.5zM801 -201q3 46 -49.5 99.5t-141.5 92.5t-180 44
q-160 -24 -201 -27q21 -157 109 -245.5t240 -88.5q101 0 157.5 33.5t65.5 91.5z" />
    <glyph glyph-name="uniFEED" unicode="&#x648;" horiz-adv-x="864" arabic-form="isolated" 
d="M446 664q67 0 130 -35.5t112.5 -99.5t79 -164t29.5 -220q0 -304 -182 -456t-509 -152l-14 129q261 11 400 90t174 248q-91 1 -157.5 5t-131 15t-107.5 31t-77 50.5t-50 75.5t-16 104q0 92 36 177t110.5 143.5t172.5 58.5zM231 311q0 -99 105.5 -136.5t339.5 -39.5
q-1 179 -72 279t-178 100q-95 0 -145 -63.5t-50 -139.5z" />
    <glyph glyph-name="uniFEEE" unicode="&#x648;" horiz-adv-x="937" arabic-form="final" 
d="M936 145q47 0 47 -71q0 -74 -47 -74h-152q-42 -232 -217.5 -347.5t-460.5 -115.5l-14 129q261 11 400 90t174 248q-91 1 -157.5 5t-131 15t-107.5 31t-77 50.5t-50 75.5t-16 104q0 92 36 177t110.5 143.5t172.5 58.5q67 0 130 -35.5t112.5 -99.5t79 -164t29.5 -220h139z
M231 311q0 -99 105.5 -136.5t339.5 -39.5q-1 179 -72 279t-178 100q-95 0 -145 -63.5t-50 -139.5z" />
    <glyph glyph-name="uniFEEF" unicode="&#x649;" horiz-adv-x="1388" arabic-form="isolated" 
d="M991 276q129 -31 195.5 -70t92.5 -96t26 -155q0 -97 -37 -176q-92 -114 -250.5 -175t-358.5 -61q-303 0 -443 139t-140 390q0 195 65 372h111q-45 -170 -45 -333q0 -212 117.5 -315t365.5 -103q160 0 288.5 42t199.5 124q14 32 14 63q0 46 -8 75.5t-32.5 58t-73.5 48.5
t-128 37q-99 24 -157.5 46t-106 56.5t-67 84t-19.5 121.5q0 154 126.5 265t313.5 111q124 0 240 -53l-16 -127q-102 37 -242 37q-130 0 -222.5 -64.5t-92.5 -144.5q0 -79 56 -115.5t228 -81.5z" />
    <glyph glyph-name="uniFEF0" unicode="&#x649;" horiz-adv-x="1296" arabic-form="final" 
d="M1341 74q0 -38 -8.5 -55.5t-29.5 -18.5q2 -10 2 -45q0 -97 -37 -176q-92 -114 -251 -175t-360 -61q-301 0 -441 139t-140 390q0 195 65 372h111q-45 -170 -45 -333q0 -212 117.5 -315t363.5 -103q162 0 290 42t200 124q14 32 14 63q0 55 -10 86q-169 0 -338 10l24 134
q175 -7 428 -7q24 0 34.5 -17t10.5 -54z" />
    <glyph glyph-name="uniFEF1" unicode="&#x64a;" horiz-adv-x="1388" arabic-form="isolated" 
d="M991 276q129 -31 195.5 -70t92.5 -96t26 -155q0 -97 -37 -176q-92 -114 -250.5 -175t-358.5 -61q-303 0 -443 139t-140 390q0 195 65 372h111q-45 -170 -45 -333q0 -212 117.5 -315t365.5 -103q160 0 288.5 42t199.5 124q14 32 14 63q0 46 -8 75.5t-32.5 58t-73.5 48.5
t-128 37q-99 24 -157.5 46t-106 56.5t-67 84t-19.5 121.5q0 154 126.5 265t313.5 111q124 0 240 -53l-16 -127q-102 37 -242 37q-130 0 -222.5 -64.5t-92.5 -144.5q0 -79 56 -115.5t228 -81.5zM455 -801q-18 89 -15 146q75 10 144 4l-2 -146zM711 -801q-18 89 -15 146
q75 10 144 4l-2 -146z" />
    <glyph glyph-name="uniFEF2" unicode="&#x64a;" horiz-adv-x="1296" arabic-form="final" 
d="M1341 74q0 -38 -8.5 -55.5t-29.5 -18.5q2 -10 2 -45q0 -97 -37 -176q-92 -114 -251 -175t-360 -61q-301 0 -441 139t-140 390q0 195 65 372h111q-45 -170 -45 -333q0 -212 117.5 -315t363.5 -103q162 0 290 42t200 124q14 32 14 63q0 55 -10 86q-169 0 -338 10l24 134
q175 -7 428 -7q24 0 34.5 -17t10.5 -54zM440 -655q75 10 144 4l-2 -146l-127 -4q-18 89 -15 146zM696 -655q75 10 144 4l-2 -146l-127 -4q-18 89 -15 146z" />
    <glyph glyph-name="uniFEF3" unicode="&#x64a;" horiz-adv-x="593" arabic-form="initial" 
d="M385 737q25 -371 25 -461q0 -106 -19 -151q-46 -55 -159 -90t-232 -35q-24 0 -34.5 17.5t-10.5 56.5q0 37 10.5 54t34.5 17q183 0 297 50q-4 162 -39 526zM-18 -199q74 10 143 4l-2 -145l-127 -4q-17 85 -14 145zM238 -199q74 10 143 4l-2 -145l-127 -4q-17 85 -14 145z
" />
    <glyph glyph-name="uniFEF4" unicode="&#x64a;" horiz-adv-x="720" arabic-form="medial" 
d="M721 145q45 0 45 -71q0 -74 -45 -74q-263 0 -359 162q-45 -72 -140 -117t-222 -45q-24 0 -34.5 17.5t-10.5 56.5q0 37 10.5 54t34.5 17q103 0 186 29.5t123 87.5q4 25 4 117v256l123 14v-256q0 -137 66.5 -192.5t218.5 -55.5zM121 -199q74 10 143 4l-2 -145l-127 -4
q-17 85 -14 145zM377 -199q74 10 143 4l-2 -145l-127 -4q-17 85 -14 145z" />
    <glyph glyph-name=".notdef" horiz-adv-x="1619" 
d="M182 0v1597h1256v-1597h-1256zM238 55h1146v1487h-1146v-1487zM766 596q-10 73 -10 82q0 46 21.5 86.5t58.5 87.5l6 9q48 67 52 97q1 2 1 5q2 39 -45 65t-148 39l27 55q110 -6 173 -46t63 -103q0 -15 -3.5 -29.5t-13.5 -33t-15 -26.5t-22 -32.5t-20 -28.5
q-5 -7 -17.5 -23.5t-17 -23t-13.5 -20t-12 -21t-8 -18.5t-6.5 -21.5t-1.5 -21.5q0 -9 3 -40.5t3 -37.5h-55zM762 408q-5 36 -8 77q25 4 82 4q0 -13 -5 -81h-69z" />
    <glyph glyph-name=".null" horiz-adv-x="0" 
 />
    <glyph glyph-name="nonmarkingreturn" horiz-adv-x="682" 
 />
    <glyph glyph-name="space" unicode=" " horiz-adv-x="428" 
 />
    <glyph glyph-name="exclam" unicode="!" horiz-adv-x="612" 
d="M254 393l-23 1037l164 18l-22 -1055h-119zM250 0q-15 104 -17 154q55 12 164 8q0 -77 -10 -162h-137z" />
    <glyph glyph-name="quotedbl" unicode="&#x22;" horiz-adv-x="753" 
d="M156 756l-25 590h148l-25 -590h-98zM500 756l-25 590h148l-25 -590h-98z" />
    <glyph glyph-name="numbersign" unicode="#" horiz-adv-x="1263" 
d="M1194 821h-223l-68 -358h219l-20 -98h-219l-70 -365h-121l70 365h-338l-70 -365h-121l70 365h-254l21 98h254l67 358h-248l21 99h248l63 331l123 15l-68 -346h340l64 331l123 15l-68 -346h225zM782 463l68 358h-338l-68 -358h338z" />
    <glyph glyph-name="dollar" unicode="$" horiz-adv-x="940" 
d="M821 291q0 -116 -71 -193t-205 -100l-4 -203h-135l-5 193q-143 3 -264 35l15 122q131 -39 303 -39q127 0 186 50q43 40 43 104q0 47 -31 87.5t-80 72t-109 61.5t-119.5 63t-108.5 70t-80 90t-31 115q0 100 74.5 168.5t201.5 93.5l5 199h135l2 -186q120 0 252 -29
l-13 -125q-127 37 -262 37q-81 0 -142.5 -14t-84.5 -37q-31 -38 -31 -80q0 -45 31 -83.5t80 -68.5t109 -59t119.5 -62.5t108.5 -71t80 -92t31 -118.5z" />
    <glyph glyph-name="percent" unicode="%" horiz-adv-x="1290" 
d="M326 694q-125 0 -201 78.5t-76 204.5q0 132 81 209.5t210 77.5q124 0 196 -76.5t72 -202.5q0 -130 -78 -210.5t-204 -80.5zM205 -18l-139 22l1007 1251l139 -22zM342 801q63 0 102 39q31 57 31 131q0 184 -156 184q-56 0 -98 -31q-39 -55 -39 -137q0 -90 42 -138t118 -48
zM958 -23q-125 0 -200.5 78.5t-75.5 204.5q0 130 80.5 208.5t208.5 78.5q126 0 198 -76.5t72 -202.5q0 -130 -78.5 -210.5t-204.5 -80.5zM975 84q63 0 102 39q31 57 31 131q0 184 -158 184q-57 0 -96 -30q-39 -51 -39 -138q0 -90 42 -138t118 -48z" />
    <glyph glyph-name="ampersand" unicode="&#x26;" horiz-adv-x="1366" 
d="M1272 115q37 0 53 2l-10 -131q-15 -6 -55 -6q-214 0 -447 186q-205 -186 -414 -186q-139 0 -227 77.5t-88 200.5q0 64 26 129.5t71 123.5t94 105.5t108 92.5q-72 157 -72 262q0 75 38 135.5t99.5 97t135 55.5t149.5 19q137 0 262 -61l-12 -115q-102 51 -254 51
q-113 0 -199 -34t-108 -103q0 -144 115.5 -342t285.5 -348q138 150 258 393l101 -19q-123 -261 -279 -440q196 -145 369 -145zM424 102q153 0 309 134q-173 161 -297 372q-223 -168 -223 -323q0 -86 59 -134.5t152 -48.5z" />
    <glyph glyph-name="quotesingle" unicode="'" horiz-adv-x="409" 
d="M156 756l-25 590h148l-25 -590h-98z" />
    <glyph glyph-name="parenleft" unicode="(" horiz-adv-x="505" 
d="M330 -326q-273 436 -273 885q0 445 277 916l112 -37q-245 -444 -245 -877q0 -453 248 -846z" />
    <glyph glyph-name="parenright" unicode=")" horiz-adv-x="507" 
d="M170 -326l-111 37q246 445 246 877q0 453 -248 846l119 41q275 -448 275 -887t-281 -914z" />
    <glyph glyph-name="asterisk" unicode="*" horiz-adv-x="845" 
d="M246 559l-99 80l168 235v19l-274 74l33 112l276 -78l10 11v282h127l2 -282l9 -11l276 80l31 -112l-277 -76v-19l174 -233l-96 -80l-172 242h-20z" />
    <glyph glyph-name="plus" unicode="+" horiz-adv-x="964" 
d="M883 629l-6 -115h-326v-330h-137v330h-332l6 115h326v327l137 13v-340h332z" />
    <glyph glyph-name="comma" unicode="," horiz-adv-x="405" 
d="M90 -229q64 201 64 395q0 55 -11 123h150q10 -30 10 -86q0 -121 -23.5 -220.5t-76.5 -211.5h-113z" />
    <glyph glyph-name="hyphen" unicode="-" horiz-adv-x="802" 
d="M115 588l8 112h565l-10 -112h-563z" />
    <glyph glyph-name="period" unicode="." horiz-adv-x="339" 
d="M102 0q-14 95 -16 154q55 12 164 8q0 -77 -10 -162h-138z" />
    <glyph glyph-name="slash" unicode="/" horiz-adv-x="634" 
d="M78 -158l356 1682h123l-356 -1682h-123z" />
    <glyph glyph-name="zero" unicode="0" horiz-adv-x="1077" 
d="M528 -23q-217 0 -325.5 136.5t-108.5 421.5q0 265 117 411t342 146q214 0 322 -135t108 -390q0 -590 -455 -590zM557 104q150 0 217 76q60 83 60 350q0 211 -77.5 323t-236.5 112q-135 0 -205 -70q-34 -44 -52.5 -142.5t-18.5 -199.5q0 -230 75.5 -339.5t237.5 -109.5z
" />
    <glyph glyph-name="one" unicode="1" horiz-adv-x="606" 
d="M281 0v901l-228 -22v96l207 47l88 55h78v-1077h-145z" />
    <glyph glyph-name="two" unicode="2" horiz-adv-x="954" 
d="M84 0l-6 100q145 95 279.5 213.5t230.5 249.5t96 223q0 86 -60 133.5t-180 47.5q-133 0 -307 -68l13 117q173 78 317 78q184 0 278.5 -79t94.5 -204q0 -84 -48.5 -177.5t-131 -182t-177 -167t-202.5 -149.5v-16h596l-9 -119h-784z" />
    <glyph glyph-name="three" unicode="3" horiz-adv-x="909" 
d="M369 -213q-162 0 -279 57l27 115q122 -45 266 -45q163 0 227 66q80 72 80 188q0 248 -469 248l10 104q215 0 317.5 65.5t102.5 180.5q0 205 -254 205q-143 0 -278 -53l8 108q150 72 299 72q186 0 281.5 -85t95.5 -216q0 -100 -67 -187t-171 -118v-17q133 -22 206 -98
t73 -199q0 -171 -130 -281t-345 -110z" />
    <glyph glyph-name="four" unicode="4" horiz-adv-x="978" 
d="M936 188v-112h-162v-266h-137v266h-559l-23 127q284 415 520 874h160q-233 -436 -545 -872l7 -15l440 -2v322l137 27v-349h162z" />
    <glyph glyph-name="five" unicode="5" horiz-adv-x="892" 
d="M414 551q201 0 304 -93t103 -261q0 -191 -122.5 -300.5t-338.5 -109.5q-165 0 -276 57l22 115q122 -45 267 -45q84 0 139.5 13.5t95.5 49.5q66 85 66 201q0 256 -309 256q-106 0 -238 -22l33 665h604l-8 -121h-473l-31 -419q100 14 162 14z" />
    <glyph glyph-name="six" unicode="6" horiz-adv-x="987" 
d="M492 -14q-68 0 -125.5 18t-109 60t-87 107.5t-56 165.5t-20.5 228q0 183 39 319.5t111 220t169 124.5t218 41q127 0 215 -43l-15 -107q-89 31 -213 31q-96 0 -169.5 -33t-119 -93t-71 -136.5t-33.5 -171.5q162 67 316 67q169 0 265.5 -95.5t96.5 -278.5
q0 -192 -117.5 -308t-293.5 -116zM520 104q73 0 133 35q54 36 82.5 106.5t28.5 143.5q0 140 -67.5 213.5t-196.5 73.5q-139 0 -269 -62q-4 -24 -4 -45q0 -244 72 -354.5t221 -110.5z" />
    <glyph glyph-name="seven" unicode="7" horiz-adv-x="960" 
d="M168 -190q226 624 567 1130v16h-645l10 121h764l17 -102q-328 -519 -547 -1165h-166z" />
    <glyph glyph-name="eight" unicode="8" horiz-adv-x="1009" 
d="M666 645v-4q119 -76 184 -152.5t65 -179.5q0 -133 -108.5 -231t-296.5 -98q-179 0 -296.5 89t-117.5 232q0 100 63.5 203t166.5 176v4q-181 132 -181 285q0 124 101 211.5t282 87.5q165 0 258 -77.5t93 -191.5q0 -204 -213 -354zM346 1120q-63 -53 -63 -129
q0 -39 16 -75.5t38.5 -63t63.5 -57.5t72 -50t84 -49l14 -8q170 147 170 289q0 85 -64.5 133.5t-176.5 48.5q-87 0 -154 -39zM731 152q43 66 43 129q0 42 -20.5 82t-42 66.5t-76 65t-80.5 53.5t-98 56q-7 4 -11 6.5t-10.5 6t-11.5 6.5l-12 6q-174 -157 -174 -310
q0 -103 78.5 -164t209.5 -61q127 0 205 58z" />
    <glyph glyph-name="nine" unicode="9" horiz-adv-x="987" 
d="M496 1083q86 0 155 -29.5t125 -94.5t86.5 -180.5t30.5 -274.5q0 -183 -39 -319.5t-111 -220t-169 -124.5t-218 -41q-127 0 -215 43l15 107q89 -31 213 -31q96 0 169.5 33t119 93t71 136.5t33.5 171.5q-162 -67 -316 -67q-169 0 -265.5 95.5t-96.5 278.5q0 192 118 308
t294 116zM467 965q-73 0 -133 -35q-54 -36 -82.5 -106.5t-28.5 -143.5q0 -140 67.5 -213.5t196.5 -73.5q139 0 269 62q4 24 4 45q0 244 -72 354.5t-221 110.5z" />
    <glyph glyph-name="colon" unicode=":" horiz-adv-x="339" 
d="M102 702q-14 95 -16 154q55 12 164 8q0 -77 -10 -162h-138zM102 145q-14 95 -16 154q55 12 164 8q0 -77 -10 -162h-138z" />
    <glyph glyph-name="semicolon" unicode=";" horiz-adv-x="425" 
d="M176 631q-14 95 -16 153q60 13 164 9q0 -69 -11 -162h-137zM90 -229q64 201 64 395q0 55 -11 123h150q10 -30 10 -86q0 -121 -23.5 -220.5t-76.5 -211.5h-113z" />
    <glyph glyph-name="less" unicode="&#x3c;" horiz-adv-x="956" 
d="M834 852l-555 -240v-16l555 -240v-131l-750 328v102l750 328v-131z" />
    <glyph glyph-name="equal" unicode="=" horiz-adv-x="933" 
d="M82 651l6 113h778l-6 -113h-778zM68 344l8 113h778l-8 -113h-778z" />
    <glyph glyph-name="greater" unicode="&#x3e;" horiz-adv-x="956" 
d="M123 852v131l749 -328v-102l-749 -328v131l555 240v16z" />
    <glyph glyph-name="question" unicode="?" horiz-adv-x="739" 
d="M250 377q-21 116 -21 164q0 63 26 130t55 110.5t77 105.5q78 109 98 150q19 40 21 73q3 77 -90 129t-295 78l55 113q219 -13 344 -93.5t125 -206.5q0 -26 -7 -54.5t-13.5 -47.5t-27 -53t-27.5 -44.5t-36.5 -52t-33.5 -47.5q-11 -15 -40 -55.5t-38.5 -54t-28.5 -44.5
t-25.5 -49.5t-13 -44.5t-6.5 -51q0 -17 2.5 -48.5t5.5 -64.5t4 -42h-110zM242 0q-15 104 -17 154q55 12 164 8q0 -77 -10 -162h-137z" />
    <glyph glyph-name="at" unicode="@" horiz-adv-x="1587" 
d="M770 -172q-321 0 -503.5 188t-182.5 541q0 241 99 430.5t281.5 296.5t418.5 107q154 0 273.5 -46t194.5 -130t113.5 -197t38.5 -252q0 -122 -23.5 -223t-61.5 -166.5t-88 -110.5t-102 -64.5t-104 -19.5q-73 0 -127 85t-43 210l-14 6q-28 -81 -62.5 -138.5t-71 -87.5
t-69.5 -43t-67 -13q-83 0 -138 78.5t-55 226.5q0 242 105.5 381t257.5 139q87 0 146 -16.5t122 -63.5l-41 -284q-11 -66 -14 -129t10 -129t47 -97l16 -4q110 5 176 119.5t66 327.5q0 243 -127.5 380.5t-382.5 137.5q-144 0 -264 -53.5t-201.5 -146.5t-126.5 -220t-45 -273
q0 -316 148 -470t424 -154q207 0 374 45l2 -102q-180 -66 -399 -66zM700 332q159 0 267 522l-4 12q-49 39 -148 39q-54 0 -98 -26q-107 -96 -107 -353q0 -107 20 -150.5t70 -43.5z" />
    <glyph glyph-name="A" unicode="A" horiz-adv-x="1099" 
d="M903 0l-84 270h-545l-88 -270h-157l438 1251l182 4l420 -1255h-166zM311 385h473l-229 741h-4z" />
    <glyph glyph-name="B" unicode="B" horiz-adv-x="1105" 
d="M770 668q117 -34 179.5 -114t62.5 -202q0 -174 -119 -271t-375 -97q-162 0 -338 22v1239q212 23 350 23q217 0 328 -80t111 -209q0 -95 -50 -176.5t-149 -130.5v-4zM518 1153q-120 0 -190 -10v-438h137q150 0 205 8q71 40 105 105t34 138q0 98 -78.5 147.5t-212.5 49.5z
M725 131q72 33 99.5 85t27.5 126q0 254 -274 254h-250v-479q140 -13 209 -13q121 0 188 27z" />
    <glyph glyph-name="C" unicode="C" horiz-adv-x="1030" 
d="M664 -16q-277 0 -428.5 171.5t-151.5 465.5q0 143 37.5 261t111 206.5t191.5 137t270 48.5q151 0 269 -37l-17 -127q-123 35 -266 35q-97 0 -164.5 -19.5t-132.5 -68.5q-66 -75 -102.5 -170.5t-36.5 -239.5q0 -245 115.5 -388.5t351.5 -143.5q121 0 245 37l-8 -127
q-161 -41 -284 -41z" />
    <glyph glyph-name="D" unicode="D" horiz-adv-x="1228" 
d="M514 -12q-139 0 -334 14v1245q176 25 371 25q61 0 117.5 -7.5t117 -26t112 -47.5t98 -76.5t79 -108t51.5 -145.5t19 -187q0 -343 -162.5 -514.5t-468.5 -171.5zM530 117q111 0 195 22q132 63 196 184.5t64 329.5q0 136 -31.5 232.5t-93 152.5t-143 81.5t-189.5 25.5
q-130 0 -198 -10v-1010q91 -8 200 -8z" />
    <glyph glyph-name="E" unicode="E" horiz-adv-x="1015" 
d="M330 590v-471h569l-10 -119h-709v1251h709l10 -112h-569v-437h506l-11 -112h-495z" />
    <glyph glyph-name="F" unicode="F" horiz-adv-x="980" 
d="M330 1130v-448h508l-11 -117h-497v-565h-150v1251h705l10 -121h-565z" />
    <glyph glyph-name="G" unicode="G" horiz-adv-x="1202" 
d="M655 -16q-267 0 -419 169.5t-152 464.5q0 313 168.5 484.5t462.5 171.5q162 0 336 -51l-15 -123q-165 47 -340 47q-161 0 -278 -57q-174 -162 -174 -453q0 -251 111 -388.5t323 -137.5q141 0 266 34v371h-295l4 117h434v-404q0 -98 -6 -147q-167 -98 -426 -98z" />
    <glyph glyph-name="H" unicode="H" horiz-adv-x="1327" 
d="M997 1251h150v-1251h-150v582h-667v-582h-150v1251h150v-546h667v546z" />
    <glyph glyph-name="I" unicode="I" horiz-adv-x="630" 
d="M393 1139h-4v-1024h4l178 -9v-106h-512v106l181 9v1024l-181 6v106h512v-106z" />
    <glyph glyph-name="J" unicode="J" horiz-adv-x="761" 
d="M457 1251h151v-805q0 -284 -94 -387q-74 -79 -250 -79q-122 0 -221 55l12 112q113 -36 226 -36q94 0 153 34q23 102 23 256v850z" />
    <glyph glyph-name="K" unicode="K" horiz-adv-x="1144" 
d="M1020 123l113 -21l-11 -106q-41 -10 -106 -10q-98 0 -131 51l-350 549h-5l-200 -217v-369h-150v1251h150v-712h4l584 712h172l-465 -571v-4z" />
    <glyph glyph-name="L" unicode="L" horiz-adv-x="927" 
d="M330 123h551l-13 -123h-688v1251h150v-1128z" />
    <glyph glyph-name="M" unicode="M" horiz-adv-x="1507" 
d="M180 0v1251h191l385 -684h4l389 684h178v-1251h-143v1053h-4l-369 -645h-119l-366 645h-4v-1053h-142z" />
    <glyph glyph-name="N" unicode="N" horiz-adv-x="1353" 
d="M180 0v1251h150l714 -1048h5l-7 1048h132v-1251h-146l-717 1047h-4l4 -1047h-131z" />
    <glyph glyph-name="O" unicode="O" horiz-adv-x="1271" 
d="M631 -23q-166 0 -291 82t-190.5 226.5t-65.5 330.5q0 299 157.5 475.5t417.5 176.5q240 0 384.5 -173.5t144.5 -455.5q0 -299 -153 -480.5t-404 -181.5zM643 104q84 0 145 21t117 74q63 81 93 180t30 237q0 249 -104.5 387t-276.5 138q-83 0 -141.5 -16t-124.5 -60
q-137 -169 -137 -426q0 -252 108.5 -393.5t290.5 -141.5z" />
    <glyph glyph-name="P" unicode="P" horiz-adv-x="1021" 
d="M330 416v-416h-150v1247q205 10 312 10q114 0 197 -20t145 -66t93 -125.5t31 -193.5q0 -223 -137.5 -329.5t-435.5 -106.5h-55zM330 535h73q172 0 250 14q67 36 106.5 109t39.5 180q0 149 -72.5 226t-230.5 77q-62 0 -166 -11v-595z" />
    <glyph glyph-name="Q" unicode="Q" horiz-adv-x="1271" 
d="M1079 -315q-302 91 -444 292q-252 0 -401.5 176.5t-149.5 462.5q0 299 157.5 475.5t417.5 176.5q240 0 384.5 -173.5t144.5 -455.5q0 -253 -113 -424.5t-305 -216.5v-16q59 -55 141 -93t213 -82zM643 104q84 0 145 21t117 74q63 81 93 180t30 237q0 249 -104.5 387
t-276.5 138q-83 0 -141.5 -16t-124.5 -60q-137 -169 -137 -426q0 -252 108.5 -393.5t290.5 -141.5z" />
    <glyph glyph-name="R" unicode="R" horiz-adv-x="1105" 
d="M1006 -10q-98 0 -138 67l-256 430l-282 -2v-485h-150v1243q197 19 350 19q100 0 174 -16t131 -53t86 -102t29 -157q0 -258 -211 -404v-4l279 -401l115 -21l-11 -106q-55 -8 -116 -8zM330 598h123q117 0 202 10q63 51 100.5 130t37.5 169q0 124 -66 180t-213 56
q-98 0 -184 -6v-539z" />
    <glyph glyph-name="S" unicode="S" horiz-adv-x="1005" 
d="M453 -20q-154 0 -324 65l21 133q183 -74 335 -74q137 0 213 66q52 55 52 129q0 45 -21.5 85t-58 71.5t-83.5 60.5t-99 56.5t-104.5 56t-99.5 62t-83.5 71t-58 87.5t-21.5 107q0 145 126.5 231.5t325.5 86.5q119 0 283 -41l-33 -133q-136 51 -268 51q-90 0 -163 -20
t-103 -50q-27 -43 -27 -94q0 -54 34.5 -100.5t90 -82.5t122 -70.5t133.5 -73.5t122.5 -82.5t90 -106.5t34.5 -137q0 -66 -27 -128t-79 -113t-137.5 -82t-192.5 -31z" />
    <glyph glyph-name="T" unicode="T" horiz-adv-x="1042" 
d="M975 1251v-121h-379v-1130h-150v1130h-376v121h905z" />
    <glyph glyph-name="U" unicode="U" horiz-adv-x="1251" 
d="M946 1251h152v-716q0 -290 -117.5 -426t-368.5 -136q-458 0 -458 539v739h149v-716q0 -221 80 -326t252 -105q163 0 237 98.5t74 309.5v739z" />
    <glyph glyph-name="V" unicode="V" horiz-adv-x="1140" 
d="M485 0l-448 1251h174l364 -1099h5l360 1099h164l-447 -1251h-172z" />
    <glyph glyph-name="W" unicode="W" horiz-adv-x="1654" 
d="M350 0l-291 1251h154l233 -1106h5l311 1106h135l309 -1106h4l232 1106h151l-303 -1251h-170l-293 1028h-4l-299 -1028h-174z" />
    <glyph glyph-name="X" unicode="X" horiz-adv-x="1040" 
d="M1024 0h-176l-328 543h-4l-336 -543h-164l410 639v4l-391 608h172l321 -522h4l310 522h162l-386 -602v-4z" />
    <glyph glyph-name="Y" unicode="Y" horiz-adv-x="1050" 
d="M451 0v504l-428 747h174l327 -612h15l327 612h162l-428 -747v-504h-149z" />
    <glyph glyph-name="Z" unicode="Z" horiz-adv-x="1024" 
d="M66 0l4 104l684 1010l-2 16h-654l11 121h825l10 -92l-684 -1022l4 -14h694l-12 -123h-880z" />
    <glyph glyph-name="bracketleft" unicode="[" horiz-adv-x="630" 
d="M522 -313h-342l8 1779h353l10 -114l-225 2l-9 -1551l215 -4z" />
    <glyph glyph-name="backslash" unicode="\" horiz-adv-x="634" 
d="M557 -158h-123l-356 1682h123z" />
    <glyph glyph-name="bracketright" unicode="]" horiz-adv-x="630" 
d="M109 -313l-11 112l215 4l-8 1551l-225 -2l10 114h352l9 -1779h-342z" />
    <glyph glyph-name="asciicircum" unicode="^" horiz-adv-x="897" 
d="M160 682q-56 0 -115 23l350 546h105l352 -546q-63 -23 -115 -23l-272 416h-33z" />
    <glyph glyph-name="underscore" unicode="_" horiz-adv-x="1304" 
d="M115 0l8 121h1067l-8 -121h-1067z" />
    <glyph glyph-name="grave" unicode="`" horiz-adv-x="909" 
d="M541 1229l-281 319q62 39 170 45l232 -364h-121z" />
    <glyph glyph-name="a" unicode="a" horiz-adv-x="1026" 
d="M401 -12q-75 0 -135 26t-95.5 68.5t-54 93t-18.5 103.5q0 91 38 160t106 108q102 59 354 59q86 0 129 -6v29q0 78 -10 127t-36 84t-72.5 50t-119.5 15q-162 0 -323 -53l8 123q167 55 338 55q187 0 274.5 -85t87.5 -275v-670h-129l-18 125q-137 -137 -324 -137zM442 109
q77 0 152 34.5t131 102.5v252q-102 8 -154 8q-67 0 -103 -2t-91 -14t-98 -37q-37 -47 -37 -150q0 -88 52.5 -141t147.5 -53z" />
    <glyph glyph-name="b" unicode="b" horiz-adv-x="1091" 
d="M629 1028q177 0 272.5 -119.5t95.5 -355.5q0 -143 -39.5 -254t-110.5 -180.5t-166 -105.5t-210 -36q-149 0 -307 41v1397l145 19v-539q90 71 165 102t155 31zM731 156q63 78 88 169t25 205q0 182 -59.5 276.5t-204.5 94.5q-133 0 -271 -117v-667q83 -19 180 -19
q148 0 242 58z" />
    <glyph glyph-name="c" unicode="c" horiz-adv-x="894" 
d="M541 -23q-92 0 -172 31.5t-142 93t-97.5 161t-35.5 226.5q0 251 128.5 396t348.5 145q146 0 234 -39l-8 -123q-140 35 -246 35q-120 0 -197 -57q-108 -108 -108 -340q0 -107 29 -187.5t79 -125.5t110 -67t128 -22q95 0 231 39l-4 -123q-106 -43 -278 -43z" />
    <glyph glyph-name="d" unicode="d" horiz-adv-x="1091" 
d="M479 -14q-174 0 -278.5 126t-104.5 361q0 139 41 247.5t112 175t162 100.5t197 34q92 0 174 -26v411l146 19v-1434h-123l-10 129q-140 -143 -316 -143zM528 109q141 0 254 133v635q-82 30 -194 30q-117 0 -219 -51q-121 -106 -121 -352q0 -395 280 -395z" />
    <glyph glyph-name="e" unicode="e" horiz-adv-x="1044" 
d="M954 623q0 -89 -10 -136h-690q12 -387 356 -387q147 0 293 50l-8 -115q-147 -58 -307 -58q-229 0 -355.5 134t-126.5 383q0 152 50 271t155.5 192t253.5 73q185 0 287 -104t102 -303zM561 913q-123 0 -201 -67q-88 -105 -102 -258h555q-1 162 -65.5 243.5t-186.5 81.5z
" />
    <glyph glyph-name="f" unicode="f" horiz-adv-x="741" 
d="M412 1286q-15 -50 -15 -112v-173h308l-11 -114h-297v-887h-145v887h-191l7 100l180 14h4v154q0 293 313 293q75 0 191 -21l-27 -116q-124 14 -182 14q-93 0 -135 -39z" />
    <glyph glyph-name="g" unicode="g" horiz-adv-x="1011" 
d="M469 -426q-61 0 -116 8.5t-107.5 30t-91 53t-61.5 80.5t-23 111q0 152 159 280v4q-49 38 -49 113q0 84 60 139v4q-146 100 -146 277q0 156 116.5 251t283.5 95q74 0 127 -6h376l-10 -111l-227 17l-2 -7q110 -73 110 -221q0 -108 -58.5 -187t-149 -116t-199.5 -37
q-69 0 -127 15q-27 -31 -27 -70t27 -54t123 -28q58 -8 94 -13.5t85.5 -14.5t79.5 -17.5t67.5 -21t59.5 -26.5t46 -33.5t36.5 -42t20.5 -51.5t8 -63q0 -152 -132.5 -255t-352.5 -103zM498 459q80 0 139 30q82 69 82 195q0 107 -58 169t-180 62q-78 0 -155 -41
q-82 -82 -82 -186t64 -166.5t190 -62.5zM500 -307q142 0 232.5 57.5t90.5 145.5q0 21 -6.5 39.5t-15.5 32.5t-27 26.5t-33.5 21t-43 17t-46.5 13.5t-53 10.5t-54.5 8.5t-58 8.5t-57.5 8.5q-85 14 -113 20q-57 -54 -85.5 -103t-28.5 -105q0 -100 85.5 -150.5t213.5 -50.5z
" />
    <glyph glyph-name="h" unicode="h" horiz-adv-x="1132" 
d="M698 1028q139 0 210 -72.5t71 -234.5v-721h-145v700q0 107 -49.5 154t-149.5 47q-162 0 -326 -104v-797h-145v1415l145 19v-537q99 65 192 98t197 33z" />
    <glyph glyph-name="i" unicode="i" horiz-adv-x="526" 
d="M186 1176q-15 75 -18 174q77 13 184 6l-12 -180h-154zM217 0v885l-162 8l11 108h296v-1001h-145z" />
    <glyph glyph-name="j" unicode="j" horiz-adv-x="577" 
d="M248 1176q-16 81 -19 174q77 13 185 6l-13 -180h-153zM135 -406q-63 0 -121 13v127q60 -8 107 -8q85 0 123 45q24 49 24 145v965l-168 6l11 114h303v-1042q0 -165 -72.5 -265t-206.5 -100z" />
    <glyph glyph-name="k" unicode="k" horiz-adv-x="1003" 
d="M887 115l108 -11l-8 -108q-45 -10 -108 -10q-79 0 -115 51l-305 452h-4l-146 -122v-367h-145v1415l145 19v-926h4l484 502l159 -9l-401 -426v-4z" />
    <glyph glyph-name="l" unicode="l" horiz-adv-x="526" 
d="M481 111l-8 -107q-78 -16 -149 -16q-101 0 -140 37q-15 16 -21.5 41t-7.5 43.5t-1 62.5v1243l145 19v-1225q0 -57 2 -86z" />
    <glyph glyph-name="m" unicode="m" horiz-adv-x="1755" 
d="M1325 1028q137 0 207 -72t70 -235v-721h-146v700q0 108 -47 154.5t-145 46.5q-151 0 -314 -96q6 -38 6 -84v-721h-145v700q0 107 -48.5 154t-146.5 47q-152 0 -307 -100v-801h-145v1001l137 17l4 -121q201 131 373 131q183 0 246 -131q239 131 401 131z" />
    <glyph glyph-name="n" unicode="n" horiz-adv-x="1132" 
d="M696 1028q140 0 211.5 -72.5t71.5 -234.5v-721h-145v700q0 107 -49.5 154t-149.5 47q-162 0 -326 -115v-786h-145v1001l137 17l4 -131q105 68 197 104.5t194 36.5z" />
    <glyph glyph-name="o" unicode="o" horiz-adv-x="1110" 
d="M539 -23q-205 0 -324 135t-119 363q0 256 127 404.5t357 148.5q195 0 315.5 -134.5t120.5 -358.5q0 -255 -128.5 -406.5t-348.5 -151.5zM561 98q145 0 234 99q67 122 67 315q0 190 -83 292.5t-220 102.5q-83 0 -134.5 -23.5t-100.5 -78.5q-76 -119 -76 -307
q0 -193 80 -296.5t233 -103.5z" />
    <glyph glyph-name="p" unicode="p" horiz-adv-x="1091" 
d="M164 -406v1407l135 17l6 -125q149 137 309 137q187 0 285 -122.5t98 -360.5q0 -141 -41 -251.5t-112.5 -179t-163.5 -104t-197 -35.5q-85 0 -174 25v-389zM500 98q118 0 223 54q121 118 121 364q0 187 -62.5 289t-208.5 102q-137 0 -264 -114v-656q85 -39 191 -39z" />
    <glyph glyph-name="q" unicode="q" horiz-adv-x="1089" 
d="M610 1030q152 0 314 -55l2 -1362l-146 -19v525q-74 -68 -145.5 -99.5t-157.5 -31.5q-178 0 -280.5 123.5t-102.5 359.5q0 138 40 246t110.5 175.5t163.5 102.5t202 35zM514 109q147 0 266 129l-2 639q-78 32 -186 32q-138 0 -238 -63q-108 -115 -108 -338q0 -185 70 -292
t198 -107z" />
    <glyph glyph-name="r" unicode="r" horiz-adv-x="698" 
d="M164 0v1001l137 17l4 -141q141 147 270 147q53 0 103 -20l-16 -136q-53 15 -101 15q-68 0 -126 -23t-126 -82v-778h-145z" />
    <glyph glyph-name="s" unicode="s" horiz-adv-x="837" 
d="M369 -20q-142 0 -281 63l8 125q159 -72 293 -72q109 0 172 39q47 47 47 109q0 45 -29 84t-75 69t-101.5 58.5t-111 60t-101.5 66.5t-75 84.5t-29 107.5q0 79 50.5 138t133.5 88.5t185 29.5q135 0 245 -39l-8 -119q-119 46 -243 46q-116 0 -177 -33q-51 -36 -51 -88
q0 -38 29.5 -72.5t76 -62.5t103 -57t113.5 -62.5t103.5 -71.5t76 -91.5t29.5 -115.5q0 -121 -103.5 -202.5t-279.5 -81.5z" />
    <glyph glyph-name="t" unicode="t" horiz-adv-x="700" 
d="M627 887h-238v-764q46 -6 88 -6q73 0 146 12l-2 -117q-89 -24 -172 -24q-106 0 -155.5 37.5t-49.5 130.5v731h-164l8 110l164 9l18 251l119 15v-268l248 -3z" />
    <glyph glyph-name="u" unicode="u" horiz-adv-x="1116" 
d="M434 -27q-137 0 -208.5 73t-71.5 235v720h145v-700q0 -109 50 -155t153 -46q76 0 148 29.5t155 108.5v763h147v-1001h-129l-12 137q-93 -87 -181 -125.5t-196 -38.5z" />
    <glyph glyph-name="v" unicode="v" horiz-adv-x="913" 
d="M383 0l-369 1001h156l291 -860h4l287 860h147l-362 -1001h-154z" />
    <glyph glyph-name="w" unicode="w" horiz-adv-x="1351" 
d="M897 0l-215 772h-4l-232 -772h-155l-277 1001h156l205 -860h4l242 860h122l244 -860h4l205 860h141l-264 -1001h-176z" />
    <glyph glyph-name="x" unicode="x" horiz-adv-x="905" 
d="M893 0h-164l-280 436h-5l-278 -436h-154l353 520v4l-326 477h162l254 -411h4l258 411h147l-325 -479v-4z" />
    <glyph glyph-name="y" unicode="y" horiz-adv-x="909" 
d="M743 1001h152l-346 -987l-184 -401h-156l199 397v4l-394 987h158l303 -849h4z" />
    <glyph glyph-name="z" unicode="z" horiz-adv-x="868" 
d="M66 0l4 102l567 785v2l-539 -2l11 114h677l13 -98l-572 -780v-4h584l-12 -119h-733z" />
    <glyph glyph-name="braceleft" unicode="{" horiz-adv-x="585" 
d="M254 594v-14q52 -38 78 -95.5t26 -119.5q0 -68 -38.5 -205t-38.5 -207q0 -158 165 -158q49 0 82 2l-4 -110q-46 -15 -104 -15q-82 0 -139.5 23.5t-87.5 65t-43 87.5t-13 103q0 80 19.5 148.5t39 131t19.5 127.5q0 49 -14 95.5t-41 68.5l-129 -10q-15 44 -15 78
q0 38 15 78l129 -11q27 23 41 69.5t14 94.5q0 65 -19.5 127.5t-39 131t-19.5 147.5q0 55 13 101t43 87t88 64.5t139 23.5q61 0 104 -14l4 -111q-33 2 -82 2q-165 0 -165 -153q0 -67 38.5 -206t38.5 -206q0 -64 -27.5 -124.5t-76.5 -96.5z" />
    <glyph glyph-name="bar" unicode="|" horiz-adv-x="468" 
d="M180 -369v1848h109v-1848h-109z" />
    <glyph glyph-name="braceright" unicode="}" horiz-adv-x="585" 
d="M332 600q-49 36 -77 96.5t-28 124.5q0 67 39 206t39 206q0 153 -166 153q-49 0 -82 -2l4 111q43 14 105 14q81 0 139 -23.5t88 -64.5t43 -87t13 -101q0 -79 -19.5 -147.5t-39 -131t-19.5 -127.5q0 -48 14 -94t41 -69l129 10q14 -38 14 -78q0 -37 -14 -78l-129 10
q-27 -22 -41 -68t-14 -95q0 -65 19.5 -127.5t39 -131.5t19.5 -149q0 -57 -13 -103t-43 -87.5t-87.5 -65t-139.5 -23.5q-59 0 -105 15l-4 110q33 -2 82 -2q166 0 166 158q0 70 -39 207t-39 205q0 61 26 119t79 96v14z" />
    <glyph glyph-name="asciitilde" unicode="~" horiz-adv-x="921" 
d="M68 514v127q120 70 239 70q79 0 176.5 -34t153.5 -34q104 0 217 68v-129q-111 -68 -227 -68q-56 0 -159 33t-163 33q-115 0 -237 -66z" />
    <glyph glyph-name="exclamdown" unicode="&#xa1;" horiz-adv-x="612" 
d="M362 1042q15 -104 17 -153q-55 -12 -164 -8q0 76 10 161h137zM358 649l23 -1036l-164 -19l23 1055h118z" />
    <glyph glyph-name="cent" unicode="&#xa2;" horiz-adv-x="933" 
d="M242 547q0 -199 98.5 -314.5t296.5 -115.5q88 0 215 30l-6 -114q-118 -29 -221 -35l-4 -203h-136l-4 213q-186 33 -286.5 170t-100.5 346q0 208 99.5 351t287.5 180l4 225h136l4 -213q115 -3 231 -41l-12 -115q-145 37 -248 37q-140 0 -236 -74q-118 -122 -118 -327z" />
    <glyph glyph-name="sterling" unicode="&#xa3;" horiz-adv-x="1046" 
d="M319 117l5 -4h612l-16 -113h-842v104l112 15q50 125 62 258h-156l10 96h152q2 29 2 90q0 33 2 49h-166l10 97h164q27 210 132 299.5t292 89.5q70 0 121.5 -10.5t124.5 -36.5l-16 -115q-140 45 -246 45q-169 0 -227 -84q-38 -83 -50 -188h525l-11 -97h-520v-30
q-2 -37 -2 -109h533l-11 -96h-526q-14 -140 -70 -260z" />
    <glyph glyph-name="currency" unicode="&#xa4;" horiz-adv-x="1046" 
d="M938 145l-84 -84l-145 162q-80 -59 -197 -59q-106 0 -182 51l-137 -154l-87 84l148 148q-57 88 -57 215q0 137 61 229l-154 156l84 86l144 -162q85 60 198 60q106 0 183 -52l139 154l84 -86l-148 -148q58 -89 58 -217q0 -133 -62 -227zM528 276q77 0 127 43q60 72 60 189
q0 125 -53 191.5t-148 66.5q-64 0 -123 -37q-63 -78 -63 -203q0 -119 53 -184.5t147 -65.5z" />
    <glyph glyph-name="yen" unicode="&#xa5;" horiz-adv-x="1046" 
d="M614 424l-14 -27v-92h338l-12 -96h-326v-209h-151v209h-343l13 96h330v92l-15 27h-328l13 94h262l-313 559h161l289 -553h21l292 553h154l-317 -559h270l-12 -94h-312z" />
    <glyph glyph-name="brokenbar" unicode="&#xa6;" horiz-adv-x="468" 
d="M180 770v709h109v-709h-109zM180 -369v711h109v-711h-109z" />
    <glyph glyph-name="section" unicode="&#xa7;" horiz-adv-x="1165" 
d="M530 -422q-82 0 -153 12t-112.5 26.5t-100.5 39.5l47 123q130 -76 285 -76q19 17 38 56.5t19 95.5q0 78 -28.5 166t-71.5 163.5t-92.5 163t-92.5 165.5t-71.5 171t-28.5 178q0 195 141.5 300.5t386.5 105.5q181 0 334 -76l-51 -119q-135 74 -301 74q-26 -40 -35.5 -75
t-9.5 -83q0 -75 21.5 -151.5t56 -142.5t76 -132.5t82.5 -133t75.5 -133.5t56 -144.5t21.5 -155.5q0 -199 -125.5 -308.5t-366.5 -109.5zM625 -305q278 20 278 276q0 82 -29.5 168.5t-73 158t-95 155t-95 158.5t-73 169t-29.5 185q0 48 9 86t36 88q-132 -21 -196 -79.5
t-64 -172.5q0 -76 29 -164.5t72 -166t93.5 -166.5t93.5 -168t72 -170t29 -171q0 -106 -57 -186z" />
    <glyph glyph-name="dieresis" unicode="&#xa8;" horiz-adv-x="909" 
d="M205 1217q-16 81 -19 174q77 13 185 6l-13 -180h-153zM561 1217q-15 75 -18 174q77 13 184 6l-12 -180h-154z" />
    <glyph glyph-name="copyright" unicode="&#xa9;" horiz-adv-x="1644" 
d="M827 -178q-341 0 -542 206t-201 564q0 185 55.5 335t155.5 250t239 153.5t306 53.5q339 0 530 -207.5t191 -564.5q0 -365 -195.5 -577.5t-538.5 -212.5zM827 -61q258 0 426 145q85 91 132 230t47 302q0 303 -158 477.5t-436 174.5q-125 0 -236 -37.5t-188 -104.5
q-95 -84 -148 -218.5t-53 -311.5q0 -300 165 -478.5t449 -178.5zM877 156q-199 0 -308.5 119t-109.5 319q0 203 111 328t319 125q95 0 203 -33l-9 -96q-123 30 -206 30q-117 0 -197 -61q-98 -102 -98 -273q0 -167 81.5 -263.5t247.5 -96.5q73 0 179 27l-7 -97
q-121 -28 -206 -28z" />
    <glyph glyph-name="ordfeminine" unicode="&#xaa;" horiz-adv-x="1026" 
d="M401 -12q-75 0 -135 26t-95.5 68.5t-54 93t-18.5 103.5q0 91 38 160t106 108q102 59 354 59q86 0 129 -6v29q0 78 -10 127t-36 84t-72.5 50t-119.5 15q-162 0 -323 -53l8 123q167 55 338 55q187 0 274.5 -85t87.5 -275v-670h-129l-18 125q-137 -137 -324 -137zM442 109
q77 0 152 34.5t131 102.5v252q-102 8 -154 8q-67 0 -103 -2t-91 -14t-98 -37q-37 -47 -37 -150q0 -88 52.5 -141t147.5 -53z" />
    <glyph glyph-name="guillemotleft" unicode="&#xab;" horiz-adv-x="1050" 
d="M420 152l-260 360v61l260 361l100 -76l-211 -305v-21l211 -305zM791 152l-261 360v61l261 361l100 -76l-211 -305v-21l211 -305z" />
    <glyph glyph-name="logicalnot" unicode="&#xac;" horiz-adv-x="1228" 
d="M879 287v295h-674l10 123h803v-400z" />
    <glyph glyph-name="uni00AD" unicode="&#xad;" horiz-adv-x="1228" 
d="M115 588l8 112h565l-10 -112h-563z" />
    <glyph glyph-name="registered" unicode="&#xae;" horiz-adv-x="1644" 
d="M827 -178q-341 0 -542 206t-201 564q0 185 55.5 335t155.5 250t239 153.5t306 53.5q339 0 530 -207.5t191 -564.5q0 -365 -195.5 -577.5t-538.5 -212.5zM827 -61q258 0 426 145q85 91 132 230t47 302q0 303 -158 477.5t-436 174.5q-125 0 -236 -37.5t-188 -104.5
q-95 -84 -148 -218.5t-53 -311.5q0 -300 165 -478.5t449 -178.5zM1130 160q-71 0 -102 47l-182 293h-197v-332h-114v854q117 14 253 14q151 0 230.5 -51.5t79.5 -175.5q0 -163 -152 -268v-4l195 -275l84 -16l-11 -80q-9 -1 -40.5 -3.5t-43.5 -2.5zM649 582h86q79 0 144 8
q44 33 70 87t26 114q0 83 -46 120t-149 37q-42 0 -131 -6v-360z" />
    <glyph glyph-name="macron" unicode="&#xaf;" horiz-adv-x="909" 
d="M119 1229l10 108h664l-13 -108h-661z" />
    <glyph glyph-name="degree" unicode="&#xb0;" horiz-adv-x="661" 
d="M328 750q-128 0 -205.5 82.5t-77.5 214.5q0 138 82.5 220.5t214.5 82.5q127 0 200.5 -80.5t73.5 -212.5q0 -138 -79.5 -222.5t-208.5 -84.5zM344 856q63 0 102 39q39 64 39 149q0 199 -163 199q-54 0 -99 -33q-45 -57 -45 -151q0 -99 43.5 -151t122.5 -52z" />
    <glyph glyph-name="plusminus" unicode="&#xb1;" horiz-adv-x="927" 
d="M385 319v330h-303l6 113h297v328l135 14v-342h320l-6 -113h-314v-330h-135zM96 164h750v-111h-750v111z" />
    <glyph glyph-name="uni00B2" unicode="&#xb2;" horiz-adv-x="632" 
d="M90 762l-4 80q36 33 98 86t96 83.5t72.5 70t56 71.5t17.5 61q0 50 -33.5 76.5t-91.5 26.5q-91 0 -184 -49l6 90q94 59 196 59q109 0 171.5 -50t62.5 -134q0 -30 -12.5 -62t-29.5 -57.5t-50.5 -60.5t-58.5 -58.5t-70.5 -64.5t-71.5 -66v-6h318l-7 -96h-481z" />
    <glyph glyph-name="uni00B3" unicode="&#xb3;" horiz-adv-x="569" 
d="M252 754q-106 0 -170 26l18 88q77 -22 154 -22q78 0 125 23t47 73q0 109 -262 109l4 75q233 6 233 111q0 76 -141 76q-77 0 -162 -25l6 86q89 31 181 31q122 0 180.5 -41t58.5 -109q0 -54 -37.5 -95.5t-115.5 -57.5q80 -12 127 -53.5t47 -102.5q0 -83 -81 -137.5
t-212 -54.5z" />
    <glyph glyph-name="acute" unicode="&#xb4;" horiz-adv-x="909" 
d="M465 1229h-121l231 364q94 -6 170 -45z" />
    <glyph glyph-name="uni00B5" unicode="&#xb5;" horiz-adv-x="1142" 
d="M831 1001h148v-1001h-129l-12 137q-86 -88 -164 -126t-172 -38q-118 0 -180 62v-422l-142 -19v1407h146v-700q0 -109 51.5 -156t157.5 -47q73 0 143.5 30.5t152.5 109.5v763z" />
    <glyph glyph-name="paragraph" unicode="&#xb6;" horiz-adv-x="1300" 
d="M680 -414v656l-4 2q-100 -54 -242 -54q-150 0 -245 124t-95 366q0 146 41.5 257.5t116 179t171.5 101t214 33.5h182v-1646zM946 -381v1632h299l-12 -112h-148v-1501zM489 311q102 0 191 37v787h-64q-158 0 -264 -62q-60 -74 -83 -159t-23 -203q0 -208 60 -304t183 -96z
" />
    <glyph glyph-name="periodcentered" unicode="&#xb7;" horiz-adv-x="339" 
d="M102 500q-14 95 -16 153q60 13 164 9q0 -77 -10 -162h-138z" />
    <glyph glyph-name="cedilla" unicode="&#xb8;" horiz-adv-x="909" 
d="M582 -160q34 -17 50.5 -36t16.5 -52q0 -69 -92 -194h-106l79 176l-102 53q-55 24 -55 72q0 27 16 67l45 121l131 -2l-73 -158z" />
    <glyph glyph-name="uni00B9" unicode="&#xb9;" horiz-adv-x="444" 
d="M246 762v526l-148 -14v80l148 28l57 23h68v-643h-125z" />
    <glyph glyph-name="ordmasculine" unicode="&#xba;" horiz-adv-x="1110" 
d="M539 -23q-205 0 -324 135t-119 363q0 256 127 404.5t357 148.5q195 0 315.5 -134.5t120.5 -358.5q0 -255 -128.5 -406.5t-348.5 -151.5zM561 98q145 0 234 99q67 122 67 315q0 190 -83 292.5t-220 102.5q-83 0 -134.5 -23.5t-100.5 -78.5q-76 -119 -76 -307
q0 -193 80 -296.5t233 -103.5z" />
    <glyph glyph-name="guillemotright" unicode="&#xbb;" horiz-adv-x="1050" 
d="M260 152l-100 75l211 305v21l-211 305l100 76l260 -361v-61zM631 152l-101 75l211 305v21l-211 305l101 76l260 -361v-61z" />
    <glyph glyph-name="onequarter" unicode="&#xbc;" horiz-adv-x="1179" 
d="M246 618v527l-148 -15v80l148 29l57 23h68v-644h-125zM932 1251l119 2l-811 -1251l-121 -2zM1157 250v-86h-90v-164h-111v164h-292l-15 86l281 379h137v-379h90zM760 250h196v262h-8l-190 -252z" />
    <glyph glyph-name="onehalf" unicode="&#xbd;" horiz-adv-x="1286" 
d="M246 618v527l-148 -15v80l148 29l57 23h68v-644h-125zM119 0l813 1251l119 2l-811 -1251zM743 0l-4 80q36 32 98 85.5t96 84.5t72.5 70.5t56 71.5t17.5 61q0 50 -33.5 76t-91.5 26q-91 0 -184 -49l6 90q94 59 197 59q109 0 171 -50t62 -134q0 -30 -12.5 -62t-29.5 -57.5
t-50.5 -60.5t-58.5 -58.5t-70.5 -64.5t-71.5 -66v-6h318l-6 -96h-482z" />
    <glyph glyph-name="threequarters" unicode="&#xbe;" horiz-adv-x="1304" 
d="M254 702q78 0 125 23.5t47 73.5q0 108 -262 108l4 76q233 6 233 111q0 75 -141 75q-80 0 -162 -24l6 86q89 31 181 31q122 0 180.5 -41t58.5 -109q0 -55 -37.5 -96.5t-115.5 -57.5q80 -12 127 -53t47 -102q0 -83 -81 -138t-212 -55q-103 0 -170 27l18 88q80 -23 154 -23z
M1057 1251l119 2l-811 -1251l-121 -2zM1282 250v-86h-90v-164h-111v164h-293l-14 86l281 379h137v-379h90zM885 250h196v262h-8l-190 -252z" />
    <glyph glyph-name="questiondown" unicode="&#xbf;" horiz-adv-x="739" 
d="M498 1038q14 -95 16 -153q-55 -12 -164 -8q0 76 10 161h138zM489 662q21 -116 21 -164q0 -63 -26 -130t-55 -110.5t-77 -105.5q-43 -60 -59.5 -83.5t-37 -66t-22.5 -74.5q-3 -77 90 -129t295 -78l-55 -112q-219 13 -344 93t-125 206q0 26 7 54.5t14 48t26.5 52t28.5 45.5
t36 51.5t34 47.5q9 12 40 55t39 55t27.5 44.5t25.5 49.5t12.5 43.5t6.5 51.5q0 17 -2.5 48.5t-5.5 65t-4 42.5h110z" />
    <glyph glyph-name="Agrave" unicode="&#xc0;" horiz-adv-x="1099" 
d="M692 1438h-145l-283 270q38 6 114 6t107 -6zM903 0l-84 270h-545l-88 -270h-157l438 1251l182 4l420 -1255h-166zM311 385h473l-229 741h-4z" />
    <glyph glyph-name="Aacute" unicode="&#xc1;" horiz-adv-x="1099" 
d="M866 1708l-282 -270h-146l207 270q31 6 107 6t114 -6zM903 0l-84 270h-545l-88 -270h-157l438 1251l182 4l420 -1255h-166zM311 385h473l-229 741h-4z" />
    <glyph glyph-name="Acircumflex" unicode="&#xc2;" horiz-adv-x="1099" 
d="M532 1563l-170 -125q-96 0 -157 6l248 237h190l252 -237q-67 -6 -164 -6l-166 125h-33zM903 0l-84 270h-545l-88 -270h-157l438 1251l182 4l420 -1255h-166zM311 385h473l-229 741h-4z" />
    <glyph glyph-name="Atilde" unicode="&#xc3;" horiz-adv-x="1099" 
d="M377 1559q-36 0 -66.5 -37.5t-48.5 -87.5l-110 32q37 101 92 153t137 52q52 0 117 -23.5t149.5 -59.5t151.5 -54q28 15 51 51t31 76l114 -31q-38 -110 -88 -157.5t-123 -47.5q-66 0 -152 33.5t-156.5 67t-98.5 33.5zM903 0l-84 270h-545l-88 -270h-157l438 1251l182 4
l420 -1255h-166zM311 385h473l-229 741h-4z" />
    <glyph glyph-name="Adieresis" unicode="&#xc4;" horiz-adv-x="1099" 
d="M393 1425h-153q-16 81 -19 174q81 13 185 7zM872 1425h-153q-16 81 -19 174q81 13 185 7zM903 0l-84 270h-545l-88 -270h-157l438 1251l182 4l420 -1255h-166zM311 385h473l-229 741h-4z" />
    <glyph glyph-name="Aring" unicode="&#xc5;" horiz-adv-x="1099" 
d="M541 1370q-113 0 -175.5 54.5t-62.5 152.5t69.5 154.5t188.5 56.5q103 0 170.5 -55.5t67.5 -149.5q0 -100 -68 -156.5t-190 -56.5zM446 1677q-24 -35 -24 -94q0 -60 35.5 -93.5t101.5 -33.5q53 0 88 21q35 38 35 96q0 61 -34.5 95t-96.5 34q-67 0 -105 -25zM903 0
l-84 270h-545l-88 -270h-157l438 1251l182 4l420 -1255h-166zM311 385h473l-229 741h-4z" />
    <glyph glyph-name="AE" unicode="&#xc6;" horiz-adv-x="1529" 
d="M834 590v-471h579l-8 -119h-711v373h-403l-189 -373h-159l655 1251h807l8 -118h-582v-428h519v-115h-516zM350 487h344v648h-16z" />
    <glyph glyph-name="Ccedilla" unicode="&#xc7;" horiz-adv-x="1030" 
d="M244 647q0 -245 115.5 -388.5t351.5 -143.5q121 0 245 37l-8 -127q-120 -29 -200 -37l-54 -113l70 -35q34 -16 49.5 -35.5t15.5 -52.5q0 -72 -90 -194h-123l84 184l-90 45q-55 24 -55 72q0 27 16 67l23 60q-244 23 -377 192t-133 443q0 143 37.5 261t111 206.5t191.5 137
t270 48.5q151 0 269 -37l-17 -127q-123 35 -266 35q-97 0 -164.5 -19.5t-132.5 -68.5q-66 -75 -102.5 -170.5t-36.5 -239.5z" />
    <glyph glyph-name="Egrave" unicode="&#xc8;" horiz-adv-x="1015" 
d="M676 1438h-146l-282 270q38 6 114 6t107 -6zM330 590v-471h569l-10 -119h-709v1251h709l10 -112h-569v-437h506l-11 -112h-495z" />
    <glyph glyph-name="Eacute" unicode="&#xc9;" horiz-adv-x="1015" 
d="M850 1708l-283 -270h-145l207 270q31 6 107 6t114 -6zM330 590v-471h569l-10 -119h-709v1251h709l10 -112h-569v-437h506l-11 -112h-495z" />
    <glyph glyph-name="Ecircumflex" unicode="&#xca;" horiz-adv-x="1015" 
d="M516 1563l-170 -125q-96 0 -158 6l248 237h191l252 -237q-67 -6 -164 -6l-166 125h-33zM330 590v-471h569l-10 -119h-709v1251h709l10 -112h-569v-437h506l-11 -112h-495z" />
    <glyph glyph-name="Edieresis" unicode="&#xcb;" horiz-adv-x="1015" 
d="M377 1425h-154q-15 75 -18 174q81 13 184 7zM856 1425h-154q-15 75 -18 174q81 13 184 7zM330 590v-471h569l-10 -119h-709v1251h709l10 -112h-569v-437h506l-11 -112h-495z" />
    <glyph glyph-name="Igrave" unicode="&#xcc;" horiz-adv-x="630" 
d="M457 1438h-146l-282 270q38 6 114 6t107 -6zM393 1139h-4v-1024h4l178 -9v-106h-512v106l181 9v1024l-181 6v106h512v-106z" />
    <glyph glyph-name="Iacute" unicode="&#xcd;" horiz-adv-x="630" 
d="M631 1708l-283 -270h-145l207 270q31 6 107 6t114 -6zM571 1251v-106l-178 -6h-4v-1024h4l178 -9v-106h-512v106l181 9v1024l-181 6v106h512z" />
    <glyph glyph-name="Icircumflex" unicode="&#xce;" horiz-adv-x="630" 
d="M297 1563l-170 -125q-97 0 -158 6l248 237h191l251 -237q-67 -6 -163 -6l-166 125h-33zM571 1251v-106l-178 -6h-4v-1024h4l178 -9v-106h-512v106l181 9v1024l-181 6v106h512z" />
    <glyph glyph-name="Idieresis" unicode="&#xcf;" horiz-adv-x="630" 
d="M219 1425h-153q-16 81 -19 174q81 13 184 7zM403 1599q81 13 185 7l-13 -181h-153q-16 81 -19 174zM571 1251v-106l-178 -6h-4v-1024h4l178 -9v-106h-512v106l181 9v1024l-181 6v106h512z" />
    <glyph glyph-name="Eth" unicode="&#xd0;" horiz-adv-x="1228" 
d="M551 1272q61 0 117.5 -7.5t117 -26t112 -47.5t98 -76.5t79 -108t51.5 -145.5t19 -187q0 -343 -162.5 -514.5t-468.5 -171.5q-139 0 -334 14v584h-166v112h166v549q176 25 371 25zM725 139q132 63 196 184.5t64 329.5q0 136 -31.5 232.5t-93 152.5t-143 81.5t-189.5 25.5
q-130 0 -198 -10v-437h184l-10 -112h-174v-461q91 -8 200 -8q111 0 195 22z" />
    <glyph glyph-name="Ntilde" unicode="&#xd1;" horiz-adv-x="1353" 
d="M911 1425q-66 0 -152 33.5t-156.5 67t-98.5 33.5q-36 0 -66.5 -37.5t-48.5 -87.5l-110 32q37 101 92 153t137 52q52 0 117 -23.5t149.5 -59.5t151.5 -54q28 15 51 51t31 76l114 -31q-38 -110 -88 -157.5t-123 -47.5zM180 0v1251h150l714 -1048h5l-7 1048h132v-1251h-146
l-717 1047h-4l4 -1047h-131z" />
    <glyph glyph-name="Ograve" unicode="&#xd2;" horiz-adv-x="1271" 
d="M633 1438l-283 270q38 6 114 6t107 -6l207 -270h-145zM631 -23q-166 0 -291 82t-190.5 226.5t-65.5 330.5q0 299 157.5 475.5t417.5 176.5q240 0 384.5 -173.5t144.5 -455.5q0 -299 -153 -480.5t-404 -181.5zM643 104q84 0 145 21t117 74q63 81 93 180t30 237
q0 249 -104.5 387t-276.5 138q-83 0 -141.5 -16t-124.5 -60q-137 -169 -137 -426q0 -252 108.5 -393.5t290.5 -141.5z" />
    <glyph glyph-name="Oacute" unicode="&#xd3;" horiz-adv-x="1271" 
d="M524 1438l207 270q31 6 107 6t114 -6l-282 -270h-146zM631 -23q-166 0 -291 82t-190.5 226.5t-65.5 330.5q0 299 157.5 475.5t417.5 176.5q240 0 384.5 -173.5t144.5 -455.5q0 -299 -153 -480.5t-404 -181.5zM643 104q84 0 145 21t117 74q63 81 93 180t30 237
q0 249 -104.5 387t-276.5 138q-83 0 -141.5 -16t-124.5 -60q-137 -169 -137 -426q0 -252 108.5 -393.5t290.5 -141.5z" />
    <glyph glyph-name="Ocircumflex" unicode="&#xd4;" horiz-adv-x="1271" 
d="M449 1438q-97 0 -158 6l248 237h190l252 -237q-67 -6 -164 -6l-166 125h-33zM631 -23q-166 0 -291 82t-190.5 226.5t-65.5 330.5q0 299 157.5 475.5t417.5 176.5q240 0 384.5 -173.5t144.5 -455.5q0 -299 -153 -480.5t-404 -181.5zM643 104q84 0 145 21t117 74
q63 81 93 180t30 237q0 249 -104.5 387t-276.5 138q-83 0 -141.5 -16t-124.5 -60q-137 -169 -137 -426q0 -252 108.5 -393.5t290.5 -141.5z" />
    <glyph glyph-name="Otilde" unicode="&#xd5;" horiz-adv-x="1271" 
d="M870 1425q-66 0 -152 33.5t-156.5 67t-98.5 33.5q-36 0 -66.5 -37.5t-48.5 -87.5l-110 32q37 101 92 153t137 52q52 0 117 -23.5t149.5 -59.5t151.5 -54q28 15 51 51t31 76l114 -31q-38 -110 -88 -157.5t-123 -47.5zM631 -23q-166 0 -291 82t-190.5 226.5t-65.5 330.5
q0 299 157.5 475.5t417.5 176.5q240 0 384.5 -173.5t144.5 -455.5q0 -299 -153 -480.5t-404 -181.5zM643 104q84 0 145 21t117 74q63 81 93 180t30 237q0 249 -104.5 387t-276.5 138q-83 0 -141.5 -16t-124.5 -60q-137 -169 -137 -426q0 -252 108.5 -393.5t290.5 -141.5z
" />
    <glyph glyph-name="Odieresis" unicode="&#xd6;" horiz-adv-x="1271" 
d="M326 1425q-16 81 -19 174q81 13 185 7l-13 -181h-153zM805 1425q-16 81 -19 174q81 13 185 7l-13 -181h-153zM631 -23q-166 0 -291 82t-190.5 226.5t-65.5 330.5q0 299 157.5 475.5t417.5 176.5q240 0 384.5 -173.5t144.5 -455.5q0 -299 -153 -480.5t-404 -181.5z
M643 104q84 0 145 21t117 74q63 81 93 180t30 237q0 249 -104.5 387t-276.5 138q-83 0 -141.5 -16t-124.5 -60q-137 -169 -137 -426q0 -252 108.5 -393.5t290.5 -141.5z" />
    <glyph glyph-name="multiply" unicode="&#xd7;" horiz-adv-x="960" 
d="M184 182l-78 80l293 293v8l-290 281l77 80l291 -291h6l289 295l78 -80l-295 -285v-8l299 -297l-78 -80l-293 301h-6z" />
    <glyph glyph-name="Oslash" unicode="&#xd8;" horiz-adv-x="1271" 
d="M999 1141q91 -84 140 -213t49 -289q0 -299 -153 -480.5t-404 -181.5q-146 0 -266 68l-113 -192h-139l153 266q-88 85 -135 213t-47 284q0 299 157.5 475.5t417.5 176.5q128 0 240 -56l119 205h143zM244 639q0 -244 102 -383l483 836q-79 49 -182 49q-83 0 -141.5 -16
t-124.5 -60q-137 -169 -137 -426zM905 199q63 81 93 180t30 237q0 253 -106 390l-488 -840q89 -62 209 -62q84 0 145 21t117 74z" />
    <glyph glyph-name="Ugrave" unicode="&#xd9;" horiz-adv-x="1251" 
d="M623 1438l-283 270q38 6 114 6t107 -6l207 -270h-145zM946 1251h152v-716q0 -290 -117.5 -426t-368.5 -136q-458 0 -458 539v739h149v-716q0 -221 80 -326t252 -105q163 0 237 98.5t74 309.5v739z" />
    <glyph glyph-name="Uacute" unicode="&#xda;" horiz-adv-x="1251" 
d="M514 1438l207 270q31 6 107 6t114 -6l-283 -270h-145zM946 1251h152v-716q0 -290 -117.5 -426t-368.5 -136q-458 0 -458 539v739h149v-716q0 -221 80 -326t252 -105q163 0 237 98.5t74 309.5v739z" />
    <glyph glyph-name="Ucircumflex" unicode="&#xdb;" horiz-adv-x="1251" 
d="M438 1438q-96 0 -157 6l247 237h191l252 -237q-67 -6 -164 -6l-166 125h-33zM946 1251h152v-716q0 -290 -117.5 -426t-368.5 -136q-458 0 -458 539v739h149v-716q0 -221 80 -326t252 -105q163 0 237 98.5t74 309.5v739z" />
    <glyph glyph-name="Udieresis" unicode="&#xdc;" horiz-adv-x="1251" 
d="M315 1425q-15 75 -18 174q81 13 184 7l-12 -181h-154zM795 1425q-16 81 -19 174q81 13 185 7l-13 -181h-153zM946 1251h152v-716q0 -290 -117.5 -426t-368.5 -136q-458 0 -458 539v739h149v-716q0 -221 80 -326t252 -105q163 0 237 98.5t74 309.5v739z" />
    <glyph glyph-name="Yacute" unicode="&#xdd;" horiz-adv-x="1050" 
d="M414 1438l207 270q31 6 107 6t114 -6l-283 -270h-145zM451 0v504l-428 747h174l327 -612h15l327 612h162l-428 -747v-504h-149z" />
    <glyph glyph-name="Thorn" unicode="&#xde;" horiz-adv-x="1083" 
d="M494 1079q96 0 171 -10t143.5 -37.5t113.5 -72.5t71.5 -118.5t26.5 -172.5q0 -245 -132 -353t-390 -108h-168v-207h-150v1251h150v-178q99 6 164 6zM745 360q53 38 86 112t33 179q0 93 -22.5 153.5t-73 95t-119 48t-172.5 13.5q-31 0 -147 -7v-628h198q137 0 217 34z" />
    <glyph glyph-name="germandbls" unicode="&#xdf;" horiz-adv-x="1050" 
d="M582 928l225 299v16q-79 82 -238 82q-144 0 -223 -53q-37 -81 -37 -246v-1026h-145v997q0 236 103 343.5t308 107.5q168 0 263.5 -60t95.5 -137q0 -44 -45 -104l-260 -354v-9q29 -26 79 -69t73.5 -63.5t61 -56t55 -57t41 -54t33.5 -60t17.5 -62t7.5 -71.5
q0 -66 -20.5 -121.5t-62.5 -99t-111.5 -68.5t-161.5 -25q-93 0 -186 46l28 122q86 -39 181 -39q87 0 153 37q35 55 35 136q0 82 -58 153.5t-204 198.5q-44 38 -64 68.5t-20 64.5q0 61 76 164z" />
    <glyph glyph-name="agrave" unicode="&#xe0;" horiz-adv-x="1026" 
d="M580 1188l-281 319q62 39 170 45l231 -364h-120zM401 -12q-75 0 -135 26t-95.5 68.5t-54 93t-18.5 103.5q0 91 38 160t106 108q102 59 354 59q86 0 129 -6v29q0 78 -10 127t-36 84t-72.5 50t-119.5 15q-162 0 -323 -53l8 123q167 55 338 55q187 0 274.5 -85t87.5 -275
v-670h-129l-18 125q-137 -137 -324 -137zM442 109q77 0 152 34.5t131 102.5v252q-102 8 -154 8q-67 0 -103 -2t-91 -14t-98 -37q-37 -47 -37 -150q0 -88 52.5 -141t147.5 -53z" />
    <glyph glyph-name="aacute" unicode="&#xe1;" horiz-adv-x="1026" 
d="M504 1188h-121l231 364q94 -6 170 -45zM401 -12q-75 0 -135 26t-95.5 68.5t-54 93t-18.5 103.5q0 91 38 160t106 108q102 59 354 59q86 0 129 -6v29q0 78 -10 127t-36 84t-72.5 50t-119.5 15q-162 0 -323 -53l8 123q167 55 338 55q187 0 274.5 -85t87.5 -275v-670h-129
l-18 125q-137 -137 -324 -137zM442 109q77 0 152 34.5t131 102.5v252q-102 8 -154 8q-67 0 -103 -2t-91 -14t-98 -37q-37 -47 -37 -150q0 -88 52.5 -141t147.5 -53z" />
    <glyph glyph-name="acircumflex" unicode="&#xe2;" horiz-adv-x="1026" 
d="M297 1188q-69 0 -115 22l260 342h105l258 -342q-49 -22 -113 -22l-182 205h-33zM401 -12q-75 0 -135 26t-95.5 68.5t-54 93t-18.5 103.5q0 91 38 160t106 108q102 59 354 59q86 0 129 -6v29q0 78 -10 127t-36 84t-72.5 50t-119.5 15q-162 0 -323 -53l8 123q167 55 338 55
q187 0 274.5 -85t87.5 -275v-670h-129l-18 125q-137 -137 -324 -137zM442 109q77 0 152 34.5t131 102.5v252q-102 8 -154 8q-67 0 -103 -2t-91 -14t-98 -37q-37 -47 -37 -150q0 -88 52.5 -141t147.5 -53z" />
    <glyph glyph-name="atilde" unicode="&#xe3;" horiz-adv-x="1026" 
d="M678 1176q-49 0 -118 35t-127.5 69.5t-80.5 34.5q-23 0 -53 -39.5t-53 -89.5l-96 31q45 100 92 152t108 52q50 0 99.5 -23t116 -62.5t124.5 -61.5q54 42 92 137l99 -31q-87 -204 -203 -204zM401 -12q-75 0 -135 26t-95.5 68.5t-54 93t-18.5 103.5q0 91 38 160t106 108
q102 59 354 59q86 0 129 -6v29q0 78 -10 127t-36 84t-72.5 50t-119.5 15q-162 0 -323 -53l8 123q167 55 338 55q187 0 274.5 -85t87.5 -275v-670h-129l-18 125q-137 -137 -324 -137zM442 109q77 0 152 34.5t131 102.5v252q-102 8 -154 8q-67 0 -103 -2t-91 -14t-98 -37
q-37 -47 -37 -150q0 -88 52.5 -141t147.5 -53z" />
    <glyph glyph-name="adieresis" unicode="&#xe4;" horiz-adv-x="1026" 
d="M244 1176q-16 81 -19 174q77 13 185 6l-13 -180h-153zM600 1176q-15 75 -18 174q77 13 184 6l-12 -180h-154zM401 -12q-75 0 -135 26t-95.5 68.5t-54 93t-18.5 103.5q0 91 38 160t106 108q102 59 354 59q86 0 129 -6v29q0 78 -10 127t-36 84t-72.5 50t-119.5 15
q-162 0 -323 -53l8 123q167 55 338 55q187 0 274.5 -85t87.5 -275v-670h-129l-18 125q-137 -137 -324 -137zM442 109q77 0 152 34.5t131 102.5v252q-102 8 -154 8q-67 0 -103 -2t-91 -14t-98 -37q-37 -47 -37 -150q0 -88 52.5 -141t147.5 -53z" />
    <glyph glyph-name="aring" unicode="&#xe5;" horiz-adv-x="1026" 
d="M483 1122q-109 0 -171 61.5t-62 168.5t68.5 168t185.5 61q101 0 167 -61.5t66 -167.5q0 -108 -66.5 -169t-187.5 -61zM502 1208q52 0 94 19q29 51 29 112q0 73 -34.5 114.5t-96.5 41.5q-71 0 -105 -27q-24 -37 -24 -110q0 -70 36 -110t101 -40zM401 -12q-75 0 -135 26
t-95.5 68.5t-54 93t-18.5 103.5q0 91 38 160t106 108q102 59 354 59q86 0 129 -6v29q0 78 -10 127t-36 84t-72.5 50t-119.5 15q-162 0 -323 -53l8 123q167 55 338 55q187 0 274.5 -85t87.5 -275v-670h-129l-18 125q-137 -137 -324 -137zM442 109q77 0 152 34.5t131 102.5
v252q-102 8 -154 8q-67 0 -103 -2t-91 -14t-98 -37q-37 -47 -37 -150q0 -88 52.5 -141t147.5 -53z" />
    <glyph glyph-name="ae" unicode="&#xe6;" horiz-adv-x="1638" 
d="M395 -12q-72 0 -130 26t-93.5 68.5t-54.5 93t-19 103.5q0 71 37 132.5t109 104.5q116 70 342 70q21 0 43.5 -1t50 -2.5t43.5 -2.5v49q2 150 -47.5 213t-190.5 63q-158 0 -329 -63l10 121q170 67 342 67q249 0 307 -194h16q50 94 137.5 144t205.5 50q167 0 270.5 -108
t103.5 -306q0 -86 -12 -133h-668q17 -372 342 -372q143 0 287 39l-6 -115q-142 -47 -309 -47q-306 0 -408 274h-14q-45 -134 -141.5 -204t-223.5 -70zM872 578h535q-9 331 -248 331q-116 0 -182 -55q-95 -103 -105 -276zM430 109q53 0 100 19t90 60.5t70 118t31 180.5
q-122 5 -160 5q-176 0 -272 -62q-49 -60 -49 -127q0 -89 49 -141.5t141 -52.5z" />
    <glyph glyph-name="ccedilla" unicode="&#xe7;" horiz-adv-x="894" 
d="M819 20q-81 -33 -198 -40l-43 -93l90 -47q34 -17 50.5 -36t16.5 -52q0 -69 -92 -194h-106l79 176l-102 53q-55 24 -55 72q0 27 16 67l21 54q-176 16 -289 146t-113 363q0 251 128.5 396t348.5 145q146 0 234 -39l-8 -123q-140 35 -246 35q-120 0 -197 -57
q-108 -108 -108 -340q0 -107 29 -187.5t79 -125.5t110 -67t128 -22q95 0 231 39z" />
    <glyph glyph-name="egrave" unicode="&#xe8;" horiz-adv-x="1044" 
d="M766 1188h-121l-280 319q62 39 170 45zM954 623q0 -89 -10 -136h-690q12 -387 356 -387q147 0 293 50l-8 -115q-147 -58 -307 -58q-229 0 -355.5 134t-126.5 383q0 152 50 271t155.5 192t253.5 73q185 0 287 -104t102 -303zM561 913q-123 0 -201 -67q-88 -105 -102 -258
h555q-1 162 -65.5 243.5t-186.5 81.5z" />
    <glyph glyph-name="eacute" unicode="&#xe9;" horiz-adv-x="1044" 
d="M850 1507l-281 -319h-120l231 364q94 -6 170 -45zM954 623q0 -89 -10 -136h-690q12 -387 356 -387q147 0 293 50l-8 -115q-147 -58 -307 -58q-229 0 -355.5 134t-126.5 383q0 152 50 271t155.5 192t253.5 73q185 0 287 -104t102 -303zM561 913q-123 0 -201 -67
q-88 -105 -102 -258h555q-1 162 -65.5 243.5t-186.5 81.5z" />
    <glyph glyph-name="ecircumflex" unicode="&#xea;" horiz-adv-x="1044" 
d="M543 1393l-181 -205q-68 0 -114 22l260 342h104l258 -342q-49 -22 -112 -22l-183 205h-32zM954 623q0 -89 -10 -136h-690q12 -387 356 -387q147 0 293 50l-8 -115q-147 -58 -307 -58q-229 0 -355.5 134t-126.5 383q0 152 50 271t155.5 192t253.5 73q185 0 287 -104
t102 -303zM561 913q-123 0 -201 -67q-88 -105 -102 -258h555q-1 162 -65.5 243.5t-186.5 81.5z" />
    <glyph glyph-name="edieresis" unicode="&#xeb;" horiz-adv-x="1044" 
d="M463 1176h-154q-15 75 -18 174q77 13 184 6zM819 1176h-153q-16 81 -19 174q77 13 184 6zM954 623q0 -89 -10 -136h-690q12 -387 356 -387q147 0 293 50l-8 -115q-147 -58 -307 -58q-229 0 -355.5 134t-126.5 383q0 152 50 271t155.5 192t253.5 73q185 0 287 -104
t102 -303zM561 913q-123 0 -201 -67q-88 -105 -102 -258h555q-1 162 -65.5 243.5t-186.5 81.5z" />
    <glyph glyph-name="igrave" unicode="&#xec;" horiz-adv-x="526" 
d="M344 1188l-281 319q62 39 170 45l232 -364h-121zM217 0v885l-162 8l11 108h296v-1001h-145z" />
    <glyph glyph-name="iacute" unicode="&#xed;" horiz-adv-x="526" 
d="M268 1188h-121l232 364q94 -6 170 -45zM217 0v885l-162 8l11 108h296v-1001h-145z" />
    <glyph glyph-name="icircumflex" unicode="&#xee;" horiz-adv-x="526" 
d="M61 1188q-68 0 -114 22l260 342h104l258 -342q-49 -22 -112 -22l-183 205h-32zM217 0v885l-162 8l11 108h296v-1001h-145z" />
    <glyph glyph-name="idieresis" unicode="&#xef;" horiz-adv-x="526" 
d="M8 1176q-15 75 -18 174q77 13 184 6l-12 -180h-154zM365 1176q-16 81 -19 174q77 13 184 6l-12 -180h-153zM217 0v885l-162 8l11 108h296v-1001h-145z" />
    <glyph glyph-name="eth" unicode="&#xf0;" horiz-adv-x="1087" 
d="M653 1366q160 -131 236 -320t76 -456q0 -302 -115 -453t-326 -151q-199 0 -313.5 127t-114.5 364q0 135 37.5 240.5t102 170t146 97.5t173.5 33q112 0 207 -55l6 2q-59 201 -215 333l-205 -145l-76 59l193 152q-80 55 -225 117l73 73q138 -52 246 -120l146 120
q84 -6 159 -43zM745 199q38 90 53 164.5t15 222.5q0 149 -16 250q-93 63 -238 63q-58 0 -99.5 -10t-94.5 -33q-117 -108 -117 -346q0 -190 75 -295.5t218 -105.5q117 0 204 90z" />
    <glyph glyph-name="ntilde" unicode="&#xf1;" horiz-adv-x="1132" 
d="M729 1176q-49 0 -118 35t-127.5 69.5t-80.5 34.5q-23 0 -53 -39.5t-53 -89.5l-96 31q45 100 92 152t108 52q50 0 99.5 -23t116 -62.5t124.5 -61.5q56 43 93 137l98 -31q-87 -204 -203 -204zM696 1028q140 0 211.5 -72.5t71.5 -234.5v-721h-145v700q0 107 -49.5 154
t-149.5 47q-162 0 -326 -115v-786h-145v1001l137 17l4 -131q105 68 197 104.5t194 36.5z" />
    <glyph glyph-name="ograve" unicode="&#xf2;" horiz-adv-x="1110" 
d="M653 1188l-280 319q62 39 170 45l231 -364h-121zM539 -23q-205 0 -324 135t-119 363q0 256 127 404.5t357 148.5q195 0 315.5 -134.5t120.5 -358.5q0 -255 -128.5 -406.5t-348.5 -151.5zM561 98q145 0 234 99q67 122 67 315q0 190 -83 292.5t-220 102.5
q-83 0 -134.5 -23.5t-100.5 -78.5q-76 -119 -76 -307q0 -193 80 -296.5t233 -103.5z" />
    <glyph glyph-name="oacute" unicode="&#xf3;" horiz-adv-x="1110" 
d="M578 1188h-121l231 364q94 -6 170 -45zM539 -23q-205 0 -324 135t-119 363q0 256 127 404.5t357 148.5q195 0 315.5 -134.5t120.5 -358.5q0 -255 -128.5 -406.5t-348.5 -151.5zM561 98q145 0 234 99q67 122 67 315q0 190 -83 292.5t-220 102.5q-83 0 -134.5 -23.5
t-100.5 -78.5q-76 -119 -76 -307q0 -193 80 -296.5t233 -103.5z" />
    <glyph glyph-name="ocircumflex" unicode="&#xf4;" horiz-adv-x="1110" 
d="M371 1188q-69 0 -115 22l260 342h105l258 -342q-49 -22 -113 -22l-182 205h-33zM539 -23q-205 0 -324 135t-119 363q0 256 127 404.5t357 148.5q195 0 315.5 -134.5t120.5 -358.5q0 -255 -128.5 -406.5t-348.5 -151.5zM561 98q145 0 234 99q67 122 67 315
q0 190 -83 292.5t-220 102.5q-83 0 -134.5 -23.5t-100.5 -78.5q-76 -119 -76 -307q0 -193 80 -296.5t233 -103.5z" />
    <glyph glyph-name="otilde" unicode="&#xf5;" horiz-adv-x="1110" 
d="M752 1176q-49 0 -118 35t-127.5 69.5t-80.5 34.5q-23 0 -53.5 -39.5t-53.5 -89.5l-96 31q45 99 92.5 151.5t108.5 52.5q50 0 99.5 -23t116 -62.5t124.5 -61.5q54 42 92 137l98 -31q-87 -204 -202 -204zM539 -23q-205 0 -324 135t-119 363q0 256 127 404.5t357 148.5
q195 0 315.5 -134.5t120.5 -358.5q0 -255 -128.5 -406.5t-348.5 -151.5zM561 98q145 0 234 99q67 122 67 315q0 190 -83 292.5t-220 102.5q-83 0 -134.5 -23.5t-100.5 -78.5q-76 -119 -76 -307q0 -193 80 -296.5t233 -103.5z" />
    <glyph glyph-name="odieresis" unicode="&#xf6;" horiz-adv-x="1110" 
d="M317 1176q-15 75 -18 174q77 13 184 6l-12 -180h-154zM674 1176q-16 81 -19 174q77 13 185 6l-13 -180h-153zM539 -23q-205 0 -324 135t-119 363q0 256 127 404.5t357 148.5q195 0 315.5 -134.5t120.5 -358.5q0 -255 -128.5 -406.5t-348.5 -151.5zM561 98q145 0 234 99
q67 122 67 315q0 190 -83 292.5t-220 102.5q-83 0 -134.5 -23.5t-100.5 -78.5q-76 -119 -76 -307q0 -193 80 -296.5t233 -103.5z" />
    <glyph glyph-name="divide" unicode="&#xf7;" horiz-adv-x="864" 
d="M365 852q-16 86 -19 158q29 6 88 6q57 0 86 -6q-3 -71 -16 -158h-139zM68 500l8 114h721l-6 -114h-723zM504 264q13 -92 16 -160q-29 -4 -88 -4q-57 0 -86 4q3 71 19 160h139z" />
    <glyph glyph-name="oslash" unicode="&#xf8;" horiz-adv-x="1110" 
d="M842 944q83 -64 128.5 -169t45.5 -240q0 -255 -128.5 -406.5t-348.5 -151.5q-102 0 -183 35l-92 -176h-131l123 236q-160 135 -160 403q0 256 127 404.5t357 148.5q82 0 161 -29l99 189h129zM248 498q0 -189 78 -293l354 678q-55 24 -121 24q-83 0 -134.5 -23.5
t-100.5 -78.5q-76 -119 -76 -307zM795 197q67 122 67 315q0 194 -90 301l-354 -684q64 -31 143 -31q145 0 234 99z" />
    <glyph glyph-name="ugrave" unicode="&#xf9;" horiz-adv-x="1116" 
d="M643 1188l-281 319q62 39 170 45l232 -364h-121zM434 -27q-137 0 -208.5 73t-71.5 235v720h145v-700q0 -109 50 -155t153 -46q76 0 148 29.5t155 108.5v763h147v-1001h-129l-12 137q-93 -87 -181 -125.5t-196 -38.5z" />
    <glyph glyph-name="uacute" unicode="&#xfa;" horiz-adv-x="1116" 
d="M567 1188h-121l232 364q94 -6 170 -45zM434 -27q-137 0 -208.5 73t-71.5 235v720h145v-700q0 -109 50 -155t153 -46q76 0 148 29.5t155 108.5v763h147v-1001h-129l-12 137q-93 -87 -181 -125.5t-196 -38.5z" />
    <glyph glyph-name="ucircumflex" unicode="&#xfb;" horiz-adv-x="1116" 
d="M360 1188q-68 0 -114 22l260 342h104l258 -342q-49 -22 -112 -22l-183 205h-32zM434 -27q-137 0 -208.5 73t-71.5 235v720h145v-700q0 -109 50 -155t153 -46q76 0 148 29.5t155 108.5v763h147v-1001h-129l-12 137q-93 -87 -181 -125.5t-196 -38.5z" />
    <glyph glyph-name="udieresis" unicode="&#xfc;" horiz-adv-x="1116" 
d="M307 1176q-15 75 -18 174q77 13 184 6l-12 -180h-154zM664 1176q-16 81 -19 174q77 13 184 6l-12 -180h-153zM434 -27q-137 0 -208.5 73t-71.5 235v720h145v-700q0 -109 50 -155t153 -46q76 0 148 29.5t155 108.5v763h147v-1001h-129l-12 137q-93 -87 -181 -125.5
t-196 -38.5z" />
    <glyph glyph-name="yacute" unicode="&#xfd;" horiz-adv-x="909" 
d="M473 1188h-121l232 364q94 -6 170 -45zM743 1001h152l-346 -987l-184 -401h-156l199 397v4l-394 987h158l303 -849h4z" />
    <glyph glyph-name="thorn" unicode="&#xfe;" horiz-adv-x="1091" 
d="M164 -406v1821l145 19v-525l15 -4q87 68 157.5 95.5t147.5 27.5q172 0 270 -122.5t98 -352.5q0 -142 -41 -254t-112.5 -181t-163.5 -105t-197 -36q-85 0 -174 25v-389zM500 98q118 0 223 54q121 121 121 378q0 182 -59.5 276.5t-204.5 94.5q-133 0 -271 -117v-647
q85 -39 191 -39z" />
    <glyph glyph-name="ydieresis" unicode="&#xff;" horiz-adv-x="909" 
d="M213 1176q-15 75 -18 174q77 13 184 6l-12 -180h-154zM569 1176q-15 75 -18 174q77 13 184 6l-12 -180h-154zM743 1001h152l-346 -987l-184 -401h-156l199 397v4l-394 987h158l303 -849h4z" />
    <glyph glyph-name="Amacron" unicode="&#x100;" horiz-adv-x="1099" 
d="M911 1556l-12 -110h-706l10 110h708zM903 0l-84 270h-545l-88 -270h-157l438 1251l182 4l420 -1255h-166zM311 385h473l-229 741h-4z" />
    <glyph glyph-name="amacron" unicode="&#x101;" horiz-adv-x="1026" 
d="M158 1188l10 108h663l-12 -108h-661zM401 -12q-75 0 -135 26t-95.5 68.5t-54 93t-18.5 103.5q0 91 38 160t106 108q102 59 354 59q86 0 129 -6v29q0 78 -10 127t-36 84t-72.5 50t-119.5 15q-162 0 -323 -53l8 123q167 55 338 55q187 0 274.5 -85t87.5 -275v-670h-129
l-18 125q-137 -137 -324 -137zM442 109q77 0 152 34.5t131 102.5v252q-102 8 -154 8q-67 0 -103 -2t-91 -14t-98 -37q-37 -47 -37 -150q0 -88 52.5 -141t147.5 -53z" />
    <glyph glyph-name="Abreve" unicode="&#x102;" horiz-adv-x="1099" 
d="M551 1415q-120 0 -208.5 72.5t-102.5 204.5q53 16 116 16q44 -170 195 -170q153 0 197 170q64 0 114 -16q-14 -132 -101.5 -204.5t-209.5 -72.5zM903 0l-84 270h-545l-88 -270h-157l438 1251l182 4l420 -1255h-166zM311 385h473l-229 741h-4z" />
    <glyph glyph-name="abreve" unicode="&#x103;" horiz-adv-x="1026" 
d="M700 1468q43 0 105 -16q-32 -141 -113 -214t-198 -73q-116 0 -198 73.5t-114 213.5q66 16 105 16q62 -180 207 -180q147 0 206 180zM401 -12q-75 0 -135 26t-95.5 68.5t-54 93t-18.5 103.5q0 91 38 160t106 108q102 59 354 59q86 0 129 -6v29q0 78 -10 127t-36 84
t-72.5 50t-119.5 15q-162 0 -323 -53l8 123q167 55 338 55q187 0 274.5 -85t87.5 -275v-670h-129l-18 125q-137 -137 -324 -137zM442 109q77 0 152 34.5t131 102.5v252q-102 8 -154 8q-67 0 -103 -2t-91 -14t-98 -37q-37 -47 -37 -150q0 -88 52.5 -141t147.5 -53z" />
    <glyph glyph-name="Aogonek" unicode="&#x104;" horiz-adv-x="1099" 
d="M981 -322q40 0 90 21l-8 -92q-49 -33 -113 -33q-71 0 -115 39.5t-44 103.5q0 59 41.5 128t117.5 155h-47l-84 270h-545l-88 -270h-157l438 1251l182 4l420 -1255q-79 -84 -117.5 -144t-38.5 -110q0 -68 68 -68zM311 385h473l-229 741h-4z" />
    <glyph glyph-name="aogonek" unicode="&#x105;" horiz-adv-x="1026" 
d="M784 -322q40 0 90 21l-8 -92q-49 -33 -112 -33q-71 0 -115.5 39.5t-44.5 103.5q0 59 42 127.5t118 155.5h-11l-18 125q-137 -137 -324 -137q-75 0 -135 26t-95.5 68.5t-54 93t-18.5 103.5q0 91 38 160t106 108q102 59 354 59q86 0 129 -6v29q0 78 -10 127t-36 84
t-72.5 50t-119.5 15q-162 0 -323 -53l8 123q167 55 338 55q187 0 274.5 -85t87.5 -275v-670q-78 -83 -116.5 -143.5t-38.5 -110.5q0 -68 67 -68zM725 246v252q-102 8 -154 8q-67 0 -103 -2t-91 -14t-98 -37q-37 -47 -37 -150q0 -88 52.5 -141t147.5 -53q77 0 152 34.5
t131 102.5z" />
    <glyph glyph-name="Cacute" unicode="&#x106;" horiz-adv-x="1030" 
d="M537 1438l206 270q31 6 107.5 6t114.5 -6l-283 -270h-145zM664 -16q-277 0 -428.5 171.5t-151.5 465.5q0 143 37.5 261t111 206.5t191.5 137t270 48.5q151 0 269 -37l-17 -127q-123 35 -266 35q-97 0 -164.5 -19.5t-132.5 -68.5q-66 -75 -102.5 -170.5t-36.5 -239.5
q0 -245 115.5 -388.5t351.5 -143.5q121 0 245 37l-8 -127q-161 -41 -284 -41z" />
    <glyph glyph-name="cacute" unicode="&#x107;" horiz-adv-x="894" 
d="M459 1188h-121l231 364q94 -6 170 -45zM541 -23q-92 0 -172 31.5t-142 93t-97.5 161t-35.5 226.5q0 251 128.5 396t348.5 145q146 0 234 -39l-8 -123q-140 35 -246 35q-120 0 -197 -57q-108 -108 -108 -340q0 -107 29 -187.5t79 -125.5t110 -67t128 -22q95 0 231 39
l-4 -123q-106 -43 -278 -43z" />
    <glyph glyph-name="Cdotaccent" unicode="&#x10a;" horiz-adv-x="1030" 
d="M578 1425q-16 81 -19 174q81 13 184 7l-12 -181h-153zM664 -16q-277 0 -428.5 171.5t-151.5 465.5q0 143 37.5 261t111 206.5t191.5 137t270 48.5q151 0 269 -37l-17 -127q-123 35 -266 35q-97 0 -164.5 -19.5t-132.5 -68.5q-66 -75 -102.5 -170.5t-36.5 -239.5
q0 -245 115.5 -388.5t351.5 -143.5q121 0 245 37l-8 -127q-161 -41 -284 -41z" />
    <glyph glyph-name="cdotaccent" unicode="&#x10b;" horiz-adv-x="894" 
d="M377 1176q-16 81 -19 174q77 13 185 6l-13 -180h-153zM541 -23q-92 0 -172 31.5t-142 93t-97.5 161t-35.5 226.5q0 251 128.5 396t348.5 145q146 0 234 -39l-8 -123q-140 35 -246 35q-120 0 -197 -57q-108 -108 -108 -340q0 -107 29 -187.5t79 -125.5t110 -67t128 -22
q95 0 231 39l-4 -123q-106 -43 -278 -43z" />
    <glyph glyph-name="Ccaron" unicode="&#x10c;" horiz-adv-x="1030" 
d="M541 1438l-248 239q74 7 160 4l180 -145h33l182 145q91 3 160 -4l-242 -239h-225zM664 -16q-277 0 -428.5 171.5t-151.5 465.5q0 143 37.5 261t111 206.5t191.5 137t270 48.5q151 0 269 -37l-17 -127q-123 35 -266 35q-97 0 -164.5 -19.5t-132.5 -68.5
q-66 -75 -102.5 -170.5t-36.5 -239.5q0 -245 115.5 -388.5t351.5 -143.5q121 0 245 37l-8 -127q-161 -41 -284 -41z" />
    <glyph glyph-name="ccaron" unicode="&#x10d;" horiz-adv-x="894" 
d="M647 1552q60 0 113 -22l-258 -342h-105l-260 342q60 22 115 22l180 -204h33zM541 -23q-92 0 -172 31.5t-142 93t-97.5 161t-35.5 226.5q0 251 128.5 396t348.5 145q146 0 234 -39l-8 -123q-140 35 -246 35q-120 0 -197 -57q-108 -108 -108 -340q0 -107 29 -187.5
t79 -125.5t110 -67t128 -22q95 0 231 39l-4 -123q-106 -43 -278 -43z" />
    <glyph glyph-name="Dcaron" unicode="&#x10e;" horiz-adv-x="1228" 
d="M453 1440l-248 239q74 7 160 4l180 -145h33l182 145q91 3 160 -4l-242 -239h-225zM514 -12q-139 0 -334 14v1245q176 25 371 25q61 0 117.5 -7.5t117 -26t112 -47.5t98 -76.5t79 -108t51.5 -145.5t19 -187q0 -343 -162.5 -514.5t-468.5 -171.5zM530 117q111 0 195 22
q132 63 196 184.5t64 329.5q0 136 -31.5 232.5t-93 152.5t-143 81.5t-189.5 25.5q-130 0 -198 -10v-1010q91 -8 200 -8z" />
    <glyph glyph-name="dcaron" unicode="&#x10f;" horiz-adv-x="1091" 
d="M1047 991l2 447q92 10 147 18l-45 -465q-17 -1 -52 -1t-52 1zM479 -14q-174 0 -278.5 126t-104.5 361q0 139 41 247.5t112 175t162 100.5t197 34q92 0 174 -26v411l146 19v-1434h-123l-10 129q-140 -143 -316 -143zM528 109q141 0 254 133v635q-82 30 -194 30
q-117 0 -219 -51q-121 -106 -121 -352q0 -395 280 -395z" />
    <glyph glyph-name="Dcroat" unicode="&#x110;" horiz-adv-x="1228" 
d="M551 1272q61 0 117.5 -7.5t117 -26t112 -47.5t98 -76.5t79 -108t51.5 -145.5t19 -187q0 -343 -162.5 -514.5t-468.5 -171.5q-139 0 -334 14v584h-166v112h166v549q176 25 371 25zM725 139q132 63 196 184.5t64 329.5q0 136 -31.5 232.5t-93 152.5t-143 81.5t-189.5 25.5
q-130 0 -198 -10v-437h184l-10 -112h-174v-461q91 -8 200 -8q111 0 195 22z" />
    <glyph glyph-name="dcroat" unicode="&#x111;" horiz-adv-x="1091" 
d="M1108 1260l-10 -113h-170v-1147h-123l-10 129q-140 -143 -316 -143q-174 0 -278.5 126t-104.5 361q0 139 41 247.5t112 175t162 100.5t197 34q92 0 174 -26v143h-174v113h174v155l146 19v-174h180zM782 242v635q-82 30 -194 30q-117 0 -219 -51q-121 -106 -121 -352
q0 -395 280 -395q141 0 254 133z" />
    <glyph glyph-name="Emacron" unicode="&#x112;" horiz-adv-x="1015" 
d="M895 1556l-12 -110h-707l10 110h709zM330 590v-471h569l-10 -119h-709v1251h709l10 -112h-569v-437h506l-11 -112h-495z" />
    <glyph glyph-name="emacron" unicode="&#x113;" horiz-adv-x="1044" 
d="M897 1296l-12 -108h-662l10 108h664zM954 623q0 -89 -10 -136h-690q12 -387 356 -387q147 0 293 50l-8 -115q-147 -58 -307 -58q-229 0 -355.5 134t-126.5 383q0 152 50 271t155.5 192t253.5 73q185 0 287 -104t102 -303zM561 913q-123 0 -201 -67q-88 -105 -102 -258
h555q-1 162 -65.5 243.5t-186.5 81.5z" />
    <glyph glyph-name="Edotaccent" unicode="&#x116;" horiz-adv-x="1015" 
d="M616 1425h-153q-16 81 -19 174q81 13 185 7zM330 590v-471h569l-10 -119h-709v1251h709l10 -112h-569v-437h506l-11 -112h-495z" />
    <glyph glyph-name="edotaccent" unicode="&#x117;" horiz-adv-x="1044" 
d="M641 1176h-154q-15 75 -18 174q77 13 184 6zM954 623q0 -89 -10 -136h-690q12 -387 356 -387q147 0 293 50l-8 -115q-147 -58 -307 -58q-229 0 -355.5 134t-126.5 383q0 152 50 271t155.5 192t253.5 73q185 0 287 -104t102 -303zM561 913q-123 0 -201 -67
q-88 -105 -102 -258h555q-1 162 -65.5 243.5t-186.5 81.5z" />
    <glyph glyph-name="Eogonek" unicode="&#x118;" horiz-adv-x="1015" 
d="M899 119l-10 -119q-79 -84 -117.5 -144t-38.5 -110q0 -68 68 -68q40 0 90 21l-8 -92q-49 -33 -113 -33q-71 0 -115.5 39.5t-44.5 103.5q0 59 42 127.5t118 155.5h-590v1251h709l10 -112h-569v-437h506l-11 -112h-495v-471h569z" />
    <glyph glyph-name="eogonek" unicode="&#x119;" horiz-adv-x="1044" 
d="M954 623q0 -89 -10 -136h-690q12 -387 356 -387q147 0 293 50l-8 -115h12q-78 -83 -116.5 -143.5t-38.5 -110.5q0 -68 67 -68q40 0 90 21l-8 -92q-49 -33 -113 -33q-71 0 -115 39.5t-44 103.5q0 93 125 242q-86 -17 -166 -17q-229 0 -355.5 134t-126.5 383q0 152 50 271
t155.5 192t253.5 73q185 0 287 -104t102 -303zM561 913q-123 0 -201 -67q-88 -105 -102 -258h555q-1 162 -65.5 243.5t-186.5 81.5z" />
    <glyph glyph-name="Ecaron" unicode="&#x11a;" horiz-adv-x="1015" 
d="M651 1438h-225l-248 239q74 7 160 4l180 -145h33l182 145q91 3 160 -4zM330 590v-471h569l-10 -119h-709v1251h709l10 -112h-569v-437h506l-11 -112h-495z" />
    <glyph glyph-name="ecaron" unicode="&#x11b;" horiz-adv-x="1044" 
d="M612 1188h-104l-260 342q61 22 114 22l181 -204h32l183 204q59 0 112 -22zM954 623q0 -89 -10 -136h-690q12 -387 356 -387q147 0 293 50l-8 -115q-147 -58 -307 -58q-229 0 -355.5 134t-126.5 383q0 152 50 271t155.5 192t253.5 73q185 0 287 -104t102 -303zM561 913
q-123 0 -201 -67q-88 -105 -102 -258h555q-1 162 -65.5 243.5t-186.5 81.5z" />
    <glyph glyph-name="Gbreve" unicode="&#x11e;" horiz-adv-x="1202" 
d="M866 1708q65 0 115 -16q-14 -132 -101.5 -204.5t-209.5 -72.5q-121 0 -209.5 72.5t-102.5 204.5q53 16 117 16q44 -170 195 -170q152 0 196 170zM655 -16q-267 0 -419 169.5t-152 464.5q0 313 168.5 484.5t462.5 171.5q162 0 336 -51l-15 -123q-165 47 -340 47
q-161 0 -278 -57q-174 -162 -174 -453q0 -251 111 -388.5t323 -137.5q141 0 266 34v371h-295l4 117h434v-404q0 -98 -6 -147q-167 -98 -426 -98z" />
    <glyph glyph-name="gbreve" unicode="&#x11f;" horiz-adv-x="1081" 
d="M803 1468q42 0 104 -16q-32 -141 -113 -214t-198 -73q-116 0 -197.5 73.5t-113.5 213.5q66 16 104 16q62 -180 207 -180q148 0 207 180zM492 -410q-169 0 -316 78l14 125q175 -67 316 -67q90 0 152 25.5t102 92.5q14 57 18 118.5t4 191.5q-140 -131 -311 -131
q-176 0 -275.5 119t-99.5 337q0 133 37.5 238.5t105.5 173.5t159.5 103.5t201.5 35.5q157 0 328 -63v-830q0 -138 -21.5 -236t-71 -169.5t-134.5 -106.5t-209 -35zM514 143q146 0 268 127v609q-95 28 -204 28q-131 0 -236 -65q-43 -51 -67.5 -144.5t-24.5 -201.5
q0 -353 264 -353z" />
    <glyph glyph-name="Gdotaccent" unicode="&#x120;" horiz-adv-x="1202" 
d="M598 1425q-15 75 -18 174q81 13 184 7l-12 -181h-154zM655 -16q-267 0 -419 169.5t-152 464.5q0 313 168.5 484.5t462.5 171.5q162 0 336 -51l-15 -123q-165 47 -340 47q-161 0 -278 -57q-174 -162 -174 -453q0 -251 111 -388.5t323 -137.5q141 0 266 34v371h-295l4 117
h434v-404q0 -98 -6 -147q-167 -98 -426 -98z" />
    <glyph glyph-name="gdotaccent" unicode="&#x121;" horiz-adv-x="1081" 
d="M524 1176q-15 75 -18 174q77 13 184 6l-12 -180h-154zM492 -410q-169 0 -316 78l14 125q175 -67 316 -67q90 0 152 25.5t102 92.5q14 57 18 118.5t4 191.5q-140 -131 -311 -131q-176 0 -275.5 119t-99.5 337q0 133 37.5 238.5t105.5 173.5t159.5 103.5t201.5 35.5
q157 0 328 -63v-830q0 -138 -21.5 -236t-71 -169.5t-134.5 -106.5t-209 -35zM514 143q146 0 268 127v609q-95 28 -204 28q-131 0 -236 -65q-43 -51 -67.5 -144.5t-24.5 -201.5q0 -353 264 -353z" />
    <glyph glyph-name="Gcommaaccent" unicode="&#x122;" horiz-adv-x="1202" 
d="M655 -16q-267 0 -419 169.5t-152 464.5q0 313 168.5 484.5t462.5 171.5q162 0 336 -51l-15 -123q-165 47 -340 47q-161 0 -278 -57q-174 -162 -174 -453q0 -251 111 -388.5t323 -137.5q141 0 266 34v371h-295l4 117h434v-404q0 -98 -6 -147q-167 -98 -426 -98zM690 -438
q-9 -4 -60.5 -4t-60.5 4l43 172v162q20 3 74 3t74 -3v-97q0 -73 -17 -124.5t-53 -112.5z" />
    <glyph glyph-name="gcommaaccent" unicode="&#x123;" horiz-adv-x="1081" 
d="M614 1499q10 3 61 3t62 -3l-67 -151v-160q-23 -3 -73.5 -3t-72.5 3v88q0 65 22 113.5t68 109.5zM492 -410q-169 0 -316 78l14 125q175 -67 316 -67q90 0 152 25.5t102 92.5q14 57 18 118.5t4 191.5q-140 -131 -311 -131q-176 0 -275.5 119t-99.5 337q0 133 37.5 238.5
t105.5 173.5t159.5 103.5t201.5 35.5q157 0 328 -63v-830q0 -138 -21.5 -236t-71 -169.5t-134.5 -106.5t-209 -35zM514 143q146 0 268 127v609q-95 28 -204 28q-131 0 -236 -65q-43 -51 -67.5 -144.5t-24.5 -201.5q0 -353 264 -353z" />
    <glyph glyph-name="Hbar" unicode="&#x126;" horiz-adv-x="1327" 
d="M1251 1020l-12 -107h-92v-913h-150v582h-667v-582h-150v913h-102l10 107h92v231h150v-231h667v231h150v-231h104zM997 705v208h-667v-208h667z" />
    <glyph glyph-name="hbar" unicode="&#x127;" horiz-adv-x="1132" 
d="M698 1028q139 0 210 -72.5t71 -234.5v-721h-145v700q0 107 -49.5 154t-149.5 47q-162 0 -326 -104v-797h-145v1130h-170v113h170v172l145 19v-191h185l-11 -113h-174v-233q99 65 192 98t197 33z" />
    <glyph glyph-name="Imacron" unicode="&#x12a;" horiz-adv-x="630" 
d="M-10 1546h663l-12 -108h-661zM571 1251v-106l-178 -6h-4v-1024h4l178 -9v-106h-512v106l181 9v1024l-181 6v106h512z" />
    <glyph glyph-name="imacron" unicode="&#x12b;" horiz-adv-x="526" 
d="M-78 1188l10 108h664l-12 -108h-662zM217 0v885l-162 8l11 108h296v-1001h-145z" />
    <glyph glyph-name="Iogonek" unicode="&#x12e;" horiz-adv-x="630" 
d="M483 -322q40 0 90 21l-8 -92q-49 -33 -112 -33q-71 0 -115.5 39.5t-44.5 103.5q0 59 42 127.5t118 155.5h-394v106l181 9v1024l-181 6v106h512v-106l-178 -6h-4v-1024h4l178 -9v-106q-78 -83 -116.5 -143.5t-38.5 -110.5q0 -68 67 -68z" />
    <glyph glyph-name="iogonek" unicode="&#x12f;" horiz-adv-x="526" 
d="M340 1176h-154q-15 75 -18 174q77 13 184 6zM274 -322q41 0 91 21l-9 -92q-49 -33 -112 -33q-71 0 -115.5 39.5t-44.5 103.5q0 59 42 127.5t118 155.5h-27v885l-162 8l11 108h296v-1001q-78 -83 -116.5 -143.5t-38.5 -110.5q0 -68 67 -68z" />
    <glyph glyph-name="Idotaccent" unicode="&#x130;" horiz-adv-x="630" 
d="M397 1425h-153q-16 81 -19 174q81 13 185 7zM393 1139h-4v-1024h4l178 -9v-106h-512v106l181 9v1024l-181 6v106h512v-106z" />
    <glyph glyph-name="dotlessi" unicode="&#x131;" horiz-adv-x="526" 
d="M217 0v885l-162 8l11 108h296v-1001h-145z" />
    <glyph glyph-name="Kcommaaccent" unicode="&#x136;" horiz-adv-x="1144" 
d="M1020 123l113 -21l-11 -106q-41 -10 -106 -10q-98 0 -131 51l-350 549h-5l-200 -217v-369h-150v1251h150v-712h4l584 712h172l-465 -571v-4zM637 -438q-9 -4 -60.5 -4t-60.5 4l43 172v162q20 3 74 3t74 -3v-97q0 -73 -17 -124.5t-53 -112.5z" />
    <glyph glyph-name="kcommaaccent" unicode="&#x137;" horiz-adv-x="1003" 
d="M887 115l108 -11l-8 -108q-45 -10 -108 -10q-79 0 -115 51l-305 452h-4l-146 -122v-367h-145v1415l145 19v-926h4l484 502l159 -9l-401 -426v-4zM504 -438q-10 -4 -61 -4t-62 4l68 151v166q23 3 75.5 3t75.5 -3v-92q0 -67 -23 -114t-73 -111z" />
    <glyph glyph-name="Lacute" unicode="&#x139;" horiz-adv-x="927" 
d="M575 1708l-282 -270h-146l207 270q31 6 107 6t114 -6zM330 123h551l-13 -123h-688v1251h150v-1128z" />
    <glyph glyph-name="lacute" unicode="&#x13a;" horiz-adv-x="526" 
d="M467 1255h-121l232 365q94 -6 170 -45zM481 111l-8 -107q-78 -16 -149 -16q-101 0 -140 37q-15 16 -21.5 41t-7.5 43.5t-1 62.5v1243l145 19v-1225q0 -57 2 -86z" />
    <glyph glyph-name="Lcommaaccent" unicode="&#x13b;" horiz-adv-x="927" 
d="M330 123h551l-13 -123h-688v1251h150v-1128zM463 -104q20 3 73.5 3t73.5 -3v-97q0 -73 -16.5 -125t-52.5 -112q-9 -4 -60.5 -4t-60.5 4l43 172v162z" />
    <glyph glyph-name="lcommaaccent" unicode="&#x13c;" horiz-adv-x="526" 
d="M481 111l-8 -107q-78 -16 -149 -16q-101 0 -140 37q-15 16 -21.5 41t-7.5 43.5t-1 62.5v1243l145 19v-1225q0 -57 2 -86zM246 -438q-10 -4 -61 -4t-62 4l67 151v166q23 3 76 3t76 -3v-92q0 -67 -23 -114t-73 -111z" />
    <glyph glyph-name="Lcaron" unicode="&#x13d;" horiz-adv-x="927" 
d="M651 809q-17 -1 -52 -1t-52 1l2 446q66 7 147 19zM330 123h551l-13 -123h-688v1251h150v-1128z" />
    <glyph glyph-name="lcaron" unicode="&#x13e;" horiz-adv-x="526" 
d="M459 1004l2 446q92 10 147 18l-45 -464q-17 -2 -52 -2t-52 2zM481 111l-8 -107q-78 -16 -149 -16q-101 0 -140 37q-15 16 -21.5 41t-7.5 43.5t-1 62.5v1243l145 19v-1225q0 -57 2 -86z" />
    <glyph glyph-name="Lslash" unicode="&#x141;" horiz-adv-x="927" 
d="M330 123h551l-13 -123h-688v541l-90 -49v131l90 49v579h150v-501l270 145l-10 -133l-260 -141v-498z" />
    <glyph glyph-name="lslash" unicode="&#x142;" horiz-adv-x="526" 
d="M496 1014l-197 -107v-698q0 -57 2 -86l180 -12l-8 -107q-78 -16 -149 -16q-101 0 -140 37q-15 16 -21.5 41t-7.5 43.5t-1 62.5v657l-158 -86v131l158 84v457l145 19v-398l207 111z" />
    <glyph glyph-name="Nacute" unicode="&#x143;" horiz-adv-x="1353" 
d="M565 1438l207 270q31 6 107 6t114 -6l-282 -270h-146zM180 0v1251h150l714 -1048h5l-7 1048h132v-1251h-146l-717 1047h-4l4 -1047h-131z" />
    <glyph glyph-name="nacute" unicode="&#x144;" horiz-adv-x="1132" 
d="M555 1188h-121l232 364q94 -6 170 -45zM696 1028q140 0 211.5 -72.5t71.5 -234.5v-721h-145v700q0 107 -49.5 154t-149.5 47q-162 0 -326 -115v-786h-145v1001l137 17l4 -131q105 68 197 104.5t194 36.5z" />
    <glyph glyph-name="Ncommaaccent" unicode="&#x145;" horiz-adv-x="1353" 
d="M180 0v1251h150l714 -1048h5l-7 1048h132v-1251h-146l-717 1047h-4l4 -1047h-131zM702 -438q-9 -4 -60 -4t-60 4l43 172v162q20 3 73.5 3t73.5 -3v-97q0 -73 -17 -124.5t-53 -112.5z" />
    <glyph glyph-name="ncommaaccent" unicode="&#x146;" horiz-adv-x="1132" 
d="M696 1028q140 0 211.5 -72.5t71.5 -234.5v-721h-145v700q0 107 -49.5 154t-149.5 47q-162 0 -326 -115v-786h-145v1001l137 17l4 -131q105 68 197 104.5t194 36.5zM561 -438q-10 -4 -61.5 -4t-61.5 4l68 151v166q23 3 75.5 3t75.5 -3v-92q0 -67 -23 -114t-73 -111z" />
    <glyph glyph-name="Ncaron" unicode="&#x147;" horiz-adv-x="1353" 
d="M569 1438l-247 239q74 7 159 4l181 -145h32l183 145q90 3 159 -4l-241 -239h-226zM180 0v1251h150l714 -1048h5l-7 1048h132v-1251h-146l-717 1047h-4l4 -1047h-131z" />
    <glyph glyph-name="ncaron" unicode="&#x148;" horiz-adv-x="1132" 
d="M743 1552q60 0 113 -22l-258 -342h-104l-261 342q61 22 115 22l180 -204h33zM696 1028q140 0 211.5 -72.5t71.5 -234.5v-721h-145v700q0 107 -49.5 154t-149.5 47q-162 0 -326 -115v-786h-145v1001l137 17l4 -131q105 68 197 104.5t194 36.5z" />
    <glyph glyph-name="Eng" unicode="&#x14a;" horiz-adv-x="1353" 
d="M1042 1251h132v-1251q-6 -212 -94.5 -303.5t-284.5 -91.5q-103 0 -172 28l12 115q89 -27 180 -27q115 0 176 48q45 42 45 235v8l-712 1018h-17l4 -1030h-131v1251h150l702 -999h17z" />
    <glyph glyph-name="eng" unicode="&#x14b;" horiz-adv-x="1132" 
d="M696 1028q140 0 211.5 -72.5t71.5 -234.5v-762q0 -179 -71.5 -272t-209.5 -93q-62 0 -120 13v127q60 -8 106 -8q84 0 127 26q23 33 23 164v784q0 107 -49.5 154t-149.5 47q-162 0 -326 -115v-786h-145v1001l137 17l4 -131q105 68 197 104.5t194 36.5z" />
    <glyph glyph-name="Omacron" unicode="&#x14c;" horiz-adv-x="1271" 
d="M279 1446l10 110h708l-12 -110h-706zM631 -23q-166 0 -291 82t-190.5 226.5t-65.5 330.5q0 299 157.5 475.5t417.5 176.5q240 0 384.5 -173.5t144.5 -455.5q0 -299 -153 -480.5t-404 -181.5zM643 104q84 0 145 21t117 74q63 81 93 180t30 237q0 249 -104.5 387
t-276.5 138q-83 0 -141.5 -16t-124.5 -60q-137 -169 -137 -426q0 -252 108.5 -393.5t290.5 -141.5z" />
    <glyph glyph-name="omacron" unicode="&#x14d;" horiz-adv-x="1110" 
d="M231 1188l11 108h663l-12 -108h-662zM539 -23q-205 0 -324 135t-119 363q0 256 127 404.5t357 148.5q195 0 315.5 -134.5t120.5 -358.5q0 -255 -128.5 -406.5t-348.5 -151.5zM561 98q145 0 234 99q67 122 67 315q0 190 -83 292.5t-220 102.5q-83 0 -134.5 -23.5
t-100.5 -78.5q-76 -119 -76 -307q0 -193 80 -296.5t233 -103.5z" />
    <glyph glyph-name="Ohungarumlaut" unicode="&#x150;" horiz-adv-x="1271" 
d="M301 1438l231 250q106 6 218 -9l-283 -241h-166zM723 1438l274 250q103 6 215 -9l-280 -241h-209zM631 -23q-166 0 -291 82t-190.5 226.5t-65.5 330.5q0 299 157.5 475.5t417.5 176.5q240 0 384.5 -173.5t144.5 -455.5q0 -299 -153 -480.5t-404 -181.5zM643 104
q84 0 145 21t117 74q63 81 93 180t30 237q0 249 -104.5 387t-276.5 138q-83 0 -141.5 -16t-124.5 -60q-137 -169 -137 -426q0 -252 108.5 -393.5t290.5 -141.5z" />
    <glyph glyph-name="ohungarumlaut" unicode="&#x151;" horiz-adv-x="1110" 
d="M442 1188h-120l233 364q91 -6 170 -45zM762 1188h-121l231 364q94 -6 170 -45zM539 -23q-205 0 -324 135t-119 363q0 256 127 404.5t357 148.5q195 0 315.5 -134.5t120.5 -358.5q0 -255 -128.5 -406.5t-348.5 -151.5zM561 98q145 0 234 99q67 122 67 315q0 190 -83 292.5
t-220 102.5q-83 0 -134.5 -23.5t-100.5 -78.5q-76 -119 -76 -307q0 -193 80 -296.5t233 -103.5z" />
    <glyph glyph-name="OE" unicode="&#x152;" horiz-adv-x="1646" 
d="M983 590v-471h547l-10 -119h-664q-113 -29 -242 -29q-160 0 -282 87t-185 233t-63 327q0 302 160.5 480t423.5 178q112 0 215 -25h637l10 -118h-547v-428h483v-115h-483zM244 641q0 -246 105 -392.5t280 -146.5q132 0 215 21v995q-92 29 -193 29q-91 0 -154 -18t-130 -66
q-123 -164 -123 -422z" />
    <glyph glyph-name="oe" unicode="&#x153;" horiz-adv-x="1816" 
d="M1726 623q0 -89 -10 -136h-704q9 -200 107 -293.5t278 -93.5q138 0 278 50l-8 -115q-140 -58 -299 -58q-306 0 -424 230h-16q-114 -230 -389 -230q-193 0 -318 137t-125 361q0 256 127 404.5t357 148.5q114 0 213.5 -60.5t144.5 -160.5h16q43 103 144 163t239 60
q174 0 281.5 -105.5t107.5 -301.5zM1319 909q-126 0 -199 -65q-88 -92 -104 -256h569q-6 321 -266 321zM795 197q71 123 71 315q0 190 -84 292.5t-223 102.5q-83 0 -134.5 -23.5t-100.5 -78.5q-76 -119 -76 -307q0 -193 80 -296.5t233 -103.5q145 0 234 99z" />
    <glyph glyph-name="Racute" unicode="&#x154;" horiz-adv-x="1105" 
d="M440 1438l207 270q31 6 107 6t114 -6l-282 -270h-146zM1006 -10q-98 0 -138 67l-256 430l-282 -2v-485h-150v1243q197 19 350 19q100 0 174 -16t131 -53t86 -102t29 -157q0 -258 -211 -404v-4l279 -401l115 -21l-11 -106q-55 -8 -116 -8zM330 598h123q117 0 202 10
q63 51 100.5 130t37.5 169q0 124 -66 180t-213 56q-98 0 -184 -6v-539z" />
    <glyph glyph-name="racute" unicode="&#x155;" horiz-adv-x="698" 
d="M432 1188h-121l232 364q94 -6 170 -45zM164 0v1001l137 17l4 -141q141 147 270 147q53 0 103 -20l-16 -136q-53 15 -101 15q-68 0 -126 -23t-126 -82v-778h-145z" />
    <glyph glyph-name="Rcommaaccent" unicode="&#x156;" horiz-adv-x="1105" 
d="M1006 -10q-98 0 -138 67l-256 430l-282 -2v-485h-150v1243q197 19 350 19q100 0 174 -16t131 -53t86 -102t29 -157q0 -258 -211 -404v-4l279 -401l115 -21l-11 -106q-55 -8 -116 -8zM330 598h123q117 0 202 10q63 51 100.5 130t37.5 169q0 124 -66 180t-213 56
q-98 0 -184 -6v-539zM621 -438q-9 -4 -60.5 -4t-60.5 4l43 172v162q20 3 73.5 3t73.5 -3v-97q0 -73 -16.5 -125t-52.5 -112z" />
    <glyph glyph-name="rcommaaccent" unicode="&#x157;" horiz-adv-x="698" 
d="M164 0v1001l137 17l4 -141q141 147 270 147q53 0 103 -20l-16 -136q-53 15 -101 15q-68 0 -126 -23t-126 -82v-778h-145zM215 -438q-11 -4 -61.5 -4t-61.5 4l68 151v166q23 3 75.5 3t75.5 -3v-92q0 -67 -23 -114t-73 -111z" />
    <glyph glyph-name="Rcaron" unicode="&#x158;" horiz-adv-x="1105" 
d="M444 1438l-247 239q74 7 159 4l181 -145h32l183 145q90 3 159 -4l-241 -239h-226zM1006 -10q-98 0 -138 67l-256 430l-282 -2v-485h-150v1243q197 19 350 19q100 0 174 -16t131 -53t86 -102t29 -157q0 -258 -211 -404v-4l279 -401l115 -21l-11 -106q-55 -8 -116 -8z
M330 598h123q117 0 202 10q63 51 100.5 130t37.5 169q0 124 -66 180t-213 56q-98 0 -184 -6v-539z" />
    <glyph glyph-name="rcaron" unicode="&#x159;" horiz-adv-x="698" 
d="M621 1552q59 0 112 -22l-258 -342h-104l-260 342q60 22 114 22l181 -204h32zM164 0v1001l137 17l4 -141q141 147 270 147q53 0 103 -20l-16 -136q-53 15 -101 15q-68 0 -126 -23t-126 -82v-778h-145z" />
    <glyph glyph-name="Sacute" unicode="&#x15a;" horiz-adv-x="1005" 
d="M391 1438l207 270q31 6 107 6t114 -6l-282 -270h-146zM453 -20q-154 0 -324 65l21 133q183 -74 335 -74q137 0 213 66q52 55 52 129q0 45 -21.5 85t-58 71.5t-83.5 60.5t-99 56.5t-104.5 56t-99.5 62t-83.5 71t-58 87.5t-21.5 107q0 145 126.5 231.5t325.5 86.5
q119 0 283 -41l-33 -133q-136 51 -268 51q-90 0 -163 -20t-103 -50q-27 -43 -27 -94q0 -54 34.5 -100.5t90 -82.5t122 -70.5t133.5 -73.5t122.5 -82.5t90 -106.5t34.5 -137q0 -66 -27 -128t-79 -113t-137.5 -82t-192.5 -31z" />
    <glyph glyph-name="sacute" unicode="&#x15b;" horiz-adv-x="837" 
d="M424 1188h-121l232 364q94 -6 170 -45zM369 -20q-142 0 -281 63l8 125q159 -72 293 -72q109 0 172 39q47 47 47 109q0 45 -29 84t-75 69t-101.5 58.5t-111 60t-101.5 66.5t-75 84.5t-29 107.5q0 79 50.5 138t133.5 88.5t185 29.5q135 0 245 -39l-8 -119q-119 46 -243 46
q-116 0 -177 -33q-51 -36 -51 -88q0 -38 29.5 -72.5t76 -62.5t103 -57t113.5 -62.5t103.5 -71.5t76 -91.5t29.5 -115.5q0 -121 -103.5 -202.5t-279.5 -81.5z" />
    <glyph glyph-name="Scedilla" unicode="&#x15e;" horiz-adv-x="1005" 
d="M453 -20q-154 0 -324 65l21 133q183 -74 335 -74q137 0 213 66q52 55 52 129q0 45 -21.5 85t-58 71.5t-83.5 60.5t-99 56.5t-104.5 56t-99.5 62t-83.5 71t-58 87.5t-21.5 107q0 145 126.5 231.5t325.5 86.5q119 0 283 -41l-33 -133q-136 51 -268 51q-90 0 -163 -20
t-103 -50q-27 -43 -27 -94q0 -54 34.5 -100.5t90 -82.5t122 -70.5t133.5 -73.5t122.5 -82.5t90 -106.5t34.5 -137q0 -66 -27 -128t-79 -113t-137.5 -82t-192.5 -31zM559 -438q-9 -4 -60.5 -4t-60.5 4l43 172v162q20 3 74 3t74 -3v-97q0 -73 -17 -124.5t-53 -112.5z" />
    <glyph glyph-name="scedilla" unicode="&#x15f;" horiz-adv-x="837" 
d="M369 -20q-142 0 -281 63l8 125q159 -72 293 -72q109 0 172 39q47 47 47 109q0 45 -29 84t-75 69t-101.5 58.5t-111 60t-101.5 66.5t-75 84.5t-29 107.5q0 79 50.5 138t133.5 88.5t185 29.5q135 0 245 -39l-8 -119q-119 46 -243 46q-116 0 -177 -33q-51 -36 -51 -88
q0 -38 29.5 -72.5t76 -62.5t103 -57t113.5 -62.5t103.5 -71.5t76 -91.5t29.5 -115.5q0 -121 -103.5 -202.5t-279.5 -81.5zM393 -438q-10 -4 -61 -4t-62 4l68 151v166q23 3 75.5 3t75.5 -3v-92q0 -67 -23 -114t-73 -111z" />
    <glyph glyph-name="Scaron" unicode="&#x160;" horiz-adv-x="1005" 
d="M395 1438l-248 239q74 7 160 4l180 -145h33l182 145q91 3 160 -4l-241 -239h-226zM453 -20q-154 0 -324 65l21 133q183 -74 335 -74q137 0 213 66q52 55 52 129q0 45 -21.5 85t-58 71.5t-83.5 60.5t-99 56.5t-104.5 56t-99.5 62t-83.5 71t-58 87.5t-21.5 107
q0 145 126.5 231.5t325.5 86.5q119 0 283 -41l-33 -133q-136 51 -268 51q-90 0 -163 -20t-103 -50q-27 -43 -27 -94q0 -54 34.5 -100.5t90 -82.5t122 -70.5t133.5 -73.5t122.5 -82.5t90 -106.5t34.5 -137q0 -66 -27 -128t-79 -113t-137.5 -82t-192.5 -31z" />
    <glyph glyph-name="scaron" unicode="&#x161;" horiz-adv-x="837" 
d="M612 1552q60 0 113 -22l-258 -342h-105l-260 342q60 22 115 22l180 -204h33zM369 -20q-142 0 -281 63l8 125q159 -72 293 -72q109 0 172 39q47 47 47 109q0 45 -29 84t-75 69t-101.5 58.5t-111 60t-101.5 66.5t-75 84.5t-29 107.5q0 79 50.5 138t133.5 88.5t185 29.5
q135 0 245 -39l-8 -119q-119 46 -243 46q-116 0 -177 -33q-51 -36 -51 -88q0 -38 29.5 -72.5t76 -62.5t103 -57t113.5 -62.5t103.5 -71.5t76 -91.5t29.5 -115.5q0 -121 -103.5 -202.5t-279.5 -81.5z" />
    <glyph glyph-name="uni0162" unicode="&#x162;" horiz-adv-x="1042" 
d="M975 1251v-121h-379v-1130h-150v1130h-376v121h905zM463 -104q20 3 73.5 3t73.5 -3v-97q0 -73 -16.5 -125t-52.5 -112q-9 -4 -60.5 -4t-60.5 4l43 172v162z" />
    <glyph glyph-name="uni0163" unicode="&#x163;" horiz-adv-x="700" 
d="M627 887h-238v-764q46 -6 88 -6q73 0 146 12l-2 -117q-89 -24 -172 -24q-106 0 -155.5 37.5t-49.5 130.5v731h-164l8 110l164 9l18 251l119 15v-268l248 -3zM375 -121q23 3 75.5 3t75.5 -3v-92q0 -67 -23 -114t-73 -111q-11 -4 -61.5 -4t-61.5 4l68 151v166z" />
    <glyph glyph-name="Tcaron" unicode="&#x164;" horiz-adv-x="1042" 
d="M637 1438h-225l-248 239q74 7 160 4l180 -145h33l182 145q91 3 160 -4zM975 1251v-121h-379v-1130h-150v1130h-376v121h905z" />
    <glyph glyph-name="tcaron" unicode="&#x165;" horiz-adv-x="700" 
d="M537 1554q66 7 147 19l-45 -465q-17 -2 -52 -2t-52 2zM389 1272v-268l248 -3l-10 -114h-238v-764q46 -6 88 -6q73 0 146 12l-2 -117q-89 -24 -172 -24q-106 0 -155.5 37.5t-49.5 130.5v731h-164l8 110l164 9l18 251z" />
    <glyph glyph-name="Tbar" unicode="&#x166;" horiz-adv-x="1042" 
d="M975 1130h-379v-448h164l-10 -113h-154v-569h-150v569h-186v113h186v448h-376v121h905v-121z" />
    <glyph glyph-name="tbar" unicode="&#x167;" horiz-adv-x="700" 
d="M627 887h-238v-332h195l-11 -113h-184v-319q46 -6 88 -6q73 0 146 12l-2 -117q-89 -24 -172 -24q-106 0 -155.5 37.5t-49.5 130.5v286h-160v113h160v332h-164l8 110l164 9l18 251l119 15v-268l248 -3z" />
    <glyph glyph-name="Umacron" unicode="&#x16a;" horiz-adv-x="1251" 
d="M268 1446l11 110h708l-12 -110h-707zM946 1251h152v-716q0 -290 -117.5 -426t-368.5 -136q-458 0 -458 539v739h149v-716q0 -221 80 -326t252 -105q163 0 237 98.5t74 309.5v739z" />
    <glyph glyph-name="umacron" unicode="&#x16b;" horiz-adv-x="1116" 
d="M221 1188l10 108h664l-12 -108h-662zM434 -27q-137 0 -208.5 73t-71.5 235v720h145v-700q0 -109 50 -155t153 -46q76 0 148 29.5t155 108.5v763h147v-1001h-129l-12 137q-93 -87 -181 -125.5t-196 -38.5z" />
    </font>
</defs>
</svg>
