<svg width="1470" height="750" viewBox="0 0 1470 750" fill="none" xmlns="http://www.w3.org/2000/svg">
<path d="M0.130409 748.967C0.043586 744.323 0 739.668 0 734.999C0 329.068 329.072 0 734.999 0C1140.93 0 1470 329.069 1470 734.999C1470 739.668 1469.95 744.323 1469.87 748.967H1322.91C1322.97 744.326 1323 739.668 1323 734.999C1323 348.378 1121.62 36.7483 734.995 36.7483C348.38 36.7483 147 348.376 147 734.999C147 739.668 147.029 744.326 147.089 748.967H0.129015H0.130409Z" fill="#4D58C3"/>
<path d="M390.46 749.008L419.722 688.487L253.928 345.564H585.516L734.731 36.7906L883.945 345.564H1215.53L1049.74 688.487L1079 749.008H767.385C788.858 666.23 827.081 624.882 867.34 609.592C918.127 590.303 976.117 671.784 951.116 737.418C1002.37 711.789 1006.88 581.662 915.655 539.258C869.433 524.327 818.883 544.422 784.806 571.533C789.217 545.751 793.771 519.895 798.426 494.563C814.856 405.145 759.763 296.16 734.731 276.652C709.698 296.16 654.609 405.145 671.032 494.563C675.687 519.895 680.244 545.751 684.655 571.533C650.575 544.422 600.029 524.327 553.806 539.258C462.575 581.662 467.087 711.789 518.345 737.418C493.34 671.784 551.331 590.303 602.121 609.592C642.38 624.882 680.607 666.23 702.076 749.008H390.46Z" fill="#4D58C3"/>
</svg>
