<svg width="505" height="424" viewBox="0 0 505 424" fill="none" xmlns="http://www.w3.org/2000/svg">
<path d="M29.8916 279.048C20.3074 279.048 9.13033 279.773 0 280.496L0.725793 288.756V355.526H63.995V304.582C63.995 281.076 61.5316 279.048 29.8916 279.048ZM53.4168 346.835H11.3039V288.466C19.8717 287.74 26.5517 287.594 31.0534 287.594C41.7994 287.594 48.0437 288.03 52.6906 288.756C53.1263 292.385 53.4168 296.742 53.4168 303.566V346.835Z" fill="white"/>
<path d="M90.069 323.093H100.792V290.288C100.792 280.868 97.894 279.42 88.182 279.42C84.9886 279.42 81.5049 279.42 78.3115 279.565L79.1824 288.11H90.069V323.093Z" fill="white"/>
<path d="M163.997 279.738H120.595L118.996 257.24L109.537 258.4L110.7 279.593L112.155 288.139H155.142V288.429L115.681 376.929L128.153 374.844L165.304 287.849L163.997 279.738Z" fill="white"/>
<path d="M186.925 355.462H197.504V290.288C197.504 280.868 194.605 279.42 184.894 279.42C181.555 279.42 178.796 279.42 175.458 279.565L175.894 288.11H186.925V355.462Z" fill="white"/>
<path d="M265.11 279.738H221.709L220.11 257.24L210.65 258.4L211.813 279.593L213.268 288.139H256.255V288.429L217.725 374.844H229.266L266.417 287.849L265.11 279.738Z" fill="white"/>
<path d="M314.481 279.009C307.366 279.009 298.218 279.444 288.924 279.734L287.764 273.348L278.056 274.219C278.49 280.168 279.07 286.686 279.649 290.895L286.459 345.617C286.894 348.52 287.184 351.568 287.909 354.907C293.426 355.779 299.961 356.068 305.043 356.068C333.214 356.068 346.551 337.213 346.551 304.253C346.551 281.617 342.492 279.009 314.481 279.009ZM305.623 347.232C303.155 347.232 299.524 347.087 296.766 346.796L290.085 288.427C298.073 287.991 306.349 287.7 315.062 287.7C323.774 287.7 330.164 287.991 334.955 289.007C335.536 292.927 335.827 298.155 335.827 303.236C335.827 333.583 326.679 347.232 305.623 347.232Z" fill="white"/>
<path d="M403.034 279.42C392.437 279.42 383.583 282.461 373.567 288.546L370.518 279.42L360.648 280L365.874 295.371L359.342 355.462H370.229L376.035 295.807C385.179 290.289 394.179 287.965 401.002 287.965C405.791 287.965 410.292 288.546 412.323 290.289C412.904 293.193 413.34 297.84 413.34 303.938V346.772H389.244L388.954 355.462H423.917V302.486C423.917 284.779 418.267 279.42 403.034 279.42Z" fill="white"/>
<path d="M469.503 279.048C460.063 279.048 449.617 279.483 440.628 280.206L441.354 288.611C450.631 288.03 462.387 287.594 470.955 287.594C478.361 287.594 485.478 287.885 491.141 288.756C491.722 292.094 491.722 296.303 491.722 299.787V355.526H502.301V300.368C502.301 282.089 498.387 279.048 469.503 279.048ZM443.385 333.463V355.526H453.964V311.399C450.92 311.399 447.733 311.544 444.69 311.835C443.82 320.254 443.385 327.657 443.385 333.463Z" fill="white"/>
<path d="M8.59093 392.056C5.35538 392.056 3.0124 392.224 0 392.447L0.278926 395.738C3.34711 395.515 5.96902 395.347 8.81407 395.347C12.0496 395.347 14.7831 395.403 16.4566 395.682C16.5682 397.244 16.5682 398.527 16.5682 400.424V421.399H20.6405V400.759C20.6405 393.005 20.3616 392.056 8.59093 392.056Z" fill="white"/>
<path d="M31.7793 408.97H35.9075V396.363C35.9075 392.737 34.7917 392.179 31.0541 392.179C29.8269 392.179 28.488 392.179 27.2607 392.235L27.5955 395.526H31.7793V408.97Z" fill="white"/>
<path d="M60.4394 392.278L59.7142 405.555C59.4353 411.357 57.0923 414.258 52.7968 416.21C50.5654 407.786 47.9993 399.809 45.2658 392.055L41.3051 392.39C44.2617 400.702 47.0509 408.846 49.5055 417.437C46.7162 418.274 43.8154 418.832 41.1377 419.334V423.183C44.6522 422.458 48.6129 421.565 51.96 420.338C58.5985 417.884 62.7824 413.979 63.4518 406.559L64.6791 392.278H60.4394Z" fill="white"/>
<path d="M69.6875 421.442H90.4396L90.9416 417.871L85.0842 410.229V410.006C87.4272 404.929 89.4354 399.518 91.8342 392.266H87.7061L82.8528 407.663L82.6296 407.718L71.9189 391.931L67.9023 392.266V392.712L77.7205 406.77C80.454 410.619 83.7453 414.524 86.423 417.871L86.3115 418.094H69.799L69.6875 421.442Z" fill="white"/>
<path d="M108.248 392.055C104.622 392.055 100.605 392.222 97.1465 392.501L97.4254 395.737C100.996 395.514 105.514 395.346 108.806 395.346C111.651 395.346 114.384 395.458 116.56 395.793C116.783 397.076 116.783 398.693 116.783 400.032V421.454H120.855V400.255C120.855 393.227 119.349 392.055 108.248 392.055ZM98.2064 412.975V421.454H102.279V404.495C101.107 404.495 99.88 404.551 98.7085 404.663C98.3738 407.898 98.2064 410.743 98.2064 412.975Z" fill="white"/>
<path d="M146.38 392.055C143.145 392.055 140.802 392.222 137.79 392.446L138.068 395.737C141.137 395.514 143.759 395.346 146.604 395.346C149.839 395.346 152.573 395.402 154.246 395.681C154.358 397.243 154.358 398.526 154.358 400.423V421.398H158.43V400.758C158.43 393.003 158.151 392.055 146.38 392.055Z" fill="white"/>
<path d="M181.842 392.179C177.769 392.179 174.366 393.351 170.517 395.693L169.346 392.179L165.552 392.402L167.561 398.315L165.05 421.41H169.234L171.466 398.483C174.98 396.363 178.439 395.47 181.061 395.47C182.902 395.47 184.631 395.693 185.412 396.363C185.635 397.479 185.802 399.264 185.802 401.607V418.063H176.542L176.43 421.41H189.875V401.049C189.875 394.243 187.699 392.179 181.842 392.179Z" fill="white"/>
<path d="M199.691 421.41H203.764V396.363C203.764 392.737 202.648 392.179 198.91 392.179C197.627 392.179 196.567 392.179 195.284 392.235L195.452 395.526H199.691V421.41Z" fill="white"/>
<path d="M236.875 392.303C236.875 416.848 231.073 418.41 222.705 418.41C220.586 418.41 218.856 418.355 217.015 418.02L216.29 411.326C221.478 410.6 225.662 408.536 226.61 402.846C227.224 399.332 227.782 395.817 228.396 392.303H224.212L223.04 400.95C222.371 405.97 220.195 407.644 216.402 408.034H215.955L214.282 392.303H210.154L212.887 416.793C212.999 417.908 213.222 419.526 213.557 420.865C216.458 421.534 220.195 421.758 222.929 421.758C233.36 421.758 241.059 418.745 241.059 392.303H236.875Z" fill="white"/>
<path d="M265.426 417.939V400.144C265.426 393.171 263.697 392.055 254.66 392.055C251.703 392.055 248.412 392.167 245.567 392.446L245.846 395.793C248.635 395.514 252.317 395.402 254.939 395.402C257.505 395.402 259.402 395.514 261.075 395.793C261.354 397.132 261.354 398.582 261.354 399.921V418.107H245.344V421.454H269.889V418.107L265.426 417.939Z" fill="white"/>
<path d="M299.178 392.055C294.381 392.055 289.137 392.278 284.507 392.613L284.897 395.904C286.571 395.793 288.356 395.737 290.085 395.625V414.146C290.085 416.88 289.36 418.107 286.236 418.107C285.623 418.107 285.065 418.051 284.005 417.995V421.063C284.73 421.287 285.79 421.454 286.738 421.454C292.596 421.454 294.158 418.497 294.158 414.871V395.458C296.278 395.402 298.174 395.346 299.736 395.346C302.804 395.346 305.705 395.458 307.993 395.849C308.16 397.968 308.16 399.977 308.16 401.706V421.398H312.232V401.092C312.232 393.227 311.172 392.055 299.178 392.055Z" fill="white"/>
<path d="M322.117 421.41H326.189V396.363C326.189 392.737 325.073 392.179 321.336 392.179C320.052 392.179 318.993 392.179 317.709 392.235L317.877 395.526H322.117V421.41Z" fill="white"/>
<path d="M340.672 392.055C337.437 392.055 335.094 392.222 332.082 392.446L332.36 395.737C335.429 395.514 338.051 395.346 340.896 395.346C344.131 395.346 346.865 395.402 348.538 395.681C348.65 397.243 348.65 398.526 348.65 400.423V421.398H352.722V400.758C352.722 393.003 352.443 392.055 340.672 392.055Z" fill="white"/>
<path d="M363.367 408.972H367.495V396.364C367.495 392.738 366.379 392.18 362.642 392.18C361.414 392.18 360.075 392.18 358.848 392.236L359.183 395.527H363.367V408.972Z" fill="white"/>
<path d="M399.943 392.303C399.943 416.848 394.141 418.41 385.773 418.41C383.654 418.41 381.924 418.355 380.083 418.02L379.358 411.326C384.546 410.6 388.73 408.536 389.678 402.846C390.292 399.332 390.85 395.817 391.463 392.303H387.28L386.108 400.95C385.439 405.97 383.263 407.644 379.47 408.034H379.023L377.35 392.303H373.222L375.955 416.793C376.067 417.908 376.29 419.526 376.625 420.865C379.525 421.534 383.263 421.758 385.996 421.758C396.428 421.758 404.127 418.745 404.127 392.303H399.943Z" fill="white"/>
<path d="M434.986 392.055C430.188 392.055 424.944 392.278 420.314 392.613L420.705 395.904C422.378 395.793 424.163 395.737 425.893 395.625V414.146C425.893 416.88 425.167 418.107 422.043 418.107C421.43 418.107 420.872 418.051 419.812 417.995V421.063C420.537 421.287 421.597 421.454 422.545 421.454C428.403 421.454 429.965 418.497 429.965 414.871V395.458C432.085 395.402 433.981 395.347 435.543 395.347C438.612 395.347 441.512 395.458 443.8 395.849C443.967 397.968 443.967 399.977 443.967 401.706V421.398H448.039V401.092C448.039 393.227 446.979 392.055 434.986 392.055Z" fill="white"/>
<path d="M454.011 421.342H466.061V397.689C466.061 392.78 465.391 392.055 459.98 392.055C457.805 392.055 457.024 392.111 455.685 392.167L455.908 395.458H461.989V417.995H454.011V421.342Z" fill="white"/>
<path d="M499.567 392.303C499.567 416.848 493.766 418.41 485.398 418.41C483.278 418.41 481.549 418.355 479.708 418.02L478.983 411.326C484.171 410.6 488.354 408.536 489.303 402.846C489.916 399.332 490.474 395.817 491.088 392.303H486.904L485.733 400.95C485.063 405.97 482.888 407.644 479.094 408.034H478.648L476.974 392.303H472.846L475.58 416.793C475.691 417.908 475.914 419.526 476.249 420.865C479.15 421.534 482.888 421.758 485.621 421.758C496.053 421.758 503.751 418.745 503.751 392.303H499.567Z" fill="white"/>
<path d="M505 369.255H0V378.863H505V369.255Z" fill="white"/>
<path d="M505 252.531H0V262.138H505V252.531Z" fill="white"/>
<path d="M0.0448005 257.298C0.0149734 255.703 0 254.104 0 252.5C0 113.047 113.049 0 252.5 0C391.952 0 505 113.048 505 252.5C505 254.104 504.984 255.703 504.954 257.298H454.469C454.489 255.704 454.499 254.104 454.499 252.5C454.499 119.681 385.319 12.6244 252.498 12.6244C119.681 12.6244 50.4998 119.68 50.4998 252.5C50.4998 254.104 50.5099 255.704 50.5305 257.298H0.0443214H0.0448005Z" fill="white"/>
<path d="M134.137 257.312L144.19 236.521L87.2334 118.714H201.146L252.407 12.6389L303.668 118.714H417.58L360.623 236.521L370.676 257.312H263.625C271.002 228.875 284.133 214.67 297.964 209.418C315.411 202.791 335.333 230.783 326.744 253.331C344.353 244.526 345.9 199.823 314.561 185.255C298.682 180.126 281.317 187.029 269.61 196.343C271.125 187.486 272.69 178.604 274.289 169.901C279.933 139.183 261.007 101.742 252.407 95.0404C243.808 101.742 224.882 139.183 230.524 169.901C232.124 178.604 233.689 187.486 235.204 196.343C223.496 187.029 206.132 180.126 190.253 185.255C158.912 199.823 160.462 244.526 178.071 253.331C169.481 230.783 189.402 202.791 206.851 209.418C220.681 214.67 233.814 228.875 241.189 257.312H134.137Z" fill="white"/>
</svg>
