<?xml version="1.0" encoding="UTF-8" standalone="no"?>
<!-- Created with Inkscape (http://www.inkscape.org/) -->

<svg
   xmlns:dc="http://purl.org/dc/elements/1.1/"
   xmlns:cc="http://creativecommons.org/ns#"
   xmlns:rdf="http://www.w3.org/1999/02/22-rdf-syntax-ns#"
   xmlns:svg="http://www.w3.org/2000/svg"
   xmlns="http://www.w3.org/2000/svg"
   xmlns:sodipodi="http://sodipodi.sourceforge.net/DTD/sodipodi-0.dtd"
   xmlns:inkscape="http://www.inkscape.org/namespaces/inkscape"
   width="16.139584mm"
   height="16.139584mm"
   viewBox="0 0 16.139584 16.139584"
   version="1.1"
   id="svg4720"
   inkscape:version="0.92.5 (2060ec1f9f, 2020-04-08)"
   sodipodi:docname="whatsapp-blue.svg">
  <defs
     id="defs4714" />
  <sodipodi:namedview
     id="base"
     pagecolor="#ffffff"
     bordercolor="#666666"
     borderopacity="1.0"
     inkscape:pageopacity="0.0"
     inkscape:pageshadow="2"
     inkscape:zoom="0.35"
     inkscape:cx="-110.92857"
     inkscape:cy="-266.64286"
     inkscape:document-units="mm"
     inkscape:current-layer="layer1"
     showgrid="false"
     fit-margin-top="0"
     fit-margin-left="0"
     fit-margin-right="0"
     fit-margin-bottom="0"
     inkscape:window-width="1920"
     inkscape:window-height="1027"
     inkscape:window-x="0"
     inkscape:window-y="29"
     inkscape:window-maximized="1" />
  <metadata
     id="metadata4717">
    <rdf:RDF>
      <cc:Work
         rdf:about="">
        <dc:format>image/svg+xml</dc:format>
        <dc:type
           rdf:resource="http://purl.org/dc/dcmitype/StillImage" />
        <dc:title></dc:title>
      </cc:Work>
    </rdf:RDF>
  </metadata>
  <g
     inkscape:label="Layer 1"
     inkscape:groupmode="layer"
     id="layer1"
     transform="translate(-8.5611608,-62.144494)">
    <g
       style="fill:#4d58c3;fill-opacity:1"
       id="g5276"
       transform="matrix(0.26458333,0,0,0.26458333,8.5611608,62.144494)">
      <path
         id="path5265"
         d="m 46.177,36.5593 c -0.1854,-0.3041 -0.6751,-0.4863 -1.4064,-0.8505 -0.7345,-0.3635 -4.3453,-2.1274 -5.0174,-2.3689 -0.6716,-0.2423 -1.1647,-0.3644 -1.6512,0.3636 -0.4895,0.7285 -1.8969,2.3695 -2.3265,2.8558 -0.4268,0.4871 -0.8538,0.5463 -1.5883,0.1821 -0.7354,-0.3635 -3.1017,-1.1353 -5.9043,-3.6133 -2.1807,-1.9333 -3.6542,-4.3156 -4.0847,-5.0444 -0.4259,-0.7277 -0.0421,-1.1217 0.3214,-1.4852 0.3311,-0.328 0.7351,-0.8505 1.1021,-1.2743 0.3678,-0.427 0.4896,-0.732 0.7345,-1.2182 0.2448,-0.4863 0.1229,-0.9099 -0.0627,-1.2743 -0.1821,-0.3633 -1.6512,-3.9481 -2.2638,-5.4077 -0.6084,-1.4556 -1.2208,-1.4013 -1.6512,-1.4013 -0.427,0 -1.2193,0.127 -1.2193,0.127 0,0 -1.4716,0.1822 -2.1432,0.9107 -0.6719,0.728 -2.568,2.4917 -2.568,6.073 0,3.5838 2.628,7.0488 2.995,7.5318 0.3676,0.4872 5.0766,8.0818 12.5398,10.9977 7.4629,2.9155 7.4629,1.9427 8.8092,1.8198 1.3438,-0.1183 4.3421,-1.7605 4.9545,-3.4616 0.6127,-1.7011 0.6127,-3.1601 0.4305,-3.4618 z M 31.0558,4.73247 c -13.886,0 -25.17778,11.20543 -25.17778,24.98303 0,5.4636 1.77993,10.5276 4.79538,14.6477 l -3.14416,9.2761 9.67356,-3.0738 c 3.9745,2.608 8.7366,4.1303 13.853,4.1303 13.8802,0 25.1753,-11.2063 25.1753,-24.9803 C 56.2311,15.9379 44.936,4.73247 31.0558,4.73247 Z M 61,29.7155 c 0,16.4082 -13.4064,29.713 -29.9442,29.713 -5.2519,0 -10.1862,-1.3412 -14.4757,-3.6973 L 0,61 5.40433,45.0587 C 2.67723,40.5802 1.10891,35.3285 1.10891,29.7155 1.10891,13.3039 14.5155,0 31.0558,0 47.5936,0 61,13.3039 61,29.7155 Z"
         inkscape:connector-curvature="0"
         style="clip-rule:evenodd;fill:#4d58c3;fill-opacity:1;fill-rule:evenodd" />
    </g>
  </g>
</svg>
