<svg width="1080" height="852" viewBox="0 0 1080 852" fill="none" xmlns="http://www.w3.org/2000/svg">
<path fill-rule="evenodd" clip-rule="evenodd" d="M560.189 538.692C558.986 538.16 560.331 539.35 561.757 538.098C563.358 536.691 556.399 535.578 555.731 534.876C555.063 534.174 556.482 533.538 558.463 532.701C560.444 531.864 555.571 532.176 554.599 529.82C554.599 529.82 562.745 530.59 566.328 528.346C569.91 526.102 577.427 520.913 578.877 515.534C580.327 510.155 580.891 503.954 580.96 498.141C581.03 492.328 580.193 490.347 580.193 490.347C580.193 490.347 574.119 484.986 573.608 476.54C573.098 468.094 577.761 459.07 583.279 453.373C588.797 447.675 595.293 441.289 595.293 441.289C595.293 441.289 598.529 416.512 600.923 414.47C603.317 412.428 603.844 415.503 604.233 412.253C604.623 409.003 606.419 408.207 609.424 406.296C612.429 404.385 627.026 399.149 635.642 399.733C644.258 400.317 647.429 402.251 654.724 407.139C660.354 407.977 665.62 411.115 670.303 414.632C674.986 418.148 682.544 425.322 684.07 430.52C685.597 435.718 677.93 464.585 683.838 477.311C686.446 483.194 681.93 473.121 697.905 469.775C697.905 469.775 699.507 469.078 700.878 467.46C702.248 465.842 702.973 464.996 704.08 464.418C705.188 463.84 721.752 452.117 723.737 451.732C725.461 448.892 727.62 445.897 728.832 444.45C730.043 443.003 731.558 439.03 732.925 438.017C734.293 437.004 737.92 436.192 739.26 433.099C740.6 430.006 741.555 428.389 740.758 427.532C739.96 426.675 732.887 425.62 731.244 424.316C729.6 423.011 724.541 417.282 726.093 412.414C727.645 407.546 737.613 401.194 739.311 399.736C739.351 397.664 741.82 370.702 743.185 367.394C744.55 364.087 749.149 359.792 757.764 357.223C766.378 354.655 777.57 354.265 783.65 356.101C789.729 357.937 800.853 359.27 804.662 363.88C808.471 368.49 810.271 373.69 810.25 377.911C810.229 382.131 808.724 391.228 809.767 393.499C810.81 395.77 819.618 408.921 819.92 413.917C820.221 418.913 819.417 418.118 819.417 418.118C819.417 418.118 816.403 414.129 813.253 414.776C810.103 415.423 802.454 423.688 800.878 427.232C799.301 430.776 798.968 435.69 798.156 439.262C797.344 442.834 794.188 449.938 792.397 452.065C790.606 454.191 787.29 459.428 786.336 460.978C785.382 462.529 782.737 460.025 784.065 463.903C785.393 467.78 787.206 470.814 789.898 472.93C792.589 475.045 800.615 477.524 805.126 482.62C809.637 487.715 806.776 508.672 805.843 515.354C804.909 522.036 798.137 541.873 799.041 545.445C801.089 545.024 804.593 543.578 807.697 541.02C810.8 538.461 811.595 538.502 814.58 539.153C815.191 537.388 814.555 534.914 818.946 530.511C823.336 526.108 833.687 516.424 836.712 514.522C839.737 512.62 845.398 506.504 853.965 507.264C864.654 505.88 873.857 503.556 876.674 502.276C879.492 500.997 891.788 500.654 892.662 497.804C893.536 494.953 892.782 494.575 891.247 492.936C889.712 491.298 881.973 482.511 882.602 477.258C883.231 472.004 885.225 472.042 883.369 470.854C881.513 469.667 872.386 459.123 872.643 454.754C872.9 450.385 873.705 445.893 877.144 443.87C880.583 441.847 880.99 440.675 882.819 437.641C884.647 434.608 896.772 424.573 899.57 423.458C902.367 422.343 899.297 419.062 900.369 416.784C901.441 414.506 903.363 415.139 904.435 412.868C905.506 410.596 906.37 407.835 908.141 405.283C909.911 402.732 909.316 402.144 911.297 401.174C913.278 400.204 913.928 399.224 914.837 397.198C915.746 395.171 915.646 394.893 917.81 394.619C919.974 394.346 954.31 394.596 963.771 400.125C973.232 405.654 970.331 406.522 973.936 408.678C977.54 410.833 985.3 429.45 986.634 433.888C987.967 438.325 987.12 455.401 988.46 460.894C989.8 466.387 984.37 469.466 985.605 473.611C986.84 477.755 981.823 475.156 982.407 480.288C982.991 485.42 978.82 484.654 976.232 488.474C973.643 492.293 968.795 499.403 966.282 499.253C963.77 499.103 959.138 501.069 959.138 501.069C959.138 501.069 964.222 505.335 967.33 509.413C970.438 513.49 980.183 519.986 989.092 523.451C998.001 526.916 1007.75 540.064 1009.06 544.688C1010.37 549.313 1108.67 540.636 1108.67 540.636L1124.73 851.361L-172 696.024L-144.971 470.392L-112.908 500.604C-112.908 500.604 -106.944 485.954 -107.204 482.193C-107.464 478.432 -113.775 474.035 -115.27 472.435C-116.766 470.835 -128.977 465.287 -131.681 458.214C-134.386 451.14 -130.731 447.315 -127.353 442.836C-123.975 438.356 -114.925 426.563 -114.169 424.7C-113.413 422.836 -111.916 414.046 -109.998 410.635C-108.08 407.223 -104.604 398.226 -104.258 395.337C-103.912 392.448 -103.186 385.785 -98.8858 383.548C-94.5859 381.309 -73.2645 380.489 -66.6076 381.997C-59.9507 383.505 -51.0207 386.795 -42.5176 392.165C-34.0145 397.535 -30.5748 402.92 -28.7286 406.783C-26.8827 410.645 -28.3171 416.689 -29.0203 420.335C-29.7235 423.981 -31.7033 434.578 -32.4309 437.688C-33.1587 440.798 -37.0071 458.099 -36.7258 463.905C-36.4446 469.711 -36.2162 473.735 -35.7745 476.718C-35.3328 479.702 -37.2719 483.288 -39.201 484.567C-41.1304 485.846 -45.6442 484.239 -45.941 488.2C-46.2379 492.161 -48.9541 497.786 -48.8102 500.29C-48.666 502.793 -40.1381 512.198 -35.5546 515.045C-30.9713 517.893 -5.86193 522.05 -1.93872 526.295C1.98472 530.541 7.9798 536.677 9.54084 541.46C11.1016 546.244 20.6231 577.755 23.1295 585.607C25.6362 593.458 32.9744 617.156 34.7488 620.159C36.5228 623.163 32.3608 623.649 28.5613 623.851C24.7618 624.052 21.5581 626.131 20.4968 628.138C19.4357 630.145 110.079 712.086 110.079 712.086C110.079 712.086 112.792 685.324 114.461 675.51C116.129 665.696 119.124 622.879 119.09 616.309C119.056 609.738 113.715 600.89 113.577 589.711C113.438 578.531 105.686 556.918 102.914 548.541C100.142 540.165 95.2235 511.34 94.5238 508.958C93.8243 506.576 68.22 453.11 64.9751 443.2C60.326 435.42 58.9423 429.158 53.6691 414.255C48.3959 399.352 35.4797 352.332 32.7668 347.574C30.0536 342.817 32.2053 343.833 29.49 343.403C29.49 343.403 29.777 337.956 29.7007 336.85C29.6244 335.744 18.703 323.629 16.9046 317.722C15.1062 311.816 15.9684 309.413 18.2241 306.707C20.4798 304.001 19.4359 302.258 20.8767 301.125C22.3175 299.993 23.0667 296.352 24.7461 294.973C26.4252 293.593 26.8305 292.389 27.0671 290.851C27.3034 289.313 27.1869 282.877 28.1584 281.74C29.1298 280.603 33.0223 278.616 36.6497 278.841C36.4413 277.093 62.4563 18.0979 62.4563 18.0979L466.371 66.4836L441.37 331.239C441.37 331.239 446.093 329.972 447.969 333.392C449.845 336.813 447.127 340.424 445.208 340.94C443.288 341.456 448.775 340.971 447.791 347.996C446.806 355.022 449.363 349.184 449.471 356.627C449.58 364.069 449.737 360.373 451.281 362.987C450.915 367.229 450.357 367.862 449.319 368.871C449.354 371.736 450.175 372.536 448.739 373.714C447.303 374.891 438.878 382.14 438.878 382.14L438.674 383.843L433.976 383.873C433.976 383.873 403.3 426.922 396.348 440.171C398.312 440.574 400.164 439.677 403.701 439.23C407.239 438.783 429.815 441.077 435.512 445.705C441.208 450.333 444.055 457.788 446.603 461.325C446.603 461.325 449.549 467.524 449.907 470.949C450.266 474.374 448.348 486.531 448.951 489.197C449.554 491.864 449.921 499.491 449.849 501.378C449.776 503.265 452.533 506.772 451.747 514.62C450.96 522.468 450.893 523.024 451.086 524.84C451.278 526.657 449.109 529.369 447.341 531.719C445.574 534.07 437.285 539.111 437.163 540.127C437.041 541.143 436.191 542.681 435.856 543.768C435.521 544.855 430.889 545.879 429.939 546.539C428.989 547.199 426.767 549.494 425.471 550.056C424.173 550.618 419.666 551.718 419.76 553.369C419.855 555.02 424.759 561.859 425.884 564.504C427.009 567.15 436.004 576.323 439.174 576.805C442.344 577.288 452.652 580.623 454.317 581.694C455.982 582.764 457.769 584.809 457.926 589.499C459.777 589.541 473.722 592.588 474.874 594.463C476.027 596.338 485.939 611.058 486.889 613.627C487.838 616.196 491.464 624.414 491.878 625.961C492.291 627.507 495.809 637.629 496.508 638.791C497.207 639.953 495.095 643.591 493.614 645.45C492.135 647.309 484.963 655.192 484.963 655.192L522.619 663.725C522.619 663.725 524.609 660.56 524.094 658.887C523.578 657.213 522.296 656.701 523.708 654.631C525.12 652.562 528.749 647.683 528.221 646.112C527.693 644.541 517.49 640.005 517.49 640.005C517.49 640.005 519.605 637.303 520.84 632.974C522.075 628.644 526.242 613.292 530.09 608.827C533.939 604.363 543.002 580.284 545.829 576.861C548.657 573.438 556.98 562.266 562.406 561.075C567.832 559.884 569.301 558.838 570.965 556.156C572.63 553.473 576.261 550.819 580.414 550.533C584.568 550.247 587.234 550.418 587.904 548.557C588.575 546.697 581.636 547.807 581.636 547.807C581.636 547.807 570.435 550.121 562.758 548.417C555.082 546.715 567.915 547.983 570.516 543.459C569.386 542.428 567.754 540.352 564.993 539.484C562.231 538.615 562.857 540.123 560.755 538.976C560.524 538.85 560.337 538.758 560.188 538.692L560.189 538.692ZM263.705 659.03C263.705 659.03 261.644 630.429 262.521 625.656C263.397 620.883 278.915 579.143 282.142 575.109C285.369 571.074 291.787 563.306 293.096 558.738C294.406 554.169 304.621 536.337 306.544 534.281C308.467 532.224 350.553 495.192 359.506 480.258C359.615 483.167 359.009 489.497 360.284 492.851C357.051 495.665 350.819 503.151 350.628 509.835C350.437 516.52 357.778 527.765 367.168 532.092C367.35 538.211 365.458 546.369 365.458 546.369C365.458 546.369 350.848 560.168 346.81 563.343C342.771 566.517 329.41 571.167 323.617 576.266C316.079 578.107 312.587 577.994 309.341 578.367C306.096 578.74 297.356 580.438 294.441 583.137C291.527 585.837 287.134 589.426 285.368 596.532C280.531 605.099 269.92 626.238 268.401 637.641C266.883 649.045 264.72 655.646 263.705 659.03ZM229.886 505.67C229.886 505.67 225.706 509.414 230.877 510.29C236.047 511.167 238.985 512.42 241.609 514.15C244.232 515.879 243.227 514.601 245.186 513.291C247.144 511.982 252.567 509.676 255.637 508.755C258.706 507.834 263.085 505.656 266.332 505.401C269.579 505.147 274.597 504.59 277.144 503.479C279.691 502.369 281.492 501.298 283.785 500.415C286.079 499.531 290.568 494.278 293.495 493.471C296.423 492.663 295.9 492.729 298.442 490.846C300.983 488.963 317.379 472.397 320.651 470.859C323.924 469.32 338.241 461.513 341.969 456.169C345.697 450.825 347.228 443.416 352.225 438.224C357.222 433.032 389.242 400.966 391.621 398.291C394 395.616 404.033 380.604 404.033 380.604L55.574 347.483C55.574 347.483 71.6201 386.466 77.7306 394.533C83.8413 402.6 82.4623 408.74 83.2544 411.794C84.0466 414.849 90.5951 431.075 93.3203 434.104C96.0456 437.133 104.602 449.482 108.506 456.641C112.409 463.8 119.399 479.564 120.587 482.537C121.775 485.511 130.335 489.239 134.085 491.232C137.835 493.225 140.454 497.142 145.508 500.064C150.562 502.986 154.642 504.375 156.25 505.983C157.859 507.591 159.143 507.616 160.69 506.515C162.237 505.414 168.163 502.134 171.664 501.91C175.165 501.686 176.484 502.488 176.484 502.488C176.484 502.488 178.599 497.722 177.411 494.749C176.223 491.776 173.067 488.052 173.701 484.911C174.334 481.77 174.45 476.508 173.242 475.848C172.034 475.189 168.28 478.6 166.442 472.46C164.604 466.321 164.369 457.542 165.383 454.446C165.383 454.446 167.235 450.808 168.935 451.655C168.935 451.655 169.398 433.824 174.835 424.953C180.273 416.081 193.406 407.417 200.998 406.339C208.59 405.261 225.775 406.805 237.356 418.616C248.937 430.426 246.877 430.437 247.823 438.657C248.768 446.877 249.568 457.382 247.962 461.122C246.356 464.861 243.685 468.902 243.728 472.839C243.771 476.776 241.392 482.668 239.632 485.546C237.872 488.423 236.835 492.789 236.091 494.701C235.347 496.614 233.229 503.556 229.887 505.67L229.886 505.67Z" fill="white"/>
<path fill-rule="evenodd" clip-rule="evenodd" d="M557.42 581.436C557.42 581.436 558.512 579.167 557.42 576.897C556.328 574.628 551.876 566.392 550.7 565.384C549.524 564.375 548.348 563.871 549.356 562.358C550.364 560.845 544.4 560.341 542.72 558.744C541.04 557.147 537.91 555.381 537.659 554.231C537.407 553.082 538.018 552.665 537.659 552.047C537.3 551.429 537.659 551.322 537.659 550.424C537.659 549.525 537.766 548.699 538.484 548.125C539.203 547.55 540.1 547.155 540.028 546.113C539.956 545.071 538.377 541.515 538.484 540.617C538.592 539.719 539.741 538.425 540.028 536.414C540.315 534.402 540.1 529.511 539.526 528.403C538.951 527.295 544.66 529.762 546.635 528.403C548.609 527.044 544.337 523.416 539.526 523.38C539.526 523.38 537.443 522.841 536.905 522.59C536.366 522.338 530.693 515.944 529.006 514.867C527.318 513.789 520.819 512.424 514.931 513.501C514.931 513.501 511.197 515.046 509.366 516.375C507.535 517.704 504.052 522.769 503.514 525.248C502.975 527.727 502.293 533.726 502.401 535.163C502.508 536.599 503.406 539.258 504.124 540.156C504.842 541.054 504.411 543.784 504.124 544.646C503.837 545.508 501.862 545.688 501.898 547.376C501.898 547.376 501.323 547.975 501.036 546.113C500.749 544.251 498.164 543.964 496.297 543.604C494.43 543.245 492.419 543.317 491.378 541.521C490.337 539.725 488.865 536.24 488.111 534.696C487.357 533.151 486.782 530.708 484.951 528.876C483.91 525.823 482.976 523.739 482.725 522.59C482.474 521.44 482.043 514.543 480.571 511.274C479.099 508.005 475.508 499.923 475.005 497.839C474.503 495.756 474.144 491.984 474 490.26C473.856 488.536 474.108 488.033 475.005 487.278C475.903 486.524 477.052 485.769 477.016 484.512C476.98 483.255 477.052 482.249 477.016 481.171C476.98 480.094 476.98 478.585 477.016 477.723C477.052 476.861 477.016 475.244 477.016 475.244C477.016 475.244 475.436 471.688 474.611 471.005C473.785 470.323 474 470.503 474 470.503L471.855 397.311C471.855 397.311 482.298 412.26 487.546 417.136C492.795 422.012 499.704 433.21 511.164 434.818C512.825 436.05 517.27 438.783 518.769 439.533C520.269 440.283 520.269 438.569 521.661 438.836C523.268 439.694 531.194 438.194 532.64 437.711C534.086 437.229 537.42 433.693 536.905 429.62C536.389 425.548 534.675 417.189 535.264 413.653C535.853 410.117 539.544 402.937 540.028 401.222C540.513 399.507 542.708 395.114 541.102 391.095C539.495 387.076 538.484 383.326 538.484 383.326C538.484 383.326 531.102 383.379 529.006 379.575C526.91 375.771 529.067 369.394 529.006 365.644C528.945 361.893 527.499 359.267 525.999 358.356C524.5 357.446 514.431 350.533 511.164 345.068C511.164 345.068 509.521 344.264 508.075 341.532C506.629 338.799 495.007 319.938 493.401 318.009C491.794 316.08 481.634 306.703 474.611 303.757C467.587 300.809 469.354 302.792 468.926 301.077C468.497 299.363 466.409 299.148 466.409 299.148C466.409 299.148 464.856 297.97 465.016 302.256C465.177 306.543 465.766 326.1 465.766 326.1C465.766 326.1 467.105 382.683 467.159 384.719C467.587 386.273 467.855 386.433 467.801 387.398C467.748 388.362 469.461 471.005 469.461 471.005C469.461 471.005 465.016 470.343 463.838 471.843C462.66 473.343 463.035 474.198 463.142 475.244C463.249 476.29 463.035 477.148 463.142 478.38C463.249 479.612 463.731 482.393 463.838 484.512C463.945 486.632 464.374 489.739 464.481 491.936C464.588 494.133 464.16 519.112 464.481 522.59C464.802 526.068 471.015 548.304 471.015 549.751C471.015 551.198 462.767 556.961 468.926 562.358C475.085 567.755 475.781 566.415 476.102 570.487C476.424 574.56 475.005 596.099 475.005 596.099L471.855 640C471.855 640 565.061 618.695 562.965 599.994C560.869 581.292 558.395 588.335 557.42 581.436Z" fill="white"/>
</svg>
