<svg width="1080" height="719" viewBox="0 0 1080 719" fill="none" xmlns="http://www.w3.org/2000/svg">
<path fill-rule="evenodd" clip-rule="evenodd" d="M170.227 220.979H153.403V222.897H150.764V245.32H149.312V254.315C149.312 254.315 150.368 254.911 150.764 255.043V257.689H149.312V266.089H150.764V269.595H149.312V278.392H149.906V281.236H149.312V289.835H149.906V292.745H149.312V301.675H149.906V304.916H148.653V313.448H149.906V317.02H148.653V324.891H149.906V328.198H148.653V336.995H149.906V340.303H148.653V348.769H149.312V351.944H148.653V360.344H149.906V363.784H148.653V372.184H149.312V375.161H147.993V384.078H148.653V387.331H147.993V395.268H148.653V398.906H147.993V406.645H149.312V410.614H147.993V418.948H149.312V421.991H147.993V430.325H148.653V433.897H147.993V456.981C147.993 456.981 147.201 458.304 146.871 465.514C146.541 472.723 145.715 530.129 145.715 530.129L270.632 532.594C270.632 532.594 276.004 236.304 274.183 225.625L273.181 224.621V222.897H242.863C242.863 222.897 229.023 181.538 222.195 172.866V137.45C222.195 137.45 221.557 136.355 221.193 137.45C220.829 138.545 221.193 172.866 221.193 172.866H220.101C220.101 172.866 218.007 188.201 217.096 204.083C217.005 204.174 206.808 142.379 206.262 137.45V99.5695C206.262 99.5695 204.805 98.109 204.532 99.5695C204.258 101.03 204.532 137.45 204.532 137.45C204.532 137.45 179.748 181.14 170.227 220.979L170.227 220.979Z" fill="white"/>
<path fill-rule="evenodd" clip-rule="evenodd" d="M1076.8 494.315L1069.91 509.096V534.077C1069.91 534.077 1073.72 539.546 1075.04 541.763C1076.36 543.98 1073.72 546.937 1069.91 546.05C1066.1 545.163 1060.39 543.98 1060.39 543.98V538.511C1060.39 538.511 1059.95 541.172 1052.92 541.763C1045.88 542.354 1045.15 544.572 1042.95 541.763C1040.76 538.955 1045.59 535.407 1047.2 534.077C1047.06 529.347 1045.15 509.096 1045.15 509.096L1063.03 479.829V476.872C1063.03 476.872 1063.91 476.133 1060.39 474.951C1056.87 473.768 1057.17 473.177 1063.03 472.142C1065.08 468.004 1064.79 462.978 1064.79 462.978L1060.39 458.691V437.997C1060.39 437.997 1057.31 437.997 1057.75 435.78C1058.19 433.563 1058.92 433.415 1060.39 431.198C1061.86 428.98 1059.95 417.746 1060.39 415.086C1060.83 412.425 1057.75 367.341 1057.75 367.341C1057.75 367.341 1057.31 304.816 1057.75 301.712C1058.19 298.608 1057.46 210.918 1057.75 197.945C1057.75 197.945 1059.8 195.912 1060.39 199.607C1060.98 203.303 1069.91 272.776 1069.91 272.776L1081.78 355.109C1081.78 355.109 1085.01 357.769 1086.03 360.873C1086.03 360.873 1088.82 362.499 1092.19 362.943C1092.19 368.264 1094.38 408.618 1094.38 408.618C1094.38 408.618 1098.34 415.269 1098.05 420.443C1097.75 425.616 1098.05 431.198 1098.05 431.198H1102.3V462.978H1090.72V469.37C1090.72 469.37 1099.37 471.072 1099.8 472.142C1100.24 473.213 1099.8 479.829 1099.8 479.829V494.315L1106.98 506.932V531.6L1111.53 541.763V546.05H1102.3L1094.38 538.511C1094.38 538.511 1095.41 541.875 1092.19 541.763C1088.96 541.651 1081.78 541.763 1081.78 541.763C1081.78 541.763 1083.54 535.591 1083.54 531.6C1083.54 527.609 1081.64 502.48 1081.78 499.967C1081.93 497.454 1076.8 494.315 1076.8 494.315V494.315ZM1063.17 499.967L1056.29 511.349V528.2L1060.54 532.191L1063.17 525.989V511.349L1065.66 499.967C1065.66 499.967 1065.08 498.341 1063.17 499.967V499.967ZM1090.43 521.105V511.349H1095.56V524.357C1095.56 524.357 1092.77 529.678 1090.43 521.105ZM1063.92 315.856H1070.41L1075.3 356.419H1070.41L1065.66 362.298L1063.92 315.857V315.856ZM1060.98 282.763L1063.92 313.06H1069.61L1066.86 282.763H1060.98ZM1060.98 275.528V239.215H1063.31L1066.86 275.528H1060.98Z" fill="white"/>
<path fill-rule="evenodd" clip-rule="evenodd" d="M1021.8 494.315L1014.81 509.096V534.077C1014.81 534.077 1018.68 539.546 1020.02 541.763C1021.36 543.98 1018.68 546.937 1014.81 546.05C1010.95 545.163 1005.15 543.98 1005.15 543.98V538.511C1005.15 538.511 1004.7 541.172 997.559 541.763C990.42 542.354 989.676 544.572 987.445 541.763C985.213 538.955 990.122 535.407 991.758 534.077C991.609 529.347 989.676 509.096 989.676 509.096L1007.82 479.829V476.872C1007.82 476.872 1008.72 476.133 1005.15 474.951C1001.58 473.768 1001.87 473.177 1007.82 472.142C1009.9 468.004 1009.61 462.978 1009.61 462.978L1005.15 458.691V437.997C1005.15 437.997 1002.02 437.997 1002.47 435.78C1002.91 433.563 1003.66 433.415 1005.15 431.198C1006.63 428.98 1004.7 417.746 1005.15 415.086C1005.59 412.425 1002.47 367.341 1002.47 367.341C1002.47 367.341 1002.02 304.816 1002.47 301.712C1002.91 298.608 1002.17 210.918 1002.47 197.945C1002.47 197.945 1004.55 195.912 1005.15 199.607C1005.74 203.303 1014.81 272.776 1014.81 272.776L1026.86 355.109C1026.86 355.109 1030.13 357.769 1031.18 360.873C1031.18 360.873 1034 362.499 1037.42 362.943C1037.42 368.264 1039.65 408.618 1039.65 408.618C1039.65 408.618 1043.67 415.269 1043.37 420.443C1043.07 425.616 1043.37 431.198 1043.37 431.198H1047.69V462.978H1035.94V469.37C1035.94 469.37 1044.71 471.072 1045.16 472.142C1045.6 473.213 1045.16 479.829 1045.16 479.829V494.315L1052.45 506.932V531.6L1057.06 541.763V546.05H1047.69L1039.65 538.511C1039.65 538.511 1040.69 541.875 1037.42 541.763C1034.15 541.651 1026.86 541.763 1026.86 541.763C1026.86 541.763 1028.65 535.591 1028.65 531.6C1028.65 527.609 1026.71 502.48 1026.86 499.967C1027.01 497.454 1021.8 494.315 1021.8 494.315V494.315ZM1007.97 499.967L1000.98 511.349V528.2L1005.29 532.191L1007.97 525.989V511.349L1010.5 499.967C1010.5 499.967 1009.9 498.341 1007.97 499.967V499.967ZM1035.64 521.105V511.349H1040.84V524.357C1040.84 524.357 1038.02 529.678 1035.64 521.105ZM1008.73 315.856H1015.31L1020.28 356.419H1015.31L1010.5 362.298L1008.73 315.857V315.856ZM1005.74 282.763L1008.73 313.06H1014.5L1011.71 282.763H1005.74ZM1005.74 275.528V239.215H1008.11L1011.71 275.528H1005.74Z" fill="white"/>
<path fill-rule="evenodd" clip-rule="evenodd" d="M667.346 482.417L665.032 487.34V495.66C665.032 495.66 666.312 497.481 666.755 498.22C667.198 498.958 666.312 499.943 665.032 499.647C663.752 499.352 661.832 498.958 661.832 498.958V497.137C661.832 497.137 661.684 498.023 659.321 498.22C656.958 498.417 656.712 499.155 655.973 498.22C655.235 497.284 656.86 496.103 657.401 495.66C657.352 494.084 656.712 487.34 656.712 487.34L662.718 477.592V476.607C662.718 476.607 663.013 476.361 661.832 475.967C660.65 475.574 660.749 475.377 662.718 475.032C663.407 473.654 663.309 471.98 663.309 471.98L661.832 470.552V463.66C661.832 463.66 660.798 463.66 660.946 462.921C661.093 462.183 661.34 462.134 661.832 461.395C662.324 460.657 661.684 456.915 661.832 456.029C661.98 455.143 660.946 440.128 660.946 440.128C660.946 440.128 660.798 419.303 660.946 418.269C661.093 417.235 660.847 388.03 660.946 383.709C660.946 383.709 661.635 383.032 661.832 384.263C662.029 385.494 665.032 408.632 665.032 408.632L669.019 436.053C669.019 436.053 670.103 436.94 670.447 437.973C670.447 437.973 671.383 438.515 672.515 438.663C672.515 440.435 673.253 453.875 673.253 453.875C673.253 453.875 674.582 456.09 674.484 457.813C674.386 459.536 674.484 461.395 674.484 461.395H675.912V471.98H672.022V474.109C672.022 474.109 674.927 474.676 675.075 475.032C675.222 475.389 675.075 477.592 675.075 477.592V482.417L677.487 486.619V494.835L679.013 498.22V499.647H675.912L673.253 497.137C673.253 497.137 673.598 498.257 672.515 498.22C671.432 498.182 669.019 498.22 669.019 498.22C669.019 498.22 669.61 496.164 669.61 494.835C669.61 493.506 668.97 485.136 669.019 484.299C669.069 483.462 667.346 482.417 667.346 482.417V482.417ZM662.767 484.299L660.453 488.09V493.702L661.881 495.032L662.767 492.966V488.09L663.604 484.299C663.604 484.299 663.407 483.758 662.767 484.299ZM671.924 491.339V488.09H673.647V492.422C673.647 492.422 672.712 494.195 671.924 491.339ZM663.017 422.98H665.197L666.841 436.49H665.197L663.604 438.448L663.017 422.98ZM662.029 411.958L663.017 422.049H664.929L664.005 411.958H662.029ZM662.029 409.548V397.454H662.814L664.005 409.548H662.029Z" fill="white"/>
<path fill-rule="evenodd" clip-rule="evenodd" d="M708.133 488.18L705.819 493.103V501.423C705.819 501.423 707.099 503.244 707.542 503.983C707.985 504.721 707.099 505.706 705.819 505.41C704.539 505.115 702.619 504.721 702.619 504.721V502.9C702.619 502.9 702.471 503.786 700.108 503.983C697.745 504.18 697.499 504.918 696.76 503.983C696.022 503.047 697.647 501.866 698.188 501.423C698.139 499.847 697.499 493.103 697.499 493.103L703.505 483.355V482.371C703.505 482.371 703.8 482.124 702.619 481.731C701.437 481.337 701.536 481.14 703.505 480.795C704.194 479.417 704.096 477.743 704.096 477.743L702.619 476.315V469.423C702.619 469.423 701.585 469.423 701.733 468.685C701.88 467.946 702.127 467.897 702.619 467.158C703.111 466.42 702.471 462.678 702.619 461.792C702.767 460.906 701.733 445.891 701.733 445.891C701.733 445.891 701.585 425.066 701.733 424.032C701.88 422.999 701.634 393.793 701.733 389.473C701.733 389.473 702.422 388.796 702.619 390.026C702.816 391.257 705.819 414.395 705.819 414.395L709.807 441.817C709.807 441.817 710.89 442.703 711.234 443.737C711.234 443.737 712.17 444.278 713.302 444.426C713.302 446.198 714.04 459.638 714.04 459.638C714.04 459.638 715.37 461.854 715.271 463.577C715.173 465.3 715.271 467.159 715.271 467.159H716.699V477.743H712.81V479.872C712.81 479.872 715.714 480.439 715.862 480.795C716.01 481.152 715.862 483.355 715.862 483.355V488.18L718.274 492.382V500.598L719.8 503.983V505.411H716.699L714.04 502.9C714.04 502.9 714.385 504.02 713.302 503.983C712.219 503.946 709.807 503.983 709.807 503.983C709.807 503.983 710.397 501.927 710.397 500.598C710.397 499.269 709.757 490.9 709.807 490.063C709.856 489.226 708.133 488.18 708.133 488.18V488.18ZM703.554 490.063L701.24 493.853V499.466L702.668 500.795L703.554 498.729V493.853L704.391 490.063C704.391 490.063 704.194 489.521 703.554 490.063V490.063ZM712.711 497.102V493.853H714.434V498.186C714.434 498.186 713.499 499.958 712.711 497.102ZM703.804 428.743H705.984L707.628 442.253H705.984L704.391 444.211L703.804 428.743V428.743ZM702.816 417.722L703.804 427.812H705.716L704.793 417.722H702.816ZM702.816 415.312V403.218H703.601L704.793 415.312H702.816Z" fill="white"/>
<path fill-rule="evenodd" clip-rule="evenodd" d="M173.447 442.689L190.002 433.435L271.615 446.467L291.902 433.435L472.85 459.492L476.115 383.858C476.115 383.858 477.424 383.105 477.98 383.858C477.98 386.598 476.115 459.492 476.115 459.492L494.244 463.701L520.751 481.14L543.072 468.119L771.403 497.416L814.639 520.307H805.177V570.916L650.615 577.119L173.445 484.111V442.689L173.447 442.689Z" fill="white"/>
<path fill-rule="evenodd" clip-rule="evenodd" d="M630.959 485.958L632.595 438.695C632.595 438.695 634.232 436.733 634.039 445.126C633.847 453.519 632.595 485.958 632.595 485.958H630.959V485.958Z" fill="white"/>
<path fill-rule="evenodd" clip-rule="evenodd" d="M747.997 501.481L749.633 438.76C749.633 438.76 751.27 436.156 751.077 447.294C750.885 458.432 749.633 501.481 749.633 501.481H747.997V501.481Z" fill="white"/>
<path fill-rule="evenodd" clip-rule="evenodd" d="M5.9881 454.345L158.44 472.787L151.064 552.701L-10.9785 549.029L5.98793 454.345L5.9881 454.345Z" fill="white"/>
<path fill-rule="evenodd" clip-rule="evenodd" d="M944.308 381.443V373.371H941.734V385.655C936.469 388.58 936.82 393.845 936.82 393.845H930.737C926.993 398.759 922.197 417.128 922.197 417.128H917.049C918.57 415.724 921.144 408.002 912.487 407.651C903.83 407.3 907.573 417.128 907.573 417.128H903.947L897.512 424.498H881.368L876.688 432.103H858.672L853.29 441.697H833.519L828.372 449.536H785.788L780.055 458.895H754.669L752.095 462.639L714.542 461.352L706.703 473.169H675.35L672.426 480.189L664.236 481.476V494.58C664.236 496.803 671.373 524.648 673.829 530.615C676.286 536.581 693.83 557.658 693.83 557.658L1606.11 565.067C1606.11 565.067 1605.85 557.702 1606.11 555.652C1606.37 553.602 1607.69 546.304 1613.21 540.341C1618.74 534.379 1651 502.464 1651 502.464H1581.48C1581.48 502.464 1580.77 498.87 1578.58 497.028C1576.39 495.187 1568.59 494.398 1568.59 494.398L1559.04 488.475H1543.06C1541.32 485.626 1534.91 482.936 1532.93 482.145C1530.95 481.354 1527.95 474.707 1527.95 474.707V449.704C1527.95 449.704 1532.46 448.359 1532.93 446.776C1533.41 445.194 1532.93 439.734 1532.93 439.734H1506.35V434.829H1501.92V430.635H1463.62L1462.51 411.487L1457.37 410.696C1457.37 410.696 1457.85 399.381 1457.37 397.403C1456.9 395.425 1454.92 396.374 1454.92 396.374C1454.92 396.374 1453.89 405.948 1453.73 411.487C1445.82 420.507 1446.93 430.635 1446.93 430.635L1388.38 428.593V425.914C1388.38 425.914 1387.67 425.175 1387.51 424.182C1393.21 421.527 1391.07 411.724 1384.82 411.487C1378.57 411.25 1377.94 417.128 1377.94 417.128C1377.94 417.128 1376.99 414.889 1372.95 414.889C1364.64 414.889 1367.26 424.768 1367.26 424.768H1364.96L1360.61 430.635L1299.53 427.419V418.765H1270.57L1264.16 422.09V427.419H1255.33C1255.33 427.419 1255.33 427.815 1255.33 426.526C1255.33 425.237 1256.56 425.914 1256.56 425.914V424.768C1256.56 424.768 1255.71 425.032 1256.56 424.182C1259.08 423.83 1261.2 413.283 1252.87 413.283C1244.54 413.283 1247.83 424.182 1247.83 424.182V424.768L1249.3 425.914C1249.3 425.914 1249.3 425.895 1249.3 427.419C1247.42 427.419 1247.08 428.593 1247.08 428.593H1241.58L1240.41 423.562C1240.41 423.562 1209.99 423.445 1205.31 423.562C1200.63 423.679 1192.56 428.593 1192.56 428.593H1176.88C1176.18 426.253 1174.54 412.448 1174.54 412.448H1170.92L1168.93 380.273L1155.24 378.401C1155.24 378.401 1154.65 376.296 1152.67 376.647C1150.68 376.998 1150.56 378.401 1150.56 378.401H1142.52V376.647C1142.52 376.647 1138.63 376.179 1136.99 376.647C1135.35 377.115 1134.42 381.56 1134.42 381.56H1131.14L1129.62 387.059H1120.38C1116.16 391.622 1112.89 409.523 1112.89 412.448C1074.98 412.916 1044.22 417.128 1044.22 417.128V425.914H1003.04V423.562H983.382V418.765H950.041V417.128H945.712L944.308 393.845" fill="white"/>
<path fill-rule="evenodd" clip-rule="evenodd" d="M-281.623 696.919L-345.732 637.298L-355 478.949H-25.1886L195.345 530.878V585.251L503.705 549.012L1424.01 593.157C1433.41 803.726 195.345 686.021 195.345 686.021L-281.623 696.919L-281.623 696.919Z" fill="white"/>
<path fill-rule="evenodd" clip-rule="evenodd" d="M950.051 494.315L943.164 509.096V534.077C943.164 534.077 946.974 539.546 948.292 541.763C949.611 543.98 946.974 546.937 943.164 546.05C939.354 545.163 933.64 543.98 933.64 543.98V538.511C933.64 538.511 933.2 541.172 926.167 541.763C919.134 542.354 918.402 544.572 916.204 541.763C914.006 538.955 918.841 535.407 920.453 534.077C920.306 529.347 918.401 509.096 918.401 509.096L936.277 479.829V476.872C936.277 476.872 937.157 476.133 933.64 474.951C930.123 473.768 930.416 473.177 936.277 472.142C938.329 468.004 938.036 462.978 938.036 462.978L933.64 458.691V437.997C933.64 437.997 930.563 437.997 931.002 435.78C931.442 433.563 932.175 433.415 933.64 431.198C935.105 428.98 933.2 417.746 933.64 415.086C934.079 412.425 931.002 367.341 931.002 367.341C931.002 367.341 930.563 304.816 931.002 301.712C931.442 298.608 930.709 210.918 931.002 197.945C931.002 197.945 933.054 195.912 933.64 199.607C934.226 203.303 943.164 272.776 943.164 272.776L955.032 355.109C955.032 355.109 958.256 357.769 959.282 360.873C959.282 360.873 962.066 362.499 965.436 362.943C965.436 368.264 967.634 408.618 967.634 408.618C967.634 408.618 971.59 415.269 971.297 420.443C971.004 425.616 971.297 431.198 971.297 431.198H975.546V462.978H963.97V469.37C963.97 469.37 972.615 471.072 973.055 472.142C973.495 473.213 973.055 479.829 973.055 479.829V494.315L980.235 506.932V531.6L984.777 541.763V546.05H975.546L967.634 538.511C967.634 538.511 968.659 541.875 965.436 541.763C962.212 541.651 955.032 541.763 955.032 541.763C955.032 541.763 956.791 535.591 956.791 531.6C956.791 527.609 954.886 502.48 955.032 499.967C955.179 497.454 950.051 494.315 950.051 494.315V494.315ZM936.424 499.967L929.537 511.349V528.2L933.786 532.191L936.424 525.989V511.349L938.915 499.967C938.915 499.967 938.329 498.341 936.424 499.967V499.967ZM963.677 521.105V511.349H968.806V524.357C968.806 524.357 966.022 529.678 963.677 521.105ZM937.168 315.856H943.657L948.548 356.419H943.657L938.915 362.298L937.168 315.857V315.856ZM934.226 282.763L937.168 313.06H942.858L940.109 282.763H934.226ZM934.226 275.528V239.215H936.562L940.109 275.528H934.226V275.528Z" fill="white"/>
<path fill-rule="evenodd" clip-rule="evenodd" d="M-331.947 257.619L-280.536 258.998V266.035C-280.536 266.035 -273.775 267.001 -272.534 269.485H-269.912V266.035C-269.912 266.035 -261.357 267.277 -259.564 269.485H-256.114V266.035C-256.114 266.035 -249.767 265.207 -246.732 269.485H-244.248V266.035C-244.248 266.035 -236.936 265.897 -233.348 269.485H-231.003V266.035C-231.003 266.035 -224.656 265.069 -222.034 269.485H-218.447V266.035C-218.447 266.035 -212.238 265.207 -210.168 269.485H-205.615V266.035C-205.615 266.035 -200.096 264.931 -196.923 269.485V258.998H-109.998V269.485H-98.9598C-97.0281 270.726 -94.1306 269.485 -94.1306 269.485H-87.7837V284.524H-73.7101V294.32H-60.6024V328.124H-47.6327V352.546H-14.5185V355.719H-16.1742V360.145C-16.1742 360.145 -12.7249 359.859 -12.7249 363.308C-8.03365 363.308 25.9083 367.585 25.9083 367.585L27.702 450.923V548.965H-331.947V257.62L-331.947 257.619Z" fill="white"/>
<path fill-rule="evenodd" clip-rule="evenodd" d="M61.6543 323.871V302.365H56.8668V299.219H61.6543V291.422H64.4252V299.219H69.9983V302.365H64.4252V323.744C74.9105 324.397 79.7096 333.364 80.9212 350.812C85.9582 350.812 88.4767 349.049 88.7286 355.345C88.9804 361.641 85.2026 358.619 85.2026 358.619V374.234H97.7606V387.078H93.7655V414.529H100.817V419.063L93.7655 424.855V430.144H100.817V445.003H93.7655V458.603H97.7606V478.499H100.817V490.588H31.5591V424.855L28.0332 419.063C28.0332 419.063 31.5591 414.277 35.5887 414.529C35.085 400.426 35.5887 374.233 35.5887 374.233L42.6404 368.945V350.812H48.6848C48.6848 350.812 51.5213 326.131 61.6545 323.871L61.6543 323.871Z" fill="white"/>
<path fill-rule="evenodd" clip-rule="evenodd" d="M591.625 582.322L301.826 644.268L93.2038 671.32L95.5258 569.216L151.095 565.517L150.246 552.772L148.429 552.046L148.351 550.866L172.297 546.817L171.584 536.112L184.126 535.277L220.394 496.88L224.487 496.607C224.487 496.607 224.578 485.032 235.356 471.693C246.134 458.355 256.169 448.221 287.822 433.875C295.572 430.363 302.325 427.651 308.837 423.489C315.35 419.326 332.404 409.777 337.147 394.832C338.061 392.764 338.252 392.751 338.252 392.751L339.162 392.69C338.857 391.902 338.496 390.414 339.823 389.853C340.022 388.319 339.555 385.828 339.555 385.828C339.555 385.828 337.912 385.209 337.53 384.397C337.148 383.585 339.166 383.268 340.046 383.356L339.728 378.569C339.728 378.569 337.714 378.412 338.345 377.496C338.976 376.58 340.04 376.691 340.04 376.691L339.724 371.941C339.724 371.941 336.262 370.278 338.197 365.415C338.197 365.415 337.215 369.814 340.831 369.427C344.448 369.041 341.625 363.839 341.373 363.346C341.122 362.853 346.556 368.974 341.319 371.835L341.635 376.585C341.635 376.585 343.004 377.441 342.341 377.886C341.679 378.33 341.466 378.417 340.852 378.495L341.171 383.281C341.171 383.281 342.648 383.037 342.751 384.05C342.855 385.062 342.278 385.684 341.332 385.71L341.6 389.735C341.6 389.735 342.779 391.208 342.198 392.488L342.823 392.447C342.823 392.447 363.65 422.768 397.891 433.955C397.616 429.83 396.352 326.102 396.352 326.102C396.352 326.102 379.423 317.326 378.376 315.439L377.756 292.69L379.547 292.571L379.328 289.281C379.328 289.281 377.479 288.525 377.327 286.234C377.174 283.943 379.265 283.93 380.009 283.797C380.754 283.663 382.628 284.166 382.772 286.332C382.916 288.498 380.989 289.086 380.828 289.181L381.019 292.055L389.517 291.489L389.423 290.073C389.423 290.073 387.298 289.587 387.368 287.49C387.368 287.49 387.229 285.408 389.076 284.866C389.246 284.27 389.262 283.264 391.465 283.034C393.667 282.804 394.893 286.404 393.753 287.065C393.753 287.065 394.185 289.337 392.588 289.862C392.652 290.82 392.71 291.695 392.71 291.695L396.584 291.437L395.086 181.551L377.8 173.289L377.38 151.27L379.713 151.114L379.527 148.324L378.828 147.575C378.828 147.575 376.689 147.801 376.395 145.269C376.101 142.737 378.584 142.32 379.589 142.337C380.594 142.354 381.622 143.331 381.81 144.909C381.999 146.486 380.474 147.466 380.474 147.466L380.643 150.006L389.516 149.416L389.399 147.667L388.889 146.906C388.889 146.906 387.803 146.309 387.809 144.509C387.814 142.71 389.336 141.688 390.794 141.591C392.252 141.494 393.488 142.458 393.487 144.968C393.487 147.478 391.732 147.511 391.732 147.511L391.849 149.261L394.848 149.061L394.576 119.209L387.923 116.054L387.626 111.597L394.544 107.413L394.314 103.956L392.706 102.432L392.518 99.5993L393.231 99.008L390.324 97.4444L390.677 92.6935C390.677 92.6935 391.113 91.7022 391.988 91.644C392.863 91.5858 393.488 91.5442 393.488 91.5442L393.657 94.0849L394.157 94.0516L393.988 91.5109C393.988 91.5109 395.071 91.4388 395.945 91.3806C396.82 91.3224 392.833 84.2247 392.592 78.091C392.351 71.9572 396.298 68.3895 399.947 66.013C403.596 63.6365 410.156 55.9623 411.407 48.9762C412.657 41.9901 412.893 41.7652 412.893 41.7652L414.215 41.6772L413.854 36.2464C413.854 36.2464 412.666 35.3179 412.779 34.3889C412.892 33.4598 413.409 32.4179 413.957 32.4901C413.9 31.6245 413.739 29.217 413.739 29.217C413.739 29.217 413.238 28.6255 413.314 28.1314C413.39 27.6373 413.767 27.1775 414.122 27.2082C414.477 27.2389 413.866 23.3671 413.866 23.3671C413.866 23.3671 411.35 22.7195 411.798 19.6466C411.798 19.6466 412.029 22.2939 414.404 21.6468C416.779 20.9996 415.068 17.7508 414.063 16.5343C414.063 16.5343 419.211 19.9747 414.515 23.3239L414.988 27.1506C414.988 27.1506 416.029 28.2144 414.903 29.1396C414.999 30.594 415.12 32.4127 415.12 32.4127C415.12 32.4127 417.198 34.6445 414.72 36.1888L415.081 41.6196L415.309 41.6044C415.309 41.6044 417.966 51.9701 419.506 54.3777C419.658 54.6138 419.848 54.8933 420.074 55.2079C419.868 54.2552 419.304 51.3928 419.831 50.8315C420.465 50.1558 421.672 49.9397 421.858 51.3753C422.044 52.8108 422.079 54.6864 422.079 54.6864L421.155 54.7478L421.292 56.8029C423.782 59.9 428.064 64.3945 432.434 66.5929C438.203 69.4954 439.487 79.0937 436.845 85.2559C434.203 91.418 435.302 92.0492 435.302 92.0492L437.289 91.9169L438.409 91.106L440.103 90.9932L440.464 96.4078L438.958 99.3529L437.989 102.434L436.045 103.209L436.321 107.358C436.321 107.358 441.833 109.925 442.873 111.441L443.118 115.122L435.973 119.765L436.809 147.314L440.958 147.038C440.958 147.038 439.402 146.592 439.476 145.061C439.55 143.53 440.509 142.058 442.702 142.382C444.895 142.705 445.439 145.587 443.821 146.847C442.203 148.108 443.929 148.462 443.929 148.462L447.318 148.237L449.42 145.429L452.108 145.25L452.433 150.126L454.871 152.37L455.196 172.244L437.614 181.455L439.287 288.595L444.195 288.268L444.073 286.435C444.073 286.435 442.174 286.116 442.023 283.852C441.873 281.589 446.685 279.815 446.957 284.779C446.957 284.779 447.023 285.773 446.06 286.303L446.182 288.136L450.331 287.859L452.254 285.891L453.073 285.836C453.073 285.836 452.517 282.786 456.282 282.903C460.046 283.02 459.126 288.599 456.652 288.47L456.854 291.508L457.867 293.495L458.36 314.121L439.99 324.734L442.013 446.959L444.72 446.779L444.194 438.876L448.778 431.187L452.977 430.908L452.759 427.63C452.759 427.63 450.705 427.155 450.824 425.407C450.942 423.659 452.426 422.795 453.681 422.835C454.935 422.876 456.39 423.814 456.358 426.027C456.358 426.027 459.128 426.501 458.99 428.673L462.564 428.435L467.055 431.523L467.447 429.945C467.447 429.945 465.793 428.832 465.91 427.554C466.027 426.277 466.53 424.926 468.638 424.645C470.745 424.363 471.225 425.931 471.309 427.195C471.394 428.459 471.019 429.895 469.882 429.783L470.129 433.482L471.721 433.376L471.715 457.315L457.544 466.301L459.217 491.446C459.217 491.446 461.877 490.422 463.276 493.057C463.972 492.917 464.216 490.925 467.553 490.891C470.89 490.857 472.907 491.052 473.197 493.149C473.21 493.238 473.216 493.328 473.217 493.42C472.688 494.285 472.696 495.111 472.696 495.111L472.754 495.172C472.003 496.726 470.607 498.119 470.607 498.119L473.652 499.986L475.602 498.21L472.754 495.172C473.035 494.589 473.226 493.984 473.217 493.42C473.825 492.426 475.14 491.379 477.986 491.466C483.312 491.629 482.816 493.355 482.816 493.355C482.816 493.355 483.815 491.408 487.908 491.417L490.767 491.98L490.421 486.782L500.643 485.584C500.643 485.584 500.553 476.466 507.818 473.255C507.706 471.569 507.693 471.382 507.693 471.382C507.693 471.382 505.365 471.019 505.499 468.8C505.633 466.581 506.13 466.971 507.382 466.699C508.634 466.428 507.338 466.044 507.338 466.044C507.338 466.044 506.985 465.691 507.248 464.686C507.51 463.681 507.028 453.61 507.028 453.61C507.028 453.61 506.347 449.743 507.334 449.724C508.32 449.705 508.739 449.631 508.739 449.631L508.604 447.617C508.604 447.617 506.743 445.79 506.862 442.642C506.982 439.494 512.286 437.213 512.096 434.357L513.407 434.27C513.407 434.27 514.091 436.764 516.367 438.447C518.642 440.129 519.507 443.223 518.392 445.555C517.277 447.886 518.104 449.713 518.104 449.713L520.071 449.582L520.28 452.728L519.755 453.318L520.544 465.165C520.544 465.165 527.026 457.255 527.407 451.68C527.407 451.68 527.258 450.138 528.993 450.069C530.729 450.001 549.692 448.692 549.692 448.692C549.692 448.692 549.23 448.111 550.447 448.03C551.665 447.949 554.521 447.759 554.521 447.759L556.244 455.263L563.145 464.963C563.145 464.963 569.306 469.784 573.337 471.474L572.116 453.137L575.324 452.924L575.099 449.547C575.099 449.547 573.08 448.199 573.429 445.725C573.777 443.25 577.871 443.947 578.367 445.396C578.862 446.845 578.699 448.68 577.833 449.365C576.966 450.049 578.057 452.742 578.057 452.742L578.852 452.689L579.386 460.718L586.085 450.012L589.531 449.783C589.531 449.783 588.438 446.835 590.826 445.878C589.237 445.983 587.515 445.813 587.648 443.524C587.781 441.235 593.421 440.062 593.415 444.394C593.415 444.394 592.191 445.559 593.502 445.7C594.814 445.84 595.048 446.794 595.029 448.22C595.01 449.646 594.534 450.191 594.534 450.191L595.725 450.112L597.273 453.657L602.116 463.538L602.43 468.248L604.376 468.118C604.365 463.03 603.684 452.008 603.626 451.128C603.351 447.002 602.087 343.274 602.087 343.274C602.087 343.274 585.157 334.499 584.111 332.612L583.491 309.863L585.282 309.743L585.063 306.453C585.063 306.453 583.214 305.697 583.062 303.407C582.909 301.116 585 301.102 585.744 300.969C586.489 300.836 588.363 301.339 588.507 303.504C588.651 305.67 586.724 306.259 586.563 306.353L586.754 309.227L595.252 308.661L595.158 307.245C595.158 307.245 593.033 306.759 593.103 304.663C593.103 304.663 592.964 302.58 594.811 302.039C594.98 301.442 594.997 300.437 597.199 300.207C599.402 299.976 600.628 303.576 599.488 304.238C599.488 304.238 599.92 306.51 598.323 307.035C598.387 307.992 598.445 308.867 598.445 308.867L602.319 308.609L600.821 198.724L583.535 190.461L583.115 168.442L585.448 168.287L585.262 165.496L584.563 164.748C584.563 164.748 582.424 164.974 582.13 162.441C581.836 159.909 584.319 159.493 585.324 159.509C586.329 159.526 587.356 160.504 587.545 162.081C587.734 163.658 586.209 164.638 586.209 164.638L586.378 167.179L595.251 166.588L595.134 164.839L594.623 164.078C594.623 164.078 593.538 163.481 593.543 161.682C593.549 159.882 595.071 158.861 596.529 158.764C597.987 158.667 599.223 159.63 599.222 162.14C599.222 164.65 597.467 164.684 597.467 164.684L597.583 166.433L600.583 166.233L600.311 136.381L593.658 133.226L593.361 128.769L600.279 124.586L600.049 121.129L598.441 119.604L598.253 116.772L598.966 116.18L596.059 114.617L596.412 109.866C596.412 109.866 596.848 108.875 597.723 108.816C598.598 108.758 599.223 108.717 599.223 108.717L599.392 111.257L599.892 111.224L599.722 108.683C599.722 108.683 600.806 108.611 601.68 108.553C602.555 108.495 598.568 101.397 598.327 95.2633C598.086 89.1295 602.033 85.5618 605.682 83.1853C609.331 80.8088 615.891 73.1346 617.141 66.1486C618.392 59.1625 618.628 58.9376 618.628 58.9376L619.95 58.8496L619.589 53.4188C619.589 53.4188 618.401 52.4903 618.514 51.5612C618.627 50.6322 619.144 49.5903 619.692 49.6624C619.634 48.7969 619.474 46.3894 619.474 46.3894C619.474 46.3894 618.973 45.7979 619.049 45.3038C619.124 44.8097 619.502 44.3498 619.857 44.3805C620.212 44.4112 619.601 40.5394 619.601 40.5394C619.601 40.5394 617.085 39.8918 617.533 36.819C617.533 36.819 617.763 39.4663 620.139 38.8191C622.514 38.172 620.803 34.9231 619.798 33.7067C619.798 33.7067 624.946 37.147 620.25 40.4962L620.722 44.3229C620.722 44.3229 621.764 45.3868 620.637 46.312C620.734 47.7663 620.855 49.585 620.855 49.585C620.855 49.585 622.933 51.8169 620.455 53.3611L620.816 58.7919L621.044 58.7768C621.044 58.7768 623.7 69.1425 625.241 71.55C625.392 71.7862 625.583 72.0657 625.809 72.3803C625.603 71.4276 625.039 68.5652 625.566 68.0039C626.2 67.3282 627.407 67.1121 627.593 68.5477C627.779 69.9832 627.813 71.8587 627.813 71.8587L626.89 71.9202L627.027 73.9753C629.517 77.0724 633.799 81.5668 638.169 83.7652C643.938 86.6678 645.222 96.266 642.58 102.428C639.938 108.59 641.037 109.222 641.037 109.222L643.024 109.089L644.144 108.278L645.838 108.166L646.199 113.58L644.692 116.525L643.724 119.607L641.78 120.382L642.056 124.53C642.056 124.53 647.568 127.098 648.608 128.613L648.853 132.294L641.708 136.937L642.544 164.486L646.693 164.21C646.693 164.21 645.137 163.764 645.211 162.234C645.285 160.703 646.244 159.23 648.437 159.554C650.63 159.877 651.174 162.759 649.556 164.019C647.938 165.28 649.663 165.635 649.663 165.635L653.053 165.409L655.155 162.601L657.843 162.422L658.168 167.299L660.606 169.543L660.931 189.417L643.349 198.628L645.022 305.767L649.93 305.44L649.808 303.608C649.808 303.608 647.909 303.288 647.758 301.025C647.608 298.762 652.42 296.988 652.692 301.951C652.692 301.951 652.758 302.946 651.795 303.475L651.917 305.308L656.066 305.032L657.989 303.063L658.808 303.009C658.808 303.009 658.252 299.958 662.017 300.076C665.781 300.193 664.861 305.771 662.387 305.642L662.589 308.681L663.602 310.667L664.095 331.293L645.725 341.906L647.748 464.131L650.455 463.951L649.929 456.049L654.513 448.36L658.712 448.08L658.494 444.802C658.494 444.802 656.44 444.328 656.558 442.58C656.677 440.832 658.161 439.967 659.416 440.008C660.67 440.048 662.125 440.986 662.093 443.199C662.093 443.199 664.863 443.673 664.725 445.846L668.299 445.608L672.79 448.695L673.182 447.117C673.182 447.117 671.528 446.004 671.645 444.727C671.762 443.449 672.265 442.099 674.372 441.817C676.479 441.536 676.96 443.103 677.044 444.367C677.128 445.631 676.754 447.067 675.617 446.955L675.863 450.654L677.456 450.548L677.45 474.488L664.874 482.462L665.555 508.47C665.757 508.438 665.999 508.416 666.264 508.425C666.036 508.637 665.805 508.851 665.571 509.068L667.577 585.57L592.426 590.573L591.626 582.323L591.625 582.322ZM589.352 310.456L591.6 310.307C591.6 310.307 589.518 316.783 589.126 318.011C588.735 319.238 589.352 310.456 589.352 310.456ZM600.12 310.796L602.404 310.644L602.747 315.793L600.12 310.796V310.796ZM383.617 293.284L385.866 293.135C385.866 293.135 383.783 299.61 383.392 300.838C383 302.066 383.617 293.284 383.617 293.284V293.284ZM394.385 293.624L396.669 293.472L397.012 298.621L394.385 293.624ZM653.199 167.63L656.107 167.436L656.278 170.002C656.278 170.002 655.541 173.822 655.552 174.94C655.562 176.058 653.27 172.24 653.199 167.63ZM588.404 168.09L592.07 167.846L588.541 176.247C588.541 176.247 588.184 168.674 588.404 168.09V168.09ZM447.464 150.458L450.372 150.264L450.543 152.83C450.543 152.83 449.806 156.65 449.817 157.768C449.827 158.886 447.535 155.068 447.464 150.458ZM382.669 150.918L386.335 150.674L382.806 159.075C382.806 159.075 382.449 151.502 382.669 150.918Z" fill="white"/>
</svg>
