<?xml version="1.0" encoding="UTF-8" standalone="no"?>
<!-- Created with Inkscape (http://www.inkscape.org/) -->

<svg
   xmlns:dc="http://purl.org/dc/elements/1.1/"
   xmlns:cc="http://creativecommons.org/ns#"
   xmlns:rdf="http://www.w3.org/1999/02/22-rdf-syntax-ns#"
   xmlns:svg="http://www.w3.org/2000/svg"
   xmlns="http://www.w3.org/2000/svg"
   xmlns:sodipodi="http://sodipodi.sourceforge.net/DTD/sodipodi-0.dtd"
   xmlns:inkscape="http://www.inkscape.org/namespaces/inkscape"
   width="136.52499mm"
   height="102.46545mm"
   viewBox="0 0 136.52499 102.46546"
   version="1.1"
   id="svg8"
   inkscape:version="0.92.5 (2060ec1f9f, 2020-04-08)"
   sodipodi:docname="blue-logo-text.svg">
  <defs
     id="defs2" />
  <sodipodi:namedview
     id="base"
     pagecolor="#ffffff"
     bordercolor="#666666"
     borderopacity="1.0"
     inkscape:pageopacity="0.0"
     inkscape:pageshadow="2"
     inkscape:zoom="0.98994949"
     inkscape:cx="137.94398"
     inkscape:cy="202.05295"
     inkscape:document-units="mm"
     inkscape:current-layer="g4636"
     showgrid="false"
     fit-margin-top="0"
     fit-margin-left="0"
     fit-margin-right="0"
     fit-margin-bottom="0"
     inkscape:window-width="1920"
     inkscape:window-height="1027"
     inkscape:window-x="0"
     inkscape:window-y="29"
     inkscape:window-maximized="1" />
  <metadata
     id="metadata5">
    <rdf:RDF>
      <cc:Work
         rdf:about="">
        <dc:format>image/svg+xml</dc:format>
        <dc:type
           rdf:resource="http://purl.org/dc/dcmitype/StillImage" />
        <dc:title></dc:title>
      </cc:Work>
    </rdf:RDF>
  </metadata>
  <g
     inkscape:label="Layer 1"
     inkscape:groupmode="layer"
     id="layer1"
     transform="translate(-23.96369,-49.219656)">
    <g
       style="fill:none"
       id="g4636"
       transform="matrix(0.26458333,0,0,0.26458333,12.322023,52.394656)">
      <path
         style="fill:#4d58c3;fill-opacity:1"
         d="M 257.99805,0 C 115.51005,0 0,115.50905 0,257.99805 c 0,0.005 -3.1054932e-7,0.0104 0,0.0156 v 9.81445 h 112.33594 l 0.97656,17.80274 1.48828,8.73047 h 43.92383 v 0.29687 l -36.91797,82.79688 H 0 v 9.8164 h 515.99805 v -9.8164 H 236.55469 l 35.61133,-83.39063 -1.33594,-8.28711 h -44.3457 l -1.27735,-17.94922 h 290.79102 v -9.625 c 5e-5,-0.0685 0.002,-0.13654 0.002,-0.20507 C 516,115.50905 400.48805,0 257.99805,0 Z M 257.9375,12.898438 205.58203,121.23828 H 89.1875 l 58.19727,120.37305 -7.92969,16.40234 H 51.599609 c 0,-0.005 0,-0.0104 0,-0.0156 0,-135.69167 70.667701,-245.066847 206.337891,-245.099612 z m 0.0469,0 c 0.005,-1e-6 0.009,0 0.0137,0 135.714,-1e-6 206.40039,109.388612 206.40039,245.099612 0,0.005 0,0.0104 0,0.0156 h -87.9356 L 368.5332,241.61133 426.73047,121.23828 H 310.33789 Z m -0.0234,84.15039 c 8.786,6.847502 28.12442,45.103232 22.35742,76.490232 -1.634,8.892 -3.23325,17.96953 -4.78125,27.01953 11.962,-9.516 29.70664,-16.57107 45.93164,-11.33007 31.19607,14.50153 30.49529,58.22326 13.80078,68.78515 h -1.0918 c 8.04218,-22.90024 -12.04099,-50.79147 -29.66992,-44.0957 -13.32311,5.0598 -26.00818,18.25483 -33.73242,44.0957 h -25.63281 c -7.7235,-25.84081 -20.40933,-39.0359 -33.73242,-44.0957 -17.631,-6.69581 -37.7115,21.19539 -29.66797,44.0957 h -1.09375 c -16.69461,-10.56189 -17.39529,-54.28362 13.80273,-68.78515 16.225,-5.241 33.96864,1.81407 45.93164,11.33007 -1.548,-9.05 -3.1492,-18.12753 -4.7832,-27.01953 -5.765,-31.387 13.57433,-69.64273 22.36133,-76.490232 z M 122.14844,267.82812 h 93.24609 l 0.97852,17.80274 1.48633,8.73047 h 43.92382 v 0.29687 l -36.91797,82.79688 h -91.36914 l 35.61133,-83.39063 -1.33594,-8.28711 h -44.3457 z m 171.74414,11.34376 -9.91992,0.89062 c 0.443,6.078 1.0369,12.73906 1.6289,17.03906 l 6.95703,55.91406 c 0.445,2.966 0.74047,6.08119 1.48047,9.49219 5.638,0.891 12.31677,1.18555 17.50977,1.18555 28.784,0 42.41211,-19.26536 42.41211,-52.94336 0,-23.129 -4.14853,-25.79492 -32.76953,-25.79492 -7.271,0 -16.61729,0.44619 -26.11329,0.74219 z M 30.542969,284.9668 c -9.793,0 -21.2137691,0.73851 -30.542969,1.47851 l 0.7421875,8.43946 v 68.22461 H 65.388672 v -52.05274 c 0,-24.018 -2.516404,-26.08984 -34.845703,-26.08984 z m 449.472651,0 c -9.64399,0 -20.31795,0.44264 -29.50195,1.18164 l 0.74024,8.58789 c 9.48,-0.594 21.49209,-1.03906 30.24609,-1.03906 7.568,0 14.83995,0.2975 20.62695,1.1875 0.594,3.411 0.59375,7.71248 0.59375,11.27148 v 56.95313 h 10.8086 V 306.75 c 0,-18.677 -3.99968,-21.7832 -33.51368,-21.7832 z m -389.810542,0.50586 c -3.263,0 -6.822937,4.3e-4 -10.085937,0.14843 l 0.890625,8.73243 h 11.123046 v 35.74414 h 10.957028 v -33.51954 c 0,-9.62599 -2.96076,-11.10546 -12.884762,-11.10546 z m 98.828122,0 c -3.411,0 -6.22962,4.3e-4 -9.64062,0.14843 l 0.44531,8.73243 h 11.27149 v 68.81836 h 10.80859 v -66.59376 c 0,-9.62599 -2.96177,-11.10546 -12.88477,-11.10546 z m 189.24805,0 -10.08398,0.59179 5.33984,15.70703 -6.67383,61.4004 h 11.12305 l 5.93359,-60.95508 c 9.344,-5.638 18.53777,-8.01368 25.50977,-8.01368 4.893,0 9.49236,0.59401 11.56836,2.375 0.593,2.967 1.03906,7.71627 1.03906,13.94727 v 43.76758 h -24.62305 l -0.29492,8.87891 h 35.72461 v -54.13086 c 0,-18.092 -5.77289,-23.56836 -21.33789,-23.56836 -10.827,0 -19.87538,3.10817 -30.10938,9.32617 z m -346.550781,8.22461 c 10.9801,0 17.359322,0.4455 22.107422,1.1875 0.4452,3.708 0.742187,8.15981 0.742187,15.13281 v 44.21094 H 11.550781 v -59.63868 c 8.7544,-0.742 15.579888,-0.89257 20.179688,-0.89257 z m 290.054691,0.13867 c 8.902,0 15.43017,0.29794 20.32617,1.33594 0.593,4.00599 0.89258,9.34706 0.89258,14.53906 0,31.008 -9.34829,44.95312 -30.86329,44.95312 -2.52099,0 -6.23178,-0.14636 -9.05078,-0.44336 l -6.82617,-59.64258 c 8.162,-0.44499 16.61849,-0.74218 25.52149,-0.74218 z m 142.35351,24.18554 c -3.11,0 -6.36756,0.14832 -9.47656,0.44532 -0.888,8.602 -1.33203,16.16661 -1.33203,22.09961 v 22.54297 h 10.80859 z"
         transform="translate(44,-12)"
         id="path4586"
         inkscape:connector-curvature="0" />
      <g
         id="g4611"
         mask="url(#mask0)"
         style="fill:#4d58c3;fill-opacity:1" />
    </g>
  </g>
</svg>
