<svg width="149" height="76" viewBox="0 0 149 76" fill="none" xmlns="http://www.w3.org/2000/svg">
<path d="M0.0131297 76C0.00438825 75.5287 0 75.0564 0 74.5826C0 33.3915 33.1311 0 73.9999 0C114.869 0 148 33.3917 148 74.5826C148 75.0564 147.995 75.5287 147.987 76H133.191C133.197 75.5291 133.2 75.0564 133.2 74.5826C133.2 35.351 112.925 3.72896 73.9995 3.72896C35.075 3.72896 14.8 35.3508 14.8 74.5826C14.8 75.0564 14.8029 75.5291 14.8089 76H0.0129892H0.0131297Z" fill="white"/>
<path d="M38.9144 76L41.8966 69.8817L25 35.2148H58.7932L74.0001 4L89.2071 35.2148H123L106.103 69.8817L109.086 76H77.3281C79.5164 67.6317 83.4118 63.4518 87.5148 61.906C92.6906 59.956 98.6006 68.1932 96.0527 74.8283C101.276 72.2374 101.736 59.0825 92.4387 54.7958C87.728 53.2864 82.5764 55.3178 79.1035 58.0585C79.553 55.4521 80.0171 52.8384 80.4915 50.2775C82.166 41.238 76.5513 30.2203 74.0001 28.2483C71.449 30.2203 65.8347 41.238 67.5084 50.2775C67.9828 52.8384 68.4473 55.4521 68.8968 58.0585C65.4235 55.3178 60.2722 53.2864 55.5616 54.7958C46.2639 59.0825 46.7238 72.2374 51.9476 74.8283C49.3993 68.1932 55.3093 59.956 60.4855 61.906C64.5884 63.4518 68.4842 67.6317 70.6722 76H38.9144Z" fill="white"/>
</svg>
