<svg width="1189" height="701" viewBox="0 0 1189 701" fill="none" xmlns="http://www.w3.org/2000/svg">
<mask id="mask0" mask-type="alpha" maskUnits="userSpaceOnUse" x="0" y="0" width="1189" height="1138">
<path fill-rule="evenodd" clip-rule="evenodd" d="M569.01 184.129C572.055 182.163 573.238 182.686 579.06 184.131C584.883 185.574 585.025 194.138 585.433 196.073C592.417 195.035 591.896 198.898 592.576 198.75C598.049 200.505 596.805 207.805 597.098 208.15C603.663 208.415 606.262 214.85 606.021 216.315C605.782 217.781 608.687 221.998 613.435 228.06C618.184 234.122 618.646 243.763 620.044 252.866C621.444 261.969 617.193 269.392 620.826 269.498C624.46 269.605 629.24 272.346 630.221 273.056C631.203 273.766 631.513 274.503 634.523 273.808C637.532 273.113 642.185 273.27 645.379 273.056C648.573 272.843 649.36 276.029 651.811 276.538C654.263 277.048 655.876 274.349 660.04 273.056C664.204 271.764 663.331 269.565 662.872 268.581C662.413 267.597 662.448 266.192 663.465 265.303C664.484 264.415 667.107 263.901 668.054 262.33C669.001 260.76 673.126 257.579 674.827 256.969C676.529 256.358 677.336 254.253 676.751 252.866C676.166 251.479 676.824 250.278 677.465 249.214C678.108 248.148 678.85 245.217 679.392 244.336C679.932 243.455 681.39 244.778 682.456 242.642C683.522 240.506 687.253 229.729 687.845 228.973C688.436 228.216 693.692 228.851 695.445 228.06C697.196 227.268 697.728 225.786 699.483 222.67C701.237 219.554 714.687 202.353 716.921 199.801C719.155 197.248 728.969 184.337 729.712 179.001C730.455 173.665 734.973 162.911 735.604 160.769C736.234 158.626 748.152 131.705 748.469 130.627C748.786 129.55 761.591 97.4693 762.535 95.7305C763.479 93.9925 771.909 72.0207 772.626 69.12C773.342 66.2185 772.771 58.6257 772.626 56.2078C772.481 53.7891 771.898 50.2452 771.284 47.8896C770.672 45.5339 768.319 34.1387 765.237 28.7579C761.908 24.2381 759.675 17.7313 757.709 14.5202C755.744 11.3083 751.538 8.20492 759.809 7.99904C768.08 7.79315 777.471 27.3175 778.66 27.4133C779.85 27.509 785.133 27.8641 787.228 27.4133C789.323 26.9632 792.37 23.2374 793.232 20.5474C794.357 14.4691 798.199 5.78143 800.457 2.41233C802.716 -0.95677 807.626 0.14924 807.965 2.41233C808.303 4.67462 806.339 11.1694 804.758 16.903C803.176 22.6365 802.842 29.3795 804.758 28.7579C806.673 28.1362 816.178 11.5309 818.36 10.0722C820.543 8.61269 824.964 10.3794 824.86 13.3527C824.755 16.3268 821.04 21.8242 818.36 26.6336C815.68 31.4431 815.151 36.4712 816.552 36.2845C817.953 36.0985 825.931 31.0928 829.713 31.1486C833.495 31.2053 833.292 34.8146 832.054 37.1431C830.815 39.4708 822.947 43.3522 822.095 46.0462C821.242 48.7402 827.325 54.4059 832.054 54.3812C836.782 54.3565 838.062 57.7136 838.5 59.399C838.937 61.0835 837.363 61.1856 835.915 60.9431C834.467 60.7013 830.581 60.1259 829.713 60.9431C828.845 61.7602 831.458 63.2173 834.033 68.0164C836.608 72.8155 838.674 74.2072 838.5 74.0675C839.193 72.3391 840.308 67.295 841.186 63.4679C842.063 59.6407 840.533 51.2882 840.565 49.0411C840.597 46.7948 838.579 44.1558 842.696 42.9133C846.814 41.6709 847.983 47.2672 849.408 50.9483C850.834 54.6294 851.67 62.6324 851.185 67.0756C850.701 71.5196 848.474 81.4609 848.376 88.2805C848.277 95.1001 851.378 110.259 851.185 116.704C850.992 123.149 857.698 140.075 859.431 144.617C861.164 149.157 862.924 156.646 864.189 161.66C865.452 166.675 876.152 195.77 877.658 199.801C879.165 203.831 885.804 221.899 885.728 222.13C887.655 218.522 892.537 217.967 893.771 217.504C895.004 217.04 894.72 215.238 893.771 213.026C887.498 198.706 894.569 204.906 902.288 203.74C910.007 202.574 928.114 210.812 937.922 213.026C947.729 215.239 948.575 220.246 950.698 219.398C952.822 218.549 954.992 217.648 956.751 220.246C958.509 222.845 961.705 227.109 963.469 225.737C965.233 224.364 969.881 226.44 973.524 225.737C977.167 225.033 980.307 228.601 986.742 233.304C993.178 238.007 995.525 237.577 1001.5 238.858C1007.48 240.139 1008.56 239.609 1010.92 239.504C1013.28 239.399 1017.5 238.551 1021.3 235.912C1025.09 233.274 1028.36 235.591 1030.61 233.304C1032.86 231.017 1036.05 230.447 1040.12 229.544C1044.19 228.641 1046.51 229.495 1046.73 229.544C1049.34 226.331 1050.38 226.294 1053.57 226.483C1056.76 226.672 1060.41 223.824 1062.38 222.13C1064.36 220.436 1067.57 221.848 1068.21 222.13C1068.84 222.412 1070.6 222.873 1072.75 223.182C1074.89 223.491 1073.15 224.876 1078.88 225.737C1084.61 226.597 1088.29 233.015 1088.66 234.539C1089.03 236.064 1087.93 239.193 1087.57 242.642C1087.22 246.091 1088.22 247.745 1090.55 247.95C1092.88 248.156 1094.77 252.379 1095.37 252.866C1095.97 253.354 1095.09 254.224 1094.2 254.591C1093.32 254.958 1093.28 258.582 1093.26 261.424C1093.24 264.267 1094.18 267.136 1095.37 267.436C1096.56 267.737 1097.86 267.394 1098.29 266.709C1098.83 265.012 1107.09 245.041 1107.48 243.641C1107.88 242.242 1112.33 225.598 1112.5 224.289C1112.67 222.98 1115.45 201.473 1115.82 199.801C1116.18 198.128 1121.53 177.03 1121.85 176.212C1122.17 175.395 1127.26 156.928 1127.76 154.7C1128.26 152.473 1130.15 132.199 1130.54 130.089C1130.93 127.98 1131.67 112.873 1131.43 111.91C1131.18 110.948 1131.6 109.088 1131.43 108.406C1128.72 103.597 1127.55 94.8391 1126.75 92.853C1125.95 90.8668 1125.7 84.1804 1125.71 81.8918C1125.73 79.6024 1126.05 74.4833 1126.16 72.5937C1126.27 70.704 1125.96 61.7754 1126.75 60.1554C1127.54 58.5355 1127.43 55.2606 1126.75 53.4946C1126.07 51.7279 1126.4 48.7211 1129.71 49.8766C1133.01 51.0321 1136.57 59.3782 1136.71 63.4679C1136.84 67.5576 1136.28 72.4229 1136.71 72.5937C1137.13 72.7644 1137.86 73.1786 1138 71.8404C1138.15 70.5021 1140.85 64.1007 1141.09 62.472C1141.33 60.8433 1142.48 53.3773 1142.76 51.8149C1143.04 50.2524 1143.92 43.689 1144.46 41.3589C1145 39.0287 1146.12 32.7087 1146.84 30.0354C1147.56 27.363 1149.63 25.9753 1151.98 25.392C1154.34 24.8094 1155.35 27.035 1155.31 29.4026C1155.28 31.7711 1154.74 35.6565 1154.51 38.7782C1154.28 41.8991 1152.45 54.3948 1153.16 53.4946C1153.88 52.5937 1155.78 48.038 1155.93 46.0462C1156.09 44.0545 1157.29 37.5573 1157.51 36.2845C1157.72 35.0117 1158.75 29.6372 1159.45 26.6336C1160.14 23.6292 1162.34 22.694 1164.75 22.5759C1167.16 22.457 1167.91 27.4013 1167.77 28.7579C1167.64 30.1144 1166.74 36.6236 1166.6 38.7782C1166.46 40.9327 1164.84 49.3323 1164.75 50.9483C1164.65 52.565 1163.84 56.5134 1163.79 58.8731C1163.74 61.2327 1163.92 63.416 1163.79 63.4679C1164.66 63.1216 1168.43 56.9667 1168.7 56.2078C1168.97 55.4481 1169.59 53.6622 1169.93 51.8149C1170.28 49.9683 1171.65 46.4045 1171.81 44.9961C1171.97 43.5876 1172.37 39.5099 1173.08 36.2845C1173.78 33.0598 1175.36 32.9664 1176.39 32.6736C1177.42 32.3807 1179.46 31.7104 1179.83 33.7405C1180.19 35.7706 1179.84 39.5028 1179.83 42.9133C1179.82 46.3239 1178.12 54.5568 1177.57 57.6266C1177.03 60.6957 1175.81 63.8126 1174.79 65.186C1173.77 66.5593 1172.75 71.1732 1173.08 70.6737C1173.4 70.1742 1177.01 66.596 1177.57 65.9887C1178.45 64.0831 1181.88 59.2441 1181.98 59.399C1181.86 57.9753 1182.3 54.0229 1182.6 52.581C1182.9 51.139 1183.17 49.2829 1185.97 49.0411C1188.77 48.8001 1188.09 51.139 1188.2 53.4946C1188.32 55.8495 1188.5 58.5866 1188.2 60.1554C1187.91 61.7243 1186.62 66.375 1185.97 68.0164C1185.32 69.6579 1182.08 74.9326 1181.03 76.3282C1179.99 77.7239 1178.28 82.1136 1176.39 85.0502C1174.5 87.9868 1165.93 102.809 1164.75 105.521C1163.56 108.233 1163.23 111.841 1162.68 113.562C1162.12 115.282 1162.08 112.763 1161.13 115.912C1160.18 119.06 1157.44 149.785 1157.51 155.283C1157.58 160.781 1153.44 194.275 1151.98 207.05C1150.53 219.826 1148.88 235.31 1146.17 241.55C1143.45 247.791 1138.57 279.359 1138 289.985C1137.43 300.611 1130.85 319.636 1130.54 325.348C1130.22 331.06 1128.05 343.221 1127.76 346.953C1127.47 350.683 1125.71 361.348 1125.71 364.807C1125.71 368.267 1128.14 370.111 1128.6 370.693C1129.06 371.274 1127.72 373.503 1127.76 374.549C1127.8 375.594 1131.89 381.145 1132.49 382.66C1133.09 384.175 1132.64 385.903 1133.55 387.891C1134.45 389.879 1135.65 392.127 1135.79 395.347C1131.19 398.716 1115.63 410.492 1115.2 412.637C1114.77 414.781 1111.83 439.782 1111.47 446.115C1111.11 452.448 1109.89 488.988 1109.24 494.165C1108.59 499.343 1105.97 523.534 1105.82 526.45C1105.68 529.366 1103.95 542.365 1104.02 545.649C1104.08 548.933 1105.38 556.422 1107.48 567.153C1109.59 577.884 1110.76 580.698 1111.47 586.57C1112.18 592.443 1113.54 611.883 1113.12 619.214C1112.71 626.543 1114.97 630.631 1114.04 633.16C1113.11 635.689 1111.92 637.193 1111.47 639.007C1111.22 655.27 1117.19 682.753 1117.95 686.665C1118.71 690.577 1121.93 711.54 1123.12 715.483C1124.3 719.426 1123.94 726.198 1123.86 729.436C1123.77 732.675 1124.47 731.332 1126.75 739.774C1129.03 748.215 1128.54 769.329 1126.75 772.167C1124.96 775.005 1128.16 786.864 1126.75 791.233C1125.34 795.602 1121.11 795.085 1121.21 798.897C1121.32 802.709 1122.36 816.659 1121.21 826.75C1118.6 837.731 1104.96 854.218 1100.78 859.276C1096.61 864.334 1095.19 872.099 1079.87 874.885C1064.54 877.673 1062.1 873.526 1052.09 866.32C1042.08 859.113 1043.09 849.907 1041.36 848.04C1039.62 846.173 1036.11 838.601 1034.18 835.323C1032.25 832.045 1032.62 829.735 1030.61 825.488C1028.6 821.24 1028.46 794.511 1028.22 793.187C1027.97 791.861 1022.52 757.014 1022.22 755.522C1017.61 750.603 1014.24 740.807 1012.96 737.455C1011.67 734.103 1011.67 731.756 1010.92 730.682C1010.17 729.608 1011.04 728.127 1010.92 727.445C1010.79 726.763 1011.27 720.07 1010.92 718.207C1010.35 717.542 1010.23 715.778 1010.22 715.37C1010.12 713.939 1011.08 706.648 1008.88 712.091C1006.62 717.696 1010.87 718.837 1008.88 723.646C1006.89 728.456 1008.66 727.26 1008.88 733.042C1009.1 738.822 1005.18 742.66 1002.37 745.009C999.572 747.359 997.372 749.484 995.78 752.896C995.873 757.732 993.247 765.341 992.501 770.665C991.755 775.989 987.787 811.501 985.067 820.528C982.346 829.554 976.529 838.654 968.287 850.498C960.043 862.342 951.619 864.276 943.069 864.482C934.519 864.689 918.246 855.799 915.769 854.479C912.657 856.261 909.552 871.226 893.771 870.465C877.989 869.706 870.626 857.407 866.182 841.726C861.738 826.044 869.798 803.159 872.776 798.13C875.754 793.1 890.164 756.756 891.706 751.279C893.249 745.801 907.546 745.194 908.498 745.009C908.791 742.004 910.337 739.665 908.498 738.16C906.659 736.656 904.038 732.043 902.288 729.436C900.538 726.83 900.278 719.448 901.052 715.483C901.827 711.518 904.719 712.542 904.868 710.281C905.017 708.021 903.576 708.509 903.643 707.132C903.71 705.754 904.265 706.311 904.868 705.495C905.471 704.677 905.676 703.536 904.868 702.292C904.061 701.049 904.038 700.688 903.643 700.127C903.249 699.566 904.645 698.846 904.868 698.157C904.693 696.856 904.839 688.18 904.868 675.379C904.898 662.58 910.062 648.472 911.193 646.006C912.325 643.54 912.764 640.616 912.168 639.007C909.436 633.361 908.442 625.269 908.498 622.024C908.554 618.779 911.647 609.113 911.193 605.603C910.739 602.091 910.542 588.234 911.193 585.352C911.845 582.47 913.833 576.486 914.54 573.645C915.248 570.805 916.431 556.07 915.769 552.236C915.106 548.403 915.903 521.781 915.769 517.218C915.635 512.655 918.989 486.637 918.78 483.114C918.572 479.59 920.969 461.451 919.785 460.03C918.602 458.609 917.09 453.937 915.769 451.956C914.447 449.975 911.569 445.967 909.905 443.941C905.661 440.229 895.494 425.708 893.771 423.727C892.047 421.746 876.523 401.315 874.557 398.86C872.592 396.405 869.885 393.79 871.218 390.091C872.551 386.392 877.685 372.654 877.658 370.693C877.632 368.731 878.254 365.056 879.114 363.686C879.974 362.317 880.546 361.007 880.366 359.799C877.596 352.44 869.364 310.059 868.447 304.54C865.393 297.88 865.567 285.714 863.38 281.722C861.194 277.73 862.124 265.776 861.735 265.303C857.994 261.337 859.626 255.66 859.431 256.19C842.403 215.34 829.099 139.044 828.771 136.991C823.962 132.613 821.993 124.689 821.254 118.674C820.515 112.66 819.828 97.2993 819.614 96.7527C807.333 86.398 809.856 79.6519 812.301 78.6735C814.746 77.696 815.67 80.9997 816.552 81.2734C817.434 81.5471 817.664 80.2583 817.557 79.9575C814.694 73.7324 813.76 68.0755 813.767 68.0164C812.44 67.3014 806.898 70.9323 804.758 73.2911C802.617 75.6492 800.468 82.1216 799.686 87.5583C798.904 92.995 794.124 110.631 793.232 114.541C792.341 118.452 783.77 145.356 781.853 151.153C779.937 156.949 765.402 186.286 762.535 192.96C759.669 199.636 758.689 201.221 757.052 203.091C755.414 204.961 756.072 207.971 756.063 208.15C754.619 220.639 748.095 229.548 746.357 233.304C744.618 237.06 736.994 253.915 736.417 256.19C738.798 255.89 739.151 256.946 739.313 256.969C739.378 262.218 737.468 267.124 735.045 269.498C732.623 271.872 733.356 272.489 732.104 276.538C730.852 280.588 728.151 283.423 726.144 284.105C724.136 284.786 723.053 284.457 722.898 286.62C722.742 288.784 722.871 290.7 721.364 292.37C719.856 294.04 720.128 294.571 720.015 294.782C719.94 301.052 718.558 308.972 716.292 321.043C714.025 333.114 704.695 344.002 701.802 346.953C702.675 349.228 703.178 357.972 703.45 359.799C703.722 361.628 706.728 367.544 707.559 370.693C708.389 373.841 707.724 384.087 707.559 384.311C709.33 390.703 708.81 397.531 708.761 398.86C708.713 400.188 707.617 402.661 706.747 403.94C705.878 405.218 706.034 406.03 706.747 412.637C707.46 419.243 706.757 487.058 706.747 487.176C706.239 493.509 708.023 499.827 708.761 502.96C709.5 506.094 709.284 510.297 708.761 514.004C708.24 517.71 711.924 528.308 710.681 528.998C709.436 529.688 708.761 531.532 708.761 533.919C712.149 535.617 714.913 539.984 714.084 539.963C712.19 539.985 709.585 542.145 707.559 544.404C705.532 546.663 707.556 549.301 708.761 554.551C709.967 559.8 708.752 562.87 707.559 565.943C706.366 569.016 705.981 575.833 708.761 575.825C711.542 575.816 712.146 576.843 712.199 579.991C712.251 583.139 710.681 583.277 710.681 585.352C709.38 589.543 715.271 590.702 716.292 593.392C717.313 596.082 715.293 600.649 716.292 601.171C717.291 601.694 718.81 603.11 719.075 605.603C719.342 608.095 722.187 607.936 722.898 610.28C723.608 612.625 723.797 615.45 724.538 619.214C725.281 622.977 726.245 623.15 727.731 627.614C729.218 632.078 727.388 639.559 729.712 639.007C732.035 638.454 732.397 639.515 733.169 644.36C733.942 649.204 734.103 648.861 735.045 650.88C735.988 652.901 736.429 658.991 736.417 659.073C739.839 659.85 741.617 668.243 741.926 668.17C744.87 668.8 748.459 675.729 749.589 682.172C750.719 688.615 748.878 689.6 748.469 693.345C748.061 697.09 750.043 703.712 752.612 713.885C755.183 724.059 766.257 757.477 770.08 767.954C773.902 778.43 777.332 783.368 780.464 788.547C797.731 809.665 808.111 831.001 813.767 843.617C819.422 856.233 822.091 865.471 823.252 871.932C824.413 878.393 831.49 895.226 834.033 902.23C836.577 909.233 835.416 910.767 837.054 912.404C843.847 930.477 844.135 948.461 844.17 948.679C845.701 949.943 855.742 961.015 856.484 962.801C857.225 964.589 854.699 970.433 861.735 974.386C868.771 978.34 869.264 983.893 869.539 991.118C869.814 998.342 872.999 999.706 874.557 1003.01C876.116 1006.31 877.686 1014.55 890.143 1030.02C902.6 1045.48 898.866 1050.09 899.053 1052.49C899.241 1054.9 899.11 1055.76 897.491 1057.21C895.872 1058.67 898.502 1057.63 897.491 1058.64C896.448 1061.81 881.543 1068.12 877.658 1069.06C873.775 1069.99 873.731 1069.47 872.776 1070.42C870.262 1072.85 853.603 1072.84 851.185 1070.42C839.015 1061.41 840.492 1054.57 840.565 1050.94C840.638 1047.31 843.145 1039.18 841.186 1034.1C839.227 1029.03 829.832 1025.41 823.252 1019.82C816.672 1014.22 817.545 1004.26 816.552 1000.14C815.56 996.03 817.445 984.427 817.557 981.521C817.671 978.615 818.371 969.292 817.557 967.544C816.744 965.797 813.831 964.332 812.301 962.801C808.342 959.576 809.728 950.07 809.663 950.338C805.966 944.49 787.585 909.72 783.119 905.073C778.652 900.425 760.847 870.616 758.804 866.32C756.761 862.023 745.529 838.5 741.926 834.344C738.322 830.188 730.286 819.77 727.731 817.215C713.781 804.417 705.312 782.301 703.45 778.226C701.588 774.151 688.306 746.658 685.851 742.754C683.397 738.85 670.29 719.137 669.459 718.207C665.59 719.239 663.008 716.922 662.872 717.049C654.083 713.189 655.905 706.097 656.666 702.292C655.571 699.414 649.734 698.825 628.526 690.6C604.071 680.18 577.224 682.416 574.984 683.47C575.632 688.097 574.789 687.702 572.086 690.6C567.333 696.144 558.699 693.482 556.164 693.345C553.402 694.904 529.2 724.633 519.125 737.455C509.049 750.277 501.195 759.145 501.122 759.531C487.529 780.741 462.944 793.187 454.885 797.165C446.827 801.143 411.811 841.342 409.583 843.617C407.354 845.892 367.834 883.453 365.349 886.677C367.271 899.483 359.578 903.145 358.219 903.8C356.86 904.456 354.972 907.387 351.943 913.621C348.914 919.855 338.658 933.369 332.246 935.949C325.834 938.529 321.492 945.299 316.366 950.338C311.24 955.378 306.373 954.082 305.264 956.812C304.155 959.543 296.719 966.798 291.225 973.521C285.731 980.242 277.079 983.48 275.787 985.007C274.493 986.533 272.532 1007.35 272.358 1009.58C272.185 1011.82 273.763 1013.98 274.856 1014.72C275.949 1015.45 276.112 1017.28 273.283 1019.82C270.454 1022.35 269.161 1026.9 271.483 1027.24C273.806 1027.58 274.524 1030.16 276.984 1030.02C279.444 1029.87 277.643 1031.61 280.782 1031.61C283.921 1031.6 285.049 1032.95 285.239 1034.1C285.429 1035.26 283.204 1034.92 283.357 1037.26C283.503 1039.5 282.4 1042.5 281.978 1042.66C281.961 1042.66 281.944 1042.66 281.926 1042.66C281.942 1042.67 281.96 1042.67 281.978 1042.66C285.839 1042.4 286.502 1046.64 286.623 1046.54C289.168 1046.65 289.569 1044.8 291.225 1042.66C292.881 1040.53 294.757 1041.16 293.369 1042.66C291.98 1044.17 288.602 1050.02 286.623 1052.49C284.644 1054.97 287.274 1056.83 289.819 1060.77C281.704 1053.47 278.897 1057.32 276.984 1058.64C269.653 1063.06 269.371 1068.46 270.199 1069.06C271.028 1069.65 272.24 1071.35 271.483 1075.96C270.726 1080.57 271.805 1081.88 272.358 1082.61C272.911 1083.33 273.002 1083.44 272.358 1087.28C271.715 1091.12 276.571 1108.27 277.705 1112.12C278.839 1115.97 281.437 1130.67 280.782 1134.38C280.128 1138.1 267.507 1137.6 258.005 1136.43C248.503 1135.26 232.888 1124.07 230.316 1121.68C227.742 1119.28 228.559 1114.24 229.156 1112.12C228.985 1109.85 229.759 1106.17 230.316 1104.89C230.872 1103.62 229.949 1101.72 229.156 1100.8C218.729 1099.11 214.52 1093.54 212.655 1089.78C212.104 1088.27 210.286 1087.54 209.183 1086.07C208.081 1084.6 208.838 1077.92 209.183 1075.96C209.529 1074 210.694 1071.4 212.655 1069.06C215.941 1067.99 216.274 1066.23 218.356 1063.16C220.438 1060.08 224.038 1059.41 224.997 1057.21C225.956 1055.02 226.512 1052.23 229.156 1048.58C231.802 1044.92 235.227 1036.68 236.314 1030.02C237.401 1023.35 238.372 1022.9 239.378 1021.66C240.384 1020.42 239.25 1019.14 238.185 1018.25C237.122 1017.37 237.297 1015.51 238.185 1014.72C239.075 1013.92 239.677 1009.33 239.378 1007.14C239.079 1004.95 241.549 1004.8 241.143 1004.81C241.505 997.284 238.691 960.101 238.185 953.525C237.681 946.948 236.294 914.284 236.314 907.071C236.333 899.858 233.238 850.632 232.745 841.726C232.252 832.82 233.086 814.228 233.814 807.531C234.542 800.835 234.365 756.673 233.814 749.87C232.69 745.257 230.5 724.546 230.316 722.4C227.804 719.967 225.638 718.661 226.178 717.049C226.718 715.437 225.471 713.7 224.997 712.091C224.523 710.48 225.145 708.807 226.178 705.495C227.211 702.181 226.349 695.757 226.178 693.345C226.007 690.933 225.409 689.776 223.3 688.053C219.653 685.776 215.121 679.314 213.859 680.28C212.597 681.245 214.531 682.712 215.36 683.47C216.188 684.228 214.383 684.479 212.655 686.665C209.094 691.788 199.241 698.501 196.971 700.127C194.701 702.788 170.134 751.743 169.435 752.896C168.736 754.049 153.454 790.076 150.764 798.13C148.074 806.183 144.041 810.977 144.802 814.029C145.563 817.081 146.755 827.227 148.617 836.545C150.479 845.863 147.967 892.968 148.617 900.414C153.687 906.783 151.4 911.207 152.072 913.621C152.743 916.035 155.66 915.722 165.625 921.841C175.591 927.961 175.144 936.032 174.353 938.529C173.563 941.026 174.946 941.505 174.353 944.368C173.761 947.231 174.126 949.095 171.59 950.338C169.054 951.582 169.027 957.541 167.662 960.126C166.296 962.711 164.914 966.434 161.125 967.544C157.334 968.654 156.864 967.597 154.351 974.386C151.839 981.176 154.239 1008.09 154.351 1009.58C154.464 1011.07 153.136 1011.95 152.072 1012.48C151.008 1013 152.356 1016.75 152.072 1018.25C151.788 1019.75 149.695 1023.35 148.617 1023.6C147.539 1023.86 147.462 1026.19 147.07 1027.86C146.677 1029.52 143.034 1034.52 135.105 1040.75C127.174 1046.98 110.009 1048.79 101.702 1040.75C93.3948 1032.71 98.6072 1008.42 99.3366 1004.81C100.067 1001.2 101.399 996.208 103.551 993.227C105.702 990.245 108.421 980.812 108.455 980.796C108.696 968.805 113.057 955.176 113.119 953.525C110.626 951.754 108.479 947.64 104.98 942.117C101.481 936.594 103.391 928.343 103.551 926.144C103.71 923.944 110.899 913.319 113.119 910.236C115.341 907.154 115.337 903.844 115.232 903.8C113.64 899.329 105.702 869.511 103.551 862.883C101.399 856.255 98.6455 830.03 97.83 823.258C97.0144 816.486 99.6558 782.551 100.187 779.305C100.719 776.059 111.026 732.063 111.294 729.436C111.563 726.81 118.11 700.109 119.5 693.345C120.891 686.581 120.172 683.282 119.5 682.172C115.947 680.929 115.765 677.401 115.232 676.447C114.7 675.492 111.415 676.461 111.294 672.759C111.174 669.058 109.64 668.586 108.455 666.336C107.271 664.088 108.417 663.255 108.455 663.462C114.157 662.788 112.894 660.938 113.119 660.981C114.126 657.599 108.502 660.491 110.133 659.073C111.764 657.656 113.83 658.484 115.232 657.792C116.635 657.1 114.343 656.294 115.232 654.993C116.121 653.692 118.653 655.555 119.5 654.993C120.347 654.43 122.72 650.998 123.271 649.097C123.823 647.196 124.898 646.297 126.11 644.36C127.322 642.423 131.586 630.78 132.483 627.614C133.38 624.449 137.672 618.038 138.549 616.086C139.427 614.136 138.631 612.619 140.304 610.28C141.979 607.942 143.326 602.865 143.501 603.364C142.713 588.818 147.124 584.558 148.617 582.344C150.08 580.175 154.277 579.939 154.352 579.988L154.351 579.991C154.354 579.99 154.354 579.989 154.352 579.988C155.013 576.902 156.65 571.165 156.305 569.293C156.022 567.758 154.678 567.239 154.377 567.153C154.663 567.065 154.647 563.887 156.305 562.447C158.009 560.966 159.384 559.822 158.841 557.4C158.297 554.979 158.732 555.087 160.197 553.808C161.663 552.528 159.901 551.954 160.197 549.127C160.494 546.301 162.355 546.733 162.394 545.649C162.433 544.565 163.008 541.046 163.377 537.939C163.746 534.831 164.495 534.054 164.693 531.791C164.891 529.528 167.505 524.825 167.662 522.409C167.819 519.993 164.969 513.565 168.523 512.396C171.887 511.289 171.558 507.555 171.582 507.433C169.704 504.087 168.575 490.039 167.662 479.953C166.747 469.852 164.887 458.493 163.377 452.963C161.866 447.433 157.626 440.242 156.305 436.616C154.984 432.989 146.852 403.393 144.802 398.86C142.751 394.327 133.073 370.293 129.058 363.686C125.042 357.079 121.422 341.988 121.135 340.71C117.819 335.107 104.662 301.941 101.702 294.782C98.7429 287.622 92.6375 271.102 92.5792 268.581C92.521 266.059 91.2282 262.649 90.1837 260.549C84.9369 254.624 71.5387 221.705 69.4687 217.504C67.3988 213.303 41.0756 150.448 35.5104 144.617C29.2462 141.057 17.9651 127.711 18.2364 127.502C7.6503 120.572 6.95525 118.318 6.50838 115.912C6.06151 113.505 9.42901 113.538 9.76656 111.91C6.9353 109.923 5.60346 110.009 5.13903 106.843C4.67461 103.678 9.17206 104 11.4328 103.295C6.88503 98.3104 7.39015 97.178 9.76656 95.7305C12.143 94.2837 16.6013 99.5919 18.2364 98.8075C19.8715 98.0231 21.2272 97.6991 21.5225 97.8268C21.2233 96.2755 13.5259 85.387 7.60721 79.9575C1.81143 74.6397 0.0454852 70.7391 0 70.6729C2.10908 67.1769 5.36806 69.3155 5.13903 69.12C10.3547 71.8364 24.9451 89.7256 25.1318 90.2651C28.8712 87.6022 30.3506 89.91 30.8446 90.2651C31.3377 90.6202 29.7258 92.853 29.2438 92.853C28.7626 92.8538 31.9857 100.493 32.273 100.739C37.6291 99.9822 38.5843 103.49 40.3398 103.295C42.0946 103.101 42.3819 105.987 42.5103 98.8075C42.6388 91.628 46.9879 87.4689 49.0889 85.0502C51.19 82.6315 54.2312 83.416 54.7906 84.1653C55.3492 84.9146 54.872 86.082 53.1435 88.2805C49.4927 93.2208 50.8756 102.638 52.0487 110.024C58.4876 123.791 56.4097 132.135 57.7303 133.993C59.0502 135.852 94.6468 207.073 95.2573 208.15C95.8669 209.228 115.222 245.508 116.83 247.95C118.438 250.392 135.25 280.669 136.819 282.768C138.388 284.868 148.074 309.771 148.617 310.41C149.16 311.047 149.437 310.256 150.764 313.951C152.093 317.646 158.104 325.193 160.197 328.345C162.291 331.497 164.38 333.68 167.662 336.257C170.944 338.835 175.623 345.004 180.292 345.642C184.959 346.28 181.266 344.646 186.672 343.78C192.078 342.913 196.478 346.455 197.83 345.642C199.181 344.829 200.599 341.882 196.971 335.175C193.344 328.467 195.126 326.326 186.672 323.055C178.218 319.783 175.775 313.716 174.353 311.26C172.932 308.806 170.132 295.139 170.054 287.519C169.977 279.899 172.586 267.252 174.353 263.897C176.12 260.543 178.388 258.677 177.993 256.969C174.186 253.084 179.965 251.056 181.957 247.95C183.949 244.844 182.097 241.234 181.957 238.858C181.817 236.482 182.886 234.551 184.345 234.539C185.806 234.529 185.884 232.07 186.672 228.973C187.461 225.876 194.109 224.549 196.971 224.289C199.833 224.029 201.068 221.075 202.638 220.246C204.206 219.418 212.451 219.333 215.36 219.398C218.269 219.463 218.754 221.17 221.624 222.67C224.494 224.17 226.665 227.595 230.316 229.544C233.966 231.493 232.879 234.777 233.814 235.912C234.75 237.047 234.987 237.658 241.143 239.504C247.298 241.35 244.164 245.242 248.533 246.769C252.902 248.294 257.582 253.443 258.005 256.19C258.429 258.936 263.905 264.571 264.506 266.709C265.108 268.847 265.287 270.976 266.724 271.829C268.16 272.682 268.825 279.804 267.939 282.768C266.176 283.797 266.121 287.339 265.718 288.782C265.314 290.225 265.776 291.606 265.718 291.715C269.112 296.333 268.541 297.541 267.939 302.803C267.338 308.065 264.11 307.528 263.36 308.61C262.611 309.693 262.471 312.713 261.034 321.882C259.597 331.05 251.504 338.735 251.387 339.345C251.271 339.956 252.669 339.302 254.867 338.475C259.896 336.109 269.745 310.023 270.199 308.61C270.654 307.198 272.242 306.269 272.358 306.274C273.007 302.634 274.133 297.133 274.856 293.595C275.578 290.057 282.382 257.865 283.357 252.866C284.331 247.867 290.794 221.19 291.225 216.315C291.656 211.441 288.848 210.737 286.623 208.15C284.398 205.564 280.867 203.807 276.984 203.74C273.101 203.674 273.815 205.56 273.283 208.15C272.751 210.74 270.036 210.534 267.939 210.435C265.792 211.98 269.202 220.042 267.939 221.354C260.662 224.544 260.976 207.565 261.034 205.249C261.092 202.932 260.65 201.454 259.496 198.75C258.548 195.218 263.147 190.654 264.506 188.329C265.865 186.003 267.061 187.238 267.939 185.214C269.123 180.472 270.898 180.999 272.358 179.001C273.819 177.002 277.854 172.626 280.782 169.331C283.711 166.036 287.462 168.454 289.819 168.133C292.176 167.812 294.65 166.985 296.239 164.571C298.437 158.526 297.85 95.1256 297.73 90.2651C297.61 85.4045 295.509 76.5964 293.369 72.5937C291.229 68.5902 287.905 57.1766 286.623 52.581C283.478 47.3047 281.225 38.2371 280.782 36.2845C280.339 34.3326 279.124 26.1301 279.026 22.5759C278.93 19.0208 282.293 20.1045 284.056 21.6103C285.819 23.1169 286.079 29.8312 286.623 33.7405C287.167 37.649 291.082 44.7623 292.39 47.8896C291.54 45.3991 292.518 38.2371 292.39 35.2662C292.262 32.2953 291.939 22.7315 292.39 22.5759C299.726 18.5357 299.641 31.1375 300.363 39.66C301.085 48.1833 302.51 47.6949 303.675 49.0411C304.84 50.3881 303.785 54.5847 305.264 53.4946C306.744 52.4038 305.419 44.3784 305.264 38.7782C305.109 33.1771 306.829 32.6433 306.872 32.6736C314.845 31.542 313.792 40.5832 313.753 47.8896C313.715 55.1968 314.146 58.131 317.136 57.6266C320.127 57.1215 324.402 50.9179 326.395 46.0462C328.387 41.1737 329.078 41.4921 329.346 41.3589C334.22 40.2114 333.665 45.0679 333.754 44.9961C333.311 51.2316 324.709 60.2121 325.614 65.186C326.519 70.1598 324.184 83.5189 323.587 87.5583C322.988 91.5977 325.28 140.071 325.614 144.617C325.948 149.163 325.478 154.31 326.395 158.064C327.311 161.818 325.979 194.039 326.395 201.541C336.95 209.963 395.643 257.353 405.773 263.897C415.903 270.442 437.657 280.434 442.6 282.768C447.543 285.103 454.698 292.165 457.24 292.37C459.782 292.575 459.47 291.894 459.586 291.715C459.896 289.34 460.635 287.991 462.944 287.519C465.252 287.047 467.555 289.537 470.075 290.667C474.935 291.52 476.831 295.617 479.114 298.253C483.132 299.184 492.041 306.282 492.248 306.274C496.01 304.952 498.395 305.268 498.645 308.61C498.895 311.952 498.664 314.062 503.125 313.951C507.587 313.84 507.739 309.692 512.272 308.61C516.806 307.528 519.021 311.166 519.125 311.26C520.721 316.622 523.821 318.515 524.648 315.95C525.475 313.385 527.375 312.936 529.155 311.26C529.38 308.905 527.464 306.911 524.648 304.54C521.831 302.168 523.49 301.897 524.648 300.673C514.131 290.401 514.35 273.912 513.524 271.829C512.696 269.745 510.561 265.947 512.272 263.897C513.984 261.848 513.869 259.183 515.053 256.19C516.236 253.196 512.953 249.902 512.272 244.336C511.592 238.77 516.848 236.783 515.053 232.029C513.257 227.275 514.456 222.445 515.053 220.246C515.649 218.047 513.978 216.554 515.053 213.026C516.127 209.497 524.314 204.801 532.247 198.75C540.18 192.698 543.644 194.767 545.515 194.227C545.106 191.501 546.034 187.995 549.366 186.25C552.698 184.505 556.122 183.553 560.284 182.958C564.295 182.383 568.864 184.053 569.01 184.129L569.008 184.131C569.015 184.132 569.016 184.131 569.01 184.129ZM281.997 1045.27C282.266 1045.42 284.963 1044.49 284.885 1048.58C284.808 1052.66 284.186 1050.98 281.997 1050.75C279.806 1050.51 278.939 1043.57 281.997 1045.27ZM322.253 244.521C320.914 251.064 319.298 259.344 318.998 263.79C318.693 268.305 309.184 321.262 308.143 330.709C308.368 334.996 307.258 336.571 306.832 338.31C306.407 340.05 306.464 345.88 304.818 349.683C304.481 356.036 302.278 370.137 301.878 374.318C301.479 378.5 299.206 386.415 298.807 387.825C298.407 389.235 302.162 401.882 303.456 412.538C304.75 423.192 304.808 443.108 304.818 447.069C304.829 451.029 305.512 456.561 306.832 458.443C308.153 460.324 310.714 473.272 311.319 478.178C311.923 483.085 313.728 488.089 313.859 490.685C313.991 493.281 314.312 493.885 315.153 495.969C315.995 498.053 316.963 501.596 317.015 504.782C318.072 506.165 322.143 513.689 322.316 516.831C322.49 519.973 323.195 527.59 322.316 531.593C321.439 535.598 319.045 543.71 318.998 545.811C318.95 547.911 321.407 555.842 321.102 559.498C320.796 563.153 322.233 565.601 321.102 566.401C319.971 567.202 320.244 564.742 317.015 564.042C313.786 563.343 305.271 564.44 304.818 566.401C305.275 570.489 307.416 579.157 308.143 581.377C308.868 583.598 307.963 602.378 308.143 605.101C309.215 605.879 310.125 608.345 310.125 610.256C310.125 612.168 306.959 621.484 306.832 625.37C307.653 630.366 305.691 629.961 306.832 630.664C307.974 631.366 310.388 633.404 310.125 635.744C309.862 638.084 308.6 641.488 310.125 642.788C311.651 644.088 311.161 646.014 311.319 651.143C311.477 656.271 313.707 656.895 313.859 663.624C314.012 670.354 311.572 678.756 313.859 681.949C316.553 685.177 317.026 685.021 317.015 688.618C317.004 692.214 314.533 695.994 315.153 700.683C313.78 704.204 313.002 704.734 310.125 704.365C309.573 707.815 308.027 745.276 303.456 767.955C298.885 790.633 290.438 825.319 290.381 833.056C290.192 838.519 289.003 841.918 288.24 844.046C287.478 846.172 283.749 890.425 286.623 907.071C286.664 907.308 291.392 905.35 293.369 902.23C295.346 899.109 303.267 893.448 308.143 891.884C313.017 890.321 318.882 884.543 322.316 883.389C325.751 882.235 329.575 875.855 331.789 874.601C332.951 873.876 337.837 863.173 338.826 861.274C339.815 859.377 362.647 816.934 366.187 812.94C369.726 808.946 397.675 761.638 423.978 747.021C424.014 746.416 435.386 740.189 437.563 736.519C439.74 732.849 451.911 712.854 456.492 706.849C456.865 706.345 476.531 665.657 477.919 658.859C478.446 656.28 478.719 655.363 478.798 655.127C478.832 655.051 478.833 655.024 478.798 655.127C478.707 655.335 478.379 655.906 477.919 655.153C476.91 653.496 475.2 647.415 476.268 644.746C477.336 642.078 480.533 631.059 485.54 632.159C486.766 632.276 485.109 626.719 487.954 625.37C488.306 624.927 490.147 619.509 491.336 616.203C492.525 612.897 494.219 610.094 494.755 609.113C495.291 608.132 495.36 599.704 496.775 598.449C498.189 597.195 498.047 594.196 499.315 592.686C500.583 591.176 500.682 586.93 504.774 585.386C505.016 584.608 505.053 580.71 504.774 579.043C504.495 577.376 503.696 572.504 506.126 571.248C505.484 569.496 506.352 568.838 504.774 567.361C503.196 565.885 501.729 559.863 500.819 557.729C499.909 555.594 496.364 551.864 496.775 550.012C497.185 548.159 495.512 542.481 494.755 538.886C493.998 535.292 490.531 527.147 491.336 525.745C492.141 524.343 491.71 512.202 494.755 504.782C495.57 502.743 494.875 499.546 496.775 495.969C498.673 492.392 497.779 487.897 496.775 483.441C495.774 479.003 494.288 478.148 494.749 458.672L494.755 458.443V458.445C494.729 458.334 492.664 434.168 493.566 428.037C494.476 421.852 495.055 412.471 498.163 407.774C498.442 407.099 500.057 398.794 499.315 396.479C498.573 394.164 480.728 388.945 474.169 379.827C467.611 370.709 460.594 361.776 459.406 356.088C458.086 356.762 453.478 359.847 450.911 358.855C448.345 357.862 435.406 353.147 435.643 346.369C435.879 339.592 439.535 336.497 438.783 335.157C436.469 333.237 396.528 307.811 391.663 297.042C383.058 290.884 330.348 256.346 322.316 244.21L322.253 244.521ZM1010.22 715.37L1010.23 715.483C1010.23 715.247 1010.22 715.238 1010.22 715.37ZM150.766 586.57C151.363 586.554 152.803 585.716 152.399 587.929C151.996 590.142 150.896 588.109 150.766 591.768C150.637 595.427 149.739 599.444 148.407 599.757C147.075 600.071 147.196 592.523 148.407 589.87C149.619 587.218 149.307 586.612 150.766 586.57ZM154.379 567.153C154.375 567.155 154.37 567.155 154.366 567.155C154.362 567.155 154.357 567.155 154.353 567.153C154.296 567.136 154.312 567.135 154.379 567.153ZM171.584 507.433L171.592 507.447C171.588 507.43 171.585 507.425 171.584 507.433ZM932.972 349.284C932.983 349.251 938.193 341.978 938.881 341.713C939.569 341.448 938.424 353.052 935.836 352.839C933.249 352.627 932.086 352.105 932.972 349.284ZM930.928 340.301C930.958 340.276 932.674 337.432 932.972 338.915C933.271 340.399 932.108 343.979 930.928 343.746C929.747 343.513 929.318 341.613 930.928 340.301ZM930.883 334.427C931.005 334.373 931.427 335.142 931.607 336.014C931.788 336.887 931.726 337.862 930.883 338.223C929.195 338.945 928.01 335.681 930.883 334.427ZM926.056 322.66C926.127 322.677 928.892 322.364 928.458 326.744C928.023 331.124 926.277 328.265 924.793 330.248C923.31 332.231 922.057 321.696 926.056 322.66ZM1065.91 307.692C1065.98 307.729 1072.7 306.501 1073.32 307.692C1073.94 308.882 1072.76 310.288 1073.32 311.824C1073.89 313.361 1073.03 316.084 1074.41 316.723C1075.79 317.363 1075.76 318.888 1075.7 320.061C1075.65 321.233 1073.59 322.435 1075.7 323.319C1077.82 324.203 1077.26 324.041 1077.18 325.066C1077.1 326.091 1081.26 321.732 1081.56 320.061C1081.85 318.389 1080.28 314.1 1081.56 312.781C1082.83 311.463 1084.29 309.833 1083.77 308.747C1083.26 307.66 1079.09 303.624 1080.12 301.261C1081.16 298.898 1081.09 297.264 1081.56 296.204C1082.03 295.143 1083.55 290.657 1087.33 287.91C1091.11 285.165 1092.2 278.972 1091.46 277.405C1090.73 275.838 1089.16 276.083 1089.22 271.236C1089.27 266.389 1087.26 265.05 1085.4 263.304C1083.54 261.558 1081.22 263.019 1080.12 260.676C1079.03 258.334 1072.15 255.084 1068.45 256.66C1064.76 258.235 1060.3 265.852 1057.51 266.516C1054.71 267.18 1053.98 269.901 1055.53 271.236C1057.07 272.57 1058.05 273.375 1058.47 275.475C1058.89 277.576 1061.43 276.576 1062.08 278.807C1062.73 281.037 1064.18 282.289 1063.51 284.632C1062.83 286.976 1061.55 287.851 1063.51 288.957C1065.47 290.063 1066.37 291.622 1065.91 293.623C1065.45 295.625 1061.39 295.388 1062.08 298.338C1062.76 301.287 1064.82 302.074 1064.56 304.867C1064.3 307.66 1064.6 307.052 1065.91 307.692ZM916.637 298.449C916.69 298.422 918.225 297.419 917.854 301.12C917.483 304.821 919.166 306.598 920.279 309.875C919.532 311.814 917.642 312.233 915.61 312.578C913.579 312.923 912.923 307.4 914.13 304.492C915.339 301.583 912.823 300.294 916.637 298.449ZM264.508 294.782C264.817 294.633 266.601 294.586 266.628 298.253C266.655 301.921 266.472 305.316 264.508 305.186C262.542 305.056 263.048 295.485 264.508 294.782ZM526.031 287.176C526.07 287.062 528.544 293.322 531.963 297.222C532.057 297.229 532.879 301.169 531.963 304.782C529.382 301.361 523.943 293.473 526.031 287.176ZM1086.65 298.338C1086.97 298.412 1087.58 298.814 1087.33 300.111C1087.08 301.407 1086.81 302.668 1086.65 303.142C1086.48 303.616 1085.54 303.449 1085.41 302.201C1085.29 300.952 1085.59 298.098 1086.65 298.338ZM924.698 303.134C924.554 303.095 924.437 300.12 924.698 298.094C924.958 296.069 926.328 274.332 929.551 269.883C932.774 265.434 933.194 259.864 936.512 259.913C939.832 259.962 932.344 263.302 932.407 268.75C932.47 274.198 931.476 277.366 936.512 279.441C934.882 280.961 927.998 287.571 927.433 291.799C926.869 296.027 927.81 303.995 924.698 303.134ZM520.1 276.538C520.17 276.368 521.545 278.266 521.482 284.105C521.42 289.944 523.968 296.91 527.215 300.134C524.659 299.031 515.085 288.858 520.1 276.538ZM929.551 295.404C929.528 295.152 928.996 285.594 938.225 282.431C939.953 282.234 939.18 283.507 936.609 285.902C934.038 288.297 931.447 290.819 931.779 294.124C931.404 295.628 929.773 297.896 929.551 295.404ZM914.33 278.58C914.33 278.591 916.202 283.206 914.33 284.092C912.459 284.978 911.45 286.484 914.33 288.015C917.211 289.545 918.638 290.833 919.444 286.715C920.249 282.597 919.98 276.518 922.59 273.034C925.199 269.55 927.173 266.806 927.713 264.425C928.253 262.044 929.097 256.594 931.119 255.247C933.14 253.899 930.492 251.754 928.876 251.91C927.26 252.066 925.899 255.899 923.829 255.247C921.76 254.594 914.359 254.741 912.926 255.247C911.494 255.753 909.443 257.689 909.897 260.422C910.35 263.154 908.507 270.609 911.31 273.034C914.113 275.459 914.436 276.937 914.33 278.58ZM892.375 250.201C892.471 250.142 894.155 247.943 893.542 251.91C892.93 255.878 893.783 253.895 892.375 253.2C890.966 252.504 890.696 251.228 892.375 250.201ZM914.33 251.91C914.784 252.39 922.57 255.005 925.315 251.91C928.06 248.815 926.859 245.921 922.093 246.396C917.326 246.871 912.169 249.625 914.33 251.91ZM897.921 222.831C897.925 222.783 901.284 222.388 905.025 224.023C908.766 225.659 911.988 224.641 915.675 225.032C919.362 225.423 917.68 226.568 917.487 227.377C917.294 228.184 909.701 231.245 907.278 233.311C904.855 235.377 899.936 238.151 898.871 239.631C897.807 241.111 892.764 240.469 891.348 241.859C889.932 243.247 889.821 235.985 891.348 234.402C892.875 232.819 897.56 227.175 897.921 222.831ZM1073.9 229.162C1073.92 229.128 1080.55 228.253 1082.12 231.668C1081.44 233.384 1080.99 235.291 1078.28 234.988C1075.57 234.685 1071.36 234.235 1073.9 229.162ZM889.464 224.023C889.825 223.875 894.656 220.481 895.137 221.674C895.618 222.867 894.339 226.543 891.788 228.79C889.239 231.038 888.861 231.733 888.339 231.106C887.817 230.479 887.886 224.667 889.464 224.023ZM916.087 219.113C916.082 219.113 908.345 218.287 907.582 217.504C906.818 216.72 906.083 211.255 912.932 210.695C918.751 212.396 931.069 214.382 934.471 219.113C932.973 220.502 929.371 223.002 927.69 225.403C926.457 225.372 925.418 225.37 923.552 224.023C921.687 222.677 919.885 218.757 916.087 219.113ZM897.839 216.789C897.849 216.901 901.83 216.542 903.645 217.504C903.769 215.714 904.855 210.507 907.582 209.932C905.741 209.31 897.452 207.481 895.795 208.561C894.138 209.641 897.443 212.631 897.839 216.789Z" fill="#65A6D6"/>
</mask>
<g mask="url(#mask0)">
<rect x="-108" y="-17" width="1304" height="870" fill="#65A6D6"/>
</g>
</svg>
