<svg width="1218" height="651" viewBox="0 0 1218 651" fill="none" xmlns="http://www.w3.org/2000/svg">
<path fill-rule="evenodd" clip-rule="evenodd" d="M702.763 453.781C701.516 453.399 702.982 454.412 704.238 453.011C705.649 451.437 698.663 451.162 697.921 450.55C697.18 449.938 698.504 449.145 700.356 448.087C702.209 447.029 697.445 447.911 696.21 445.707C696.21 445.707 704.326 445.505 707.59 442.873C710.854 440.242 717.647 434.247 718.441 428.782C719.235 423.317 719.059 417.146 718.441 411.416C717.824 405.686 716.765 403.835 716.765 403.835C716.765 403.835 710.149 399.274 708.649 391.02C707.149 382.767 710.678 373.335 715.442 367.076C720.206 360.817 725.852 353.766 725.852 353.766C725.852 353.766 726.116 328.995 728.233 326.703C730.351 324.411 731.233 327.375 731.233 324.13C731.233 320.885 732.909 319.89 735.644 317.655C738.379 315.42 752.141 308.544 760.698 308.103C769.255 307.663 772.608 309.192 780.371 313.143C786.017 313.304 791.575 315.772 796.603 318.681C801.632 321.59 809.924 327.761 812.042 332.697C814.159 337.634 810.012 366.952 817.335 378.782C820.599 384.266 814.961 374.883 830.304 369.706C830.304 369.706 831.8 368.83 832.959 367.076C834.119 365.322 834.733 364.403 835.755 363.704C836.778 363.005 851.714 349.512 853.623 348.899C854.987 345.901 856.761 342.698 857.783 341.131C858.806 339.563 859.829 335.474 861.057 334.316C862.284 333.157 865.763 331.931 866.717 328.728C867.672 325.525 868.422 323.822 867.536 323.072C866.649 322.323 859.557 322.118 857.783 321.028C856.01 319.938 850.35 314.895 851.305 309.92C852.26 304.945 861.33 297.518 862.83 295.882C862.625 293.838 861.875 267.007 862.83 263.591C863.785 260.174 867.808 255.404 875.992 251.86C884.176 248.317 895.156 246.613 901.362 247.703C907.568 248.794 918.684 248.794 922.981 252.882C927.277 256.971 929.664 261.878 930.141 266.034C930.619 270.191 930.21 279.323 931.505 281.435C932.801 283.548 943.031 295.454 943.917 300.336C944.804 305.218 943.917 304.53 943.917 304.53C943.917 304.53 940.478 300.959 937.451 301.968C934.423 302.976 927.864 312.013 926.729 315.687C925.594 319.361 925.846 324.238 925.467 327.849C925.089 331.461 922.819 338.826 921.305 341.131C919.791 343.435 917.142 348.981 916.386 350.62C915.629 352.258 912.727 350.105 914.494 353.766C916.26 357.426 918.404 360.199 921.305 361.963C924.206 363.728 932.405 365.222 937.451 369.706C942.496 374.189 942.151 395.155 942.02 401.842C941.889 408.53 937.558 428.854 938.871 432.263C940.839 431.608 944.12 429.772 946.875 426.887C949.631 424.002 950.419 423.949 953.437 424.238C953.83 422.429 952.912 420.068 956.717 415.217C960.523 410.365 969.578 399.613 972.333 397.384C975.089 395.155 979.945 388.467 988.474 388.205C998.841 385.583 1007.63 382.209 1010.26 380.618C1012.88 379.026 1024.96 377.239 1025.48 374.33C1026.01 371.421 1025.22 371.138 1023.51 369.706C1021.81 368.274 1013.15 360.538 1013.15 355.293C1013.15 350.047 1015.11 349.849 1013.15 348.899C1011.18 347.949 1000.94 338.647 1000.68 334.316C1000.42 329.985 1000.68 325.469 1003.83 323.072C1006.98 320.675 1007.24 319.473 1008.68 316.271C1010.13 313.07 1020.89 301.763 1023.51 300.336C1026.14 298.908 1022.72 296.041 1023.51 293.672C1024.3 291.303 1026.27 291.7 1027.06 289.338C1027.84 286.976 1028.37 284.156 1029.81 281.435C1031.25 278.715 1030.6 278.206 1032.44 277.018C1034.27 275.83 1034.8 274.789 1035.45 272.687C1036.11 270.585 1035.98 270.323 1038.08 269.798C1040.18 269.274 1074.03 265.471 1084.01 269.798C1093.98 274.125 1091.23 275.321 1095.03 277.018C1098.84 278.715 1108.68 296.125 1110.52 300.336C1112.35 304.547 1113.53 321.454 1115.5 326.703C1117.47 331.952 1112.48 335.624 1114.19 339.557C1115.9 343.491 1110.65 341.524 1111.83 346.507C1113.01 351.49 1108.81 351.228 1106.71 355.293C1104.61 359.357 1100.67 366.928 1098.18 367.076C1095.69 367.225 1091.36 369.706 1091.36 369.706C1091.36 369.706 1096.87 373.306 1100.41 376.953C1103.95 380.6 1114.32 385.845 1123.51 388.205C1132.69 390.565 1143.85 402.358 1145.68 406.755C1147.52 411.152 1243.34 391.02 1243.34 391.02L1295.83 694.981H0V469.7L35.153 495.657C35.153 495.657 39.2999 480.534 38.6001 476.862C37.9001 473.191 31.164 469.607 29.5019 468.208C27.8395 466.81 15.1545 462.788 11.6553 456.145C8.15587 449.501 11.3053 445.305 14.1047 440.497C16.9044 435.69 24.4278 423.014 24.9526 421.091C25.4776 419.168 25.9149 410.339 27.4022 406.755C28.8893 403.171 31.2515 393.905 31.2515 391.02C31.2515 388.136 31.181 381.492 35.153 378.782C39.1249 376.072 60.0334 372.751 66.7695 373.45C73.5056 374.149 82.6914 376.334 91.7022 380.618C100.713 384.901 104.737 389.796 107.012 393.381C109.286 396.964 108.586 403.084 108.324 406.755C108.061 410.427 107.362 421.091 107.012 424.238C106.662 427.385 104.912 444.868 105.875 450.55C106.837 456.232 107.537 460.166 108.324 463.051C109.111 465.935 107.624 469.694 105.875 471.18C104.125 472.666 99.4882 471.617 99.6632 475.551C99.8382 479.485 97.8261 485.342 98.2633 487.789C98.7009 490.237 108.212 498.488 113.064 500.751C117.915 503.013 143.143 504.144 147.509 507.861C151.875 511.577 158.505 516.91 160.608 521.434C162.71 525.959 175.809 555.853 179.205 563.286C182.601 570.719 192.627 593.18 194.73 595.927C196.832 598.674 192.789 599.644 189.07 600.29C185.35 600.936 182.439 603.36 181.631 605.461C180.822 607.562 279.792 677.53 279.792 677.53C279.792 677.53 279.306 650.868 279.792 641.011C280.277 631.154 278.174 588.656 277.366 582.192C276.557 575.728 270.25 567.649 268.795 556.661C267.34 545.673 257.151 525.312 253.432 517.394C249.713 509.477 241.465 481.683 240.495 479.421C239.525 477.159 207.99 427.55 203.624 418.178C198.125 411.068 196.023 405.068 189.07 391.02C182.116 376.973 163.842 332.212 160.608 327.849C157.373 323.487 159.613 324.233 156.887 324.13C156.887 324.13 156.527 318.734 156.322 317.655C156.116 316.576 143.927 305.937 141.458 300.336C138.989 294.734 139.555 292.267 141.458 289.338C143.361 286.408 142.127 284.815 143.412 283.531C144.698 282.246 145.007 278.574 146.498 277.018C147.99 275.462 148.247 274.229 148.298 272.687C148.35 271.145 147.475 264.824 148.298 263.591C149.121 262.357 152.721 259.942 156.322 259.736C155.91 258.04 150.974 0.0378418 150.974 0.0378418H554.609L561.224 263.591C561.224 263.591 565.727 261.786 567.979 264.932C570.231 268.077 567.979 271.953 566.149 272.687C564.32 273.421 569.668 272.296 569.527 279.328C569.386 286.359 571.216 280.312 572.201 287.625C573.186 294.938 572.905 291.281 574.734 293.672C574.875 297.891 574.4 298.58 573.496 299.695C573.869 302.511 574.772 303.202 573.496 304.53C572.22 305.858 564.776 313.987 564.776 313.987V315.687L560.151 316.271C560.151 316.271 535.01 362.263 529.726 376.123C531.707 376.289 533.426 375.187 536.859 374.33C540.291 373.472 562.803 373.069 568.961 376.953C575.119 380.836 578.804 387.839 581.731 391.02C581.731 391.02 585.365 396.774 586.123 400.103C586.88 403.432 586.425 415.625 587.334 418.178C588.243 420.732 589.505 428.196 589.656 430.062C589.807 431.928 592.937 435.055 593.088 442.873C593.24 450.691 593.24 451.246 593.643 453.011C594.047 454.776 592.23 457.702 590.766 460.223C589.303 462.745 581.731 468.685 581.731 469.7C581.731 470.714 581.075 472.328 580.873 473.438C580.671 474.547 576.229 476.101 575.371 476.862C574.513 477.624 572.595 480.146 571.384 480.852C570.172 481.558 565.862 483.172 566.149 484.786C566.437 486.4 572.076 492.553 573.496 495.025C574.917 497.496 584.861 505.465 588.041 505.566C591.221 505.666 601.77 507.734 603.537 508.592C605.303 509.449 607.305 511.251 608.013 515.849C609.841 515.672 623.939 517.028 625.296 518.737C626.653 520.446 638.155 533.767 639.394 536.183C640.632 538.6 645.175 546.262 645.764 547.736C646.354 549.209 651.014 558.758 651.84 559.819C652.666 560.88 651.014 564.711 649.775 566.715C648.537 568.719 642.402 577.324 642.402 577.324L680.506 581.283C680.506 581.283 682.094 577.934 681.388 576.347C680.683 574.76 679.359 574.407 680.506 572.204C681.653 570 684.653 564.77 683.947 563.286C683.241 561.802 672.655 558.54 672.655 558.54C672.655 558.54 674.419 555.631 675.125 551.224C675.831 546.816 678.124 531.213 681.388 526.365C684.653 521.517 690.74 496.747 693.121 493.044C695.503 489.342 702.385 477.363 707.589 475.551C712.794 473.739 714.118 472.536 715.441 469.7C716.764 466.863 720.028 463.822 724.086 463.051C728.145 462.279 730.791 462.134 731.232 460.223C731.673 458.313 724.969 460.223 724.969 460.223C724.969 460.223 714.206 463.822 706.442 463.051C698.679 462.279 711.471 462.015 713.5 457.255C712.265 456.373 710.412 454.522 707.589 453.993C704.766 453.464 705.56 454.875 703.355 453.993C703.112 453.896 702.917 453.828 702.762 453.781H702.763ZM424.878 607.192C424.878 607.192 419.472 579.282 419.772 574.48C420.073 569.678 430.434 526.763 433.137 522.412C435.84 518.06 441.247 509.657 441.997 505.006C442.748 500.354 450.707 481.597 452.359 479.347C454.011 477.096 491.103 435.681 498.161 419.926C498.611 422.777 498.761 429.079 500.413 432.23C497.56 435.381 492.304 443.484 492.905 450.086C493.505 456.688 502.065 466.892 511.826 470.043C512.727 476.045 511.826 484.298 511.826 484.298C511.826 484.298 499.062 499.604 495.457 503.205C491.853 506.806 479.239 512.958 474.134 518.661C466.926 521.361 463.472 521.661 460.318 522.412C457.164 523.162 448.755 525.863 446.202 528.864C443.649 531.865 439.745 535.916 438.844 543.119C435.09 552.122 427.131 574.18 426.98 585.584C426.83 596.988 425.479 603.74 424.878 607.192ZM373.462 460.223C373.462 460.223 369.786 464.401 374.983 464.655C380.18 464.908 383.222 465.794 386.011 467.188C388.8 468.581 387.659 467.441 389.434 465.921C391.209 464.401 396.279 461.492 399.195 460.223C402.11 458.955 406.166 456.295 409.335 455.661C412.505 455.028 417.382 453.888 419.76 452.495C422.138 451.101 423.786 449.835 425.941 448.695C428.096 447.555 431.899 441.855 434.688 440.715C437.477 439.575 436.97 439.702 439.251 437.548C441.533 435.395 455.73 417.156 458.773 415.256C461.815 413.355 474.998 403.982 478.041 398.282C481.083 392.583 481.717 385.109 486.027 379.41C490.336 373.71 518.097 338.37 520.126 335.457C522.154 332.544 530.267 316.584 530.267 316.584L183.066 325.071C183.066 325.071 203.475 361.55 210.447 368.77C217.419 375.99 216.785 382.196 217.926 385.109C219.067 388.023 227.433 403.222 230.475 405.882C233.518 408.542 243.405 419.689 248.095 426.275C252.785 432.862 261.532 447.555 263.053 450.341C264.574 453.128 273.448 455.788 277.377 457.308C281.307 458.828 284.349 462.375 289.673 464.655C294.997 466.935 299.18 467.821 300.955 469.215C302.73 470.608 303.997 470.481 305.392 469.215C306.786 467.948 312.237 464.021 315.659 463.388C319.082 462.755 320.476 463.388 320.476 463.388C320.476 463.388 321.997 458.448 320.476 455.661C318.955 452.875 315.406 449.582 315.659 446.415C315.913 443.248 315.406 438.055 314.138 437.548C312.87 437.042 309.575 440.842 307.039 435.015C304.504 429.189 303.237 420.575 303.87 417.409C303.87 417.409 305.265 413.609 307.039 414.242C307.039 414.242 305.392 396.636 309.701 387.263C314.011 377.889 325.927 367.813 333.279 365.856C340.631 363.9 357.744 363.393 370.547 373.653C383.35 383.913 381.322 384.166 383.224 392.146C385.125 400.126 387.153 410.372 386.012 414.242C384.871 418.112 382.716 422.405 383.224 426.275C383.731 430.146 382.083 436.225 380.688 439.265C379.294 442.305 378.787 446.725 378.28 448.695C377.773 450.665 376.505 457.748 373.463 460.223H373.462Z" fill="#D03854"/>
<path fill-rule="evenodd" clip-rule="evenodd" d="M737.38 516.407C737.38 516.407 739.032 512.98 737.38 509.552C735.728 506.125 728.996 493.686 727.217 492.162C725.439 490.639 723.66 489.877 725.185 487.593C726.709 485.308 717.69 484.546 715.149 482.134C712.609 479.723 707.875 477.055 707.495 475.318C707.115 473.582 708.038 472.954 707.495 472.02C706.952 471.086 707.495 470.924 707.495 469.567C707.495 468.211 707.658 466.963 708.744 466.095C709.83 465.227 711.187 464.63 711.078 463.057C710.97 461.483 708.581 456.112 708.744 454.756C708.906 453.399 710.644 451.446 711.078 448.408C711.513 445.37 711.187 437.982 710.318 436.309C709.449 434.636 718.083 438.361 721.069 436.309C724.056 434.256 717.594 428.776 710.318 428.722C710.318 428.722 707.169 427.908 706.354 427.528C705.54 427.149 696.961 417.491 694.409 415.864C691.857 414.236 682.029 412.174 673.124 413.802C673.124 413.802 667.478 416.135 664.708 418.142C661.939 420.15 656.672 427.8 655.858 431.543C655.043 435.287 654.012 444.348 654.175 446.518C654.338 448.688 655.695 452.703 656.781 454.059C657.867 455.416 657.215 459.539 656.781 460.841C656.347 462.143 653.36 462.415 653.415 464.965C653.415 464.965 652.546 465.869 652.111 463.057C651.677 460.244 647.768 459.811 644.944 459.268C642.121 458.725 639.08 458.834 637.505 456.121C635.931 453.408 633.705 448.146 632.565 445.813C631.424 443.479 630.555 439.79 627.786 437.023C626.212 432.411 624.8 429.265 624.42 427.528C624.04 425.792 623.388 415.375 621.162 410.438C618.936 405.501 613.506 393.293 612.746 390.146C611.986 387 611.443 381.303 611.226 378.698C611.008 376.094 611.388 375.335 612.746 374.195C614.103 373.056 615.841 371.916 615.786 370.018C615.732 368.119 615.841 366.6 615.786 364.972C615.732 363.344 615.732 361.065 615.786 359.763C615.841 358.461 615.786 356.02 615.786 356.02C615.786 356.02 613.398 350.648 612.149 349.617C610.9 348.587 611.226 348.858 611.226 348.858L607.981 238.312C607.981 238.312 623.774 260.891 631.711 268.255C639.648 275.62 650.096 292.534 667.428 294.962C669.939 296.823 676.661 300.95 678.929 302.083C681.196 303.216 681.196 300.626 683.302 301.031C685.732 302.326 697.718 300.06 699.905 299.332C702.092 298.603 707.135 293.262 706.354 287.112C705.575 280.961 702.983 268.336 703.874 262.995C704.765 257.654 710.346 246.81 711.078 244.22C711.811 241.63 715.131 234.994 712.702 228.924C710.272 222.855 708.744 217.19 708.744 217.19C708.744 217.19 697.579 217.271 694.409 211.525C691.239 205.779 694.501 196.148 694.409 190.484C694.317 184.819 692.13 180.853 689.863 179.477C687.595 178.102 672.369 167.662 667.428 159.407C667.428 159.407 664.943 158.193 662.756 154.066C660.569 149.939 642.994 121.452 640.565 118.539C638.135 115.625 622.77 101.463 612.149 97.0119C601.527 92.5607 604.2 95.555 603.552 92.9655C602.904 90.3758 599.745 90.052 599.745 90.052C599.745 90.052 597.397 88.2717 597.64 94.7459C597.883 101.22 598.774 130.759 598.774 130.759C598.774 130.759 600.798 216.219 600.879 219.294C601.527 221.641 601.932 221.884 601.851 223.34C601.77 224.797 604.362 349.617 604.362 349.617C604.362 349.617 597.64 348.617 595.858 350.883C594.076 353.149 594.643 354.44 594.805 356.02C594.967 357.6 594.643 358.895 594.805 360.756C594.967 362.617 595.696 366.816 595.858 370.018C596.02 373.219 596.668 377.912 596.83 381.231C596.992 384.549 596.344 422.275 596.83 427.528C597.316 432.782 606.711 466.367 606.711 468.552C606.711 470.737 594.238 479.442 603.552 487.593C612.866 495.744 613.919 493.72 614.405 499.871C614.891 506.021 612.746 538.554 612.746 538.554L607.981 604.86C607.981 604.86 748.935 572.683 745.765 544.436C742.596 516.19 738.854 526.828 737.38 516.407Z" fill="#D03854"/>
</svg>
